<svg width="64" height="64" viewBox="0 0 64 64" fill="none" xmlns="http://www.w3.org/2000/svg">
<g id="Rando" filter="url(#filter0_d_1473_32285)">
<rect x="10" y="10" width="44" height="44" rx="22" fill="#3F4A55"/>
<rect x="10" y="10" width="44" height="44" rx="22" fill="url(#paint0_linear_1473_32285)"/>
<path id="Vector" d="M42.5038 30.4396C42.944 30.4658 42.8922 29.3675 42.8922 29.289C42.8922 29.2106 42.9699 28.6353 43.1252 28.3999C43.2806 28.1907 43.4619 27.1709 43.4619 27.1709C43.4619 27.1709 44.1869 26.2295 43.9538 26.0726C43.7208 25.9157 43.2547 25.8895 42.8922 25.7588C42.5297 25.628 42.2708 25.7065 42.0636 25.628C41.8565 25.5496 41.4422 25.5757 41.2091 25.3665C41.002 25.1573 40.6913 24.8435 40.3547 24.7389C40.0181 24.6343 39.4225 24.4513 39.2413 24.4774C39.0341 24.5036 38.8788 24.2159 38.6716 24.0329C38.4645 23.876 38.1278 23.7191 38.0243 23.6145C37.9207 23.5099 37.9725 22.9869 37.9207 22.8561C37.8689 22.6992 37.5841 23.1438 37.5323 23.1699C37.4805 23.1961 37.2216 23.2745 36.9368 23.2484C36.6519 23.2222 36.7555 22.8823 36.7555 22.5162C36.7555 22.1501 36.1341 22.1501 35.9787 22.1762C35.8233 22.2024 35.8751 21.9147 35.8233 21.784C35.7716 21.6532 35.4349 21.7055 35.2796 21.6271C35.1242 21.5748 35.0983 20.921 35.0207 20.8687C34.943 20.8164 34.5546 21.0779 34.3992 20.9733C34.2439 20.8687 34.0367 20.0581 33.9849 20.0058C33.9331 19.9535 32.5608 20.2673 32.3019 20.4503C32.0429 20.6334 32.0947 21.8886 31.9135 22.4639C31.7581 23.0392 30.2304 23.2745 29.7125 23.536C29.1947 23.7975 29.1947 24.399 29.1947 24.399C29.1947 24.399 29.1688 24.582 28.9875 24.6866C28.8063 24.7912 28.5732 24.7912 28.392 24.6343C28.1848 24.4513 27.8223 24.5036 27.6411 24.4774C27.4598 24.4513 27.3821 24.2421 27.2009 24.3467C27.0196 24.4251 27.0196 24.5559 26.8643 24.1636C26.7348 23.7714 26.9161 23.9544 26.8902 23.5883C26.8643 23.2222 26.3723 23.4837 26.2687 23.5099C26.191 23.5622 25.958 23.3268 25.6991 23.2745C25.4401 23.2222 25.8026 23.4576 25.7509 23.6668C25.6991 23.876 25.7768 24.0852 25.9062 24.399C26.0357 24.7128 26.0357 25.0527 26.0875 25.1835C26.1393 25.3142 25.9321 25.628 26.0875 26.0987C26.2687 26.5694 26.0875 26.4125 25.7768 26.4648C25.466 26.5171 25.5178 26.1772 25.466 26.1249C25.4142 26.0726 25.3366 26.0987 25.233 26.2033C25.1294 26.3079 24.7928 26.2033 24.5857 26.0987C24.3785 25.9941 23.9642 26.491 23.8865 26.491C23.8089 26.5171 23.7053 26.1772 23.6794 26.0726C23.6276 25.968 23.4723 25.7588 23.3169 25.5496C23.1615 25.3665 23.291 25.4711 22.7472 25.445C22.2294 25.4188 22.5401 25.4973 22.3847 25.6803C22.2294 25.8634 22.0481 25.7588 21.9446 25.7065C21.841 25.6542 21.7892 25.7849 21.6856 25.8111C21.582 25.8111 21.6079 25.6542 21.4785 25.628C21.349 25.6019 21.0642 25.7065 20.9088 25.7065C20.7535 25.7065 20.5722 25.8634 20.3133 25.8372C20.0543 25.8111 20.0543 26.0726 20.0026 26.3602C19.9508 26.6217 20.7017 26.8309 20.8311 27.014C20.9606 27.197 20.5722 27.197 20.2097 27.2493C19.8472 27.3016 20.1838 27.4062 20.2874 27.4324C20.3651 27.4847 20.5981 27.7723 20.5981 27.9292C20.5981 28.0861 20.9347 28.0077 21.0901 27.9815C21.2454 27.9554 21.4008 27.9554 21.4526 28.1123C21.4785 28.2692 21.7374 28.1907 21.8151 28.243C21.8928 28.3215 22.0999 28.4784 22.2812 28.5307C22.4624 28.5568 22.799 28.8445 23.0321 29.0275C23.2651 29.2106 23.8607 29.2106 23.9642 29.2367C24.0419 29.2629 24.0678 29.3936 23.8865 29.7597C23.7053 30.1258 24.4562 30.1258 24.4303 30.2827C24.3785 30.4396 24.7928 30.6488 24.7928 30.7273C24.7928 30.8057 24.6375 31.0149 24.5598 31.2764C24.4821 31.5379 24.9223 32.0086 24.9741 32.244C25.0259 32.4793 25.7509 32.8977 26.0098 32.9762C26.2687 33.0546 26.1652 33.2638 26.1393 33.3946C26.1134 33.5253 26.2687 33.8914 26.2946 34.0483C26.3205 34.2052 26.1652 34.4929 26.0875 34.4406C26.0098 34.3883 25.9062 34.5452 25.9062 34.6236C25.9062 34.7021 26.45 35.1728 26.5794 35.2774C26.683 35.382 26.8384 35.5912 26.8384 36.1665C26.8384 36.7418 26.7348 36.5326 26.683 36.1142C26.6312 35.6958 26.2946 35.382 26.2169 35.2774C26.1393 35.1728 26.1134 35.1466 26.0616 35.2251C26.0098 35.3035 25.9062 36.088 25.8803 36.1665C25.8544 36.2449 25.8285 36.6372 25.6732 37.1863C25.5178 37.7355 25.5955 37.657 25.6732 37.5786C25.7509 37.474 25.725 37.1863 25.8803 37.3694C26.3464 37.8924 25.8803 37.7355 25.7509 37.7616C25.6473 37.7878 25.6473 37.8662 25.5696 37.997C25.4919 38.1277 25.5178 38.6246 25.4401 38.7815C25.3366 38.9384 25.1812 39.749 25 40.3505C24.8187 40.9258 24.3785 41.135 24.3785 41.135C23.8089 41.3703 24.5339 41.4226 24.741 41.5272C24.9741 41.6318 24.8705 41.7103 24.7669 41.9456C24.6633 42.2071 24.8446 42.1548 24.9741 42.1548C25.1294 42.181 25.4401 42.181 25.4919 42.364C25.5696 42.5471 25.6991 42.5209 25.8285 42.5209C25.958 42.5209 26.0616 42.5471 26.0875 42.6778C26.1134 42.8086 26.3723 42.9916 26.4241 43.0701C26.4759 43.1485 26.9161 42.9655 27.0973 43.1224C27.2786 43.2531 27.667 43.4362 27.8223 43.4623C27.9777 43.4623 28.7545 43.6192 28.9616 43.5931C29.1688 43.5408 28.9357 43.2008 29.2723 43.2008C29.609 43.2008 29.9197 43.6454 30.1527 43.6454C30.3858 43.6454 30.4375 43.933 30.5929 43.933C30.7483 43.933 30.9554 43.9069 31.0331 43.9853C31.1108 44.0376 31.0331 44.2206 31.1626 44.3253C31.292 44.456 31.6545 44.7436 31.9394 44.6129C32.2242 44.456 32.8974 44.9267 33.0269 44.8482C33.1563 44.7698 33.3376 44.5345 33.8296 44.639C34.3215 44.7437 34.0108 44.4037 33.9331 44.3514C33.8037 44.2468 33.8037 44.2207 33.8037 43.5931C33.8037 42.9655 33.959 42.8347 34.0885 42.5994C34.218 42.364 34.7876 42.2333 34.9689 41.9979C35.1501 41.7626 36.0046 41.3703 36.0046 41.3703C36.3671 41.3703 36.0046 41.6841 36.3153 41.7887C36.9109 41.9456 36.6778 41.6318 36.9368 41.5272C37.1957 41.4226 37.118 41.7626 37.118 41.8933C37.1439 42.0241 37.5323 42.3379 37.4805 42.1287C37.4546 41.9195 37.7394 41.8933 37.7912 41.9718C37.843 42.0764 37.7653 42.2333 38.1278 42.181C38.5162 42.1287 38.4904 42.2333 38.4904 42.4425C38.4904 42.6517 39.0859 42.6517 39.293 42.7301C39.5002 42.8347 39.9145 42.9393 40.0698 42.9655C40.2252 42.9655 40.8207 42.8347 41.002 42.704C41.1833 42.5732 41.235 42.3902 41.2091 42.3379C41.1833 42.2856 41.3127 41.9979 41.5199 41.9979C41.727 41.9979 41.8047 41.7887 41.9342 41.658C42.0636 41.5272 42.5038 41.1873 42.8145 41.0827C43.1252 40.9519 42.8663 40.612 42.9958 40.5074C43.1252 40.4028 43.2806 40.0367 43.1511 39.9059C43.0217 39.7752 42.8145 40.0367 42.4002 39.9844C42.0118 39.9321 41.8306 39.6706 41.7529 39.5398C41.6493 39.4091 41.6752 39.0691 41.5717 38.8599C41.4681 38.6507 41.7011 38.5723 41.8306 38.3631C41.9342 38.1277 41.8306 38.0231 41.494 37.8401C41.1574 37.6832 41.3904 37.6309 41.2609 37.474C41.1056 37.3171 41.0538 37.0294 41.3127 37.0556C41.5717 37.0817 41.4422 36.951 41.8047 36.8987C42.1672 36.8464 42.0895 36.7156 42.0895 36.4803C42.0895 36.2449 41.8047 35.8527 41.727 35.6696C41.6493 35.4866 41.3386 35.2774 41.6752 35.0159C42.0118 34.7544 41.7529 34.519 41.6234 34.4144C41.494 34.3098 41.494 34.1791 41.494 33.7345C41.494 33.29 40.9761 33.473 40.8207 33.473C40.6654 33.473 40.3806 33.5776 40.3806 33.6822C40.3806 33.7868 40.5618 34.0222 40.0439 34.0483C39.552 34.0745 39.8627 33.8914 39.9404 33.7607C40.0181 33.6299 39.9663 33.4992 39.9663 33.4207C39.9663 33.3423 40.3547 32.6101 40.5877 32.4793C40.8207 32.3486 40.6913 31.8256 40.9761 31.7994C41.2868 31.7733 41.5975 31.1457 41.7788 30.9365C41.9601 30.7273 41.6234 30.675 41.727 30.4658C41.8306 30.2566 42.0636 30.4135 42.5038 30.4396Z" fill="#E3F5EF"/>
<rect x="10.5" y="10.5" width="43" height="43" rx="21.5" stroke="white"/>
</g>
<defs>
<filter id="filter0_d_1473_32285" x="0" y="0" width="64" height="64" filterUnits="userSpaceOnUse" color-interpolation-filters="sRGB">
<feFlood flood-opacity="0" result="BackgroundImageFix"/>
<feColorMatrix in="SourceAlpha" type="matrix" values="0 0 0 0 0 0 0 0 0 0 0 0 0 0 0 0 0 0 127 0" result="hardAlpha"/>
<feOffset/>
<feGaussianBlur stdDeviation="5"/>
<feComposite in2="hardAlpha" operator="out"/>
<feColorMatrix type="matrix" values="0 0 0 0 0 0 0 0 0 0 0 0 0 0 0 0 0 0 0.15 0"/>
<feBlend mode="normal" in2="BackgroundImageFix" result="effect1_dropShadow_1473_32285"/>
<feBlend mode="normal" in="SourceGraphic" in2="effect1_dropShadow_1473_32285" result="shape"/>
</filter>
<linearGradient id="paint0_linear_1473_32285" x1="54" y1="32" x2="10" y2="32" gradientUnits="userSpaceOnUse">
<stop offset="0.489483" stop-color="#26A581"/>
<stop offset="0.489583" stop-opacity="0"/>
</linearGradient>
</defs>
</svg>
