<svg width="19" height="24" viewBox="0 0 19 24" fill="none" xmlns="http://www.w3.org/2000/svg">
<g clip-path="url(#clip0_203_922)">
<path d="M17.7446 13.6993C17.2188 12.9666 16.5522 12.8424 16.4777 12.8341L10.9176 12.6395V11.8156C12.8966 10.8593 14.2711 8.8348 14.2711 6.49154C14.2711 3.22505 11.6132 0.571289 8.35082 0.571289C5.08433 0.571289 2.43057 3.22919 2.43057 6.49154C2.43057 8.78926 3.7471 10.7765 5.66393 11.7577C5.66807 13.2108 5.68049 14.664 5.68878 15.7321C5.10917 15.2105 4.35154 14.6971 3.4987 14.5563C2.69967 14.428 1.95032 14.6267 1.26722 15.1484L1.21754 15.1898C0.745571 15.6369 0.488889 16.1999 0.476469 16.8209C0.451629 18.1996 1.6067 19.4209 1.73918 19.5575L5.54387 23.4284H7.28683L2.62515 18.684C2.36847 18.419 1.70192 17.5703 1.71848 16.8416C1.72262 16.5601 1.83026 16.3283 2.04968 16.1171C2.44713 15.8232 2.85285 15.7114 3.29583 15.7818C4.40122 15.9598 5.48591 17.2474 5.80884 17.7276L6.96391 19.454L6.94321 17.3757C6.94321 17.3343 6.90181 13.0369 6.90181 9.76217C6.90181 9.40199 6.89767 9.05836 6.89353 8.7313C6.87697 7.15395 6.86455 5.91194 7.30339 5.46895C7.36963 5.40271 7.56421 5.20399 8.22662 5.20399C8.55782 5.20399 8.81036 5.30749 9.0215 5.52691C9.60111 6.12722 9.69219 7.42719 9.67563 7.89501V13.836L16.2997 14.0595C16.7427 14.192 17.4134 15.0531 16.9704 17.4709C16.399 20.6256 15.7408 22.7743 15.5338 23.4202H16.8379C17.1277 22.4721 17.6907 20.4807 18.1958 17.6945C18.5187 15.9225 18.3697 14.577 17.7446 13.6993ZM8.22662 3.96612C7.43173 3.96612 6.84384 4.17312 6.42156 4.59955C5.61839 5.40685 5.63495 6.81032 5.65565 8.74786C5.65979 9.07078 5.66393 9.41027 5.66393 9.76631C5.66393 9.94433 5.66393 10.1306 5.66393 10.3169C4.46332 9.46823 3.67672 8.07304 3.67672 6.49568C3.67258 3.9123 5.77158 1.8133 8.35082 1.8133C10.9301 1.8133 13.0291 3.9123 13.0291 6.49154C13.0291 8.12272 12.1886 9.55931 10.9176 10.3956V7.924C10.9259 7.70457 10.9673 5.75876 9.91989 4.66993C9.47691 4.21038 8.88902 3.96612 8.22662 3.96612Z" fill="#3F4A55"/>
</g>
</svg>
