<svg width="64" height="64" viewBox="0 0 64 64" fill="none" xmlns="http://www.w3.org/2000/svg">
<g id="Rando">
<path id="Vector" d="M32.5 20C33.0312 20 33.4617 20.4304 33.4617 20.9617L33.4624 21.9663C38.5356 22.4241 42.5759 26.4637 43.0337 31.5376L44.0383 31.5383C44.5696 31.5383 45 31.9688 45 32.5C45 33.0312 44.5696 33.4617 44.0383 33.4617L43.0337 33.4624C42.5759 38.5356 38.5363 42.5759 33.4624 43.0337L33.4617 44.0383C33.4617 44.5696 33.0312 45 32.5 45C31.9688 45 31.5383 44.5696 31.5383 44.0383L31.5376 43.0337C26.4644 42.5759 22.4241 38.5363 21.9663 33.4624L20.9617 33.4617C20.4304 33.4617 20 33.0312 20 32.5C20 31.9688 20.4304 31.5383 20.9617 31.5383L21.9663 31.5376C22.4241 26.4644 26.4637 22.4241 31.5376 21.9663L31.5383 20.9617C31.5383 20.4304 31.9688 20 32.5 20ZM33.4624 23.899L33.4617 26.7308C33.4617 27.262 33.0312 27.6925 32.5 27.6925C31.9688 27.6925 31.5383 27.262 31.5383 26.7308L31.5376 23.899C27.5277 24.3427 24.3435 27.5269 23.8998 31.5368L26.7316 31.5376C27.2628 31.5376 27.6933 31.968 27.6933 32.4992C27.6933 33.0304 27.2628 33.4609 26.7316 33.4609L23.8998 33.4617C24.3435 37.4716 27.5277 40.6557 31.5376 41.0995L31.5383 38.2676C31.5383 37.7364 31.9688 37.306 32.5 37.306C33.0312 37.306 33.4617 37.7364 33.4617 38.2676L33.4624 41.0995C37.4723 40.6557 40.6565 37.4716 41.1002 33.4617L38.2684 33.4609C37.7372 33.4609 37.3067 33.0304 37.3067 32.4992C37.3067 31.968 37.7372 31.5376 38.2684 31.5376L41.1002 31.5368C40.6565 27.5269 37.4723 24.3427 33.4624 23.899Z" fill="#3F4A55"/>
</g>
</svg>
