<?xml version="1.0" encoding="UTF-8"?>
<svg width="24px" height="24px" viewBox="0 0 24 24" version="1.1" xmlns="http://www.w3.org/2000/svg" xmlns:xlink="http://www.w3.org/1999/xlink">
    <title>02.Icons/Fullscreen</title>
    <g id="02.Icons/Fullscreen" stroke="none" stroke-width="1" fill="none" fill-rule="evenodd">
        <path d="M5.7,13.4 C6.12,13.4 6.4,13.68 6.4,14.1 L6.4,14.1 L6.4,16.62 L9.2,13.82 C9.41,13.54 9.83,13.54 10.11,13.75 L10.11,13.75 L10.18,13.82 C10.46,14.1 10.46,14.52 10.18,14.8 L10.18,14.8 L7.38,17.6 L9.9,17.6 C10.25,17.6 10.53,17.88 10.6,18.23 L10.6,18.23 L10.6,18.3 C10.6,18.72 10.32,19 9.9,19 L9.9,19 L5.28,19 L5.28,19 L5.21,18.93 L5.21,18.93 L5.15859375,18.8884375 C5.109375,18.855625 5.07,18.8425 5.07,18.79 L5.07,18.79 L5.02953125,18.7790625 C5,18.759375 5,18.72 5,18.72 L5,18.72 L5,14.1 C5,13.68 5.28,13.4 5.7,13.4 Z" fill="#3F4A55" transform="translate(9 -9)"></path>
        <path d="M18.3,13.4 C18.72,13.4 19,13.68 19,14.1 L19,14.1 L19,18.72 L19,18.72 L18.96584,18.75416 L18.96584,18.75416 L18.93056,18.78944 L18.93056,18.78944 L18.93,18.79 L18.8884375,18.8414062 C18.855625,18.890625 18.8425,18.93 18.79,18.93 C18.79,19 18.72,19 18.72,19 L18.72,19 L14.1,19 C13.68,19 13.4,18.72 13.4,18.3 L13.4,18.3 L13.4,18.23 C13.47,17.88 13.75,17.6 14.1,17.6 L14.1,17.6 L16.62,17.6 L13.82,14.8 L13.7444,14.71208 C13.5428,14.4374 13.568,14.072 13.82,13.82 L13.82,13.82 L13.89,13.75 C14.17,13.54 14.52,13.54 14.8,13.82 L14.8,13.82 L17.6,16.62 L17.6,14.1 L17.6057523,13.9979977 C17.6476389,13.6352778 17.915,13.4 18.3,13.4 Z" fill="#3F4A55" transform="translate(-9 -9)"></path>
        <path d="M9.9,5 C10.32,5 10.6,5.28 10.6,5.7 L10.6,5.7 L10.6,5.77 C10.53,6.12 10.25,6.4 9.9,6.4 L9.9,6.4 L7.38,6.4 L10.18,9.2 L10.2556,9.28792 C10.4572,9.5626 10.432,9.928 10.18,10.18 L10.18,10.18 L10.11,10.25 C9.83,10.46 9.48,10.46 9.2,10.18 L9.2,10.18 L6.4,7.38 L6.4,9.9 L6.39424769,10.0020023 C6.35236111,10.3647222 6.085,10.6 5.7,10.6 C5.28,10.6 5,10.32 5,9.9 L5,9.9 L5,5.28 L5,5.28 L5.03416,5.24584 L5.03416,5.24584 L5.06944,5.21056 L5.06944,5.21056 L5.1115625,5.15859375 C5.144375,5.109375 5.1575,5.07 5.21,5.07 L5.21,5.07 L5.2209375,5.02953125 C5.240625,5 5.28,5 5.28,5 L5.28,5 Z" fill="#3F4A55" transform="translate(9 9)"></path>
        <path d="M18.72,5 L18.75416,5.03416 L18.75416,5.03416 L18.78944,5.06944 L18.78944,5.06944 C18.86,5.14 18.93,5.14 18.93,5.21 L18.93,5.21 L18.9704687,5.2209375 C19,5.240625 19,5.28 19,5.28 L19,5.28 L19,9.9 C19,10.32 18.72,10.6 18.3,10.6 C17.88,10.6 17.6,10.32 17.6,9.9 L17.6,9.9 L17.6,7.38 L14.8,10.18 C14.59,10.46 14.17,10.46 13.89,10.25 L13.89,10.25 L13.82,10.18 C13.54,9.9 13.54,9.48 13.82,9.2 L13.82,9.2 L16.62,6.4 L14.1,6.4 C13.75,6.4 13.47,6.12 13.4,5.77 L13.4,5.77 L13.4,5.7 C13.4,5.28 13.68,5 14.1,5 L14.1,5 L18.72,5 L18.72,5 Z" fill="#3F4A55" transform="translate(-9 9)"></path>
    </g>
</svg>
