<!-- Generated by IcoMoon.io -->
<svg version="1.1" xmlns="http://www.w3.org/2000/svg" width="32" height="32" viewBox="0 0 32 32">
<title>simple-user</title>
<path fill="#ffffff" d="M21.6 19.2c4.418 0 8 3.582 8 8v0 3.2c0 0.884-0.716 1.6-1.6 1.6s-1.6-0.716-1.6-1.6v0-3.2c0-2.651-2.149-4.8-4.8-4.8v0h-11.2c-2.651 0-4.8 2.149-4.8 4.8v0 3.2c0 0.884-0.716 1.6-1.6 1.6s-1.6-0.716-1.6-1.6v0-3.2c0-4.418 3.582-8 8-8v0zM16 0c4.418 0 8 3.582 8 8s-3.582 8-8 8c-4.418 0-8-3.582-8-8s3.582-8 8-8zM16 3.2c-2.651 0-4.8 2.149-4.8 4.8s2.149 4.8 4.8 4.8c2.651 0 4.8-2.149 4.8-4.8s-2.149-4.8-4.8-4.8z"></path>
</svg>
