<svg width="42" height="42" viewBox="0 0 42 42" fill="none" xmlns="http://www.w3.org/2000/svg">
<g clip-path="url(#clip0_94_9731)">
<path d="M31.4359 27.9413C31.3542 27.9063 31.2609 27.8888 31.1734 27.8888H31.1676C30.4676 27.8655 30.2809 27.6438 30.3917 26.9672C30.4267 26.7513 30.4559 26.5355 30.4851 26.3372C30.5142 26.1388 30.4151 25.9405 30.2401 25.8413L30.2342 25.8355C30.0009 25.7072 29.9134 25.4097 30.0476 25.1705C30.0767 25.118 30.1176 25.0655 30.1701 25.0247C30.4909 24.768 30.7592 24.4472 30.6426 24.173C30.4384 23.6363 30.2634 23.088 30.1176 22.5397C30.0534 22.3297 29.9426 22.1372 29.7967 21.9797C29.2834 21.4488 29.1784 20.6438 29.5284 19.9963C29.6159 19.8388 29.7034 19.6813 29.7909 19.5238C30.0592 19.0747 30.4209 18.6897 30.8526 18.3922C31.0276 18.2405 31.1267 18.0247 31.1209 17.7913C31.2259 16.998 31.1209 16.123 31.4301 15.388C31.6926 14.7697 31.4009 14.058 30.7826 13.7955C30.5551 13.6963 30.2984 13.673 30.0534 13.7255C30.0476 13.7255 30.0359 13.7313 30.0301 13.7313C29.9542 13.743 29.8726 13.7488 29.7967 13.7372C29.4817 13.7022 29.1901 13.568 28.9626 13.3463C28.6651 13.0663 28.1751 12.6522 27.7901 12.5413C26.0109 12.0222 24.4126 11.2172 23.1176 9.85218C22.6917 9.43218 22.2426 9.04718 21.7584 8.69135C21.6242 8.58051 21.4551 8.52801 21.2859 8.53968C21.1926 8.56301 21.0992 8.58635 21.0117 8.60968V33.3372C21.0701 33.3488 21.1284 33.3722 21.1867 33.3838C21.3034 33.4072 21.4259 33.4247 21.5426 33.4363C22.0676 33.483 22.5284 33.098 22.5751 32.573C22.5751 32.5672 22.5751 32.5613 22.5751 32.5555V32.5497C22.6101 32.083 22.5751 31.4063 22.8551 31.1963C23.6134 30.6305 24.4476 29.9947 25.5442 30.508C25.6084 30.5372 25.6842 30.543 25.7659 30.5372H26.4834C26.4834 30.5372 26.5476 30.6422 27.6151 31.0972C28.3559 31.5347 29.2951 31.4588 29.9601 30.8872C30.4326 30.4613 30.8759 29.9947 31.3776 29.6097C31.6109 29.4347 31.7859 29.2013 31.8967 28.933C32.0367 28.548 31.8384 28.0988 31.4359 27.9413Z" fill="#92D1BF"/>
<path d="M20.4869 8.76758C19.8569 9.01841 19.4602 9.66591 19.5594 10.3484V10.3601C19.641 10.6401 19.4719 10.9317 19.1919 11.0134C19.186 11.0134 19.1802 11.0134 19.1802 11.0192C18.6669 11.2292 18.1827 11.4976 17.6694 11.7076C17.401 11.7834 17.156 11.9409 16.981 12.1626C16.7302 12.6176 16.2869 12.9326 15.7794 13.0201C15.7152 13.0317 15.6452 13.0376 15.581 13.0434C15.336 13.0492 15.1027 12.9559 14.9277 12.7867C14.9219 12.7809 14.916 12.7751 14.9102 12.7692C14.5952 12.4251 14.0527 12.3959 13.7085 12.7167C13.4694 12.9384 13.376 13.2709 13.4635 13.5859C13.516 13.7492 13.551 13.9242 13.5627 14.0992C13.5802 14.4317 13.3235 14.7176 12.991 14.7351C12.9269 14.7409 12.8627 14.7292 12.7985 14.7117H12.7927C11.4044 14.2626 9.9052 14.2917 8.53437 14.7934C8.49937 14.8051 8.4702 14.8167 8.4352 14.8342C7.47854 15.2659 7.51937 16.6542 8.47604 17.0859C9.40937 17.4884 10.3194 17.9434 11.1944 18.4509C11.5969 18.7076 11.9119 19.0692 12.1102 19.4951C12.1802 19.6467 12.2385 19.8042 12.2735 19.9676V19.9734C12.2852 20.0376 12.3144 20.0959 12.361 20.1426C12.431 20.2592 12.5302 20.3934 12.6877 20.5451C13.0552 20.8951 13.1544 21.3092 13.4519 21.6767C13.4752 21.7584 13.5335 21.8226 13.6152 21.8576C13.6735 21.9101 13.796 21.9976 13.9594 22.1026C14.006 22.1609 14.041 22.2192 14.041 22.2659C14.0294 22.6626 14.0585 23.0592 14.1227 23.4501C14.3152 24.2142 14.1752 25.0251 13.7319 25.6784L13.7085 25.7134C13.5277 25.9701 13.3935 26.2617 13.3119 26.5709C12.9735 27.8892 12.9385 28.0176 12.5302 29.5926C12.2735 30.5842 12.6294 31.2317 13.5977 31.5409C14.3969 31.7917 15.196 32.0542 16.001 32.2934C16.2519 32.3809 16.5085 32.4276 16.7769 32.4334C17.7394 32.3751 18.7077 32.5384 19.5944 32.9176C19.8802 33.0459 20.1777 33.1509 20.481 33.2384V8.76758H20.4869Z" fill="#26A581"/>
<path d="M21.75 1H20V41.8333H21.75V1Z" fill="#26A581"/>
</g>
<rect x="0.5" y="0.5" width="41" height="41" rx="20.5" stroke="#26A581"/>
<defs>
<clipPath id="clip0_94_9731">
<rect width="42" height="42" rx="21" fill="white"/>
</clipPath>
</defs>
</svg>
