<svg width="42" height="42" viewBox="0 0 42 42" fill="none" xmlns="http://www.w3.org/2000/svg">
<g id="simple-user">
<rect x="0.5" y="0.5" width="41" height="41" rx="20.5" stroke="#26A581" fill="#26A581"/>
<path id="Union" fill-rule="evenodd" clip-rule="evenodd" d="M21.0381 14C22.3996 14 23.5037 15.104 23.5037 16.4656C23.5037 17.8271 22.3996 18.9312 21.0381 18.9312C19.6765 18.9312 18.5725 17.8271 18.5725 16.4656C18.5725 15.104 19.6765 14 21.0381 14ZM25.5037 16.4656C25.5037 13.9995 23.5042 12 21.0381 12C18.5719 12 16.5725 13.9995 16.5725 16.4656C16.5725 18.9317 18.5719 20.9312 21.0381 20.9312C23.5042 20.9312 25.5037 18.9317 25.5037 16.4656ZM20.3682 22.6106C15.7466 22.6106 12 26.3572 12 30.9789H14C14 27.4618 16.8512 24.6106 20.3682 24.6106H21.7079C25.225 24.6106 28.0761 27.4618 28.0761 30.9789H30.0761C30.0761 26.3572 26.3296 22.6106 21.7079 22.6106H20.3682Z" fill="white"/>
</g>
</svg>
