<svg width="42" height="42" viewBox="0 0 42 42" fill="none" xmlns="http://www.w3.org/2000/svg">
  <g id="simple-user">
  <rect x="0.5" y="0.5" width="41" height="41" rx="20.5" stroke="#26A581"/>
  <path id="Vector" d="M27 10H15C13.8954 10 13 10.8955 13 12.0002V29.9978C13 31.0271 14.1163 31.6679 15.005 31.1496L21 27.6517L26.9958 31.1491C27.8833 31.6313 29 31.0271 29 29.9978V12.0002C29 10.8955 28.1042 10 27 10ZM27 28.8352L21 25.3348L15 28.8352V12.2502C15 12.1098 15.1096 12.0002 15.2125 12.0002H26.7125C26.8917 12.0002 27 12.1098 27 12.2502V28.8352Z" fill="#26A581"/>
  </g>
  </svg>
