<svg width="42" height="42" viewBox="0 0 42 42" fill="none" xmlns="http://www.w3.org/2000/svg">
  <g id="comparer">
  <rect x="0.5" y="0.5" width="41" height="41" rx="20.5" stroke="#26A581" fill="#26A581"/>
  <path id="Vector" d="M32.4359 27.9413C32.3542 27.9063 32.2609 27.8888 32.1734 27.8888H32.1676C31.4676 27.8655 31.2809 27.6438 31.3917 26.9672C31.4267 26.7513 31.4559 26.5355 31.4851 26.3372C31.5142 26.1388 31.4151 25.9405 31.2401 25.8413L31.2342 25.8355C31.0009 25.7072 30.9134 25.4097 31.0476 25.1705C31.0767 25.118 31.1176 25.0655 31.1701 25.0247C31.4909 24.768 31.7592 24.4472 31.6426 24.173C31.4384 23.6363 31.2634 23.088 31.1176 22.5397C31.0534 22.3297 30.9426 22.1372 30.7967 21.9797C30.2834 21.4488 30.1784 20.6438 30.5284 19.9963C30.6159 19.8388 30.7034 19.6813 30.7909 19.5238C31.0592 19.0747 31.4209 18.6897 31.8526 18.3922C32.0276 18.2405 32.1267 18.0247 32.1209 17.7913C32.2259 16.998 32.1209 16.123 32.4301 15.388C32.6926 14.7697 32.4009 14.058 31.7826 13.7955C31.5551 13.6963 31.2984 13.673 31.0534 13.7255C31.0476 13.7255 31.0359 13.7313 31.0301 13.7313C30.9542 13.743 30.8726 13.7488 30.7967 13.7372C30.4817 13.7022 30.1901 13.568 29.9626 13.3463C29.6651 13.0663 29.1751 12.6522 28.7901 12.5413C27.0109 12.0222 25.4126 11.2172 24.1176 9.85218C23.6917 9.43218 23.2426 9.04718 22.7584 8.69135C22.6242 8.58051 22.4551 8.52801 22.2859 8.53968C22.1926 8.56301 22.0992 8.58635 22.0117 8.60968V33.3372C22.0701 33.3488 22.1284 33.3722 22.1867 33.3838C22.3034 33.4072 22.4259 33.4247 22.5426 33.4363C23.0676 33.483 23.5284 33.098 23.5751 32.573C23.5751 32.5672 23.5751 32.5613 23.5751 32.5555V32.5497C23.6101 32.083 23.5751 31.4063 23.8551 31.1963C24.6134 30.6305 25.4476 29.9947 26.5442 30.508C26.6084 30.5372 26.6842 30.543 26.7659 30.5372H27.4834C27.4834 30.5372 27.5476 30.6422 28.6151 31.0972C29.3559 31.5347 30.2951 31.4588 30.9601 30.8872C31.4326 30.4613 31.8759 29.9947 32.3776 29.6097C32.6109 29.4347 32.7859 29.2013 32.8967 28.933C33.0367 28.548 32.8384 28.0988 32.4359 27.9413Z" fill="#92D1BF"/>
  <path id="Vector_2" d="M21.4869 8.76758C20.8569 9.01841 20.4602 9.66591 20.5594 10.3484V10.3601C20.641 10.6401 20.4719 10.9317 20.1919 11.0134C20.186 11.0134 20.1802 11.0134 20.1802 11.0192C19.6669 11.2292 19.1827 11.4976 18.6694 11.7076C18.401 11.7834 18.156 11.9409 17.981 12.1626C17.7302 12.6176 17.2869 12.9326 16.7794 13.0201C16.7152 13.0317 16.6452 13.0376 16.581 13.0434C16.336 13.0492 16.1027 12.9559 15.9277 12.7867C15.9219 12.7809 15.916 12.7751 15.9102 12.7692C15.5952 12.4251 15.0527 12.3959 14.7085 12.7167C14.4694 12.9384 14.376 13.2709 14.4635 13.5859C14.516 13.7492 14.551 13.9242 14.5627 14.0992C14.5802 14.4317 14.3235 14.7176 13.991 14.7351C13.9269 14.7409 13.8627 14.7292 13.7985 14.7117H13.7927C12.4044 14.2626 10.9052 14.2917 9.53437 14.7934C9.49937 14.8051 9.4702 14.8167 9.4352 14.8342C8.47854 15.2659 8.51937 16.6542 9.47604 17.0859C10.4094 17.4884 11.3194 17.9434 12.1944 18.4509C12.5969 18.7076 12.9119 19.0692 13.1102 19.4951C13.1802 19.6467 13.2385 19.8042 13.2735 19.9676V19.9734C13.2852 20.0376 13.3144 20.0959 13.361 20.1426C13.431 20.2592 13.5302 20.3934 13.6877 20.5451C14.0552 20.8951 14.1544 21.3092 14.4519 21.6767C14.4752 21.7584 14.5335 21.8226 14.6152 21.8576C14.6735 21.9101 14.796 21.9976 14.9594 22.1026C15.006 22.1609 15.041 22.2192 15.041 22.2659C15.0294 22.6626 15.0585 23.0592 15.1227 23.4501C15.3152 24.2142 15.1752 25.0251 14.7319 25.6784L14.7085 25.7134C14.5277 25.9701 14.3935 26.2617 14.3119 26.5709C13.9735 27.8892 13.9385 28.0176 13.5302 29.5926C13.2735 30.5842 13.6294 31.2317 14.5977 31.5409C15.3969 31.7917 16.196 32.0542 17.001 32.2934C17.2519 32.3809 17.5085 32.4276 17.7769 32.4334C18.7394 32.3751 19.7077 32.5384 20.5944 32.9176C20.8802 33.0459 21.1777 33.1509 21.481 33.2384V8.76758H21.4869Z" fill="white"/>
  <path id="Vector_3" d="M21 39C20.45 39 20 38.4106 20 37.6902V4.30981C20 3.58941 20.45 3 21 3C21.55 3 22 3.58941 22 4.30981V37.6902C22 38.4171 21.55 39 21 39Z" fill="white"/>
  </g>
  </svg>
