<?xml version="1.0" encoding="UTF-8"?>
<svg width="32px" height="32px" viewBox="0 0 24 24" version="1.1" xmlns="http://www.w3.org/2000/svg" xmlns:xlink="http://www.w3.org/1999/xlink">
    <title>02.Icons/Creer</title>
    <g id="02.Icons/Creer" stroke="none" stroke-width="1" fill="none" fill-rule="evenodd">
        <g id="iconfinder_connect_direction_path_way_2203530" transform="translate(3.000000, 3.000000)" fill="#ffffff" fill-rule="nonzero">
            <path d="M3.9375,10.125 L14.0625,10.125 C16.23375,10.125 18,8.35875 18,6.1875 C18,4.01625 16.23375,2.25 14.0625,2.25 L4.5,2.25 C4.5,1.006875 3.493125,0 2.25,0 C1.006875,0 0,1.006875 0,2.25 C0,3.493125 1.006875,4.5 2.25,4.5 C3.08025,4.5 3.798,4.044375 4.188375,3.375 L14.0625,3.375 C15.61275,3.375 16.875,4.63725 16.875,6.1875 C16.875,7.73775 15.61275,9 14.0625,9 L3.9375,9 C1.76625,9 0,10.76625 0,12.9375 C0,15.10875 1.76625,16.875 3.9375,16.875 L13.811625,16.875 C14.200875,17.544375 14.918625,18 15.75,18 C16.993125,18 18,16.993125 18,15.75 C18,14.506875 16.993125,13.5 15.75,13.5 C14.506875,13.5 13.5,14.506875 13.5,15.75 L3.9375,15.75 C2.38725,15.75 1.125,14.48775 1.125,12.9375 C1.125,11.38725 2.38725,10.125 3.9375,10.125 Z" id="Path"></path>
        </g>
    </g>
</svg>