<?xml version="1.0" encoding="UTF-8"?>
<svg width="32px" height="32px" viewBox="0 0 24 24" version="1.1" xmlns="http://www.w3.org/2000/svg" xmlns:xlink="http://www.w3.org/1999/xlink">
    <title>02.Icons/Aerien</title>
    <g id="02.Icons/Aerien" stroke="none" stroke-width="1" fill="none" fill-rule="evenodd">
        <g id="iconfinder_send_paper_plane_7693957" transform="translate(3.000000, 4.000000)" fill="#ffffff">
            <path d="M14.2222204,1.85019131 C14.2222204,1.7755016 14.1422204,1.72692577 14.0743093,1.76032603 L3.20582931,7.10152683 L9.16995376,9.05548085 C9.27910931,9.09121379 9.38008709,9.14747788 9.46737598,9.22095319 L14.2222204,13.2267992 L14.2222204,1.85019131 Z M13.2792871,0.197459855 C14.5292426,-0.416840923 16,0.476569934 16,1.85019131 L16,15.1263238 C16,15.4674904 15.7979538,15.7774671 15.482576,15.9200494 C15.1671982,16.0626317 14.796176,16.011697 14.5326204,15.7896984 L10.8003538,12.6453745 L6.77750931,15.8085696 C6.51066487,16.0183368 6.14514487,16.0592244 5.83717154,15.913759 C5.52920709,15.7682936 5.33334042,15.462161 5.33334042,15.1263238 L5.33334042,9.64040024 L0.607802647,8.09217672 C0.26673598,7.98043483 0.0277315357,7.67770956 0.00224709124,7.3252727 C-0.0232373532,6.97274846 0.169811536,6.63996908 0.49137598,6.4819229 L13.2792871,0.197459855 Z M7.11110931,10.222786 L7.11110931,13.3085743 L9.42648709,11.4879417 L8.44266487,10.6590074 L7.11110931,10.222786 Z" id="Shape"></path>
        </g>
    </g>
</svg>