<svg width="43" height="42" viewBox="0 0 43 42" fill="none" xmlns="http://www.w3.org/2000/svg">
<g id="Rando">
<rect x="1" y="0.5" width="41" height="41" rx="20.5" stroke="#26A581" fill="#26A581"/>
<path id="Union" fill-rule="evenodd" clip-rule="evenodd" d="M25.2817 12.2535C25.2817 13.4981 24.2728 14.507 23.0282 14.507C21.7836 14.507 20.7746 13.4981 20.7746 12.2535C20.7746 11.0089 21.7836 10 23.0282 10C24.2728 10 25.2817 11.0089 25.2817 12.2535ZM25.2817 22.507C24.831 22.2816 24.3803 22.0563 24.1549 21.6056L22.5775 19.3521L21.9014 23.7464L24.3803 25.5492C24.831 25.8873 25.169 26.338 25.2817 26.9014L26.2958 32.0844L24.0423 32.5352L23.0282 27.3521L20.2113 25.2112L19.6479 27.9154C19.5352 28.4788 19.1972 28.9295 18.7465 29.2675L14.5775 32.0844L13.338 30.2816L17.507 27.4647L19.5352 18.1126L17.0563 18.7887L15.0282 22.845L13 21.8309L15.0282 17.7746C15.3662 17.2112 15.8169 16.7605 16.493 16.6478L20.0986 15.7464C20.5493 15.6337 21.1127 15.7464 21.6761 15.9718L23.2535 16.7605C23.5915 16.8732 23.9296 17.2112 24.0423 17.5492L25.9577 20.3661L29 21.3802L28.3239 23.5211L25.2817 22.507Z" fill="white"/>
</g>
</svg>
