<svg width="42" height="42" viewBox="0 0 42 42" fill="none" xmlns="http://www.w3.org/2000/svg">
<g id="Explorer">
<path id="Union" fill-rule="evenodd" clip-rule="evenodd" d="M20.0564 13H19.8686L19.6936 13.0682L11.1687 16.387L11.1842 16.4269C8.2266 17.0253 6 19.6393 6 22.7733C6 26.3494 8.89898 29.2484 12.4751 29.2484C16.0511 29.2484 18.9501 26.3494 18.9501 22.7733C18.9501 20.2007 17.4498 17.9786 15.2765 16.934L20.2442 15H21.6582L26.68 16.9551C24.5302 18.0083 23.0499 20.2179 23.0499 22.7733C23.0499 26.3494 25.9489 29.2484 29.5249 29.2484C33.101 29.2484 36 26.3494 36 22.7733C36 19.6073 33.7277 16.972 30.7251 16.4093L30.7337 16.387L22.2088 13.0682L22.0338 13H21.846H20.0564ZM20.9675 17.2745C21.134 17.2745 21.269 17.1395 21.269 16.9729C21.269 16.8064 21.134 16.6714 20.9675 16.6714C20.8009 16.6714 20.6659 16.8064 20.6659 16.9729C20.6659 17.1395 20.8009 17.2745 20.9675 17.2745ZM20.9675 18.2745C21.6863 18.2745 22.269 17.6917 22.269 16.9729C22.269 16.2541 21.6863 15.6714 20.9675 15.6714C20.2486 15.6714 19.6659 16.2541 19.6659 16.9729C19.6659 17.6917 20.2486 18.2745 20.9675 18.2745ZM16.9501 22.7733C16.9501 25.2448 14.9466 27.2484 12.4751 27.2484C10.0036 27.2484 8 25.2448 8 22.7733C8 20.3018 10.0036 18.2983 12.4751 18.2983C14.9466 18.2983 16.9501 20.3018 16.9501 22.7733ZM34 22.7733C34 25.2448 31.9965 27.2484 29.5249 27.2484C27.0534 27.2484 25.0499 25.2448 25.0499 22.7733C25.0499 20.3018 27.0534 18.2983 29.5249 18.2983C31.9965 18.2983 34 20.3018 34 22.7733Z" fill="#26A581"/>
<rect x="0.5" y="0.5" width="41" height="41" rx="20.5" stroke="#26A581"/>
</g>
</svg>
