<?xml version="1.0" encoding="UTF-8"?>
<svg width="32px" height="32px" viewBox="0 0 24 24" version="1.1" xmlns="http://www.w3.org/2000/svg" xmlns:xlink="http://www.w3.org/1999/xlink">
    <title>02.Icons/Localisation</title>
    <g id="02.Icons/Localisation" stroke="none" stroke-width="1" fill="none" fill-rule="evenodd">
        <g id="location" transform="translate(5.000000, 3.000000)" fill="#ffffff" fill-rule="nonzero">
            <path d="M7.50086849,0 C11.6424132,0 15,3.35809876 15,7.49975391 C15,10.0281717 13.6480488,12.5065273 11.4195005,14.8594464 C10.6552283,15.6660651 9.83884664,16.4012469 9.02188598,17.0514918 C8.73586289,17.2793025 8.46894662,17.4812384 8.22924306,17.6544871 C8.08275756,17.7602362 7.97622264,17.8339232 7.91600726,17.8738604 C7.66414483,18.0420465 7.33585517,18.0420465 7.08399274,17.8738604 C7.02377736,17.8333607 6.91724244,17.7596738 6.77075694,17.6544871 C6.53105338,17.4812384 6.26413711,17.279865 5.97811402,17.0514918 C5.16115336,16.4012469 4.34477168,15.6660651 3.58049948,14.8594464 C1.35195121,12.5070898 0,10.0287342 0,7.49975391 C0,3.35753627 3.35758675,0 7.49913151,0 L7.50086849,0 Z M7.50086849,1.50017578 C4.18728529,1.50017578 1.50133169,4.18665479 1.50133169,7.5003164 C1.50133169,9.56523777 2.68074266,11.7274709 4.67074536,13.828392 C5.38290809,14.5804486 6.14833829,15.2689432 6.91376848,15.8786884 C7.12278535,16.0451871 7.31964334,16.195936 7.50144749,16.3298099 C7.68325163,16.1953735 7.88010962,16.0446247 8.08912649,15.8786884 C8.85455668,15.2695057 9.61940788,14.5804486 10.3321496,13.828392 C12.3221523,11.7280334 13.5015633,9.56580027 13.5015633,7.5003164 C13.5015633,4.18665479 10.8156097,1.50017578 7.50202648,1.50017578 L7.50086849,1.50017578 Z M7.50086849,4.49996484 C9.15737059,4.49996484 10.5006369,5.84320435 10.5006369,7.49975391 C10.5006369,9.15630347 9.15737059,10.499543 7.50086849,10.499543 C5.84436639,10.499543 4.50110009,9.15630347 4.50110009,7.49975391 C4.50110009,5.84320435 5.84436639,4.49996484 7.50086849,4.49996484 Z M7.50086849,6.00014062 C6.67232794,6.00014062 6.00127379,6.67176038 6.00127379,7.5003164 C6.00127379,8.32887243 6.67290694,9.00049218 7.50086849,9.00049218 C8.32940904,9.00049218 9.0004632,8.32887243 9.0004632,7.5003164 C9.0004632,6.67176038 8.32883005,6.00014062 7.50086849,6.00014062 L7.50086849,6.00014062 Z" id="Shape"></path>
        </g>
    </g>
</svg>