<svg width="32" height="32" viewBox="0 0 32 32" fill="none" xmlns="http://www.w3.org/2000/svg">
<path fill-rule="evenodd" clip-rule="evenodd" d="M1.6634 20.1063L7.47258 16.7867L14.1422 20.1215C14.2576 20.1823 14.3879 20.2184 14.5263 20.2229C14.5361 20.2232 14.5459 20.2234 14.5557 20.2234C14.5557 20.2234 14.5557 20.2234 14.5557 20.2234C14.7218 20.2234 14.8773 20.1778 15.0103 20.0985L21.219 16.5507C21.4959 16.3924 21.6668 16.0979 21.6668 15.7789V1.55671C21.6668 0.874197 20.9295 0.446315 20.3369 0.784935L14.5277 4.10447L7.85811 0.769651C7.73665 0.705703 7.59857 0.66905 7.45205 0.667848L7.44461 0.667817C7.2785 0.667817 7.12304 0.713378 6.99003 0.792683L0.781373 4.34049C0.504417 4.49875 0.333496 4.79328 0.333496 5.11226V19.3345C0.333496 20.017 1.07081 20.4449 1.6634 20.1063ZM15.4446 17.8028L19.889 15.2631V3.08842L15.4446 5.6281V17.8028ZM13.6668 5.66163L8.3335 2.99496V15.2296L13.6668 17.8962V5.66163ZM2.11127 5.6281L6.55572 3.08842V15.2631L2.11127 17.8028V5.6281Z" fill="#26A581" transform="translate(5, 5)" />
</svg>
