<svg width="13" height="16" viewBox="0 0 13 16" fill="none" xmlns="http://www.w3.org/2000/svg">
<path d="M0.979484 1.0725C0.745057 0.932456 0.491462 1.04891 0.491462 1.33105V14.6689C0.491462 14.9511 0.745057 15.0675 0.979484 14.9275L12.1976 8.25445C12.4325 8.1144 12.4168 7.8856 12.1824 7.74555L0.979484 1.0725Z" fill="white"/>
<path d="M0.778968 15.5C0.334686 15.5 0 15.1424 0 14.6689V1.33105C0 0.857558 0.334686 0.5 0.778968 0.5C0.93083 0.5 1.08417 0.543605 1.22325 0.627223L12.4256 7.29976C12.7004 7.46341 12.8571 7.72196 12.8571 8.00872C12.8571 8.28984 12.7053 8.54172 12.4409 8.69973L1.22276 15.3733C1.08417 15.4559 0.93083 15.5 0.778968 15.5ZM0.982925 1.66501V14.335L11.6255 8.00462L0.982925 1.66501Z" fill="white"/>
</svg>
