<?xml version="1.0" encoding="UTF-8" standalone="no"?>
<svg
   width="32px"
   height="32px"
   viewBox="0 0 24 24"
   version="1.1"
   id="svg10"
   sodipodi:docname="my-position.svg"
   inkscape:version="1.1.2 (0a00cf5339, 2022-02-04)"
   xmlns:inkscape="http://www.inkscape.org/namespaces/inkscape"
   xmlns:sodipodi="http://sodipodi.sourceforge.net/DTD/sodipodi-0.dtd"
   xmlns="http://www.w3.org/2000/svg"
   xmlns:svg="http://www.w3.org/2000/svg"
   xmlns:rdf="http://www.w3.org/1999/02/22-rdf-syntax-ns#"
   xmlns:cc="http://creativecommons.org/ns#"
   xmlns:dc="http://purl.org/dc/elements/1.1/">
  <defs
     id="defs14" />
  <sodipodi:namedview
     id="namedview12"
     pagecolor="#ffffff"
     bordercolor="#666666"
     borderopacity="1.0"
     inkscape:pageshadow="2"
     inkscape:pageopacity="0.0"
     inkscape:pagecheckerboard="0"
     showgrid="false"
     inkscape:zoom="17.583333"
     inkscape:cx="12.42654"
     inkscape:cy="7.450237"
     inkscape:window-width="1920"
     inkscape:window-height="1043"
     inkscape:window-x="1920"
     inkscape:window-y="0"
     inkscape:window-maximized="1"
     inkscape:current-layer="svg10" />
  <title
     id="title2">02.Icons/WC@2x</title>
  <path
     d="m 13.331205,3.9500515 c 0,0.645065 -0.520667,1.1680179 -1.162911,1.1680179 -0.642245,0 -1.162911,-0.5229529 -1.162911,-1.1680179 0,-0.645065 0.520666,-1.1680179 1.162911,-1.1680179 0.642244,0 1.162911,0.5229529 1.162911,1.1680179"
     id="Fill-4"
     fill="#ffffff"
     style="fill-rule:evenodd;stroke:none;stroke-width:1" />
  <path
     d="M 14.498492,6.0350311 C 14.115178,5.5769541 13.731926,5.5720696 13.731926,5.5720696 H 12.278724 11.98039 10.527188 c 0,0 -0.383252,0.00488 -0.7665657,0.4629615 -0.383314,0.4580769 -0.383314,0.6724932 -0.383314,1.3644618 v 3.2844401 c 0,0.233954 0.0047,0.745635 0.43182,0.745635 0.4851907,0 0.5385607,-0.165697 0.5385607,-0.794355 V 7.6236782 c 0,0 -0.03884,-0.2241853 0.126129,-0.2241853 0.164972,0 0.155246,0.039013 0.155246,0.2046474 v 3.5622287 4.234723 1.613007 c 0,0.199762 0.05337,0.745572 0.640437,0.745572 0.587066,0 0.747175,-0.350869 0.747175,-0.750457 V 12.61368 11.45875 c 0,0 0,-0.07308 0.09708,-0.07308 0.0054,0 0.0106,-0.01872 0.01584,-0.05229 0.0052,0.03356 0.01041,0.05229 0.01577,0.05229 0.09708,0 0.09708,0.07308 0.09708,0.07308 v 1.15493 4.395534 c 0,0.399588 0.160109,0.750457 0.747176,0.750457 0.587066,0 0.640436,-0.54581 0.640436,-0.745572 V 15.401092 11.166369 7.6041403 c 0,-0.1656342 -0.0097,-0.2046474 0.155246,-0.2046474 0.164972,0 0.12613,0.2241853 0.12613,0.2241853 v 3.0115348 c 0,0.628658 0.05337,0.794355 0.53856,0.794355 0.427082,0 0.43182,-0.511681 0.43182,-0.745635 V 7.3994929 c 0,-0.6919686 0,-0.9063849 -0.383314,-1.3644618"
     id="Fill-9"
     fill="#ffffff"
     style="fill-rule:evenodd;stroke:none;stroke-width:1" />
  <metadata
     id="metadata831">
    <rdf:RDF>
      <cc:Work
         rdf:about="">
        <dc:title>02.Icons/WC@2x</dc:title>
      </cc:Work>
    </rdf:RDF>
  </metadata>
  <path
     id="Shape"
     style="fill:#ffffff;fill-rule:nonzero;stroke:none;stroke-width:1"
     d="m 12.578094,5.4186063 c -0.0065,0.015821 -0.01268,0.031054 -0.01953,0.046875 0.0644,-0.00796 0.127781,-0.014397 0.191406,-0.021484 -0.05636,-0.01084 -0.1147,-0.016943 -0.171875,-0.025391 z M 9.749969,7.3795438 c -0.0064,0.00475 -0.01322,0.00877 -0.01953,0.013672 0.01034,-4.676e-4 0.02092,5.795e-4 0.03125,0 -0.0028,-0.00371 -0.005,-0.00597 -0.0078,-0.00977 -0.0015,-9.059e-4 -0.0026,-0.00308 -0.0039,-0.00391 z m 0.0039,0.00391 c 0.0025,0.0025 0.0077,0.00567 0.01367,0.00977 0.0013,-7.42e-5 0.0026,7.5e-5 0.0039,0 -0.0055,-0.00385 -0.0121,-0.00639 -0.01758,-0.00977 z m 0.59375,0.2402344 c -0.0066,3.601e-4 -0.013,0.00161 -0.01953,0.00195 0.0031,0.00284 0.0067,0.00497 0.0098,0.00781 0.0033,-0.00318 0.0064,-0.0066 0.0098,-0.00977 z m 4.03125,1.5488282 c 0.02361,0.012048 0.04638,0.02362 0.06836,0.037109 -0.01052,-0.011698 -0.02701,-0.018893 -0.06836,-0.037109 z m 1.492187,1.1582036 c -0.01026,0.0054 -0.02344,0.01271 -0.0332,0.01758 -0.001,0.01315 -3.86e-4,0.02524 -0.002,0.03906 -0.0017,4.27e-4 0.02508,-0.0063 0.02344,-0.0059 0.0044,-0.01673 0.0076,-0.03397 0.01172,-0.05078 z m -6.537109,1.416015 c -0.0131,0.003 -0.02607,0.0065 -0.03906,0.0098 0.01331,0.01474 0.02256,0.02323 0.03711,0.04102 0.0087,0.0043 0.0168,0.0093 0.02539,0.01367 -0.0071,-0.0199 -0.0172,-0.04758 -0.02344,-0.06445 z m 4.955078,0.550782 c 0.0033,0.01307 0.0065,0.02603 0.0098,0.03906 0.0055,-0.0064 0.01491,-0.01515 0.02148,-0.02148 -0.01052,-0.0058 -0.0206,-0.01182 -0.03125,-0.01758 z m -4.699219,2.798828 c -3.244701,0.35553 -5.599609,1.448469 -5.599609,3.074219 0,2.005404 3.583787,3.199218 8,3.199218 4.416213,0 8,-1.193814 8,-3.199218 0,-1.62575 -2.356862,-2.718689 -5.601563,-3.074219 v 1.621094 c 2.346253,0.29289 4,0.962513 4,1.453125 0,0.645562 -2.86175,1.599609 -6.398437,1.599609 -3.536687,0 -6.400391,-0.954047 -6.400391,-1.599609 0,-0.490612 1.653747,-1.160235 4,-1.453125 z" />
</svg>
