<?xml version="1.0" encoding="UTF-8" standalone="no"?>
<svg
   xmlns:dc="http://purl.org/dc/elements/1.1/"
   xmlns:cc="http://creativecommons.org/ns#"
   xmlns:rdf="http://www.w3.org/1999/02/22-rdf-syntax-ns#"
   xmlns:svg="http://www.w3.org/2000/svg"
   xmlns="http://www.w3.org/2000/svg"
   xmlns:sodipodi="http://sodipodi.sourceforge.net/DTD/sodipodi-0.dtd"
   xmlns:inkscape="http://www.inkscape.org/namespaces/inkscape"
   width="32"
   height="32"
   viewBox="0 0 32 32"
   fill="none"
   version="1.1"
   id="svg4"
   sodipodi:docname="position.svg"
   inkscape:version="0.92.5 (2060ec1f9f, 2020-04-08)">
  <metadata
     id="metadata10">
    <rdf:RDF>
      <cc:Work
         rdf:about="">
        <dc:format>image/svg+xml</dc:format>
        <dc:type
           rdf:resource="http://purl.org/dc/dcmitype/StillImage" />
        <dc:title></dc:title>
      </cc:Work>
    </rdf:RDF>
  </metadata>
  <defs
     id="defs8">
    <clipPath
       id="clip0_1_3176">
      <rect
         id="rect820"
         transform="translate(0.638672)"
         fill="white"
         height="26"
         width="24.7224" />
    </clipPath>
  </defs>
  <sodipodi:namedview
     pagecolor="#ffffff"
     bordercolor="#666666"
     borderopacity="1"
     objecttolerance="10"
     gridtolerance="10"
     guidetolerance="10"
     inkscape:pageopacity="0"
     inkscape:pageshadow="2"
     inkscape:window-width="1920"
     inkscape:window-height="1017"
     id="namedview6"
     showgrid="false"
     inkscape:zoom="29.5"
     inkscape:cx="18.110605"
     inkscape:cy="13.416642"
     inkscape:window-x="1912"
     inkscape:window-y="-8"
     inkscape:window-maximized="1"
     inkscape:current-layer="Frame 5" />
  <g
     id="Frame 5">
    <path
       id="Shape"
       d="m 13.3,17.9416 v 1.8243 c -2.6395,0.3295 -4.5,1.0822 -4.5,1.6341 0,0.7263 3.2212,1.8 7.2,1.8 3.9788,0 7.2,-1.0737 7.2,-1.8 0,-0.5519 -1.8605,-1.3046 -4.5,-1.6341 V 17.9416 C 22.3503,18.3415 25,19.571 25,21.4 25,23.6561 20.9682,25 16,25 11.0318,25 7,23.6561 7,21.4 7,19.571 9.64971,18.3415 13.3,17.9416 Z"
       style="fill:#3993f3;fill-opacity:1"
       inkscape:connector-curvature="0"
       sodipodi:nodetypes="ccsssccsssc" />
  </g>
  <g
     style="fill:none"
     id="g836"
     transform="matrix(0.7235915,0,0,0.7235915,6.6235268,6.2418379)">
    <g
       clip-path="url(#clip0_1_3176)"
       id="Calque_1">
      <path
         d="m 9.62796,14.3566 v 5.7097 c 0,0.5537 0.21995,1.0847 0.61144,1.4762 0.3915,0.3915 0.9225,0.6114 1.4762,0.6114 h 2.5684 c 0.5543,0 1.086,-0.2197 1.4785,-0.611 0.3926,-0.3913 0.614,-0.9223 0.6157,-1.4766 v -5.7097 c 0.7323,-0.186 1.3818,-0.6107 1.8457,-1.207 0.464,-0.5963 0.7159,-1.3303 0.7161,-2.0858 V 8.49538 C 18.9383,7.65183 18.6211,6.83943 18.0508,6.21791 17.4805,5.59639 16.6982,5.21071 15.8579,5.13672 16.1968,4.60791 16.3773,3.99323 16.3782,3.36519 16.3984,2.90942 16.326,2.45429 16.1654,2.02725 16.0049,1.60022 15.7595,1.21012 15.4441,0.880481 15.1288,0.550845 14.7499,0.288503 14.3303,0.109275 c -0.4195,-0.1792283 -0.871,-0.271629 -1.3272,-0.271629 -0.4562,0 -0.9077,0.0924007 -1.3273,0.271629 C 11.2563,0.288503 10.8774,0.550845 10.562,0.880481 10.2466,1.21012 10.0013,1.60022 9.84074,2.02725 9.6802,2.45429 9.60782,2.90942 9.62796,3.36519 9.62945,3.99222 9.80747,4.60616 10.1416,5.13672 9.30134,5.21071 8.51912,5.59639 7.94878,6.21791 7.37844,6.83943 7.06125,7.65183 7.05957,8.49538 v 2.56842 c 5.6e-4,0.7564 0.25348,1.491 0.71871,2.0875 0.46522,0.5964 1.11615,1.0206 1.84968,1.2053 z M 11.9,5.30136 C 11.8939,4.96632 11.7782,4.6425 11.5707,4.37937 11.3555,4.09011 11.24,3.73887 11.2414,3.37836 c -0.0147,-0.2404 0.02,-0.48127 0.1019,-0.70778 0.0818,-0.2265 0.2092,-0.43385 0.3742,-0.60928 0.1651,-0.17543 0.3643,-0.31523 0.5853,-0.41079 0.2211,-0.09556 0.4594,-0.14485 0.7003,-0.14485 0.2408,0 0.4791,0.04929 0.7002,0.14485 0.2211,0.09556 0.4203,0.23536 0.5853,0.41079 0.1651,0.17543 0.2924,0.38278 0.3743,0.60928 0.0819,0.22651 0.1165,0.46738 0.1018,0.70778 -0.0018,0.35999 -0.117,0.71025 -0.3292,1.00101 -0.2102,0.26166 -0.3262,0.58641 -0.3293,0.92199 -0.0018,0.19279 0.0348,0.38401 0.1076,0.56254 0.0727,0.17854 0.1803,0.34084 0.3163,0.47747 0.136,0.13663 0.2978,0.24488 0.476,0.31845 0.1782,0.07358 0.3693,0.11101 0.5621,0.11013 0.2316,-0.00265 0.4615,0.04103 0.676,0.12846 0.2145,0.08742 0.4094,0.21684 0.5732,0.38065 0.1638,0.16381 0.2933,0.35871 0.3807,0.57324 0.0874,0.21453 0.1311,0.44437 0.1284,0.67601 v 2.56839 c 0.0054,0.3231 -0.0808,0.6412 -0.2487,0.9174 -0.1678,0.2762 -0.4103,0.4992 -0.6996,0.6434 V 9.15394 C 16.3883,9.04188 16.375,8.92892 16.3391,8.82229 16.3032,8.71566 16.2454,8.61768 16.1695,8.53461 16.0936,8.45153 16.0012,8.38518 15.8983,8.33979 15.7953,8.29439 15.684,8.27095 15.5715,8.27095 c -0.1126,0 -0.2238,0.02344 -0.3268,0.06884 -0.103,0.04539 -0.1953,0.11174 -0.2712,0.19482 -0.0759,0.08307 -0.1337,0.18105 -0.1696,0.28768 -0.036,0.10663 -0.0493,0.21959 -0.0392,0.33165 V 20.0663 c -0.0017,0.1264 -0.0531,0.247 -0.1431,0.3357 -0.0899,0.0887 -0.2112,0.1385 -0.3376,0.1385 h -0.4742 v -5.611 c -0.0182,-0.2014 -0.1111,-0.3886 -0.2603,-0.525 -0.1493,-0.1364 -0.3442,-0.212 -0.5464,-0.212 -0.2022,0 -0.3971,0.0756 -0.5464,0.212 -0.1493,0.1364 -0.2421,0.3236 -0.2604,0.525 v 5.611 h -0.4807 c -0.1258,0 -0.2464,-0.05 -0.3353,-0.1389 -0.0889,-0.0889 -0.1389,-0.2095 -0.1389,-0.3353 V 9.15394 C 11.2516,9.04188 11.2382,8.92892 11.2023,8.82229 11.1664,8.71566 11.1086,8.61768 11.0327,8.53461 10.9568,8.45153 10.8644,8.38518 10.7615,8.33979 10.6585,8.29439 10.5472,8.27095 10.4347,8.27095 c -0.1125,0 -0.2238,0.02344 -0.3268,0.06884 C 10.005,8.38518 9.91258,8.45153 9.83668,8.53461 9.76078,8.61768 9.70302,8.71566 9.66708,8.82229 9.63115,8.92892 9.61782,9.04188 9.62796,9.15394 V 12.6377 C 9.34041,12.4909 9.09904,12.2674 8.93053,11.9919 8.76202,11.7165 8.67291,11.3998 8.67305,11.0769 V 8.50855 C 8.67388,8.27713 8.72073,8.04818 8.81088,7.83504 8.90102,7.62189 9.03266,7.4288 9.19813,7.26701 9.3636,7.10521 9.5596,6.97795 9.77472,6.89261 9.98983,6.80728 10.2198,6.76558 10.4512,6.76995 10.6428,6.76909 10.8325,6.73038 11.0092,6.65602 11.1858,6.58167 11.3461,6.47315 11.4807,6.33669 11.6153,6.20023 11.7217,6.03852 11.7936,5.86085 11.8656,5.68318 11.9017,5.49304 11.9,5.30136 Z"
         id="Vector_2"
         inkscape:connector-curvature="0"
         style="fill:#3993f3" />
    </g>
  </g>
</svg>
