<svg width="32" height="32" viewBox="0 0 32 32" fill="none" xmlns="http://www.w3.org/2000/svg">
<g id="Frame 5">
<path id="Shape" d="M15.501 6C20.1947 6 24 9.80585 24 14.4997C24 17.3653 22.4678 20.1741 19.9421 22.8407C19.0759 23.7549 18.1507 24.5881 17.2248 25.325C16.9006 25.5832 16.5981 25.8121 16.3265 26.0084C16.1605 26.1283 16.0397 26.2118 15.9715 26.257C15.686 26.4477 15.314 26.4477 15.0285 26.257C14.9603 26.2111 14.8395 26.1276 14.6735 26.0084C14.4019 25.8121 14.0994 25.5839 13.7752 25.325C12.8493 24.5881 11.9241 23.7549 11.0579 22.8407C8.53221 20.1747 7 17.3659 7 14.4997C7 9.80521 10.8053 6 15.499 6H15.501ZM15.501 7.7002C11.7456 7.7002 8.70151 10.7449 8.70151 14.5004C8.70151 16.8406 10.0382 19.2911 12.2935 21.6722C13.1006 22.5245 13.9681 23.3048 14.8356 23.9958C15.0725 24.1845 15.2956 24.3554 15.5016 24.5071C15.7077 24.3548 15.9308 24.1839 16.1677 23.9958C17.0352 23.3054 17.902 22.5245 18.7098 21.6722C20.9651 19.2918 22.3018 16.8412 22.3018 14.5004C22.3018 10.7449 19.2577 7.7002 15.5023 7.7002H15.501ZM15.501 11.1C17.3784 11.1 18.9007 12.6223 18.9007 14.4997C18.9007 16.3771 17.3784 17.8995 15.501 17.8995C13.6236 17.8995 12.1012 16.3771 12.1012 14.4997C12.1012 12.6223 13.6236 11.1 15.501 11.1ZM15.501 12.8002C14.562 12.8002 13.8014 13.5613 13.8014 14.5004C13.8014 15.4394 14.5626 16.2006 15.501 16.2006C16.44 16.2006 17.2005 15.4394 17.2005 14.5004C17.2005 13.5613 16.4393 12.8002 15.501 12.8002Z" fill="#3993F3"/>
</g>
</svg>
