<svg width="32" height="32" viewBox="0 0 32 32" fill="none" xmlns="http://www.w3.org/2000/svg">
<g id="Frame 5">
<path id="Shape" d="M16.9 15.91V22.3H15.1V15.91C13.046 15.493 11.5 13.6771 11.5 11.5C11.5 9.01472 13.5147 7 16 7C18.4853 7 20.5 9.01472 20.5 11.5C20.5 13.6771 18.954 15.493 16.9 15.91ZM13.3 17.9416V19.7659C10.6605 20.0954 8.8 20.8481 8.8 21.4C8.8 22.1263 12.0212 23.2 16 23.2C19.9788 23.2 23.2 22.1263 23.2 21.4C23.2 20.8481 21.3395 20.0954 18.7 19.7659V17.9416C22.3503 18.3415 25 19.571 25 21.4C25 23.6561 20.9682 25 16 25C11.0318 25 7 23.6561 7 21.4C7 19.571 9.64971 18.3415 13.3 17.9416ZM16 14.2C17.4912 14.2 18.7 12.9912 18.7 11.5C18.7 10.0088 17.4912 8.8 16 8.8C14.5088 8.8 13.3 10.0088 13.3 11.5C13.3 12.9912 14.5088 14.2 16 14.2Z" fill="#26A581"/>
</g>
</svg>
