<svg width="32" height="32" viewBox="0 0 32 32" fill="none" xmlns="http://www.w3.org/2000/svg">
<g id="Frame 5">
<g id="Union">
<mask id="path-1-inside-1_1701_8167" fill="white">
</mask>
<path fill-rule="evenodd" clip-rule="evenodd" d="M14.5363 5.73223L5.73223 14.5363C4.75592 15.5126 4.75592 17.0955 5.73223 18.0718L14.5363 26.8759C15.5126 27.8522 17.0955 27.8522 18.0718 26.8759L26.8759 18.0718C27.8522 17.0955 27.8522 15.5126 26.8759 14.5363L18.0718 5.73223C17.0955 4.75592 15.5126 4.75592 14.5363 5.73223ZM6.79289 17.0111C6.40237 16.6206 6.40237 15.9875 6.79289 15.5969L15.5969 6.79289C15.9875 6.40237 16.6206 6.40237 17.0111 6.79289L25.8152 15.5969C26.2057 15.9875 26.2057 16.6206 25.8152 17.0111L17.0111 25.8152C16.6206 26.2057 15.9875 26.2057 15.5969 25.8152L6.79289 17.0111ZM19.3208 16.6702H19.3291L18.1094 17.8898L19.1701 18.9505L21.6701 16.4505L22.2004 15.9202L21.6701 15.3898L19.1701 12.8898L18.1094 13.9505L19.3291 15.1702H19.3208H19.3072H19.2937H19.2801H19.2666H19.2532H19.2397H19.2263H19.2129H19.1995H19.1861H19.1728H19.1595H19.1462H19.1329H19.1197H19.1065H19.0933H19.0801H19.0669H19.0538H19.0407H19.0276H19.0145H19.0014H18.9884H18.9754H18.9624H18.9494H18.9365H18.9236H18.9107H18.8978H18.8849H18.8721H18.8592H18.8464H18.8337H18.8209H18.8081H18.7954H18.7827H18.77H18.7573H18.7447H18.7321H18.7194H18.7069H18.6943H18.6817H18.6692H18.6567H18.6441H18.6317H18.6192H18.6067H18.5943H18.5819H18.5695H18.5571H18.5447H18.5324H18.5201H18.5077H18.4954H18.4832H18.4709H18.4587H18.4464H18.4342H18.422H18.4098H18.3976H18.3855H18.3733H18.3612H18.3491H18.337H18.3249H18.3129H18.3008H18.2888H18.2768H18.2648H18.2528H18.2408H18.2288H18.2169H18.2049H18.193H18.1811H18.1692H18.1573H18.1455H18.1336H18.1218H18.1099H18.0981H18.0863H18.0745H18.0627H18.051H18.0392H18.0275H18.0157H18.004H17.9923H17.9806H17.9689H17.9572H17.9456H17.9339H17.9223H17.9106H17.899H17.8874H17.8758H17.8642H17.8526H17.841H17.8295H17.8179H17.8064H17.7949H17.7833H17.7718H17.7603H17.7488H17.7373H17.7259H17.7144H17.7029H17.6915H17.68H17.6686H17.6572H17.6458H17.6344H17.623H17.6116H17.6002H17.5888H17.5774H17.5661H17.5547H17.5434H17.532H17.5207H17.5093H17.498H17.4867H17.4754H17.4641H17.4528H17.4415H17.4302H17.4189H17.4076H17.3964H17.3851H17.3739H17.3626H17.3513H17.3401H17.3289H17.3176H17.3064H17.2952H17.2839H17.2727H17.2615H17.2503H17.2391H17.2279H17.2167H17.2055H17.1943H17.1831H17.1719H17.1607H17.1496H17.1384H17.1272H17.116H17.1049H17.0937H17.0825H17.0714H17.0602H17.0491H17.0379H17.0267H17.0156H17.0044H16.9933H16.9821H16.971H16.9598H16.9487H16.9375H16.9264H16.9152H16.9041H16.8929H16.8818H16.8706H16.8595H16.8483H16.8372H16.826H16.8149H16.8038H16.7926H16.7814H16.7703H16.7591H16.748H16.7368H16.7257H16.7145H16.7033H16.6922H16.681H16.6698H16.6587H16.6475H16.6363H16.6251H16.614H16.6028H16.5916H16.5804H16.5692H16.558H16.5468H16.5356H16.5244H16.5132H16.502H16.4907H16.4795H16.4683H16.4571H16.4458H16.4346H16.4233H16.4121H16.4008H16.3896H16.3783H16.367H16.3557H16.3445H16.3332H16.3219H16.3106H16.2993H16.288H16.2766H16.2653H16.254H16.2426H16.2313H16.2199H16.2086H16.1972H16.1858H16.1744H16.1631H16.1517H16.1403H16.1288H16.1174H16.106H16.0946H16.0831H16.0716H16.0602H16.0487H16.0372H16.0257H16.0142H16.0027H15.9912H15.9797H15.9682H15.9566H15.9451H15.9335H15.9219H15.9103H15.8987H15.8871H15.8755H15.8639H15.8523H15.8406H15.8289H15.8173H15.8056H15.7939H15.7822H15.7705H15.7588H15.747H15.7353H15.7235H15.7117H15.6999H15.6881H15.6763H15.6645H15.6527H15.6408H15.629H15.6171H15.6052H15.5933H15.5814H15.5694H15.5575H15.5455H15.5336H15.5216H15.5096H15.4976H15.4856H15.4735H15.4615H15.4494H15.4373H15.4252H15.4131H15.401H15.3888H15.3766H15.3645H15.3523H15.3401H15.3278H15.3156H15.3033H15.2911H15.2788H15.2665H15.2542H15.2418H15.2295H15.2171H15.2047H15.1923H15.1799H15.1674H15.155H15.1425H15.13H15.1175H15.105H15.0924H15.0798H15.0673H15.0546H15.042H15.0294H15.0167H15.004H14.9914H14.9786H14.9659H14.9531H14.9404H14.9276H14.9148H14.9019H14.8891H14.8762H14.8633H14.8504H14.8375H14.8245H14.8115H14.7985H14.7855H14.7725H14.7594H14.7463H14.7332H14.7201H14.7069H14.6938H14.6806H14.6674H14.6541H14.6409C13.1226 15.1702 11.8898 16.4008 11.8898 17.9202V19.4202H13.3898V17.9202C13.3898 17.2303 13.95 16.6702 14.6409 16.6702H14.6541H14.6674H14.6806H14.6938H14.7069H14.7201H14.7332H14.7463H14.7594H14.7725H14.7855H14.7985H14.8115H14.8245H14.8375H14.8504H14.8633H14.8762H14.8891H14.9019H14.9148H14.9276H14.9404H14.9531H14.9659H14.9786H14.9914H15.004H15.0167H15.0294H15.042H15.0546H15.0673H15.0798H15.0924H15.105H15.1175H15.13H15.1425H15.155H15.1674H15.1799H15.1923H15.2047H15.2171H15.2295H15.2418H15.2542H15.2665H15.2788H15.2911H15.3033H15.3156H15.3278H15.3401H15.3523H15.3645H15.3766H15.3888H15.401H15.4131H15.4252H15.4373H15.4494H15.4615H15.4735H15.4856H15.4976H15.5096H15.5216H15.5336H15.5455H15.5575H15.5694H15.5814H15.5933H15.6052H15.6171H15.629H15.6408H15.6527H15.6645H15.6763H15.6881H15.6999H15.7117H15.7235H15.7353H15.747H15.7588H15.7705H15.7822H15.7939H15.8056H15.8173H15.8289H15.8406H15.8523H15.8639H15.8755H15.8871H15.8987H15.9103H15.9219H15.9335H15.9451H15.9566H15.9682H15.9797H15.9912H16.0027H16.0142H16.0257H16.0372H16.0487H16.0602H16.0716H16.0831H16.0946H16.106H16.1174H16.1288H16.1403H16.1517H16.1631H16.1744H16.1858H16.1972H16.2086H16.2199H16.2313H16.2426H16.254H16.2653H16.2766H16.288H16.2993H16.3106H16.3219H16.3332H16.3445H16.3557H16.367H16.3783H16.3896H16.4008H16.4121H16.4233H16.4346H16.4458H16.4571H16.4683H16.4795H16.4907H16.502H16.5132H16.5244H16.5356H16.5468H16.558H16.5692H16.5804H16.5916H16.6028H16.614H16.6251H16.6363H16.6475H16.6587H16.6698H16.681H16.6922H16.7033H16.7145H16.7257H16.7368H16.748H16.7591H16.7703H16.7814H16.7926H16.8038H16.8149H16.826H16.8372H16.8483H16.8595H16.8706H16.8818H16.8929H16.9041H16.9152H16.9264H16.9375H16.9487H16.9598H16.971H16.9821H16.9933H17.0044H17.0156H17.0267H17.0379H17.0491H17.0602H17.0714H17.0825H17.0937H17.1049H17.116H17.1272H17.1384H17.1496H17.1607H17.1719H17.1831H17.1943H17.2055H17.2167H17.2279H17.2391H17.2503H17.2615H17.2727H17.2839H17.2952H17.3064H17.3176H17.3289H17.3401H17.3513H17.3626H17.3739H17.3851H17.3964H17.4076H17.4189H17.4302H17.4415H17.4528H17.4641H17.4754H17.4867H17.498H17.5093H17.5207H17.532H17.5434H17.5547H17.5661H17.5774H17.5888H17.6002H17.6116H17.623H17.6344H17.6458H17.6572H17.6686H17.68H17.6915H17.7029H17.7144H17.7259H17.7373H17.7488H17.7603H17.7718H17.7833H17.7949H17.8064H17.8179H17.8295H17.841H17.8526H17.8642H17.8758H17.8874H17.899H17.9106H17.9223H17.9339H17.9456H17.9572H17.9689H17.9806H17.9923H18.004H18.0157H18.0275H18.0392H18.051H18.0627H18.0745H18.0863H18.0981H18.1099H18.1218H18.1336H18.1455H18.1573H18.1692H18.1811H18.193H18.2049H18.2169H18.2288H18.2408H18.2528H18.2648H18.2768H18.2888H18.3008H18.3129H18.3249H18.337H18.3491H18.3612H18.3733H18.3855H18.3976H18.4098H18.422H18.4342H18.4464H18.4587H18.4709H18.4832H18.4954H18.5077H18.5201H18.5324H18.5447H18.5571H18.5695H18.5819H18.5943H18.6067H18.6192H18.6317H18.6441H18.6567H18.6692H18.6817H18.6943H18.7069H18.7194H18.7321H18.7447H18.7573H18.77H18.7827H18.7954H18.8081H18.8209H18.8337H18.8464H18.8592H18.8721H18.8849H18.8978H18.9107H18.9236H18.9365H18.9494H18.9624H18.9754H18.9884H19.0014H19.0145H19.0276H19.0407H19.0538H19.0669H19.0801H19.0933H19.1065H19.1197H19.1329H19.1462H19.1595H19.1728H19.1861H19.1995H19.2129H19.2263H19.2397H19.2532H19.2666H19.2801H19.2937H19.3072H19.3208Z" fill="#26A581"/>
</g>
</g>
</svg>
