<svg width="32" height="32" viewBox="0 0 32 32" fill="none" xmlns="http://www.w3.org/2000/svg">
<g id="Frame 5">
<g id="Union">
<mask id="path-1-inside-1_1701_8167" fill="white">
<path fill-rule="evenodd" clip-rule="evenodd" d="M14.5363 5.73223L5.73223 14.5363C4.75592 15.5126 4.75592 17.0955 5.73223 18.0718L14.5363 26.8759C15.5126 27.8522 17.0955 27.8522 18.0718 26.8759L26.8759 18.0718C27.8522 17.0955 27.8522 15.5126 26.8759 14.5363L18.0718 5.73223C17.0955 4.75592 15.5126 4.75592 14.5363 5.73223ZM6.79289 17.0111C6.40237 16.6206 6.40237 15.9875 6.79289 15.5969L15.5969 6.79289C15.9875 6.40237 16.6206 6.40237 17.0111 6.79289L25.8152 15.5969C26.2057 15.9875 26.2057 16.6206 25.8152 17.0111L17.0111 25.8152C16.6206 26.2057 15.9875 26.2057 15.5969 25.8152L6.79289 17.0111ZM19.3208 16.6702H19.3291L18.1094 17.8898L19.1701 18.9505L21.6701 16.4505L22.2004 15.9202L21.6701 15.3898L19.1701 12.8898L18.1094 13.9505L19.3291 15.1702H19.3208H19.3072H19.2937H19.2801H19.2666H19.2532H19.2397H19.2263H19.2129H19.1995H19.1861H19.1728H19.1595H19.1462H19.1329H19.1197H19.1065H19.0933H19.0801H19.0669H19.0538H19.0407H19.0276H19.0145H19.0014H18.9884H18.9754H18.9624H18.9494H18.9365H18.9236H18.9107H18.8978H18.8849H18.8721H18.8592H18.8464H18.8337H18.8209H18.8081H18.7954H18.7827H18.77H18.7573H18.7447H18.7321H18.7194H18.7069H18.6943H18.6817H18.6692H18.6567H18.6441H18.6317H18.6192H18.6067H18.5943H18.5819H18.5695H18.5571H18.5447H18.5324H18.5201H18.5077H18.4954H18.4832H18.4709H18.4587H18.4464H18.4342H18.422H18.4098H18.3976H18.3855H18.3733H18.3612H18.3491H18.337H18.3249H18.3129H18.3008H18.2888H18.2768H18.2648H18.2528H18.2408H18.2288H18.2169H18.2049H18.193H18.1811H18.1692H18.1573H18.1455H18.1336H18.1218H18.1099H18.0981H18.0863H18.0745H18.0627H18.051H18.0392H18.0275H18.0157H18.004H17.9923H17.9806H17.9689H17.9572H17.9456H17.9339H17.9223H17.9106H17.899H17.8874H17.8758H17.8642H17.8526H17.841H17.8295H17.8179H17.8064H17.7949H17.7833H17.7718H17.7603H17.7488H17.7373H17.7259H17.7144H17.7029H17.6915H17.68H17.6686H17.6572H17.6458H17.6344H17.623H17.6116H17.6002H17.5888H17.5774H17.5661H17.5547H17.5434H17.532H17.5207H17.5093H17.498H17.4867H17.4754H17.4641H17.4528H17.4415H17.4302H17.4189H17.4076H17.3964H17.3851H17.3739H17.3626H17.3513H17.3401H17.3289H17.3176H17.3064H17.2952H17.2839H17.2727H17.2615H17.2503H17.2391H17.2279H17.2167H17.2055H17.1943H17.1831H17.1719H17.1607H17.1496H17.1384H17.1272H17.116H17.1049H17.0937H17.0825H17.0714H17.0602H17.0491H17.0379H17.0267H17.0156H17.0044H16.9933H16.9821H16.971H16.9598H16.9487H16.9375H16.9264H16.9152H16.9041H16.8929H16.8818H16.8706H16.8595H16.8483H16.8372H16.826H16.8149H16.8038H16.7926H16.7814H16.7703H16.7591H16.748H16.7368H16.7257H16.7145H16.7033H16.6922H16.681H16.6698H16.6587H16.6475H16.6363H16.6251H16.614H16.6028H16.5916H16.5804H16.5692H16.558H16.5468H16.5356H16.5244H16.5132H16.502H16.4907H16.4795H16.4683H16.4571H16.4458H16.4346H16.4233H16.4121H16.4008H16.3896H16.3783H16.367H16.3557H16.3445H16.3332H16.3219H16.3106H16.2993H16.288H16.2766H16.2653H16.254H16.2426H16.2313H16.2199H16.2086H16.1972H16.1858H16.1744H16.1631H16.1517H16.1403H16.1288H16.1174H16.106H16.0946H16.0831H16.0716H16.0602H16.0487H16.0372H16.0257H16.0142H16.0027H15.9912H15.9797H15.9682H15.9566H15.9451H15.9335H15.9219H15.9103H15.8987H15.8871H15.8755H15.8639H15.8523H15.8406H15.8289H15.8173H15.8056H15.7939H15.7822H15.7705H15.7588H15.747H15.7353H15.7235H15.7117H15.6999H15.6881H15.6763H15.6645H15.6527H15.6408H15.629H15.6171H15.6052H15.5933H15.5814H15.5694H15.5575H15.5455H15.5336H15.5216H15.5096H15.4976H15.4856H15.4735H15.4615H15.4494H15.4373H15.4252H15.4131H15.401H15.3888H15.3766H15.3645H15.3523H15.3401H15.3278H15.3156H15.3033H15.2911H15.2788H15.2665H15.2542H15.2418H15.2295H15.2171H15.2047H15.1923H15.1799H15.1674H15.155H15.1425H15.13H15.1175H15.105H15.0924H15.0798H15.0673H15.0546H15.042H15.0294H15.0167H15.004H14.9914H14.9786H14.9659H14.9531H14.9404H14.9276H14.9148H14.9019H14.8891H14.8762H14.8633H14.8504H14.8375H14.8245H14.8115H14.7985H14.7855H14.7725H14.7594H14.7463H14.7332H14.7201H14.7069H14.6938H14.6806H14.6674H14.6541H14.6409C13.1226 15.1702 11.8898 16.4008 11.8898 17.9202V19.4202H13.3898V17.9202C13.3898 17.2303 13.95 16.6702 14.6409 16.6702H14.6541H14.6674H14.6806H14.6938H14.7069H14.7201H14.7332H14.7463H14.7594H14.7725H14.7855H14.7985H14.8115H14.8245H14.8375H14.8504H14.8633H14.8762H14.8891H14.9019H14.9148H14.9276H14.9404H14.9531H14.9659H14.9786H14.9914H15.004H15.0167H15.0294H15.042H15.0546H15.0673H15.0798H15.0924H15.105H15.1175H15.13H15.1425H15.155H15.1674H15.1799H15.1923H15.2047H15.2171H15.2295H15.2418H15.2542H15.2665H15.2788H15.2911H15.3033H15.3156H15.3278H15.3401H15.3523H15.3645H15.3766H15.3888H15.401H15.4131H15.4252H15.4373H15.4494H15.4615H15.4735H15.4856H15.4976H15.5096H15.5216H15.5336H15.5455H15.5575H15.5694H15.5814H15.5933H15.6052H15.6171H15.629H15.6408H15.6527H15.6645H15.6763H15.6881H15.6999H15.7117H15.7235H15.7353H15.747H15.7588H15.7705H15.7822H15.7939H15.8056H15.8173H15.8289H15.8406H15.8523H15.8639H15.8755H15.8871H15.8987H15.9103H15.9219H15.9335H15.9451H15.9566H15.9682H15.9797H15.9912H16.0027H16.0142H16.0257H16.0372H16.0487H16.0602H16.0716H16.0831H16.0946H16.106H16.1174H16.1288H16.1403H16.1517H16.1631H16.1744H16.1858H16.1972H16.2086H16.2199H16.2313H16.2426H16.254H16.2653H16.2766H16.288H16.2993H16.3106H16.3219H16.3332H16.3445H16.3557H16.367H16.3783H16.3896H16.4008H16.4121H16.4233H16.4346H16.4458H16.4571H16.4683H16.4795H16.4907H16.502H16.5132H16.5244H16.5356H16.5468H16.558H16.5692H16.5804H16.5916H16.6028H16.614H16.6251H16.6363H16.6475H16.6587H16.6698H16.681H16.6922H16.7033H16.7145H16.7257H16.7368H16.748H16.7591H16.7703H16.7814H16.7926H16.8038H16.8149H16.826H16.8372H16.8483H16.8595H16.8706H16.8818H16.8929H16.9041H16.9152H16.9264H16.9375H16.9487H16.9598H16.971H16.9821H16.9933H17.0044H17.0156H17.0267H17.0379H17.0491H17.0602H17.0714H17.0825H17.0937H17.1049H17.116H17.1272H17.1384H17.1496H17.1607H17.1719H17.1831H17.1943H17.2055H17.2167H17.2279H17.2391H17.2503H17.2615H17.2727H17.2839H17.2952H17.3064H17.3176H17.3289H17.3401H17.3513H17.3626H17.3739H17.3851H17.3964H17.4076H17.4189H17.4302H17.4415H17.4528H17.4641H17.4754H17.4867H17.498H17.5093H17.5207H17.532H17.5434H17.5547H17.5661H17.5774H17.5888H17.6002H17.6116H17.623H17.6344H17.6458H17.6572H17.6686H17.68H17.6915H17.7029H17.7144H17.7259H17.7373H17.7488H17.7603H17.7718H17.7833H17.7949H17.8064H17.8179H17.8295H17.841H17.8526H17.8642H17.8758H17.8874H17.899H17.9106H17.9223H17.9339H17.9456H17.9572H17.9689H17.9806H17.9923H18.004H18.0157H18.0275H18.0392H18.051H18.0627H18.0745H18.0863H18.0981H18.1099H18.1218H18.1336H18.1455H18.1573H18.1692H18.1811H18.193H18.2049H18.2169H18.2288H18.2408H18.2528H18.2648H18.2768H18.2888H18.3008H18.3129H18.3249H18.337H18.3491H18.3612H18.3733H18.3855H18.3976H18.4098H18.422H18.4342H18.4464H18.4587H18.4709H18.4832H18.4954H18.5077H18.5201H18.5324H18.5447H18.5571H18.5695H18.5819H18.5943H18.6067H18.6192H18.6317H18.6441H18.6567H18.6692H18.6817H18.6943H18.7069H18.7194H18.7321H18.7447H18.7573H18.77H18.7827H18.7954H18.8081H18.8209H18.8337H18.8464H18.8592H18.8721H18.8849H18.8978H18.9107H18.9236H18.9365H18.9494H18.9624H18.9754H18.9884H19.0014H19.0145H19.0276H19.0407H19.0538H19.0669H19.0801H19.0933H19.1065H19.1197H19.1329H19.1462H19.1595H19.1728H19.1861H19.1995H19.2129H19.2263H19.2397H19.2532H19.2666H19.2801H19.2937H19.3072H19.3208Z"/>
</mask>
<path fill-rule="evenodd" clip-rule="evenodd" d="M14.5363 5.73223L5.73223 14.5363C4.75592 15.5126 4.75592 17.0955 5.73223 18.0718L14.5363 26.8759C15.5126 27.8522 17.0955 27.8522 18.0718 26.8759L26.8759 18.0718C27.8522 17.0955 27.8522 15.5126 26.8759 14.5363L18.0718 5.73223C17.0955 4.75592 15.5126 4.75592 14.5363 5.73223ZM6.79289 17.0111C6.40237 16.6206 6.40237 15.9875 6.79289 15.5969L15.5969 6.79289C15.9875 6.40237 16.6206 6.40237 17.0111 6.79289L25.8152 15.5969C26.2057 15.9875 26.2057 16.6206 25.8152 17.0111L17.0111 25.8152C16.6206 26.2057 15.9875 26.2057 15.5969 25.8152L6.79289 17.0111ZM19.3208 16.6702H19.3291L18.1094 17.8898L19.1701 18.9505L21.6701 16.4505L22.2004 15.9202L21.6701 15.3898L19.1701 12.8898L18.1094 13.9505L19.3291 15.1702H19.3208H19.3072H19.2937H19.2801H19.2666H19.2532H19.2397H19.2263H19.2129H19.1995H19.1861H19.1728H19.1595H19.1462H19.1329H19.1197H19.1065H19.0933H19.0801H19.0669H19.0538H19.0407H19.0276H19.0145H19.0014H18.9884H18.9754H18.9624H18.9494H18.9365H18.9236H18.9107H18.8978H18.8849H18.8721H18.8592H18.8464H18.8337H18.8209H18.8081H18.7954H18.7827H18.77H18.7573H18.7447H18.7321H18.7194H18.7069H18.6943H18.6817H18.6692H18.6567H18.6441H18.6317H18.6192H18.6067H18.5943H18.5819H18.5695H18.5571H18.5447H18.5324H18.5201H18.5077H18.4954H18.4832H18.4709H18.4587H18.4464H18.4342H18.422H18.4098H18.3976H18.3855H18.3733H18.3612H18.3491H18.337H18.3249H18.3129H18.3008H18.2888H18.2768H18.2648H18.2528H18.2408H18.2288H18.2169H18.2049H18.193H18.1811H18.1692H18.1573H18.1455H18.1336H18.1218H18.1099H18.0981H18.0863H18.0745H18.0627H18.051H18.0392H18.0275H18.0157H18.004H17.9923H17.9806H17.9689H17.9572H17.9456H17.9339H17.9223H17.9106H17.899H17.8874H17.8758H17.8642H17.8526H17.841H17.8295H17.8179H17.8064H17.7949H17.7833H17.7718H17.7603H17.7488H17.7373H17.7259H17.7144H17.7029H17.6915H17.68H17.6686H17.6572H17.6458H17.6344H17.623H17.6116H17.6002H17.5888H17.5774H17.5661H17.5547H17.5434H17.532H17.5207H17.5093H17.498H17.4867H17.4754H17.4641H17.4528H17.4415H17.4302H17.4189H17.4076H17.3964H17.3851H17.3739H17.3626H17.3513H17.3401H17.3289H17.3176H17.3064H17.2952H17.2839H17.2727H17.2615H17.2503H17.2391H17.2279H17.2167H17.2055H17.1943H17.1831H17.1719H17.1607H17.1496H17.1384H17.1272H17.116H17.1049H17.0937H17.0825H17.0714H17.0602H17.0491H17.0379H17.0267H17.0156H17.0044H16.9933H16.9821H16.971H16.9598H16.9487H16.9375H16.9264H16.9152H16.9041H16.8929H16.8818H16.8706H16.8595H16.8483H16.8372H16.826H16.8149H16.8038H16.7926H16.7814H16.7703H16.7591H16.748H16.7368H16.7257H16.7145H16.7033H16.6922H16.681H16.6698H16.6587H16.6475H16.6363H16.6251H16.614H16.6028H16.5916H16.5804H16.5692H16.558H16.5468H16.5356H16.5244H16.5132H16.502H16.4907H16.4795H16.4683H16.4571H16.4458H16.4346H16.4233H16.4121H16.4008H16.3896H16.3783H16.367H16.3557H16.3445H16.3332H16.3219H16.3106H16.2993H16.288H16.2766H16.2653H16.254H16.2426H16.2313H16.2199H16.2086H16.1972H16.1858H16.1744H16.1631H16.1517H16.1403H16.1288H16.1174H16.106H16.0946H16.0831H16.0716H16.0602H16.0487H16.0372H16.0257H16.0142H16.0027H15.9912H15.9797H15.9682H15.9566H15.9451H15.9335H15.9219H15.9103H15.8987H15.8871H15.8755H15.8639H15.8523H15.8406H15.8289H15.8173H15.8056H15.7939H15.7822H15.7705H15.7588H15.747H15.7353H15.7235H15.7117H15.6999H15.6881H15.6763H15.6645H15.6527H15.6408H15.629H15.6171H15.6052H15.5933H15.5814H15.5694H15.5575H15.5455H15.5336H15.5216H15.5096H15.4976H15.4856H15.4735H15.4615H15.4494H15.4373H15.4252H15.4131H15.401H15.3888H15.3766H15.3645H15.3523H15.3401H15.3278H15.3156H15.3033H15.2911H15.2788H15.2665H15.2542H15.2418H15.2295H15.2171H15.2047H15.1923H15.1799H15.1674H15.155H15.1425H15.13H15.1175H15.105H15.0924H15.0798H15.0673H15.0546H15.042H15.0294H15.0167H15.004H14.9914H14.9786H14.9659H14.9531H14.9404H14.9276H14.9148H14.9019H14.8891H14.8762H14.8633H14.8504H14.8375H14.8245H14.8115H14.7985H14.7855H14.7725H14.7594H14.7463H14.7332H14.7201H14.7069H14.6938H14.6806H14.6674H14.6541H14.6409C13.1226 15.1702 11.8898 16.4008 11.8898 17.9202V19.4202H13.3898V17.9202C13.3898 17.2303 13.95 16.6702 14.6409 16.6702H14.6541H14.6674H14.6806H14.6938H14.7069H14.7201H14.7332H14.7463H14.7594H14.7725H14.7855H14.7985H14.8115H14.8245H14.8375H14.8504H14.8633H14.8762H14.8891H14.9019H14.9148H14.9276H14.9404H14.9531H14.9659H14.9786H14.9914H15.004H15.0167H15.0294H15.042H15.0546H15.0673H15.0798H15.0924H15.105H15.1175H15.13H15.1425H15.155H15.1674H15.1799H15.1923H15.2047H15.2171H15.2295H15.2418H15.2542H15.2665H15.2788H15.2911H15.3033H15.3156H15.3278H15.3401H15.3523H15.3645H15.3766H15.3888H15.401H15.4131H15.4252H15.4373H15.4494H15.4615H15.4735H15.4856H15.4976H15.5096H15.5216H15.5336H15.5455H15.5575H15.5694H15.5814H15.5933H15.6052H15.6171H15.629H15.6408H15.6527H15.6645H15.6763H15.6881H15.6999H15.7117H15.7235H15.7353H15.747H15.7588H15.7705H15.7822H15.7939H15.8056H15.8173H15.8289H15.8406H15.8523H15.8639H15.8755H15.8871H15.8987H15.9103H15.9219H15.9335H15.9451H15.9566H15.9682H15.9797H15.9912H16.0027H16.0142H16.0257H16.0372H16.0487H16.0602H16.0716H16.0831H16.0946H16.106H16.1174H16.1288H16.1403H16.1517H16.1631H16.1744H16.1858H16.1972H16.2086H16.2199H16.2313H16.2426H16.254H16.2653H16.2766H16.288H16.2993H16.3106H16.3219H16.3332H16.3445H16.3557H16.367H16.3783H16.3896H16.4008H16.4121H16.4233H16.4346H16.4458H16.4571H16.4683H16.4795H16.4907H16.502H16.5132H16.5244H16.5356H16.5468H16.558H16.5692H16.5804H16.5916H16.6028H16.614H16.6251H16.6363H16.6475H16.6587H16.6698H16.681H16.6922H16.7033H16.7145H16.7257H16.7368H16.748H16.7591H16.7703H16.7814H16.7926H16.8038H16.8149H16.826H16.8372H16.8483H16.8595H16.8706H16.8818H16.8929H16.9041H16.9152H16.9264H16.9375H16.9487H16.9598H16.971H16.9821H16.9933H17.0044H17.0156H17.0267H17.0379H17.0491H17.0602H17.0714H17.0825H17.0937H17.1049H17.116H17.1272H17.1384H17.1496H17.1607H17.1719H17.1831H17.1943H17.2055H17.2167H17.2279H17.2391H17.2503H17.2615H17.2727H17.2839H17.2952H17.3064H17.3176H17.3289H17.3401H17.3513H17.3626H17.3739H17.3851H17.3964H17.4076H17.4189H17.4302H17.4415H17.4528H17.4641H17.4754H17.4867H17.498H17.5093H17.5207H17.532H17.5434H17.5547H17.5661H17.5774H17.5888H17.6002H17.6116H17.623H17.6344H17.6458H17.6572H17.6686H17.68H17.6915H17.7029H17.7144H17.7259H17.7373H17.7488H17.7603H17.7718H17.7833H17.7949H17.8064H17.8179H17.8295H17.841H17.8526H17.8642H17.8758H17.8874H17.899H17.9106H17.9223H17.9339H17.9456H17.9572H17.9689H17.9806H17.9923H18.004H18.0157H18.0275H18.0392H18.051H18.0627H18.0745H18.0863H18.0981H18.1099H18.1218H18.1336H18.1455H18.1573H18.1692H18.1811H18.193H18.2049H18.2169H18.2288H18.2408H18.2528H18.2648H18.2768H18.2888H18.3008H18.3129H18.3249H18.337H18.3491H18.3612H18.3733H18.3855H18.3976H18.4098H18.422H18.4342H18.4464H18.4587H18.4709H18.4832H18.4954H18.5077H18.5201H18.5324H18.5447H18.5571H18.5695H18.5819H18.5943H18.6067H18.6192H18.6317H18.6441H18.6567H18.6692H18.6817H18.6943H18.7069H18.7194H18.7321H18.7447H18.7573H18.77H18.7827H18.7954H18.8081H18.8209H18.8337H18.8464H18.8592H18.8721H18.8849H18.8978H18.9107H18.9236H18.9365H18.9494H18.9624H18.9754H18.9884H19.0014H19.0145H19.0276H19.0407H19.0538H19.0669H19.0801H19.0933H19.1065H19.1197H19.1329H19.1462H19.1595H19.1728H19.1861H19.1995H19.2129H19.2263H19.2397H19.2532H19.2666H19.2801H19.2937H19.3072H19.3208Z" fill="#091625"/>
<path d="M5.73223 14.5363L5.02513 13.8292H5.02513L5.73223 14.5363ZM14.5363 5.73223L15.2434 6.43934V6.43934L14.5363 5.73223ZM5.73223 18.0718L6.43934 17.3647H6.43934L5.73223 18.0718ZM14.5363 26.8759L13.8292 27.583L14.5363 26.8759ZM18.0718 26.8759L17.3647 26.1687L17.3647 26.1687L18.0718 26.8759ZM26.8759 18.0718L27.583 18.7789L26.8759 18.0718ZM26.8759 14.5363L26.1687 15.2434H26.1687L26.8759 14.5363ZM18.0718 5.73223L18.7789 5.02513V5.02513L18.0718 5.73223ZM6.79289 15.5969L7.5 16.304H7.5L6.79289 15.5969ZM6.79289 17.0111L7.5 16.304L7.5 16.304L6.79289 17.0111ZM15.5969 6.79289L16.304 7.5L16.304 7.5L15.5969 6.79289ZM17.0111 6.79289L16.304 7.5L16.304 7.5L17.0111 6.79289ZM25.8152 15.5969L26.5223 14.8898L25.8152 15.5969ZM25.8152 17.0111L25.1081 16.304L25.1081 16.304L25.8152 17.0111ZM17.0111 25.8152L17.7183 26.5223H17.7183L17.0111 25.8152ZM15.5969 25.8152L16.304 25.1081L16.304 25.1081L15.5969 25.8152ZM19.3291 16.6702L20.0362 17.3773L21.7433 15.6702H19.3291V16.6702ZM18.1094 17.8898L17.4023 17.1827L16.6952 17.8898L17.4023 18.5969L18.1094 17.8898ZM19.1701 18.9505L18.463 19.6576L19.1701 20.3647L19.8772 19.6576L19.1701 18.9505ZM21.6701 16.4505L20.963 15.7434V15.7434L21.6701 16.4505ZM22.2004 15.9202L22.9075 16.6273L23.6146 15.9202L22.9075 15.2131L22.2004 15.9202ZM21.6701 15.3898L22.3772 14.6827H22.3772L21.6701 15.3898ZM19.1701 12.8898L19.8772 12.1827L19.1701 11.4756L18.463 12.1827L19.1701 12.8898ZM18.1094 13.9505L17.4023 13.2434L16.6952 13.9505L17.4023 14.6576L18.1094 13.9505ZM19.3291 15.1702V16.1702H21.7433L20.0362 14.4631L19.3291 15.1702ZM11.8898 19.4202H10.8898V20.4202H11.8898V19.4202ZM13.3898 19.4202V20.4202H14.3898V19.4202H13.3898ZM6.43934 15.2434L15.2434 6.43934L13.8292 5.02513L5.02513 13.8292L6.43934 15.2434ZM6.43934 17.3647C5.85355 16.7789 5.85355 15.8292 6.43934 15.2434L5.02513 13.8292C3.65829 15.196 3.65829 17.4121 5.02513 18.7789L6.43934 17.3647ZM15.2434 26.1687L6.43934 17.3647L5.02513 18.7789L13.8292 27.583L15.2434 26.1687ZM17.3647 26.1687C16.7789 26.7545 15.8292 26.7545 15.2434 26.1687L13.8292 27.583C15.196 28.9498 17.4121 28.9498 18.7789 27.583L17.3647 26.1687ZM26.1687 17.3647L17.3647 26.1687L18.7789 27.583L27.583 18.7789L26.1687 17.3647ZM26.1687 15.2434C26.7545 15.8292 26.7545 16.7789 26.1687 17.3647L27.583 18.7789C28.9498 17.4121 28.9498 15.196 27.583 13.8292L26.1687 15.2434ZM17.3647 6.43934L26.1687 15.2434L27.583 13.8292L18.7789 5.02513L17.3647 6.43934ZM15.2434 6.43934C15.8292 5.85355 16.7789 5.85355 17.3647 6.43934L18.7789 5.02513C17.4121 3.65829 15.196 3.65829 13.8292 5.02513L15.2434 6.43934ZM6.08579 14.8898C5.30474 15.6709 5.30474 16.9372 6.08579 17.7183L7.5 16.304L7.5 16.304L6.08579 14.8898ZM14.8898 6.08579L6.08579 14.8898L7.5 16.304L16.304 7.5L14.8898 6.08579ZM17.7183 6.08579C16.9372 5.30474 15.6709 5.30474 14.8898 6.08579L16.304 7.5L16.304 7.5L17.7183 6.08579ZM26.5223 14.8898L17.7183 6.08579L16.304 7.5L25.1081 16.304L26.5223 14.8898ZM26.5223 17.7183C27.3033 16.9372 27.3033 15.6709 26.5223 14.8898L25.1081 16.304V16.304L26.5223 17.7183ZM17.7183 26.5223L26.5223 17.7183L25.1081 16.304L16.304 25.1081L17.7183 26.5223ZM14.8898 26.5223C15.6709 27.3033 16.9372 27.3033 17.7183 26.5223L16.304 25.1081L14.8898 26.5223ZM6.08579 17.7183L14.8898 26.5223L16.304 25.1081L7.5 16.304L6.08579 17.7183ZM19.3291 15.6702H19.3208V17.6702H19.3291V15.6702ZM18.8165 18.5969L20.0362 17.3773L18.622 15.9631L17.4023 17.1827L18.8165 18.5969ZM19.8772 18.2434L18.8165 17.1827L17.4023 18.5969L18.463 19.6576L19.8772 18.2434ZM20.963 15.7434L18.463 18.2434L19.8772 19.6576L22.3772 17.1576L20.963 15.7434ZM21.4933 15.2131L20.963 15.7434L22.3772 17.1576L22.9075 16.6273L21.4933 15.2131ZM20.963 16.0969L21.4933 16.6273L22.9075 15.2131L22.3772 14.6827L20.963 16.0969ZM18.463 13.5969L20.963 16.0969L22.3772 14.6827L19.8772 12.1827L18.463 13.5969ZM18.8165 14.6576L19.8772 13.5969L18.463 12.1827L17.4023 13.2434L18.8165 14.6576ZM20.0362 14.4631L18.8165 13.2434L17.4023 14.6576L18.622 15.8773L20.0362 14.4631ZM19.3208 16.1702H19.3291V14.1702H19.3208V16.1702ZM19.3072 16.1702H19.3208V14.1702H19.3072V16.1702ZM19.2937 16.1702H19.3072V14.1702H19.2937V16.1702ZM19.2801 16.1702H19.2937V14.1702H19.2801V16.1702ZM19.2666 16.1702H19.2801V14.1702H19.2666V16.1702ZM19.2532 16.1702H19.2666V14.1702H19.2532V16.1702ZM19.2397 16.1702H19.2532V14.1702H19.2397V16.1702ZM19.2263 16.1702H19.2397V14.1702H19.2263V16.1702ZM19.2129 16.1702H19.2263V14.1702H19.2129V16.1702ZM19.1995 16.1702H19.2129V14.1702H19.1995V16.1702ZM19.1861 16.1702H19.1995V14.1702H19.1861V16.1702ZM19.1728 16.1702H19.1861V14.1702H19.1728V16.1702ZM19.1595 16.1702H19.1728V14.1702H19.1595V16.1702ZM19.1462 16.1702H19.1595V14.1702H19.1462V16.1702ZM19.1329 16.1702H19.1462V14.1702H19.1329V16.1702ZM19.1197 16.1702H19.1329V14.1702H19.1197V16.1702ZM19.1065 16.1702H19.1197V14.1702H19.1065V16.1702ZM19.0933 16.1702H19.1065V14.1702H19.0933V16.1702ZM19.0801 16.1702H19.0933V14.1702H19.0801V16.1702ZM19.0669 16.1702H19.0801V14.1702H19.0669V16.1702ZM19.0538 16.1702H19.0669V14.1702H19.0538V16.1702ZM19.0407 16.1702H19.0538V14.1702H19.0407V16.1702ZM19.0276 16.1702H19.0407V14.1702H19.0276V16.1702ZM19.0145 16.1702H19.0276V14.1702H19.0145V16.1702ZM19.0014 16.1702H19.0145V14.1702H19.0014V16.1702ZM18.9884 16.1702H19.0014V14.1702H18.9884V16.1702ZM18.9754 16.1702H18.9884V14.1702H18.9754V16.1702ZM18.9624 16.1702H18.9754V14.1702H18.9624V16.1702ZM18.9494 16.1702H18.9624V14.1702H18.9494V16.1702ZM18.9365 16.1702H18.9494V14.1702H18.9365V16.1702ZM18.9236 16.1702H18.9365V14.1702H18.9236V16.1702ZM18.9107 16.1702H18.9236V14.1702H18.9107V16.1702ZM18.8978 16.1702H18.9107V14.1702H18.8978V16.1702ZM18.8849 16.1702H18.8978V14.1702H18.8849V16.1702ZM18.8721 16.1702H18.8849V14.1702H18.8721V16.1702ZM18.8592 16.1702H18.8721V14.1702H18.8592V16.1702ZM18.8464 16.1702H18.8592V14.1702H18.8464V16.1702ZM18.8337 16.1702H18.8464V14.1702H18.8337V16.1702ZM18.8209 16.1702H18.8337V14.1702H18.8209V16.1702ZM18.8081 16.1702H18.8209V14.1702H18.8081V16.1702ZM18.7954 16.1702H18.8081V14.1702H18.7954V16.1702ZM18.7827 16.1702H18.7954V14.1702H18.7827V16.1702ZM18.77 16.1702H18.7827V14.1702H18.77V16.1702ZM18.7573 16.1702H18.77V14.1702H18.7573V16.1702ZM18.7447 16.1702H18.7573V14.1702H18.7447V16.1702ZM18.7321 16.1702H18.7447V14.1702H18.7321V16.1702ZM18.7194 16.1702H18.7321V14.1702H18.7194V16.1702ZM18.7069 16.1702H18.7194V14.1702H18.7069V16.1702ZM18.6943 16.1702H18.7069V14.1702H18.6943V16.1702ZM18.6817 16.1702H18.6943V14.1702H18.6817V16.1702ZM18.6692 16.1702H18.6817V14.1702H18.6692V16.1702ZM18.6567 16.1702H18.6692V14.1702H18.6567V16.1702ZM18.6441 16.1702H18.6567V14.1702H18.6441V16.1702ZM18.6317 16.1702H18.6441V14.1702H18.6317V16.1702ZM18.6192 16.1702H18.6317V14.1702H18.6192V16.1702ZM18.6067 16.1702H18.6192V14.1702H18.6067V16.1702ZM18.5943 16.1702H18.6067V14.1702H18.5943V16.1702ZM18.5819 16.1702H18.5943V14.1702H18.5819V16.1702ZM18.5695 16.1702H18.5819V14.1702H18.5695V16.1702ZM18.5571 16.1702H18.5695V14.1702H18.5571V16.1702ZM18.5447 16.1702H18.5571V14.1702H18.5447V16.1702ZM18.5324 16.1702H18.5447V14.1702H18.5324V16.1702ZM18.5201 16.1702H18.5324V14.1702H18.5201V16.1702ZM18.5077 16.1702H18.5201V14.1702H18.5077V16.1702ZM18.4954 16.1702H18.5077V14.1702H18.4954V16.1702ZM18.4832 16.1702H18.4954V14.1702H18.4832V16.1702ZM18.4709 16.1702H18.4832V14.1702H18.4709V16.1702ZM18.4587 16.1702H18.4709V14.1702H18.4587V16.1702ZM18.4464 16.1702H18.4587V14.1702H18.4464V16.1702ZM18.4342 16.1702H18.4464V14.1702H18.4342V16.1702ZM18.422 16.1702H18.4342V14.1702H18.422V16.1702ZM18.4098 16.1702H18.422V14.1702H18.4098V16.1702ZM18.3976 16.1702H18.4098V14.1702H18.3976V16.1702ZM18.3855 16.1702H18.3976V14.1702H18.3855V16.1702ZM18.3733 16.1702H18.3855V14.1702H18.3733V16.1702ZM18.3612 16.1702H18.3733V14.1702H18.3612V16.1702ZM18.3491 16.1702H18.3612V14.1702H18.3491V16.1702ZM18.337 16.1702H18.3491V14.1702H18.337V16.1702ZM18.3249 16.1702H18.337V14.1702H18.3249V16.1702ZM18.3129 16.1702H18.3249V14.1702H18.3129V16.1702ZM18.3008 16.1702H18.3129V14.1702H18.3008V16.1702ZM18.2888 16.1702H18.3008V14.1702H18.2888V16.1702ZM18.2768 16.1702H18.2888V14.1702H18.2768V16.1702ZM18.2648 16.1702H18.2768V14.1702H18.2648V16.1702ZM18.2528 16.1702H18.2648V14.1702H18.2528V16.1702ZM18.2408 16.1702H18.2528V14.1702H18.2408V16.1702ZM18.2288 16.1702H18.2408V14.1702H18.2288V16.1702ZM18.2169 16.1702H18.2288V14.1702H18.2169V16.1702ZM18.2049 16.1702H18.2169V14.1702H18.2049V16.1702ZM18.193 16.1702H18.2049V14.1702H18.193V16.1702ZM18.1811 16.1702H18.193V14.1702H18.1811V16.1702ZM18.1692 16.1702H18.1811V14.1702H18.1692V16.1702ZM18.1573 16.1702H18.1692V14.1702H18.1573V16.1702ZM18.1455 16.1702H18.1573V14.1702H18.1455V16.1702ZM18.1336 16.1702H18.1455V14.1702H18.1336V16.1702ZM18.1218 16.1702H18.1336V14.1702H18.1218V16.1702ZM18.1099 16.1702H18.1218V14.1702H18.1099V16.1702ZM18.0981 16.1702H18.1099V14.1702H18.0981V16.1702ZM18.0863 16.1702H18.0981V14.1702H18.0863V16.1702ZM18.0745 16.1702H18.0863V14.1702H18.0745V16.1702ZM18.0627 16.1702H18.0745V14.1702H18.0627V16.1702ZM18.051 16.1702H18.0627V14.1702H18.051V16.1702ZM18.0392 16.1702H18.051V14.1702H18.0392V16.1702ZM18.0275 16.1702H18.0392V14.1702H18.0275V16.1702ZM18.0157 16.1702H18.0275V14.1702H18.0157V16.1702ZM18.004 16.1702H18.0157V14.1702H18.004V16.1702ZM17.9923 16.1702H18.004V14.1702H17.9923V16.1702ZM17.9806 16.1702H17.9923V14.1702H17.9806V16.1702ZM17.9689 16.1702H17.9806V14.1702H17.9689V16.1702ZM17.9572 16.1702H17.9689V14.1702H17.9572V16.1702ZM17.9456 16.1702H17.9572V14.1702H17.9456V16.1702ZM17.9339 16.1702H17.9456V14.1702H17.9339V16.1702ZM17.9223 16.1702H17.9339V14.1702H17.9223V16.1702ZM17.9106 16.1702H17.9223V14.1702H17.9106V16.1702ZM17.899 16.1702H17.9106V14.1702H17.899V16.1702ZM17.8874 16.1702H17.899V14.1702H17.8874V16.1702ZM17.8758 16.1702H17.8874V14.1702H17.8758V16.1702ZM17.8642 16.1702H17.8758V14.1702H17.8642V16.1702ZM17.8526 16.1702H17.8642V14.1702H17.8526V16.1702ZM17.841 16.1702H17.8526V14.1702H17.841V16.1702ZM17.8295 16.1702H17.841V14.1702H17.8295V16.1702ZM17.8179 16.1702H17.8295V14.1702H17.8179V16.1702ZM17.8064 16.1702H17.8179V14.1702H17.8064V16.1702ZM17.7949 16.1702H17.8064V14.1702H17.7949V16.1702ZM17.7833 16.1702H17.7949V14.1702H17.7833V16.1702ZM17.7718 16.1702H17.7833V14.1702H17.7718V16.1702ZM17.7603 16.1702H17.7718V14.1702H17.7603V16.1702ZM17.7488 16.1702H17.7603V14.1702H17.7488V16.1702ZM17.7373 16.1702H17.7488V14.1702H17.7373V16.1702ZM17.7259 16.1702H17.7373V14.1702H17.7259V16.1702ZM17.7144 16.1702H17.7259V14.1702H17.7144V16.1702ZM17.7029 16.1702H17.7144V14.1702H17.7029V16.1702ZM17.6915 16.1702H17.7029V14.1702H17.6915V16.1702ZM17.68 16.1702H17.6915V14.1702H17.68V16.1702ZM17.6686 16.1702H17.68V14.1702H17.6686V16.1702ZM17.6572 16.1702H17.6686V14.1702H17.6572V16.1702ZM17.6458 16.1702H17.6572V14.1702H17.6458V16.1702ZM17.6344 16.1702H17.6458V14.1702H17.6344V16.1702ZM17.623 16.1702H17.6344V14.1702H17.623V16.1702ZM17.6116 16.1702H17.623V14.1702H17.6116V16.1702ZM17.6002 16.1702H17.6116V14.1702H17.6002V16.1702ZM17.5888 16.1702H17.6002V14.1702H17.5888V16.1702ZM17.5774 16.1702H17.5888V14.1702H17.5774V16.1702ZM17.5661 16.1702H17.5774V14.1702H17.5661V16.1702ZM17.5547 16.1702H17.5661V14.1702H17.5547V16.1702ZM17.5434 16.1702H17.5547V14.1702H17.5434V16.1702ZM17.532 16.1702H17.5434V14.1702H17.532V16.1702ZM17.5207 16.1702H17.532V14.1702H17.5207V16.1702ZM17.5093 16.1702H17.5207V14.1702H17.5093V16.1702ZM17.498 16.1702H17.5093V14.1702H17.498V16.1702ZM17.4867 16.1702H17.498V14.1702H17.4867V16.1702ZM17.4754 16.1702H17.4867V14.1702H17.4754V16.1702ZM17.4641 16.1702H17.4754V14.1702H17.4641V16.1702ZM17.4528 16.1702H17.4641V14.1702H17.4528V16.1702ZM17.4415 16.1702H17.4528V14.1702H17.4415V16.1702ZM17.4302 16.1702H17.4415V14.1702H17.4302V16.1702ZM17.4189 16.1702H17.4302V14.1702H17.4189V16.1702ZM17.4076 16.1702H17.4189V14.1702H17.4076V16.1702ZM17.3964 16.1702H17.4076V14.1702H17.3964V16.1702ZM17.3851 16.1702H17.3964V14.1702H17.3851V16.1702ZM17.3739 16.1702H17.3851V14.1702H17.3739V16.1702ZM17.3626 16.1702H17.3739V14.1702H17.3626V16.1702ZM17.3513 16.1702H17.3626V14.1702H17.3513V16.1702ZM17.3401 16.1702H17.3513V14.1702H17.3401V16.1702ZM17.3289 16.1702H17.3401V14.1702H17.3289V16.1702ZM17.3176 16.1702H17.3289V14.1702H17.3176V16.1702ZM17.3064 16.1702H17.3176V14.1702H17.3064V16.1702ZM17.2952 16.1702H17.3064V14.1702H17.2952V16.1702ZM17.2839 16.1702H17.2952V14.1702H17.2839V16.1702ZM17.2727 16.1702H17.2839V14.1702H17.2727V16.1702ZM17.2615 16.1702H17.2727V14.1702H17.2615V16.1702ZM17.2503 16.1702H17.2615V14.1702H17.2503V16.1702ZM17.2391 16.1702H17.2503V14.1702H17.2391V16.1702ZM17.2279 16.1702H17.2391V14.1702H17.2279V16.1702ZM17.2167 16.1702H17.2279V14.1702H17.2167V16.1702ZM17.2055 16.1702H17.2167V14.1702H17.2055V16.1702ZM17.1943 16.1702H17.2055V14.1702H17.1943V16.1702ZM17.1831 16.1702H17.1943V14.1702H17.1831V16.1702ZM17.1719 16.1702H17.1831V14.1702H17.1719V16.1702ZM17.1607 16.1702H17.1719V14.1702H17.1607V16.1702ZM17.1496 16.1702H17.1607V14.1702H17.1496V16.1702ZM17.1384 16.1702H17.1496V14.1702H17.1384V16.1702ZM17.1272 16.1702H17.1384V14.1702H17.1272V16.1702ZM17.116 16.1702H17.1272V14.1702H17.116V16.1702ZM17.1049 16.1702H17.116V14.1702H17.1049V16.1702ZM17.0937 16.1702H17.1049V14.1702H17.0937V16.1702ZM17.0825 16.1702H17.0937V14.1702H17.0825V16.1702ZM17.0714 16.1702H17.0825V14.1702H17.0714V16.1702ZM17.0602 16.1702H17.0714V14.1702H17.0602V16.1702ZM17.0491 16.1702H17.0602V14.1702H17.0491V16.1702ZM17.0379 16.1702H17.0491V14.1702H17.0379V16.1702ZM17.0267 16.1702H17.0379V14.1702H17.0267V16.1702ZM17.0156 16.1702H17.0267V14.1702H17.0156V16.1702ZM17.0044 16.1702H17.0156V14.1702H17.0044V16.1702ZM16.9933 16.1702H17.0044V14.1702H16.9933V16.1702ZM16.9821 16.1702H16.9933V14.1702H16.9821V16.1702ZM16.971 16.1702H16.9821V14.1702H16.971V16.1702ZM16.9598 16.1702H16.971V14.1702H16.9598V16.1702ZM16.9487 16.1702H16.9598V14.1702H16.9487V16.1702ZM16.9375 16.1702H16.9487V14.1702H16.9375V16.1702ZM16.9264 16.1702H16.9375V14.1702H16.9264V16.1702ZM16.9152 16.1702H16.9264V14.1702H16.9152V16.1702ZM16.9041 16.1702H16.9152V14.1702H16.9041V16.1702ZM16.8929 16.1702H16.9041V14.1702H16.8929V16.1702ZM16.8818 16.1702H16.8929V14.1702H16.8818V16.1702ZM16.8706 16.1702H16.8818V14.1702H16.8706V16.1702ZM16.8595 16.1702H16.8706V14.1702H16.8595V16.1702ZM16.8483 16.1702H16.8595V14.1702H16.8483V16.1702ZM16.8372 16.1702H16.8483V14.1702H16.8372V16.1702ZM16.826 16.1702H16.8372V14.1702H16.826V16.1702ZM16.8149 16.1702H16.826V14.1702H16.8149V16.1702ZM16.8038 16.1702H16.8149V14.1702H16.8038V16.1702ZM16.7926 16.1702H16.8038V14.1702H16.7926V16.1702ZM16.7814 16.1702H16.7926V14.1702H16.7814V16.1702ZM16.7703 16.1702H16.7814V14.1702H16.7703V16.1702ZM16.7591 16.1702H16.7703V14.1702H16.7591V16.1702ZM16.748 16.1702H16.7591V14.1702H16.748V16.1702ZM16.7368 16.1702H16.748V14.1702H16.7368V16.1702ZM16.7257 16.1702H16.7368V14.1702H16.7257V16.1702ZM16.7145 16.1702H16.7257V14.1702H16.7145V16.1702ZM16.7033 16.1702H16.7145V14.1702H16.7033V16.1702ZM16.6922 16.1702H16.7033V14.1702H16.6922V16.1702ZM16.681 16.1702H16.6922V14.1702H16.681V16.1702ZM16.6698 16.1702H16.681V14.1702H16.6698V16.1702ZM16.6587 16.1702H16.6698V14.1702H16.6587V16.1702ZM16.6475 16.1702H16.6587V14.1702H16.6475V16.1702ZM16.6363 16.1702H16.6475V14.1702H16.6363V16.1702ZM16.6251 16.1702H16.6363V14.1702H16.6251V16.1702ZM16.614 16.1702H16.6251V14.1702H16.614V16.1702ZM16.6028 16.1702H16.614V14.1702H16.6028V16.1702ZM16.5916 16.1702H16.6028V14.1702H16.5916V16.1702ZM16.5804 16.1702H16.5916V14.1702H16.5804V16.1702ZM16.5692 16.1702H16.5804V14.1702H16.5692V16.1702ZM16.558 16.1702H16.5692V14.1702H16.558V16.1702ZM16.5468 16.1702H16.558V14.1702H16.5468V16.1702ZM16.5356 16.1702H16.5468V14.1702H16.5356V16.1702ZM16.5244 16.1702H16.5356V14.1702H16.5244V16.1702ZM16.5132 16.1702H16.5244V14.1702H16.5132V16.1702ZM16.502 16.1702H16.5132V14.1702H16.502V16.1702ZM16.4907 16.1702H16.502V14.1702H16.4907V16.1702ZM16.4795 16.1702H16.4907V14.1702H16.4795V16.1702ZM16.4683 16.1702H16.4795V14.1702H16.4683V16.1702ZM16.4571 16.1702H16.4683V14.1702H16.4571V16.1702ZM16.4458 16.1702H16.4571V14.1702H16.4458V16.1702ZM16.4346 16.1702H16.4458V14.1702H16.4346V16.1702ZM16.4233 16.1702H16.4346V14.1702H16.4233V16.1702ZM16.4121 16.1702H16.4233V14.1702H16.4121V16.1702ZM16.4008 16.1702H16.4121V14.1702H16.4008V16.1702ZM16.3896 16.1702H16.4008V14.1702H16.3896V16.1702ZM16.3783 16.1702H16.3896V14.1702H16.3783V16.1702ZM16.367 16.1702H16.3783V14.1702H16.367V16.1702ZM16.3557 16.1702H16.367V14.1702H16.3557V16.1702ZM16.3445 16.1702H16.3557V14.1702H16.3445V16.1702ZM16.3332 16.1702H16.3445V14.1702H16.3332V16.1702ZM16.3219 16.1702H16.3332V14.1702H16.3219V16.1702ZM16.3106 16.1702H16.3219V14.1702H16.3106V16.1702ZM16.2993 16.1702H16.3106V14.1702H16.2993V16.1702ZM16.288 16.1702H16.2993V14.1702H16.288V16.1702ZM16.2766 16.1702H16.288V14.1702H16.2766V16.1702ZM16.2653 16.1702H16.2766V14.1702H16.2653V16.1702ZM16.254 16.1702H16.2653V14.1702H16.254V16.1702ZM16.2426 16.1702H16.254V14.1702H16.2426V16.1702ZM16.2313 16.1702H16.2426V14.1702H16.2313V16.1702ZM16.2199 16.1702H16.2313V14.1702H16.2199V16.1702ZM16.2086 16.1702H16.2199V14.1702H16.2086V16.1702ZM16.1972 16.1702H16.2086V14.1702H16.1972V16.1702ZM16.1858 16.1702H16.1972V14.1702H16.1858V16.1702ZM16.1744 16.1702H16.1858V14.1702H16.1744V16.1702ZM16.1631 16.1702H16.1744V14.1702H16.1631V16.1702ZM16.1517 16.1702H16.1631V14.1702H16.1517V16.1702ZM16.1403 16.1702H16.1517V14.1702H16.1403V16.1702ZM16.1288 16.1702H16.1403V14.1702H16.1288V16.1702ZM16.1174 16.1702H16.1288V14.1702H16.1174V16.1702ZM16.106 16.1702H16.1174V14.1702H16.106V16.1702ZM16.0946 16.1702H16.106V14.1702H16.0946V16.1702ZM16.0831 16.1702H16.0946V14.1702H16.0831V16.1702ZM16.0716 16.1702H16.0831V14.1702H16.0716V16.1702ZM16.0602 16.1702H16.0716V14.1702H16.0602V16.1702ZM16.0487 16.1702H16.0602V14.1702H16.0487V16.1702ZM16.0372 16.1702H16.0487V14.1702H16.0372V16.1702ZM16.0257 16.1702H16.0372V14.1702H16.0257V16.1702ZM16.0142 16.1702H16.0257V14.1702H16.0142V16.1702ZM16.0027 16.1702H16.0142V14.1702H16.0027V16.1702ZM15.9912 16.1702H16.0027V14.1702H15.9912V16.1702ZM15.9797 16.1702H15.9912V14.1702H15.9797V16.1702ZM15.9682 16.1702H15.9797V14.1702H15.9682V16.1702ZM15.9566 16.1702H15.9682V14.1702H15.9566V16.1702ZM15.9451 16.1702H15.9566V14.1702H15.9451V16.1702ZM15.9335 16.1702H15.9451V14.1702H15.9335V16.1702ZM15.9219 16.1702H15.9335V14.1702H15.9219V16.1702ZM15.9103 16.1702H15.9219V14.1702H15.9103V16.1702ZM15.8987 16.1702H15.9103V14.1702H15.8987V16.1702ZM15.8871 16.1702H15.8987V14.1702H15.8871V16.1702ZM15.8755 16.1702H15.8871V14.1702H15.8755V16.1702ZM15.8639 16.1702H15.8755V14.1702H15.8639V16.1702ZM15.8523 16.1702H15.8639V14.1702H15.8523V16.1702ZM15.8406 16.1702H15.8523V14.1702H15.8406V16.1702ZM15.8289 16.1702H15.8406V14.1702H15.8289V16.1702ZM15.8173 16.1702H15.8289V14.1702H15.8173V16.1702ZM15.8056 16.1702H15.8173V14.1702H15.8056V16.1702ZM15.7939 16.1702H15.8056V14.1702H15.7939V16.1702ZM15.7822 16.1702H15.7939V14.1702H15.7822V16.1702ZM15.7705 16.1702H15.7822V14.1702H15.7705V16.1702ZM15.7588 16.1702H15.7705V14.1702H15.7588V16.1702ZM15.747 16.1702H15.7588V14.1702H15.747V16.1702ZM15.7353 16.1702H15.747V14.1702H15.7353V16.1702ZM15.7235 16.1702H15.7353V14.1702H15.7235V16.1702ZM15.7117 16.1702H15.7235V14.1702H15.7117V16.1702ZM15.6999 16.1702H15.7117V14.1702H15.6999V16.1702ZM15.6881 16.1702H15.6999V14.1702H15.6881V16.1702ZM15.6763 16.1702H15.6881V14.1702H15.6763V16.1702ZM15.6645 16.1702H15.6763V14.1702H15.6645V16.1702ZM15.6527 16.1702H15.6645V14.1702H15.6527V16.1702ZM15.6408 16.1702H15.6527V14.1702H15.6408V16.1702ZM15.629 16.1702H15.6408V14.1702H15.629V16.1702ZM15.6171 16.1702H15.629V14.1702H15.6171V16.1702ZM15.6052 16.1702H15.6171V14.1702H15.6052V16.1702ZM15.5933 16.1702H15.6052V14.1702H15.5933V16.1702ZM15.5814 16.1702H15.5933V14.1702H15.5814V16.1702ZM15.5694 16.1702H15.5814V14.1702H15.5694V16.1702ZM15.5575 16.1702H15.5694V14.1702H15.5575V16.1702ZM15.5455 16.1702H15.5575V14.1702H15.5455V16.1702ZM15.5336 16.1702H15.5455V14.1702H15.5336V16.1702ZM15.5216 16.1702H15.5336V14.1702H15.5216V16.1702ZM15.5096 16.1702H15.5216V14.1702H15.5096V16.1702ZM15.4976 16.1702H15.5096V14.1702H15.4976V16.1702ZM15.4856 16.1702H15.4976V14.1702H15.4856V16.1702ZM15.4735 16.1702H15.4856V14.1702H15.4735V16.1702ZM15.4615 16.1702H15.4735V14.1702H15.4615V16.1702ZM15.4494 16.1702H15.4615V14.1702H15.4494V16.1702ZM15.4373 16.1702H15.4494V14.1702H15.4373V16.1702ZM15.4252 16.1702H15.4373V14.1702H15.4252V16.1702ZM15.4131 16.1702H15.4252V14.1702H15.4131V16.1702ZM15.401 16.1702H15.4131V14.1702H15.401V16.1702ZM15.3888 16.1702H15.401V14.1702H15.3888V16.1702ZM15.3766 16.1702H15.3888V14.1702H15.3766V16.1702ZM15.3645 16.1702H15.3766V14.1702H15.3645V16.1702ZM15.3523 16.1702H15.3645V14.1702H15.3523V16.1702ZM15.3401 16.1702H15.3523V14.1702H15.3401V16.1702ZM15.3278 16.1702H15.3401V14.1702H15.3278V16.1702ZM15.3156 16.1702H15.3278V14.1702H15.3156V16.1702ZM15.3033 16.1702H15.3156V14.1702H15.3033V16.1702ZM15.2911 16.1702H15.3033V14.1702H15.2911V16.1702ZM15.2788 16.1702H15.2911V14.1702H15.2788V16.1702ZM15.2665 16.1702H15.2788V14.1702H15.2665V16.1702ZM15.2542 16.1702H15.2665V14.1702H15.2542V16.1702ZM15.2418 16.1702H15.2542V14.1702H15.2418V16.1702ZM15.2295 16.1702H15.2418V14.1702H15.2295V16.1702ZM15.2171 16.1702H15.2295V14.1702H15.2171V16.1702ZM15.2047 16.1702H15.2171V14.1702H15.2047V16.1702ZM15.1923 16.1702H15.2047V14.1702H15.1923V16.1702ZM15.1799 16.1702H15.1923V14.1702H15.1799V16.1702ZM15.1674 16.1702H15.1799V14.1702H15.1674V16.1702ZM15.155 16.1702H15.1674V14.1702H15.155V16.1702ZM15.1425 16.1702H15.155V14.1702H15.1425V16.1702ZM15.13 16.1702H15.1425V14.1702H15.13V16.1702ZM15.1175 16.1702H15.13V14.1702H15.1175V16.1702ZM15.105 16.1702H15.1175V14.1702H15.105V16.1702ZM15.0924 16.1702H15.105V14.1702H15.0924V16.1702ZM15.0798 16.1702H15.0924V14.1702H15.0798V16.1702ZM15.0673 16.1702H15.0798V14.1702H15.0673V16.1702ZM15.0546 16.1702H15.0673V14.1702H15.0546V16.1702ZM15.042 16.1702H15.0546V14.1702H15.042V16.1702ZM15.0294 16.1702H15.042V14.1702H15.0294V16.1702ZM15.0167 16.1702H15.0294V14.1702H15.0167V16.1702ZM15.004 16.1702H15.0167V14.1702H15.004V16.1702ZM14.9914 16.1702H15.004V14.1702H14.9914V16.1702ZM14.9786 16.1702H14.9914V14.1702H14.9786V16.1702ZM14.9659 16.1702H14.9786V14.1702H14.9659V16.1702ZM14.9531 16.1702H14.9659V14.1702H14.9531V16.1702ZM14.9404 16.1702H14.9531V14.1702H14.9404V16.1702ZM14.9276 16.1702H14.9404V14.1702H14.9276V16.1702ZM14.9148 16.1702H14.9276V14.1702H14.9148V16.1702ZM14.9019 16.1702H14.9148V14.1702H14.9019V16.1702ZM14.8891 16.1702H14.9019V14.1702H14.8891V16.1702ZM14.8762 16.1702H14.8891V14.1702H14.8762V16.1702ZM14.8633 16.1702H14.8762V14.1702H14.8633V16.1702ZM14.8504 16.1702H14.8633V14.1702H14.8504V16.1702ZM14.8375 16.1702H14.8504V14.1702H14.8375V16.1702ZM14.8245 16.1702H14.8375V14.1702H14.8245V16.1702ZM14.8115 16.1702H14.8245V14.1702H14.8115V16.1702ZM14.7985 16.1702H14.8115V14.1702H14.7985V16.1702ZM14.7855 16.1702H14.7985V14.1702H14.7855V16.1702ZM14.7725 16.1702H14.7855V14.1702H14.7725V16.1702ZM14.7594 16.1702H14.7725V14.1702H14.7594V16.1702ZM14.7463 16.1702H14.7594V14.1702H14.7463V16.1702ZM14.7332 16.1702H14.7463V14.1702H14.7332V16.1702ZM14.7201 16.1702H14.7332V14.1702H14.7201V16.1702ZM14.7069 16.1702H14.7201V14.1702H14.7069V16.1702ZM14.6938 16.1702H14.7069V14.1702H14.6938V16.1702ZM14.6806 16.1702H14.6938V14.1702H14.6806V16.1702ZM14.6674 16.1702H14.6806V14.1702H14.6674V16.1702ZM14.6541 16.1702H14.6674V14.1702H14.6541V16.1702ZM14.6409 16.1702H14.6541V14.1702H14.6409V16.1702ZM12.8898 17.9202C12.8898 16.9539 13.6741 16.1702 14.6409 16.1702V14.1702C12.5711 14.1702 10.8898 15.8478 10.8898 17.9202H12.8898ZM12.8898 19.4202V17.9202H10.8898V19.4202H12.8898ZM13.3898 18.4202H11.8898V20.4202H13.3898V18.4202ZM12.3898 17.9202V19.4202H14.3898V17.9202H12.3898ZM14.6409 15.6702C13.3983 15.6702 12.3898 16.6775 12.3898 17.9202H14.3898C14.3898 17.7832 14.5017 17.6702 14.6409 17.6702V15.6702ZM14.6541 15.6702H14.6409V17.6702H14.6541V15.6702ZM14.6674 15.6702H14.6541V17.6702H14.6674V15.6702ZM14.6806 15.6702H14.6674V17.6702H14.6806V15.6702ZM14.6938 15.6702H14.6806V17.6702H14.6938V15.6702ZM14.7069 15.6702H14.6938V17.6702H14.7069V15.6702ZM14.7201 15.6702H14.7069V17.6702H14.7201V15.6702ZM14.7332 15.6702H14.7201V17.6702H14.7332V15.6702ZM14.7463 15.6702H14.7332V17.6702H14.7463V15.6702ZM14.7594 15.6702H14.7463V17.6702H14.7594V15.6702ZM14.7725 15.6702H14.7594V17.6702H14.7725V15.6702ZM14.7855 15.6702H14.7725V17.6702H14.7855V15.6702ZM14.7985 15.6702H14.7855V17.6702H14.7985V15.6702ZM14.8115 15.6702H14.7985V17.6702H14.8115V15.6702ZM14.8245 15.6702H14.8115V17.6702H14.8245V15.6702ZM14.8375 15.6702H14.8245V17.6702H14.8375V15.6702ZM14.8504 15.6702H14.8375V17.6702H14.8504V15.6702ZM14.8633 15.6702H14.8504V17.6702H14.8633V15.6702ZM14.8762 15.6702H14.8633V17.6702H14.8762V15.6702ZM14.8891 15.6702H14.8762V17.6702H14.8891V15.6702ZM14.9019 15.6702H14.8891V17.6702H14.9019V15.6702ZM14.9148 15.6702H14.9019V17.6702H14.9148V15.6702ZM14.9276 15.6702H14.9148V17.6702H14.9276V15.6702ZM14.9404 15.6702H14.9276V17.6702H14.9404V15.6702ZM14.9531 15.6702H14.9404V17.6702H14.9531V15.6702ZM14.9659 15.6702H14.9531V17.6702H14.9659V15.6702ZM14.9786 15.6702H14.9659V17.6702H14.9786V15.6702ZM14.9914 15.6702H14.9786V17.6702H14.9914V15.6702ZM15.004 15.6702H14.9914V17.6702H15.004V15.6702ZM15.0167 15.6702H15.004V17.6702H15.0167V15.6702ZM15.0294 15.6702H15.0167V17.6702H15.0294V15.6702ZM15.042 15.6702H15.0294V17.6702H15.042V15.6702ZM15.0546 15.6702H15.042V17.6702H15.0546V15.6702ZM15.0673 15.6702H15.0546V17.6702H15.0673V15.6702ZM15.0798 15.6702H15.0673V17.6702H15.0798V15.6702ZM15.0924 15.6702H15.0798V17.6702H15.0924V15.6702ZM15.105 15.6702H15.0924V17.6702H15.105V15.6702ZM15.1175 15.6702H15.105V17.6702H15.1175V15.6702ZM15.13 15.6702H15.1175V17.6702H15.13V15.6702ZM15.1425 15.6702H15.13V17.6702H15.1425V15.6702ZM15.155 15.6702H15.1425V17.6702H15.155V15.6702ZM15.1674 15.6702H15.155V17.6702H15.1674V15.6702ZM15.1799 15.6702H15.1674V17.6702H15.1799V15.6702ZM15.1923 15.6702H15.1799V17.6702H15.1923V15.6702ZM15.2047 15.6702H15.1923V17.6702H15.2047V15.6702ZM15.2171 15.6702H15.2047V17.6702H15.2171V15.6702ZM15.2295 15.6702H15.2171V17.6702H15.2295V15.6702ZM15.2418 15.6702H15.2295V17.6702H15.2418V15.6702ZM15.2542 15.6702H15.2418V17.6702H15.2542V15.6702ZM15.2665 15.6702H15.2542V17.6702H15.2665V15.6702ZM15.2788 15.6702H15.2665V17.6702H15.2788V15.6702ZM15.2911 15.6702H15.2788V17.6702H15.2911V15.6702ZM15.3033 15.6702H15.2911V17.6702H15.3033V15.6702ZM15.3156 15.6702H15.3033V17.6702H15.3156V15.6702ZM15.3278 15.6702H15.3156V17.6702H15.3278V15.6702ZM15.3401 15.6702H15.3278V17.6702H15.3401V15.6702ZM15.3523 15.6702H15.3401V17.6702H15.3523V15.6702ZM15.3645 15.6702H15.3523V17.6702H15.3645V15.6702ZM15.3766 15.6702H15.3645V17.6702H15.3766V15.6702ZM15.3888 15.6702H15.3766V17.6702H15.3888V15.6702ZM15.401 15.6702H15.3888V17.6702H15.401V15.6702ZM15.4131 15.6702H15.401V17.6702H15.4131V15.6702ZM15.4252 15.6702H15.4131V17.6702H15.4252V15.6702ZM15.4373 15.6702H15.4252V17.6702H15.4373V15.6702ZM15.4494 15.6702H15.4373V17.6702H15.4494V15.6702ZM15.4615 15.6702H15.4494V17.6702H15.4615V15.6702ZM15.4735 15.6702H15.4615V17.6702H15.4735V15.6702ZM15.4856 15.6702H15.4735V17.6702H15.4856V15.6702ZM15.4976 15.6702H15.4856V17.6702H15.4976V15.6702ZM15.5096 15.6702H15.4976V17.6702H15.5096V15.6702ZM15.5216 15.6702H15.5096V17.6702H15.5216V15.6702ZM15.5336 15.6702H15.5216V17.6702H15.5336V15.6702ZM15.5455 15.6702H15.5336V17.6702H15.5455V15.6702ZM15.5575 15.6702H15.5455V17.6702H15.5575V15.6702ZM15.5694 15.6702H15.5575V17.6702H15.5694V15.6702ZM15.5814 15.6702H15.5694V17.6702H15.5814V15.6702ZM15.5933 15.6702H15.5814V17.6702H15.5933V15.6702ZM15.6052 15.6702H15.5933V17.6702H15.6052V15.6702ZM15.6171 15.6702H15.6052V17.6702H15.6171V15.6702ZM15.629 15.6702H15.6171V17.6702H15.629V15.6702ZM15.6408 15.6702H15.629V17.6702H15.6408V15.6702ZM15.6527 15.6702H15.6408V17.6702H15.6527V15.6702ZM15.6645 15.6702H15.6527V17.6702H15.6645V15.6702ZM15.6763 15.6702H15.6645V17.6702H15.6763V15.6702ZM15.6881 15.6702H15.6763V17.6702H15.6881V15.6702ZM15.6999 15.6702H15.6881V17.6702H15.6999V15.6702ZM15.7117 15.6702H15.6999V17.6702H15.7117V15.6702ZM15.7235 15.6702H15.7117V17.6702H15.7235V15.6702ZM15.7353 15.6702H15.7235V17.6702H15.7353V15.6702ZM15.747 15.6702H15.7353V17.6702H15.747V15.6702ZM15.7588 15.6702H15.747V17.6702H15.7588V15.6702ZM15.7705 15.6702H15.7588V17.6702H15.7705V15.6702ZM15.7822 15.6702H15.7705V17.6702H15.7822V15.6702ZM15.7939 15.6702H15.7822V17.6702H15.7939V15.6702ZM15.8056 15.6702H15.7939V17.6702H15.8056V15.6702ZM15.8173 15.6702H15.8056V17.6702H15.8173V15.6702ZM15.8289 15.6702H15.8173V17.6702H15.8289V15.6702ZM15.8406 15.6702H15.8289V17.6702H15.8406V15.6702ZM15.8523 15.6702H15.8406V17.6702H15.8523V15.6702ZM15.8639 15.6702H15.8523V17.6702H15.8639V15.6702ZM15.8755 15.6702H15.8639V17.6702H15.8755V15.6702ZM15.8871 15.6702H15.8755V17.6702H15.8871V15.6702ZM15.8987 15.6702H15.8871V17.6702H15.8987V15.6702ZM15.9103 15.6702H15.8987V17.6702H15.9103V15.6702ZM15.9219 15.6702H15.9103V17.6702H15.9219V15.6702ZM15.9335 15.6702H15.9219V17.6702H15.9335V15.6702ZM15.9451 15.6702H15.9335V17.6702H15.9451V15.6702ZM15.9566 15.6702H15.9451V17.6702H15.9566V15.6702ZM15.9682 15.6702H15.9566V17.6702H15.9682V15.6702ZM15.9797 15.6702H15.9682V17.6702H15.9797V15.6702ZM15.9912 15.6702H15.9797V17.6702H15.9912V15.6702ZM16.0027 15.6702H15.9912V17.6702H16.0027V15.6702ZM16.0142 15.6702H16.0027V17.6702H16.0142V15.6702ZM16.0257 15.6702H16.0142V17.6702H16.0257V15.6702ZM16.0372 15.6702H16.0257V17.6702H16.0372V15.6702ZM16.0487 15.6702H16.0372V17.6702H16.0487V15.6702ZM16.0602 15.6702H16.0487V17.6702H16.0602V15.6702ZM16.0716 15.6702H16.0602V17.6702H16.0716V15.6702ZM16.0831 15.6702H16.0716V17.6702H16.0831V15.6702ZM16.0946 15.6702H16.0831V17.6702H16.0946V15.6702ZM16.106 15.6702H16.0946V17.6702H16.106V15.6702ZM16.1174 15.6702H16.106V17.6702H16.1174V15.6702ZM16.1288 15.6702H16.1174V17.6702H16.1288V15.6702ZM16.1403 15.6702H16.1288V17.6702H16.1403V15.6702ZM16.1517 15.6702H16.1403V17.6702H16.1517V15.6702ZM16.1631 15.6702H16.1517V17.6702H16.1631V15.6702ZM16.1744 15.6702H16.1631V17.6702H16.1744V15.6702ZM16.1858 15.6702H16.1744V17.6702H16.1858V15.6702ZM16.1972 15.6702H16.1858V17.6702H16.1972V15.6702ZM16.2086 15.6702H16.1972V17.6702H16.2086V15.6702ZM16.2199 15.6702H16.2086V17.6702H16.2199V15.6702ZM16.2313 15.6702H16.2199V17.6702H16.2313V15.6702ZM16.2426 15.6702H16.2313V17.6702H16.2426V15.6702ZM16.254 15.6702H16.2426V17.6702H16.254V15.6702ZM16.2653 15.6702H16.254V17.6702H16.2653V15.6702ZM16.2766 15.6702H16.2653V17.6702H16.2766V15.6702ZM16.288 15.6702H16.2766V17.6702H16.288V15.6702ZM16.2993 15.6702H16.288V17.6702H16.2993V15.6702ZM16.3106 15.6702H16.2993V17.6702H16.3106V15.6702ZM16.3219 15.6702H16.3106V17.6702H16.3219V15.6702ZM16.3332 15.6702H16.3219V17.6702H16.3332V15.6702ZM16.3445 15.6702H16.3332V17.6702H16.3445V15.6702ZM16.3557 15.6702H16.3445V17.6702H16.3557V15.6702ZM16.367 15.6702H16.3557V17.6702H16.367V15.6702ZM16.3783 15.6702H16.367V17.6702H16.3783V15.6702ZM16.3896 15.6702H16.3783V17.6702H16.3896V15.6702ZM16.4008 15.6702H16.3896V17.6702H16.4008V15.6702ZM16.4121 15.6702H16.4008V17.6702H16.4121V15.6702ZM16.4233 15.6702H16.4121V17.6702H16.4233V15.6702ZM16.4346 15.6702H16.4233V17.6702H16.4346V15.6702ZM16.4458 15.6702H16.4346V17.6702H16.4458V15.6702ZM16.4571 15.6702H16.4458V17.6702H16.4571V15.6702ZM16.4683 15.6702H16.4571V17.6702H16.4683V15.6702ZM16.4795 15.6702H16.4683V17.6702H16.4795V15.6702ZM16.4907 15.6702H16.4795V17.6702H16.4907V15.6702ZM16.502 15.6702H16.4907V17.6702H16.502V15.6702ZM16.5132 15.6702H16.502V17.6702H16.5132V15.6702ZM16.5244 15.6702H16.5132V17.6702H16.5244V15.6702ZM16.5356 15.6702H16.5244V17.6702H16.5356V15.6702ZM16.5468 15.6702H16.5356V17.6702H16.5468V15.6702ZM16.558 15.6702H16.5468V17.6702H16.558V15.6702ZM16.5692 15.6702H16.558V17.6702H16.5692V15.6702ZM16.5804 15.6702H16.5692V17.6702H16.5804V15.6702ZM16.5916 15.6702H16.5804V17.6702H16.5916V15.6702ZM16.6028 15.6702H16.5916V17.6702H16.6028V15.6702ZM16.614 15.6702H16.6028V17.6702H16.614V15.6702ZM16.6251 15.6702H16.614V17.6702H16.6251V15.6702ZM16.6363 15.6702H16.6251V17.6702H16.6363V15.6702ZM16.6475 15.6702H16.6363V17.6702H16.6475V15.6702ZM16.6587 15.6702H16.6475V17.6702H16.6587V15.6702ZM16.6698 15.6702H16.6587V17.6702H16.6698V15.6702ZM16.681 15.6702H16.6698V17.6702H16.681V15.6702ZM16.6922 15.6702H16.681V17.6702H16.6922V15.6702ZM16.7033 15.6702H16.6922V17.6702H16.7033V15.6702ZM16.7145 15.6702H16.7033V17.6702H16.7145V15.6702ZM16.7257 15.6702H16.7145V17.6702H16.7257V15.6702ZM16.7368 15.6702H16.7257V17.6702H16.7368V15.6702ZM16.748 15.6702H16.7368V17.6702H16.748V15.6702ZM16.7591 15.6702H16.748V17.6702H16.7591V15.6702ZM16.7703 15.6702H16.7591V17.6702H16.7703V15.6702ZM16.7814 15.6702H16.7703V17.6702H16.7814V15.6702ZM16.7926 15.6702H16.7814V17.6702H16.7926V15.6702ZM16.8038 15.6702H16.7926V17.6702H16.8038V15.6702ZM16.8149 15.6702H16.8038V17.6702H16.8149V15.6702ZM16.826 15.6702H16.8149V17.6702H16.826V15.6702ZM16.8372 15.6702H16.826V17.6702H16.8372V15.6702ZM16.8483 15.6702H16.8372V17.6702H16.8483V15.6702ZM16.8595 15.6702H16.8483V17.6702H16.8595V15.6702ZM16.8706 15.6702H16.8595V17.6702H16.8706V15.6702ZM16.8818 15.6702H16.8706V17.6702H16.8818V15.6702ZM16.8929 15.6702H16.8818V17.6702H16.8929V15.6702ZM16.9041 15.6702H16.8929V17.6702H16.9041V15.6702ZM16.9152 15.6702H16.9041V17.6702H16.9152V15.6702ZM16.9264 15.6702H16.9152V17.6702H16.9264V15.6702ZM16.9375 15.6702H16.9264V17.6702H16.9375V15.6702ZM16.9487 15.6702H16.9375V17.6702H16.9487V15.6702ZM16.9598 15.6702H16.9487V17.6702H16.9598V15.6702ZM16.971 15.6702H16.9598V17.6702H16.971V15.6702ZM16.9821 15.6702H16.971V17.6702H16.9821V15.6702ZM16.9933 15.6702H16.9821V17.6702H16.9933V15.6702ZM17.0044 15.6702H16.9933V17.6702H17.0044V15.6702ZM17.0156 15.6702H17.0044V17.6702H17.0156V15.6702ZM17.0267 15.6702H17.0156V17.6702H17.0267V15.6702ZM17.0379 15.6702H17.0267V17.6702H17.0379V15.6702ZM17.0491 15.6702H17.0379V17.6702H17.0491V15.6702ZM17.0602 15.6702H17.0491V17.6702H17.0602V15.6702ZM17.0714 15.6702H17.0602V17.6702H17.0714V15.6702ZM17.0825 15.6702H17.0714V17.6702H17.0825V15.6702ZM17.0937 15.6702H17.0825V17.6702H17.0937V15.6702ZM17.1049 15.6702H17.0937V17.6702H17.1049V15.6702ZM17.116 15.6702H17.1049V17.6702H17.116V15.6702ZM17.1272 15.6702H17.116V17.6702H17.1272V15.6702ZM17.1384 15.6702H17.1272V17.6702H17.1384V15.6702ZM17.1496 15.6702H17.1384V17.6702H17.1496V15.6702ZM17.1607 15.6702H17.1496V17.6702H17.1607V15.6702ZM17.1719 15.6702H17.1607V17.6702H17.1719V15.6702ZM17.1831 15.6702H17.1719V17.6702H17.1831V15.6702ZM17.1943 15.6702H17.1831V17.6702H17.1943V15.6702ZM17.2055 15.6702H17.1943V17.6702H17.2055V15.6702ZM17.2167 15.6702H17.2055V17.6702H17.2167V15.6702ZM17.2279 15.6702H17.2167V17.6702H17.2279V15.6702ZM17.2391 15.6702H17.2279V17.6702H17.2391V15.6702ZM17.2503 15.6702H17.2391V17.6702H17.2503V15.6702ZM17.2615 15.6702H17.2503V17.6702H17.2615V15.6702ZM17.2727 15.6702H17.2615V17.6702H17.2727V15.6702ZM17.2839 15.6702H17.2727V17.6702H17.2839V15.6702ZM17.2952 15.6702H17.2839V17.6702H17.2952V15.6702ZM17.3064 15.6702H17.2952V17.6702H17.3064V15.6702ZM17.3176 15.6702H17.3064V17.6702H17.3176V15.6702ZM17.3289 15.6702H17.3176V17.6702H17.3289V15.6702ZM17.3401 15.6702H17.3289V17.6702H17.3401V15.6702ZM17.3513 15.6702H17.3401V17.6702H17.3513V15.6702ZM17.3626 15.6702H17.3513V17.6702H17.3626V15.6702ZM17.3739 15.6702H17.3626V17.6702H17.3739V15.6702ZM17.3851 15.6702H17.3739V17.6702H17.3851V15.6702ZM17.3964 15.6702H17.3851V17.6702H17.3964V15.6702ZM17.4076 15.6702H17.3964V17.6702H17.4076V15.6702ZM17.4189 15.6702H17.4076V17.6702H17.4189V15.6702ZM17.4302 15.6702H17.4189V17.6702H17.4302V15.6702ZM17.4415 15.6702H17.4302V17.6702H17.4415V15.6702ZM17.4528 15.6702H17.4415V17.6702H17.4528V15.6702ZM17.4641 15.6702H17.4528V17.6702H17.4641V15.6702ZM17.4754 15.6702H17.4641V17.6702H17.4754V15.6702ZM17.4867 15.6702H17.4754V17.6702H17.4867V15.6702ZM17.498 15.6702H17.4867V17.6702H17.498V15.6702ZM17.5093 15.6702H17.498V17.6702H17.5093V15.6702ZM17.5207 15.6702H17.5093V17.6702H17.5207V15.6702ZM17.532 15.6702H17.5207V17.6702H17.532V15.6702ZM17.5434 15.6702H17.532V17.6702H17.5434V15.6702ZM17.5547 15.6702H17.5434V17.6702H17.5547V15.6702ZM17.5661 15.6702H17.5547V17.6702H17.5661V15.6702ZM17.5774 15.6702H17.5661V17.6702H17.5774V15.6702ZM17.5888 15.6702H17.5774V17.6702H17.5888V15.6702ZM17.6002 15.6702H17.5888V17.6702H17.6002V15.6702ZM17.6116 15.6702H17.6002V17.6702H17.6116V15.6702ZM17.623 15.6702H17.6116V17.6702H17.623V15.6702ZM17.6344 15.6702H17.623V17.6702H17.6344V15.6702ZM17.6458 15.6702H17.6344V17.6702H17.6458V15.6702ZM17.6572 15.6702H17.6458V17.6702H17.6572V15.6702ZM17.6686 15.6702H17.6572V17.6702H17.6686V15.6702ZM17.68 15.6702H17.6686V17.6702H17.68V15.6702ZM17.6915 15.6702H17.68V17.6702H17.6915V15.6702ZM17.7029 15.6702H17.6915V17.6702H17.7029V15.6702ZM17.7144 15.6702H17.7029V17.6702H17.7144V15.6702ZM17.7259 15.6702H17.7144V17.6702H17.7259V15.6702ZM17.7373 15.6702H17.7259V17.6702H17.7373V15.6702ZM17.7488 15.6702H17.7373V17.6702H17.7488V15.6702ZM17.7603 15.6702H17.7488V17.6702H17.7603V15.6702ZM17.7718 15.6702H17.7603V17.6702H17.7718V15.6702ZM17.7833 15.6702H17.7718V17.6702H17.7833V15.6702ZM17.7949 15.6702H17.7833V17.6702H17.7949V15.6702ZM17.8064 15.6702H17.7949V17.6702H17.8064V15.6702ZM17.8179 15.6702H17.8064V17.6702H17.8179V15.6702ZM17.8295 15.6702H17.8179V17.6702H17.8295V15.6702ZM17.841 15.6702H17.8295V17.6702H17.841V15.6702ZM17.8526 15.6702H17.841V17.6702H17.8526V15.6702ZM17.8642 15.6702H17.8526V17.6702H17.8642V15.6702ZM17.8758 15.6702H17.8642V17.6702H17.8758V15.6702ZM17.8874 15.6702H17.8758V17.6702H17.8874V15.6702ZM17.899 15.6702H17.8874V17.6702H17.899V15.6702ZM17.9106 15.6702H17.899V17.6702H17.9106V15.6702ZM17.9223 15.6702H17.9106V17.6702H17.9223V15.6702ZM17.9339 15.6702H17.9223V17.6702H17.9339V15.6702ZM17.9456 15.6702H17.9339V17.6702H17.9456V15.6702ZM17.9572 15.6702H17.9456V17.6702H17.9572V15.6702ZM17.9689 15.6702H17.9572V17.6702H17.9689V15.6702ZM17.9806 15.6702H17.9689V17.6702H17.9806V15.6702ZM17.9923 15.6702H17.9806V17.6702H17.9923V15.6702ZM18.004 15.6702H17.9923V17.6702H18.004V15.6702ZM18.0157 15.6702H18.004V17.6702H18.0157V15.6702ZM18.0275 15.6702H18.0157V17.6702H18.0275V15.6702ZM18.0392 15.6702H18.0275V17.6702H18.0392V15.6702ZM18.051 15.6702H18.0392V17.6702H18.051V15.6702ZM18.0627 15.6702H18.051V17.6702H18.0627V15.6702ZM18.0745 15.6702H18.0627V17.6702H18.0745V15.6702ZM18.0863 15.6702H18.0745V17.6702H18.0863V15.6702ZM18.0981 15.6702H18.0863V17.6702H18.0981V15.6702ZM18.1099 15.6702H18.0981V17.6702H18.1099V15.6702ZM18.1218 15.6702H18.1099V17.6702H18.1218V15.6702ZM18.1336 15.6702H18.1218V17.6702H18.1336V15.6702ZM18.1455 15.6702H18.1336V17.6702H18.1455V15.6702ZM18.1573 15.6702H18.1455V17.6702H18.1573V15.6702ZM18.1692 15.6702H18.1573V17.6702H18.1692V15.6702ZM18.1811 15.6702H18.1692V17.6702H18.1811V15.6702ZM18.193 15.6702H18.1811V17.6702H18.193V15.6702ZM18.2049 15.6702H18.193V17.6702H18.2049V15.6702ZM18.2169 15.6702H18.2049V17.6702H18.2169V15.6702ZM18.2288 15.6702H18.2169V17.6702H18.2288V15.6702ZM18.2408 15.6702H18.2288V17.6702H18.2408V15.6702ZM18.2528 15.6702H18.2408V17.6702H18.2528V15.6702ZM18.2648 15.6702H18.2528V17.6702H18.2648V15.6702ZM18.2768 15.6702H18.2648V17.6702H18.2768V15.6702ZM18.2888 15.6702H18.2768V17.6702H18.2888V15.6702ZM18.3008 15.6702H18.2888V17.6702H18.3008V15.6702ZM18.3129 15.6702H18.3008V17.6702H18.3129V15.6702ZM18.3249 15.6702H18.3129V17.6702H18.3249V15.6702ZM18.337 15.6702H18.3249V17.6702H18.337V15.6702ZM18.3491 15.6702H18.337V17.6702H18.3491V15.6702ZM18.3612 15.6702H18.3491V17.6702H18.3612V15.6702ZM18.3733 15.6702H18.3612V17.6702H18.3733V15.6702ZM18.3855 15.6702H18.3733V17.6702H18.3855V15.6702ZM18.3976 15.6702H18.3855V17.6702H18.3976V15.6702ZM18.4098 15.6702H18.3976V17.6702H18.4098V15.6702ZM18.422 15.6702H18.4098V17.6702H18.422V15.6702ZM18.4342 15.6702H18.422V17.6702H18.4342V15.6702ZM18.4464 15.6702H18.4342V17.6702H18.4464V15.6702ZM18.4587 15.6702H18.4464V17.6702H18.4587V15.6702ZM18.4709 15.6702H18.4587V17.6702H18.4709V15.6702ZM18.4832 15.6702H18.4709V17.6702H18.4832V15.6702ZM18.4954 15.6702H18.4832V17.6702H18.4954V15.6702ZM18.5077 15.6702H18.4954V17.6702H18.5077V15.6702ZM18.5201 15.6702H18.5077V17.6702H18.5201V15.6702ZM18.5324 15.6702H18.5201V17.6702H18.5324V15.6702ZM18.5447 15.6702H18.5324V17.6702H18.5447V15.6702ZM18.5571 15.6702H18.5447V17.6702H18.5571V15.6702ZM18.5695 15.6702H18.5571V17.6702H18.5695V15.6702ZM18.5819 15.6702H18.5695V17.6702H18.5819V15.6702ZM18.5943 15.6702H18.5819V17.6702H18.5943V15.6702ZM18.6067 15.6702H18.5943V17.6702H18.6067V15.6702ZM18.6192 15.6702H18.6067V17.6702H18.6192V15.6702ZM18.6317 15.6702H18.6192V17.6702H18.6317V15.6702ZM18.6441 15.6702H18.6317V17.6702H18.6441V15.6702ZM18.6567 15.6702H18.6441V17.6702H18.6567V15.6702ZM18.6692 15.6702H18.6567V17.6702H18.6692V15.6702ZM18.6817 15.6702H18.6692V17.6702H18.6817V15.6702ZM18.6943 15.6702H18.6817V17.6702H18.6943V15.6702ZM18.7069 15.6702H18.6943V17.6702H18.7069V15.6702ZM18.7194 15.6702H18.7069V17.6702H18.7194V15.6702ZM18.7321 15.6702H18.7194V17.6702H18.7321V15.6702ZM18.7447 15.6702H18.7321V17.6702H18.7447V15.6702ZM18.7573 15.6702H18.7447V17.6702H18.7573V15.6702ZM18.77 15.6702H18.7573V17.6702H18.77V15.6702ZM18.7827 15.6702H18.77V17.6702H18.7827V15.6702ZM18.7954 15.6702H18.7827V17.6702H18.7954V15.6702ZM18.8081 15.6702H18.7954V17.6702H18.8081V15.6702ZM18.8209 15.6702H18.8081V17.6702H18.8209V15.6702ZM18.8337 15.6702H18.8209V17.6702H18.8337V15.6702ZM18.8464 15.6702H18.8337V17.6702H18.8464V15.6702ZM18.8592 15.6702H18.8464V17.6702H18.8592V15.6702ZM18.8721 15.6702H18.8592V17.6702H18.8721V15.6702ZM18.8849 15.6702H18.8721V17.6702H18.8849V15.6702ZM18.8978 15.6702H18.8849V17.6702H18.8978V15.6702ZM18.9107 15.6702H18.8978V17.6702H18.9107V15.6702ZM18.9236 15.6702H18.9107V17.6702H18.9236V15.6702ZM18.9365 15.6702H18.9236V17.6702H18.9365V15.6702ZM18.9494 15.6702H18.9365V17.6702H18.9494V15.6702ZM18.9624 15.6702H18.9494V17.6702H18.9624V15.6702ZM18.9754 15.6702H18.9624V17.6702H18.9754V15.6702ZM18.9884 15.6702H18.9754V17.6702H18.9884V15.6702ZM19.0014 15.6702H18.9884V17.6702H19.0014V15.6702ZM19.0145 15.6702H19.0014V17.6702H19.0145V15.6702ZM19.0276 15.6702H19.0145V17.6702H19.0276V15.6702ZM19.0407 15.6702H19.0276V17.6702H19.0407V15.6702ZM19.0538 15.6702H19.0407V17.6702H19.0538V15.6702ZM19.0669 15.6702H19.0538V17.6702H19.0669V15.6702ZM19.0801 15.6702H19.0669V17.6702H19.0801V15.6702ZM19.0933 15.6702H19.0801V17.6702H19.0933V15.6702ZM19.1065 15.6702H19.0933V17.6702H19.1065V15.6702ZM19.1197 15.6702H19.1065V17.6702H19.1197V15.6702ZM19.1329 15.6702H19.1197V17.6702H19.1329V15.6702ZM19.1462 15.6702H19.1329V17.6702H19.1462V15.6702ZM19.1595 15.6702H19.1462V17.6702H19.1595V15.6702ZM19.1728 15.6702H19.1595V17.6702H19.1728V15.6702ZM19.1861 15.6702H19.1728V17.6702H19.1861V15.6702ZM19.1995 15.6702H19.1861V17.6702H19.1995V15.6702ZM19.2129 15.6702H19.1995V17.6702H19.2129V15.6702ZM19.2263 15.6702H19.2129V17.6702H19.2263V15.6702ZM19.2397 15.6702H19.2263V17.6702H19.2397V15.6702ZM19.2532 15.6702H19.2397V17.6702H19.2532V15.6702ZM19.2666 15.6702H19.2532V17.6702H19.2666V15.6702ZM19.2801 15.6702H19.2666V17.6702H19.2801V15.6702ZM19.2937 15.6702H19.2801V17.6702H19.2937V15.6702ZM19.3072 15.6702H19.2937V17.6702H19.3072V15.6702ZM19.3208 15.6702H19.3072V17.6702H19.3208V15.6702Z" fill="#26A581" mask="url(#path-1-inside-1_1701_8167)"/>
</g>
</g>
</svg>
