<?xml version="1.0" encoding="UTF-8"?>
<svg width="32px" height="32px" viewBox="0 0 24 24" version="1.1" xmlns="http://www.w3.org/2000/svg" xmlns:xlink="http://www.w3.org/1999/xlink">
    <title>02.Icons/Trace</title>
    <defs>
        <polygon id="path-1" points="0 0 12 0 12 18 0 18"></polygon>
    </defs>
    <g id="02.Icons/Trace" stroke="none" stroke-width="1" fill="none" fill-rule="evenodd">
        <g id="Group-3" transform="translate(6.000000, 3.000000)">
            <mask id="mask-2" fill="white">
                <use xlink:href="#path-1"></use>
            </mask>
            <g id="Clip-2"></g>
            <path d="M3.55401379,16.232402 C2.92127495,16.232402 2.43423254,15.7306012 2.43423254,15.133391 C2.43423254,14.5123885 2.94551688,14.03438 3.55401379,14.03438 C4.16251071,14.03438 4.67379505,14.5361808 4.67379505,15.133391 C4.69779211,15.7308415 4.18675264,16.232402 3.55401379,16.232402 L3.55401379,16.232402 Z M7.76500837,8.3730194 L3.89487002,8.3730194 C2.75084684,8.3730194 1.80149369,7.44127533 1.80149369,6.31847206 C1.80149369,5.19566879 2.75084684,4.26416505 3.89487002,4.26416505 L8.93327348,4.26416505 L7.91094968,5.26752628 C7.57009346,5.6018198 7.57009346,6.17523774 7.91094968,6.50977159 C8.08137779,6.67703852 8.32477656,6.77244795 8.54368853,6.77244795 C8.76284537,6.77244795 9.00624413,6.67703852 9.17642738,6.50977159 L11.7323593,4.00124836 C11.9027874,3.83398143 12,3.61912995 12,3.38024587 C12,3.14136178 11.9027874,2.92626997 11.7323593,2.75924337 L9.20091417,0.250720144 C8.86005795,-0.0835733812 8.27580296,-0.0835733812 7.93519161,0.250720144 C7.59433539,0.585253995 7.59433539,1.15867193 7.93519161,1.49296546 L8.95727054,2.49632668 L3.89462515,2.49632668 C1.7525201,2.49632668 0,4.21634017 0,6.31847206 C0,8.42084428 1.7525201,10.1408578 3.89462515,10.1408578 L7.7647635,10.1408578 C8.90878668,10.1408578 9.85789495,11.0726018 9.85789495,12.1951648 C9.85789495,13.317968 8.90878668,14.2497121 7.7647635,14.2497121 L6.32861282,14.2494718 C5.93927274,13.1028762 4.86822022,12.2667819 3.55376893,12.2667819 C1.94743501,12.2667819 0.632983716,13.5566118 0.632983716,15.133391 C0.632983716,16.7101701 1.94743501,18 3.55376893,18 C4.84397829,18 5.93902787,17.1639057 6.32861282,16.0173102 L7.7647635,16.0173102 C9.90662368,16.0173102 11.6591438,14.2972967 11.6591438,12.1949244 C11.6591438,10.0930329 9.93111048,8.3730194 7.7647635,8.3730194 L7.76500837,8.3730194 Z" id="Fill-1" fill="#ffffff" mask="url(#mask-2)"></path>
        </g>
    </g>
</svg>