<svg width="32" height="32" viewBox="0 0 32 32" fill="none" xmlns="http://www.w3.org/2000/svg">
<g id="Frame 5">
<path id="Fill-1" fill-rule="evenodd" clip-rule="evenodd" d="M12.7387 25.6432C11.895 25.6432 11.2456 24.9741 11.2456 24.1779C11.2456 23.3499 11.9274 22.7125 12.7387 22.7125C13.55 22.7125 14.2317 23.3816 14.2317 24.1779C14.2637 24.9745 13.5823 25.6432 12.7387 25.6432ZM18.3533 15.164H13.1932C11.6678 15.164 10.402 13.9217 10.402 12.4246C10.402 10.9276 11.6678 9.68555 13.1932 9.68555H19.911L18.5479 11.0234C18.0935 11.4691 18.0935 12.2337 18.5479 12.6797C18.7752 12.9027 19.0997 13.0299 19.3916 13.0299C19.6838 13.0299 20.0083 12.9027 20.2352 12.6797L23.6431 9.335C23.8704 9.11198 24 8.82551 24 8.50699C24 8.18848 23.8704 7.90169 23.6431 7.67899L20.2679 4.33429C19.8134 3.88857 19.0344 3.88857 18.5803 4.33429C18.1258 4.78034 18.1258 5.5449 18.5803 5.99062L19.943 7.32844H13.1928C10.3367 7.32844 8 9.62179 8 12.4246C8 15.2278 10.3367 17.5211 13.1928 17.5211H18.353C19.8784 17.5211 21.1439 18.7635 21.1439 20.2602C21.1439 21.7573 19.8784 22.9996 18.353 22.9996L16.4382 22.9993C15.919 21.4705 14.491 20.3557 12.7384 20.3557C10.5966 20.3557 8.84398 22.0755 8.84398 24.1779C8.84398 26.2802 10.5966 28 12.7384 28C14.4586 28 15.9187 26.8852 16.4382 25.3564H18.353C21.2088 25.3564 23.5455 23.0631 23.5455 20.2599C23.5455 17.4574 21.2418 15.164 18.3533 15.164Z" fill="#3993F3"/>
</g>
</svg>
