<svg width="32" height="32" viewBox="0 0 32 32" fill="none" xmlns="http://www.w3.org/2000/svg">
<path fill-rule="evenodd" clip-rule="evenodd" d="M13.8668 20.8L20.2668 16L13.8668 11.2V20.8Z" fill="#CD6F3A"/>
<path d="M16.0002 26.6667C10.1202 26.6667 5.3335 21.88 5.3335 16C5.3335 10.12 10.1202 5.33337 16.0002 5.33337C21.8802 5.33337 26.6668 10.12 26.6668 16C26.6668 21.88 21.8802 26.6667 16.0002 26.6667ZM16.0002 7.16004C11.1202 7.16004 7.16016 11.12 7.16016 16C7.16016 20.88 11.1202 24.84 16.0002 24.84C20.8802 24.84 24.8402 20.88 24.8402 16C24.8402 11.12 20.8802 7.16004 16.0002 7.16004Z" fill="#CD6F3A"/>
</svg>
