<svg width="44" height="44" viewBox="0 0 44 44" fill="none" xmlns="http://www.w3.org/2000/svg">
<rect x="0.5" y="0.5" width="43" height="43" rx="21.5" stroke="#DDE1E6" fill="#F18345"/>
<path d="M23.8 12C25.2912 12 26.5 13.2088 26.5 14.7V15.6H30.1C30.5588 15.6 30.9375 15.9433 30.993 16.3871L31 16.5C31 16.9971 30.5971 17.4 30.1 17.4H29.2V29.1C29.2 30.529 28.0898 31.6988 26.6849 31.7938L26.5 31.8H17.5C16.0088 31.8 14.8 30.5912 14.8 29.1L14.7989 17.4H13.9C13.4412 17.4 13.0625 17.0567 13.007 16.6129L13 16.5C13 16.0029 13.4029 15.6 13.9 15.6H17.5V14.7C17.5 13.271 18.6102 12.1012 20.0151 12.0062L20.2 12H23.8ZM27.4 17.4H16.5989L16.6 29.1C16.6 29.5588 16.9433 29.9375 17.3871 29.993L17.5 30H26.5C26.9971 30 27.4 29.5971 27.4 29.1V17.4ZM20.2 20.1C20.6971 20.1 21.1 20.5029 21.1 21V26.4C21.1 26.8971 20.6971 27.3 20.2 27.3C19.7029 27.3 19.3 26.8971 19.3 26.4V21C19.3 20.5029 19.7029 20.1 20.2 20.1ZM23.8 20.1C24.2971 20.1 24.7 20.5029 24.7 21V26.4C24.7 26.8971 24.2971 27.3 23.8 27.3C23.3029 27.3 22.9 26.8971 22.9 26.4V21C22.9 20.5029 23.3029 20.1 23.8 20.1ZM23.8 13.8H20.2C19.7029 13.8 19.3 14.2029 19.3 14.7V15.6H24.7V14.7C24.7 14.2412 24.3567 13.8625 23.9129 13.807L23.8 13.8Z" fill="#3F4A55"/>
</svg>
