<svg width="44" height="44" viewBox="0 0 44 44" fill="none" xmlns="http://www.w3.org/2000/svg">
<rect x="0.5" y="0.5" width="43" height="43" rx="21.5" stroke="#DDE1E6"/>

<path fill-rule="evenodd" clip-rule="evenodd" d="M30.0986 30.8571H19.9014C19.4029 30.8571 19 31.2403 19 31.7143C19 32.1883 19.4029 32.5714 19.9014 32.5714H30.0986C30.5971 32.5714 31 32.1883 31 31.7143C31 31.2403 30.5971 30.8571 30.0986 30.8571ZM20.1795 26.2193C19.8092 25.9294 19.7492 25.4008 20.0449 25.0378C20.3406 24.6756 20.8814 24.6176 21.25 24.9067L24.1426 27.1756V18.8403C24.1426 18.3765 24.5266 18 24.9997 18C25.4736 18 25.8568 18.3765 25.8568 18.8403V27.1765L28.7502 24.9067C29.1205 24.6168 29.6587 24.6765 29.9553 25.0378C30.251 25.4008 30.1901 25.9294 29.8216 26.2193L24.9997 30L20.1795 26.2193Z" fill="#3F4A55" transform="scale(1.3) translate(-8 -8.5)"/>
</svg>
