<svg width="44" height="44" viewBox="0 0 44 44" version="1.1" xmlns="http://www.w3.org/2000/svg" xmlns:xlink="http://www.w3.org/1999/xlink" fill="none">
<defs>
    <polygon id="path-1" points="0 0 13.783123 0 13.783123 16 0 16"></polygon>
</defs>
<rect x="0.5" y="0.5" width="43" height="43" rx="21.5" stroke="#DDE1E6"/>

<g id="02.Icons/Export" stroke="none" stroke-width="1" fill="none" fill-rule="evenodd">
  <g id="Group-3" transform="translate(5.000000, 4.000000)">
      <mask id="mask-2" fill="white">
        <use xlink:href="#path-1"></use>
      </mask>
      <g id="Clip-2"></g>
      <path d="M11.1506477,7.22843985 L4.0483716,7.22843985 C3.62270152,7.22843985 3.2770765,7.57406487 3.2770765,7.99973495 C3.2770765,8.42540503 3.62270152,8.77103005 4.0483716,8.77103005 L11.1506477,8.77103005 L9.38276513,10.5389126 C9.08113839,10.8405394 9.08113839,11.3282311 9.38276513,11.6293278 C9.68439188,11.9304244 10.1720836,11.9309545 10.4731803,11.6293278 L13.5573005,8.54520757 C13.6283338,8.4741742 13.6850545,8.38935825 13.724812,8.2955306 C13.8027366,8.10681509 13.8027366,7.89371501 13.724812,7.7049995 C13.6871749,7.61382235 13.6315144,7.52900639 13.5573005,7.45532253 L10.4731803,4.37120233 C10.1715535,4.06957559 9.68386178,4.06957559 9.38276513,4.37120233 C9.08166849,4.67282908 9.08113839,5.16052082 9.38276513,5.46161747 L11.1506477,7.22843985 Z M8.4821257,0 L2.3133552,0 C1.67511513,0 1.09518603,0.259748865 0.677997548,0.677997548 C0.260809065,1.09624623 0,1.67511513 0,2.3133552 L0,13.6866448 C0,14.3248849 0.259748865,14.904814 0.677997548,15.3220025 C1.09624623,15.7391909 1.67511513,16 2.3133552,16 L8.4815956,16 C8.90726568,16 9.2528907,15.654375 9.2528907,15.2287049 C9.2528907,14.8030348 8.90726568,14.4574098 8.4815956,14.4574098 L2.3133552,14.4574098 C2.10078521,14.4574098 1.90835901,14.3720637 1.76841268,14.2315873 C1.62846636,14.0911109 1.5425902,13.8992148 1.5425902,13.6866448 L1.5425902,2.3133552 C1.5425902,2.10078521 1.62793626,1.90835901 1.76841268,1.76841268 C1.90888911,1.62846636 2.10078521,1.5425902 2.3133552,1.5425902 L8.4815956,1.5425902 C8.90726568,1.5425902 9.2528907,1.19696518 9.2528907,0.7712951 C9.2528907,0.345625021 8.90726568,0 8.4815956,0 L8.4821257,0 Z" id="Fill-1" fill="#3F4A55" mask="url(#mask-2)" transform="translate(11, 10)"></path>
  </g>
</g>
</svg>
