<svg width="44" height="44" viewBox="0 0 44 44" fill="none" xmlns="http://www.w3.org/2000/svg">
<rect x="0.5" y="0.5" width="43" height="43" rx="21.5" stroke="#DDE1E6"/>
<path fill-rule="evenodd" clip-rule="evenodd" d="M12.333 31.6826C12.5554 31.8945 12.8469 32 13.1384 32C13.4299 32 13.7214 31.8945 13.9438 31.6826L17.5172 28.2794C19.039 29.2216 20.7014 29.75 22.5 29.75C25.4573 29.75 28.0464 28.3216 30.2477 25.9734C31.004 25.1667 31.6608 24.3054 32.2175 23.4435C32.5538 22.9227 32.7846 22.5123 32.9076 22.2663C33.0308 22.02 33.0308 21.73 32.9076 21.4837C32.7846 21.2377 32.5538 20.8273 32.2175 20.3065C31.6608 19.4446 31.004 18.5833 30.2477 17.7766C29.9757 17.4864 29.6977 17.2103 29.4139 16.9491L32.667 13.851C33.111 13.4281 33.111 12.7406 32.667 12.3177C32.2221 11.8941 31.501 11.8941 31.0562 12.3177L27.6408 15.5703C26.0763 14.5657 24.3611 14 22.5 14C19.5427 14 16.9536 15.4284 14.7523 17.7766C13.996 18.5833 13.3392 19.4446 12.7825 20.3065C12.4462 20.8273 12.2154 21.2377 12.0924 21.4837C11.9692 21.73 11.9692 22.02 12.0924 22.2663C12.2154 22.5123 12.4462 22.9227 12.7825 23.4435C13.3392 24.3054 13.996 25.1667 14.7523 25.9734C15.067 26.3092 15.3897 26.6262 15.7203 26.9228L12.333 30.1487C11.889 30.5723 11.889 31.259 12.333 31.6826ZM18.8378 27.0217C19.9876 27.655 21.2102 28 22.5 28C24.902 28 27.0708 26.8034 28.971 24.7766C29.6503 24.052 30.2445 23.2728 30.7474 22.494C30.8901 22.273 31.0167 22.0654 31.1269 21.875C31.0167 21.6846 30.8901 21.477 30.7474 21.256C30.2445 20.4772 29.6503 19.698 28.971 18.9734C28.7005 18.6849 28.4245 18.4132 28.1432 18.1593L25.7096 20.477C25.8964 20.9052 26 21.378 26 21.875C26 23.808 24.433 25.375 22.5 25.375C21.9424 25.375 21.4152 25.2446 20.9473 25.0126L18.8378 27.0217ZM19.3714 23.4457L16.9924 25.7113C16.664 25.4235 16.3428 25.1113 16.029 24.7766C15.3497 24.052 14.7555 23.2728 14.2526 22.494C14.1099 22.273 13.9833 22.0654 13.8731 21.875C13.9833 21.6846 14.1099 21.477 14.2526 21.256C14.7555 20.4772 15.3497 19.698 16.029 18.9734C17.9292 16.9466 20.098 15.75 22.5 15.75C23.8517 15.75 25.1295 16.1289 26.3271 16.8214L24.2214 18.8269C23.7131 18.5392 23.1257 18.375 22.5 18.375C20.567 18.375 19 19.942 19 21.875C19 22.4398 19.1338 22.9734 19.3714 23.4457ZM22.4068 23.6226C22.4377 23.6242 22.4687 23.625 22.5 23.625C23.4665 23.625 24.25 22.8415 24.25 21.875C24.25 21.8724 24.25 21.8698 24.25 21.8672L22.4068 23.6226ZM22.8264 20.1554L20.7666 22.117C20.7557 22.0379 20.75 21.9571 20.75 21.875C20.75 20.9085 21.5335 20.125 22.5 20.125C22.6115 20.125 22.7206 20.1354 22.8264 20.1554Z" fill="#3F4A55"/>
</svg>
