<svg width="44" height="44" viewBox="0 0 44 44" fill="none" xmlns="http://www.w3.org/2000/svg">
<rect x="0.5" y="0.5" width="43" height="43" rx="21.5" stroke="#DDE1E6"/>
<path fill-rule="evenodd" clip-rule="evenodd" d="M12.5,4 C15.4573271,4 18.0463557,5.42842957 20.2477201,7.77655151 C21.0040145,8.58326556 21.6608121,9.44463945 22.2174563,10.3065402 C22.5537786,10.8272974 22.7846267,11.2376939 22.9076238,11.4836881 C23.0307921,11.7300247 23.0307921,12.0199753 22.9076238,12.2663119 C22.7846267,12.5123061 22.5537786,12.9227026 22.2174563,13.4434598 C21.6608121,14.3053605 21.0040145,15.1667344 20.2477201,15.9734485 C18.0463557,18.3215704 15.4573271,19.75 12.5,19.75 C9.54267286,19.75 6.95364427,18.3215704 4.75227995,15.9734485 C3.99598552,15.1667344 3.33918793,14.3053605 2.78254367,13.4434598 C2.44622135,12.9227026 2.21537329,12.5123061 2.09237621,12.2663119 C1.96920793,12.0199753 1.96920793,11.7300247 2.09237621,11.4836881 C2.21537329,11.2376939 2.44622135,10.8272974 2.78254367,10.3065402 C3.33918793,9.44463945 3.99598552,8.58326556 4.75227995,7.77655151 C6.95364427,5.42842957 9.54267286,4 12.5,4 Z M12.5,5.75 C10.0979521,5.75 7.92916823,6.94657043 6.02897005,8.97344849 C5.3497176,9.69798444 4.75553863,10.4772355 4.25261258,11.2559598 C4.10986759,11.4769843 3.98326504,11.6845735 3.87312315,11.875 C3.98326504,12.0654265 4.10986759,12.2730157 4.25261258,12.4940402 C4.75553863,13.2727645 5.3497176,14.0520156 6.02897005,14.7765515 C7.92916823,16.8034296 10.0979521,18 12.5,18 C14.9020479,18 17.0708318,16.8034296 18.9710299,14.7765515 C19.6502824,14.0520156 20.2444614,13.2727645 20.7473874,12.4940402 C20.8901324,12.2730157 21.016735,12.0654265 21.1268768,11.875 C21.016735,11.6845735 20.8901324,11.4769843 20.7473874,11.2559598 C20.2444614,10.4772355 19.6502824,9.69798444 18.9710299,8.97344849 C17.0708318,6.94657043 14.9020479,5.75 12.5,5.75 Z M12.5,8.375 C14.4329966,8.375 16,9.94200338 16,11.875 C16,13.8079966 14.4329966,15.375 12.5,15.375 C10.5670034,15.375 9,13.8079966 9,11.875 C9,9.94200338 10.5670034,8.375 12.5,8.375 Z M12.5,10.125 C11.5335017,10.125 10.75,10.9085017 10.75,11.875 C10.75,12.8414983 11.5335017,13.625 12.5,13.625 C13.4664983,13.625 14.25,12.8414983 14.25,11.875 C14.25,10.9085017 13.4664983,10.125 12.5,10.125 Z" fill="#3F4A55" transform="translate(10, 10)"/>
</svg>

