<svg width="14" height="14" viewBox="0 0 14 14" fill="none" xmlns="http://www.w3.org/2000/svg">
<path d="M10.3824 6.39809C10.2353 6.39809 10.0392 6.39809 9.89216 6.44639L9.00981 4.46603H9.89216C9.94118 4.46603 9.9902 4.51433 9.9902 4.56263C9.9902 4.61093 9.94118 4.75584 9.89216 4.75584H9.84314C9.64706 4.75584 9.45099 4.90074 9.45099 5.14225C9.45099 5.38376 9.59805 5.52866 9.84314 5.52866H9.89216C10.3824 5.52866 10.7745 5.14225 10.7745 4.65924C10.7745 4.17622 10.3824 3.78981 9.89216 3.78981H8.42157C8.27452 3.78981 8.17648 3.83811 8.12746 3.93471C8.07844 4.03132 8.02942 4.17622 8.07844 4.27282L8.42157 4.94904H5.43138L4.9902 4.27282H5.4804C5.67648 4.27282 5.87255 4.12792 5.87255 3.88641C5.87255 3.6449 5.67648 3.5 5.4804 3.5H4.00981C3.81373 3.5 3.61765 3.69321 3.61765 3.88641C3.61765 4.07962 3.81373 4.27282 4.00981 4.27282H4.15687V4.32113L4.94118 5.57696L4.40197 6.5913C4.15687 6.49469 3.86275 6.39809 3.51961 6.39809C2.2451 6.39809 1.16667 7.41242 1.16667 8.71656C1.16667 10.0207 2.19608 11.035 3.51961 11.035C4.84314 11.035 5.87255 10.0207 5.87255 8.71656C5.87255 8.66826 5.87255 8.61996 5.87255 8.61996H7.2451C7.39216 8.61996 7.4902 8.52336 7.58824 8.42675L8.86275 5.91507L9.25491 6.7845C8.56863 7.17091 8.12746 7.89544 8.12746 8.76486C8.12746 10.0207 9.15687 11.0833 10.4804 11.0833C11.8039 11.0833 12.8333 10.069 12.8333 8.76486C12.8333 7.46072 11.6569 6.39809 10.3824 6.39809ZM4.69608 7.65393C4.7451 7.70223 4.79412 7.79883 4.84314 7.84713H4.59804L4.69608 7.65393ZM5.08824 8.71656C5.08824 9.58599 4.35295 10.2622 3.51961 10.2622C2.68628 10.2622 1.95099 9.58599 1.95099 8.71656C1.95099 7.84713 2.68628 7.17091 3.51961 7.17091C3.71569 7.17091 3.91177 7.21921 4.10785 7.26752L3.71569 8.08864C3.66667 8.18524 3.66667 8.33015 3.71569 8.42675C3.76471 8.52336 3.91177 8.61996 4.00981 8.61996H5.08824C5.08824 8.61996 5.08824 8.66826 5.08824 8.71656ZM5.03922 6.97771L5.38236 6.30149L6.31373 7.84713H5.67648C5.52942 7.50902 5.33334 7.21921 5.03922 6.97771ZM7.04903 7.70223L5.87255 5.72187H8.07844L7.04903 7.70223ZM10.3824 10.2622C9.50001 10.2622 8.81373 9.53769 8.81373 8.71656C8.81373 8.18524 9.10785 7.70223 9.50001 7.41242L10.0392 8.61996C10.1373 8.81316 10.3333 8.86147 10.5294 8.81316C10.7255 8.71656 10.7745 8.52335 10.7255 8.33015L10.1863 7.17091C10.2353 7.17091 10.3333 7.17091 10.3824 7.17091C11.2647 7.17091 11.951 7.89544 11.951 8.71656C11.951 9.53769 11.2647 10.2622 10.3824 10.2622Z" fill="#091625"/>
</svg>
