<svg version="1.1" id="Calque_1" xmlns="http://www.w3.org/2000/svg" x="0" y="0" viewBox="0 0 201.7 44.5" xml:space="preserve"><style>.st0{fill:#fff}</style><path class="st0" d="M85.7 12v4.1h.1c.7-1.5 1.8-2.7 3.3-3.5 1.5-.8 3.3-1.2 5.2-1.2 1.8 0 3.4.3 4.7.9 1.3.6 2.5 1.4 3.3 2.5.9 1 1.6 2.3 2 3.7.4 1.4.6 2.8.6 4.4 0 1.5-.2 3-.6 4.4-.4 1.4-1.1 2.6-2 3.7-.9 1-2 1.9-3.3 2.5-1.3.6-2.9.9-4.7.9-.9 0-1.7-.1-2.6-.3-.9-.2-1.7-.5-2.4-.9s-1.4-.9-2-1.5c-.6-.6-1-1.3-1.3-2.1h-.1v12.1H83V12h2.7zm15.9 7.5c-.3-1.1-.8-2.1-1.4-3-.6-.9-1.4-1.6-2.4-2.1s-2.2-.8-3.6-.8c-1.6 0-2.9.3-4 .8s-1.9 1.2-2.6 2c-.6.8-1.1 1.8-1.4 2.9-.3 1.1-.4 2.3-.4 3.5 0 1.1.1 2.2.4 3.3.3 1.1.8 2.1 1.4 3 .7.9 1.5 1.6 2.6 2.1s2.4.8 3.9.8c1.4 0 2.6-.3 3.6-.8s1.8-1.3 2.4-2.1c.6-.9 1.1-1.9 1.4-3 .3-1.1.4-2.2.4-3.3.2-1.1 0-2.2-.3-3.3zM124.9 12.3c1.4.6 2.6 1.4 3.5 2.5 1 1 1.7 2.2 2.2 3.6.5 1.4.7 2.9.7 4.4 0 1.6-.2 3-.7 4.4-.5 1.4-1.2 2.6-2.2 3.6-1 1-2.1 1.9-3.5 2.5-1.4.6-3 .9-4.8.9-1.8 0-3.4-.3-4.8-.9-1.4-.6-2.6-1.4-3.5-2.5-1-1-1.7-2.2-2.2-3.6-.5-1.4-.7-2.9-.7-4.4 0-1.6.2-3 .7-4.4.5-1.4 1.2-2.6 2.2-3.6 1-1 2.1-1.9 3.5-2.5 1.4-.6 3-.9 4.8-.9 1.8 0 3.4.3 4.8.9zm-8.5 2.1c-1 .5-1.9 1.2-2.6 2.1-.7.9-1.2 1.9-1.6 3-.4 1.1-.5 2.2-.5 3.4 0 1.1.2 2.3.5 3.4.4 1.1.9 2.1 1.6 3 .7.9 1.6 1.6 2.6 2.1s2.3.8 3.7.8c1.4 0 2.6-.3 3.6-.8s1.9-1.2 2.6-2.1c.7-.9 1.2-1.9 1.6-3 .4-1.1.5-2.2.5-3.4 0-1.1-.2-2.3-.5-3.4-.4-1.1-.9-2.1-1.6-3-.7-.9-1.6-1.6-2.6-2.1s-2.3-.8-3.6-.8c-1.4 0-2.7.3-3.7.8zM138.8 12v5.1h.1c.7-1.8 1.9-3.1 3.4-4.1 1.6-1 3.4-1.4 5.6-1.3v2.6c-1.3-.1-2.5.1-3.6.5s-2 .9-2.8 1.6c-.8.7-1.4 1.5-1.8 2.5-.4 1-.6 2-.6 3.2v11.6h-2.9V12h2.6zM160.6 12v2.2h-4.9v14.6c0 .9.1 1.5.4 2 .3.5.9.8 2 .8.8 0 1.7 0 2.5-.1v2.2H158c-1.9 0-3.3-.3-4.1-1-.8-.7-1.1-2-1.1-3.8V14.2h-4.2V12h4.2V5.5h2.9V12h4.9zM165.9 15.4c.5-.9 1.2-1.7 2-2.3.8-.6 1.8-1 3-1.3 1.1-.3 2.4-.4 3.8-.4 1 0 2.1.1 3.1.3 1 .2 2 .5 2.8 1 .8.5 1.5 1.2 2 2.1.5.9.8 2.1.8 3.5v11.5c0 1.1.6 1.6 1.7 1.6.3 0 .6-.1.9-.2v2.2c-.3.1-.6.1-.9.1h-1c-.7 0-1.3-.1-1.8-.3-.4-.2-.8-.4-1-.8-.2-.3-.4-.7-.5-1.2-.1-.5-.1-1-.1-1.5h-.1c-.5.7-1.1 1.3-1.6 1.9-.5.5-1.1 1-1.8 1.4-.7.4-1.4.6-2.3.8-.8.2-1.9.3-3 .3s-2.1-.1-3.1-.4c-1-.2-1.8-.6-2.5-1.1-.7-.5-1.3-1.2-1.7-2-.4-.6-.6-1.6-.6-2.6 0-1.5.4-2.7 1.1-3.5.7-.9 1.7-1.5 2.9-2 1.2-.4 2.6-.8 4.1-.9 1.5-.2 3.1-.4 4.6-.5.6-.1 1.2-.1 1.6-.2.5-.1.8-.2 1.2-.4.3-.2.5-.5.7-.9.2-.4.3-.8.3-1.4 0-.9-.2-1.6-.5-2.2-.3-.6-.8-1-1.3-1.4-.6-.3-1.2-.6-2-.7-.8-.1-1.6-.2-2.4-.2-1.8 0-3.4.4-4.5 1.2-1.2.8-1.8 2.1-1.8 3.8h-3c.1-1.3.4-2.4.9-3.3zm14.5 6.4c-.2.3-.5.5-1.1.7-.5.1-1 .2-1.4.3-1.2.2-2.5.4-3.8.5-1.3.2-2.5.4-3.6.7-1.1.3-2 .7-2.7 1.3-.7.6-1 1.4-1 2.5 0 .7.1 1.3.4 1.8.3.5.7 1 1.2 1.3.5.4 1.1.7 1.7.9.6.2 1.3.3 2 .3 1.1 0 2.2-.2 3.2-.5s1.9-.8 2.7-1.3c.8-.6 1.4-1.3 1.8-2.1.4-.8.7-1.8.7-2.9l-.1-3.5zM192.7 3.7v4.2h-2.9V3.7h2.9zm0 8.3v21.7h-2.9V12h2.9zM201.7 3.7v30h-2.9v-30h2.9z"/><g><path class="st0" d="M25.2 37.4c-.3 1.2-.9 2.3-1.8 3.4-.9 1-2.3 1.9-4 2.7-1.8.7-4.1 1.1-7.1 1.1-1.3 0-2.6-.1-3.9-.4-1.3-.3-2.5-.7-3.6-1.3-1.1-.6-2-1.4-2.7-2.3-.7-1-1.1-2.1-1.2-3.4h7c.3 1.2 1 2 1.9 2.5 1 .5 2.1.7 3.3.7 2 0 3.4-.5 4.4-1.6.9-1.1 1.4-2.5 1.3-4.1v-3.1h-.1c-.8 1.2-1.9 2.2-3.3 2.7-1.3.4-2.8.7-4.4.7-1.9 0-3.6-.3-5-.9-1.4-.6-2.5-1.5-3.4-2.5-.9-1.1-1.6-2.3-2-3.8-.4-1.4-.6-3-.6-4.6 0-1.5.2-3 .7-4.4.5-1.4 1.2-2.6 2.1-3.7.9-1.1 2.1-1.9 3.5-2.6 1.4-.6 3-1 4.8-1 1.7 0 3.2.3 4.5.9 1.3.6 2.4 1.5 3.2 2.9h.1v-3.1h6.7v21.9c0 1-.2 2.1-.4 3.3zm-9.7-7.8c.8-.4 1.4-.8 1.9-1.5.5-.6.9-1.3 1.1-2.1.2-.8.4-1.6.4-2.4 0-1-.1-1.9-.3-2.7-.2-.9-.5-1.6-1-2.3-.5-.7-1.1-1.2-1.8-1.6-.8-.4-1.7-.6-2.9-.6-1 0-1.9.2-2.6.5-.7.4-1.3.9-1.8 1.5s-.8 1.3-1 2.1c-.2.8-.3 1.6-.3 2.5 0 .8.1 1.7.3 2.5.2.8.5 1.6.9 2.2.4.7 1 1.2 1.8 1.6.7.4 1.6.6 2.7.6.9.2 1.8.1 2.6-.3z"/><path class="st0" d="M34.8 29.6c1.2 1 2.8 1.5 5 1.5 1.6 0 2.9-.4 4-1.1 1.1-.7 1.8-1.5 2.1-2.2h6.8c-1.1 3.1-2.8 5.2-5 6.6-2.2 1.3-5 2-8.1 2-2.2 0-4.2-.3-6-1-1.8-.6-3.3-1.6-4.5-2.7-1.2-1.2-2.2-2.6-2.8-4.2-.7-1.6-1-3.5-1-5.4 0-1.9.3-3.7 1-5.3.7-1.6 1.7-3.1 2.9-4.3 1.3-1.2 2.8-2.1 4.5-2.8 1.8-.7 3.7-1 5.8-1 2.4 0 4.5.4 6.2 1.3 1.8.8 3.2 2 4.4 3.4 1.1 1.4 2 3 2.5 4.8.5 1.8.7 3.7.5 5.7H32.9c.1 2 .7 3.6 1.9 4.7zm8.7-13.5c-.9-.9-2.3-1.4-4.2-1.4-1.2 0-2.3.2-3.1.6-.8.4-1.5.8-2 1.4-.5.6-.8 1.2-1 1.8-.2.6-.3 1.2-.4 1.7h12.5c-.3-1.8-.9-3.1-1.8-4.1zM35.1 7l5.2-7h8.5l-8.4 7h-5.3z"/><path class="st0" d="M52.4 17.4c.7-1.7 1.7-3.1 2.9-4.2 1.3-1.2 2.8-2.1 4.6-2.7 1.8-.6 3.8-1 6-1s4.2.3 6 1c1.8.6 3.3 1.5 4.6 2.7 1.3 1.2 2.2 2.6 2.9 4.2.7 1.7 1 3.5 1 5.6 0 2-.3 3.9-1 5.5s-1.7 3.1-2.9 4.2c-1.3 1.2-2.8 2.1-4.6 2.7-1.8.6-3.8.9-6 .9s-4.2-.3-6-.9c-1.8-.6-3.3-1.5-4.6-2.7-1.3-1.2-2.2-2.6-2.9-4.2-.7-1.6-1-3.5-1-5.5 0-2.1.3-3.9 1-5.6zm7 8.5c.2 1 .6 1.8 1.1 2.6.5.8 1.2 1.4 2.1 1.9.9.5 2 .7 3.3.7 1.3 0 2.4-.2 3.3-.7.9-.5 1.6-1.1 2.1-1.9.5-.8.9-1.6 1.1-2.6.2-1 .3-2 .3-3s-.1-2-.3-3c-.2-1-.6-1.9-1.1-2.6-.5-.8-1.2-1.4-2.1-1.8-.9-.5-2-.7-3.3-.7-1.3 0-2.4.2-3.3.7-.9.5-1.6 1.1-2.1 1.8-.5.8-.9 1.6-1.1 2.6-.2 1-.3 2-.3 3 0 1.1.1 2.1.3 3z"/></g></svg>