<?xml version="1.0" encoding="UTF-8" standalone="no"?>
<svg
   xmlns:dc="http://purl.org/dc/elements/1.1/"
   xmlns:cc="http://creativecommons.org/ns#"
   xmlns:rdf="http://www.w3.org/1999/02/22-rdf-syntax-ns#"
   xmlns:svg="http://www.w3.org/2000/svg"
   xmlns="http://www.w3.org/2000/svg"
   xmlns:sodipodi="http://sodipodi.sourceforge.net/DTD/sodipodi-0.dtd"
   xmlns:inkscape="http://www.inkscape.org/namespaces/inkscape"
   version="1.1"
   id="Calque_1"
   x="0"
   y="0"
   viewBox="0 0 201.7 44.5"
   xml:space="preserve"
   sodipodi:docname="logo-geoportail-bleu.svg"
   inkscape:version="0.92.3 (2405546, 2018-03-11)"><metadata
     id="metadata19"><rdf:RDF><cc:Work
         rdf:about=""><dc:format>image/svg+xml</dc:format><dc:type
           rdf:resource="http://purl.org/dc/dcmitype/StillImage" /><dc:title></dc:title></cc:Work></rdf:RDF></metadata><defs
     id="defs17" /><sodipodi:namedview
     pagecolor="#ffffff"
     bordercolor="#666666"
     borderopacity="1"
     objecttolerance="10"
     gridtolerance="10"
     guidetolerance="10"
     inkscape:pageopacity="0"
     inkscape:pageshadow="2"
     inkscape:window-width="1853"
     inkscape:window-height="1016"
     id="namedview15"
     showgrid="false"
     inkscape:zoom="2.2260784"
     inkscape:cx="100.85"
     inkscape:cy="22.25"
     inkscape:window-x="67"
     inkscape:window-y="27"
     inkscape:window-maximized="1"
     inkscape:current-layer="Calque_1" /><style
     id="style2">.st0{fill:#fff}</style><path
     class="st0"
     d="M85.7 12v4.1h.1c.7-1.5 1.8-2.7 3.3-3.5 1.5-.8 3.3-1.2 5.2-1.2 1.8 0 3.4.3 4.7.9 1.3.6 2.5 1.4 3.3 2.5.9 1 1.6 2.3 2 3.7.4 1.4.6 2.8.6 4.4 0 1.5-.2 3-.6 4.4-.4 1.4-1.1 2.6-2 3.7-.9 1-2 1.9-3.3 2.5-1.3.6-2.9.9-4.7.9-.9 0-1.7-.1-2.6-.3-.9-.2-1.7-.5-2.4-.9s-1.4-.9-2-1.5c-.6-.6-1-1.3-1.3-2.1h-.1v12.1H83V12h2.7zm15.9 7.5c-.3-1.1-.8-2.1-1.4-3-.6-.9-1.4-1.6-2.4-2.1s-2.2-.8-3.6-.8c-1.6 0-2.9.3-4 .8s-1.9 1.2-2.6 2c-.6.8-1.1 1.8-1.4 2.9-.3 1.1-.4 2.3-.4 3.5 0 1.1.1 2.2.4 3.3.3 1.1.8 2.1 1.4 3 .7.9 1.5 1.6 2.6 2.1s2.4.8 3.9.8c1.4 0 2.6-.3 3.6-.8s1.8-1.3 2.4-2.1c.6-.9 1.1-1.9 1.4-3 .3-1.1.4-2.2.4-3.3.2-1.1 0-2.2-.3-3.3zM124.9 12.3c1.4.6 2.6 1.4 3.5 2.5 1 1 1.7 2.2 2.2 3.6.5 1.4.7 2.9.7 4.4 0 1.6-.2 3-.7 4.4-.5 1.4-1.2 2.6-2.2 3.6-1 1-2.1 1.9-3.5 2.5-1.4.6-3 .9-4.8.9-1.8 0-3.4-.3-4.8-.9-1.4-.6-2.6-1.4-3.5-2.5-1-1-1.7-2.2-2.2-3.6-.5-1.4-.7-2.9-.7-4.4 0-1.6.2-3 .7-4.4.5-1.4 1.2-2.6 2.2-3.6 1-1 2.1-1.9 3.5-2.5 1.4-.6 3-.9 4.8-.9 1.8 0 3.4.3 4.8.9zm-8.5 2.1c-1 .5-1.9 1.2-2.6 2.1-.7.9-1.2 1.9-1.6 3-.4 1.1-.5 2.2-.5 3.4 0 1.1.2 2.3.5 3.4.4 1.1.9 2.1 1.6 3 .7.9 1.6 1.6 2.6 2.1s2.3.8 3.7.8c1.4 0 2.6-.3 3.6-.8s1.9-1.2 2.6-2.1c.7-.9 1.2-1.9 1.6-3 .4-1.1.5-2.2.5-3.4 0-1.1-.2-2.3-.5-3.4-.4-1.1-.9-2.1-1.6-3-.7-.9-1.6-1.6-2.6-2.1s-2.3-.8-3.6-.8c-1.4 0-2.7.3-3.7.8zM138.8 12v5.1h.1c.7-1.8 1.9-3.1 3.4-4.1 1.6-1 3.4-1.4 5.6-1.3v2.6c-1.3-.1-2.5.1-3.6.5s-2 .9-2.8 1.6c-.8.7-1.4 1.5-1.8 2.5-.4 1-.6 2-.6 3.2v11.6h-2.9V12h2.6zM160.6 12v2.2h-4.9v14.6c0 .9.1 1.5.4 2 .3.5.9.8 2 .8.8 0 1.7 0 2.5-.1v2.2H158c-1.9 0-3.3-.3-4.1-1-.8-.7-1.1-2-1.1-3.8V14.2h-4.2V12h4.2V5.5h2.9V12h4.9zM165.9 15.4c.5-.9 1.2-1.7 2-2.3.8-.6 1.8-1 3-1.3 1.1-.3 2.4-.4 3.8-.4 1 0 2.1.1 3.1.3 1 .2 2 .5 2.8 1 .8.5 1.5 1.2 2 2.1.5.9.8 2.1.8 3.5v11.5c0 1.1.6 1.6 1.7 1.6.3 0 .6-.1.9-.2v2.2c-.3.1-.6.1-.9.1h-1c-.7 0-1.3-.1-1.8-.3-.4-.2-.8-.4-1-.8-.2-.3-.4-.7-.5-1.2-.1-.5-.1-1-.1-1.5h-.1c-.5.7-1.1 1.3-1.6 1.9-.5.5-1.1 1-1.8 1.4-.7.4-1.4.6-2.3.8-.8.2-1.9.3-3 .3s-2.1-.1-3.1-.4c-1-.2-1.8-.6-2.5-1.1-.7-.5-1.3-1.2-1.7-2-.4-.6-.6-1.6-.6-2.6 0-1.5.4-2.7 1.1-3.5.7-.9 1.7-1.5 2.9-2 1.2-.4 2.6-.8 4.1-.9 1.5-.2 3.1-.4 4.6-.5.6-.1 1.2-.1 1.6-.2.5-.1.8-.2 1.2-.4.3-.2.5-.5.7-.9.2-.4.3-.8.3-1.4 0-.9-.2-1.6-.5-2.2-.3-.6-.8-1-1.3-1.4-.6-.3-1.2-.6-2-.7-.8-.1-1.6-.2-2.4-.2-1.8 0-3.4.4-4.5 1.2-1.2.8-1.8 2.1-1.8 3.8h-3c.1-1.3.4-2.4.9-3.3zm14.5 6.4c-.2.3-.5.5-1.1.7-.5.1-1 .2-1.4.3-1.2.2-2.5.4-3.8.5-1.3.2-2.5.4-3.6.7-1.1.3-2 .7-2.7 1.3-.7.6-1 1.4-1 2.5 0 .7.1 1.3.4 1.8.3.5.7 1 1.2 1.3.5.4 1.1.7 1.7.9.6.2 1.3.3 2 .3 1.1 0 2.2-.2 3.2-.5s1.9-.8 2.7-1.3c.8-.6 1.4-1.3 1.8-2.1.4-.8.7-1.8.7-2.9l-.1-3.5zM192.7 3.7v4.2h-2.9V3.7h2.9zm0 8.3v21.7h-2.9V12h2.9zM201.7 3.7v30h-2.9v-30h2.9z"
     id="path4"
     style="fill:#146cac;fill-opacity:1" /><g
     id="g12"
     style="fill:#146caf;fill-opacity:0.94117647"><path
       class="st0"
       d="m 25.2,37.4 c -0.3,1.2 -0.9,2.3 -1.8,3.4 -0.9,1 -2.3,1.9 -4,2.7 -1.8,0.7 -4.1,1.1 -7.1,1.1 C 11,44.6 9.7,44.5 8.4,44.2 7.1,43.9 5.9,43.5 4.8,42.9 3.7,42.3 2.8,41.5 2.1,40.6 1.4,39.6 1,38.5 0.9,37.2 h 7 c 0.3,1.2 1,2 1.9,2.5 1,0.5 2.1,0.7 3.3,0.7 2,0 3.4,-0.5 4.4,-1.6 0.9,-1.1 1.4,-2.5 1.3,-4.1 v -3.1 h -0.1 c -0.8,1.2 -1.9,2.2 -3.3,2.7 C 14.1,34.7 12.6,35 11,35 9.1,35 7.4,34.7 6,34.1 4.6,33.5 3.5,32.6 2.6,31.6 1.7,30.5 1,29.3 0.6,27.8 0.2,26.4 0,24.8 0,23.2 c 0,-1.5 0.2,-3 0.7,-4.4 0.5,-1.4 1.2,-2.6 2.1,-3.7 0.9,-1.1 2.1,-1.9 3.5,-2.6 1.4,-0.6 3,-1 4.8,-1 1.7,0 3.2,0.3 4.5,0.9 1.3,0.6 2.4,1.5 3.2,2.9 h 0.1 v -3.1 h 6.7 v 21.9 c 0,1 -0.2,2.1 -0.4,3.3 z m -9.7,-7.8 c 0.8,-0.4 1.4,-0.8 1.9,-1.5 0.5,-0.6 0.9,-1.3 1.1,-2.1 0.2,-0.8 0.4,-1.6 0.4,-2.4 0,-1 -0.1,-1.9 -0.3,-2.7 -0.2,-0.9 -0.5,-1.6 -1,-2.3 -0.5,-0.7 -1.1,-1.2 -1.8,-1.6 -0.8,-0.4 -1.7,-0.6 -2.9,-0.6 -1,0 -1.9,0.2 -2.6,0.5 C 9.6,17.3 9,17.8 8.5,18.4 8,19 7.7,19.7 7.5,20.5 7.3,21.3 7.2,22.1 7.2,23 c 0,0.8 0.1,1.7 0.3,2.5 0.2,0.8 0.5,1.6 0.9,2.2 0.4,0.7 1,1.2 1.8,1.6 0.7,0.4 1.6,0.6 2.7,0.6 0.9,0.2 1.8,0.1 2.6,-0.3 z"
       id="path6"
       inkscape:connector-curvature="0"
       style="fill:#146caf;fill-opacity:0.94117647" /><path
       class="st0"
       d="m 34.8,29.6 c 1.2,1 2.8,1.5 5,1.5 1.6,0 2.9,-0.4 4,-1.1 1.1,-0.7 1.8,-1.5 2.1,-2.2 h 6.8 c -1.1,3.1 -2.8,5.2 -5,6.6 -2.2,1.3 -5,2 -8.1,2 -2.2,0 -4.2,-0.3 -6,-1 -1.8,-0.6 -3.3,-1.6 -4.5,-2.7 -1.2,-1.2 -2.2,-2.6 -2.8,-4.2 -0.7,-1.6 -1,-3.5 -1,-5.4 0,-1.9 0.3,-3.7 1,-5.3 0.7,-1.6 1.7,-3.1 2.9,-4.3 1.3,-1.2 2.8,-2.1 4.5,-2.8 1.8,-0.7 3.7,-1 5.8,-1 2.4,0 4.5,0.4 6.2,1.3 1.8,0.8 3.2,2 4.4,3.4 1.1,1.4 2,3 2.5,4.8 0.5,1.8 0.7,3.7 0.5,5.7 H 32.9 c 0.1,2 0.7,3.6 1.9,4.7 z m 8.7,-13.5 c -0.9,-0.9 -2.3,-1.4 -4.2,-1.4 -1.2,0 -2.3,0.2 -3.1,0.6 -0.8,0.4 -1.5,0.8 -2,1.4 -0.5,0.6 -0.8,1.2 -1,1.8 -0.2,0.6 -0.3,1.2 -0.4,1.7 H 45.3 C 45,18.4 44.4,17.1 43.5,16.1 Z M 35.1,7 40.3,0 h 8.5 l -8.4,7 z"
       id="path8"
       inkscape:connector-curvature="0"
       style="fill:#146caf;fill-opacity:0.94117647" /><path
       class="st0"
       d="m 52.4,17.4 c 0.7,-1.7 1.7,-3.1 2.9,-4.2 1.3,-1.2 2.8,-2.1 4.6,-2.7 1.8,-0.6 3.8,-1 6,-1 2.2,0 4.2,0.3 6,1 1.8,0.6 3.3,1.5 4.6,2.7 1.3,1.2 2.2,2.6 2.9,4.2 0.7,1.7 1,3.5 1,5.6 0,2 -0.3,3.9 -1,5.5 -0.7,1.6 -1.7,3.1 -2.9,4.2 -1.3,1.2 -2.8,2.1 -4.6,2.7 -1.8,0.6 -3.8,0.9 -6,0.9 -2.2,0 -4.2,-0.3 -6,-0.9 -1.8,-0.6 -3.3,-1.5 -4.6,-2.7 -1.3,-1.2 -2.2,-2.6 -2.9,-4.2 -0.7,-1.6 -1,-3.5 -1,-5.5 0,-2.1 0.3,-3.9 1,-5.6 z m 7,8.5 c 0.2,1 0.6,1.8 1.1,2.6 0.5,0.8 1.2,1.4 2.1,1.9 0.9,0.5 2,0.7 3.3,0.7 1.3,0 2.4,-0.2 3.3,-0.7 0.9,-0.5 1.6,-1.1 2.1,-1.9 0.5,-0.8 0.9,-1.6 1.1,-2.6 0.2,-1 0.3,-2 0.3,-3 0,-1 -0.1,-2 -0.3,-3 -0.2,-1 -0.6,-1.9 -1.1,-2.6 -0.5,-0.8 -1.2,-1.4 -2.1,-1.8 -0.9,-0.5 -2,-0.7 -3.3,-0.7 -1.3,0 -2.4,0.2 -3.3,0.7 -0.9,0.5 -1.6,1.1 -2.1,1.8 -0.5,0.8 -0.9,1.6 -1.1,2.6 -0.2,1 -0.3,2 -0.3,3 0,1.1 0.1,2.1 0.3,3 z"
       id="path10"
       inkscape:connector-curvature="0"
       style="fill:#146caf;fill-opacity:0.94117647" /></g></svg>