<svg width="42" height="42" viewBox="0 0 42 42" fill="none" xmlns="http://www.w3.org/2000/svg">
<g id="Explorer">
<rect x="0.5" y="0.5" width="41" height="41" rx="20.5" stroke="#26A581"/>
<path id="Vector" d="M21 30L19.55 28.7C17.8667 27.1834 16.475 25.875 15.375 24.775C14.275 23.675 13.4 22.6875 12.75 21.8125C12.1 20.9375 11.6458 20.1334 11.3875 19.4C11.1292 18.6667 11 17.9167 11 17.15C11 15.5834 11.525 14.275 12.575 13.225C13.625 12.175 14.9333 11.65 16.5 11.65C17.3667 11.65 18.1917 11.8334 18.975 12.2C19.7583 12.5667 20.4333 13.0834 21 13.75C21.5667 13.0834 22.2417 12.5667 23.025 12.2C23.8083 11.8334 24.6333 11.65 25.5 11.65C27.0667 11.65 28.375 12.175 29.425 13.225C30.475 14.275 31 15.5834 31 17.15C31 17.9167 30.8708 18.6667 30.6125 19.4C30.3542 20.1334 29.9 20.9375 29.25 21.8125C28.6 22.6875 27.725 23.675 26.625 24.775C25.525 25.875 24.1333 27.1834 22.45 28.7L21 30ZM21 27.3C22.6 25.8667 23.9167 24.6375 24.95 23.6125C25.9833 22.5875 26.8 21.6959 27.4 20.9375C28 20.1792 28.4167 19.5042 28.65 18.9125C28.8833 18.3209 29 17.7334 29 17.15C29 16.15 28.6667 15.3167 28 14.65C27.3333 13.9834 26.5 13.65 25.5 13.65C24.7167 13.65 23.9917 13.8709 23.325 14.3125C22.6583 14.7542 22.2 15.3167 21.95 16H20.05C19.8 15.3167 19.3417 14.7542 18.675 14.3125C18.0083 13.8709 17.2833 13.65 16.5 13.65C15.5 13.65 14.6667 13.9834 14 14.65C13.3333 15.3167 13 16.15 13 17.15C13 17.7334 13.1167 18.3209 13.35 18.9125C13.5833 19.5042 14 20.1792 14.6 20.9375C15.2 21.6959 16.0167 22.5875 17.05 23.6125C18.0833 24.6375 19.4 25.8667 21 27.3Z" fill="#26A581" transform="translate(0, 1)"/>
</g>
</svg>
