<svg width="42px" height="42px" viewBox="0 0 42 42" version="1.1" xmlns="http://www.w3.org/2000/svg" xmlns:xlink="http://www.w3.org/1999/xlink">
<rect x="1" y="0.5" width="40" height="40" fill="transparent" rx="20" stroke="#26A581"/>
<g>
      <path d="M18.2103379,16.8037034 C18.0250986,17.1789778 17.6672132,17.4392083 17.2531107,17.4997356 L11.0086033,18.4124639 L15.5260888,22.8124948 C15.8263029,23.1049033 15.9633332,23.5263586 15.8924898,23.9394112 L14.826633,30.1538983 L20.4094904,27.2179296 C20.780355,27.0228956 21.2234547,27.0228956 21.5943194,27.2179296 L27.1771767,30.1538983 L26.1113199,23.9394112 C26.0404766,23.5263586 26.1775069,23.1049033 26.4777209,22.8124948 L30.9952064,18.4124639 L24.750699,17.4997356 C24.3365965,17.4392083 23.9787111,17.1789778 23.7934719,16.8037034 L21.0019049,11.1482959 L18.2103379,16.8037034 Z M16.2235767,15.0776203 L19.8605986,7.70941408 C20.3274973,6.76352864 21.6763124,6.76352864 22.1432111,7.70941408 L25.7802331,15.0776203 L33.9137291,16.2664526 C34.9572956,16.4189855 35.3732173,17.7017402 34.6177066,18.4376076 L28.7334014,24.1689208 L30.1221089,32.2657917 C30.3004482,33.3056005 29.2089819,34.0984919 28.2752369,33.6074448 L21.0019049,29.7824725 L13.7285729,33.6074448 C12.7948279,34.0984919 11.7033616,33.3056005 11.8817008,32.2657917 L13.2704084,24.1689208 L7.38610319,18.4376076 C6.63059248,17.7017402 7.04651411,16.4189855 8.09008062,16.2664526 L16.2235767,15.0776203 Z" id="path-1" fill="#26A581" transform="scale(0.8) translate(5.5, 5)"></path>
    </g>
</svg>
