<svg width="44" height="44" viewBox="0 0 44 44" fill="none" xmlns="http://www.w3.org/2000/svg">
<g id="back" style="mix-blend-mode:luminosity">
<rect x="0.5" y="0.5" width="43" height="43" fill="#26A581"/>
<rect x="0.5" y="0.5" width="43" height="43" fill="black" fill-opacity="0.7"/>
<rect x="0.5" y="0.5" width="43" height="43" stroke="white"/>
<g id="Group 113">
<path id="Vector" d="M37.762 21.2996C37.5427 21.4651 37.4309 21.8678 37.4309 21.9259C37.4309 21.9841 37.5069 22.7536 36.8806 22.7312C36.2587 22.7133 35.9277 22.6015 35.78 22.7491C35.6324 22.8968 36.1111 22.9325 35.8561 23.0802C35.5966 23.2234 35.1581 23.6663 34.7152 23.6886C34.3126 23.7065 34.496 24.0734 34.1649 24.1629C33.8383 24.2568 33.288 24.7713 33.288 24.825C33.288 24.8787 33.3596 24.9727 33.2478 25.0666C33.1404 25.1606 32.6975 25.2858 33.3954 25.2679C34.1291 25.25 33.8741 25.0845 33.8741 25.0084C33.8741 24.9324 34.2768 24.8653 34.496 24.8653C34.7152 24.8653 35.4489 24.7355 35.4489 25.0487C35.4489 25.3619 35.4489 25.4514 35.6324 25.5274C35.8158 25.6035 36.1827 25.769 35.7084 25.9524C35.2297 26.1359 35.6726 26.2835 35.78 26.4088C35.8919 26.5385 36.2945 26.8114 36.2945 26.977C36.2945 27.1425 36.4064 27.232 35.8919 27.2723C35.3774 27.308 35.5608 27.3975 35.1939 27.3796C34.8271 27.3617 34.8986 27.5631 35.1223 27.6704C35.3058 27.7778 34.9747 27.8181 35.4489 27.9254C35.9276 28.0552 36.0753 28.1268 35.9276 28.2923C35.7442 28.4399 35.4131 28.4936 35.5608 28.6413C35.7084 28.7889 35.6726 29.026 35.8158 29.12C35.9276 29.2095 36.1827 29.3974 36.733 29.4332C37.3235 29.469 37.6143 29.2855 37.7977 29.375C37.9812 29.4645 37.762 29.724 37.5785 29.7955C37.3951 29.8716 37.762 30.1087 37.3235 30.1982C36.8806 30.2698 36.2587 30.5114 36.0753 30.6009C35.8919 30.6903 35.78 30.8424 35.4892 30.8424C35.1984 30.8424 35.0105 31.0438 35.0463 31.0796C35.0821 31.1154 35.0105 31.2451 34.7555 31.3346C34.496 31.4285 33.6549 31.518 33.4312 31.518C33.212 31.5001 32.6259 31.4285 32.3306 31.3569C32.0398 31.2988 31.1942 31.2988 31.1942 31.1511C31.1942 31.0035 31.23 30.9319 30.6797 30.9677C30.1697 31.008 30.2771 30.8961 30.2055 30.8246C30.1294 30.7664 29.7268 30.7888 29.7626 30.9319C29.8386 31.0796 29.2883 30.8559 29.2526 30.7664C29.2526 30.6724 29.3599 30.4353 28.9931 30.5069C28.6262 30.5785 28.9573 30.7977 28.1162 30.6903C27.6733 30.6143 28.1878 30.3995 27.6733 30.3995C27.6733 30.3995 26.4653 30.6724 26.2058 30.8424C25.9508 31.008 25.141 31.0975 24.9576 31.263C24.7742 31.4285 24.5549 31.518 24.5549 31.9609C24.5549 32.4038 24.5549 32.4173 24.7384 32.4933C24.8502 32.5336 25.2887 32.7707 24.5907 32.6991C23.8973 32.6231 23.6378 32.7886 23.4543 32.8423C23.2709 32.9005 22.318 32.5694 21.9153 32.6768C21.5127 32.7707 20.9982 32.5694 20.8147 32.4754C20.6313 32.3994 20.7387 32.2741 20.6313 32.2338C20.5195 32.1802 20.2286 32.198 20.005 32.198C19.7813 32.198 19.7141 31.9967 19.3831 31.9967C19.052 31.9967 18.6136 31.6835 18.1349 31.6835C17.6561 31.6835 17.9872 31.9251 17.6964 31.9609C17.4011 31.9788 16.3005 31.867 16.0813 31.867C15.8621 31.8491 15.3118 31.7193 15.0523 31.6299C14.7973 31.518 14.1754 31.6478 14.0994 31.5941C14.0278 31.5404 13.6609 31.4106 13.6251 31.3167C13.5849 31.2272 13.4417 31.2093 13.2583 31.2093C13.0748 31.2093 12.8914 31.2272 12.7796 31.1019C12.708 30.9722 12.2651 30.9722 12.0458 30.9543C11.8624 30.9543 11.6074 30.9901 11.755 30.8067C11.8982 30.6456 12.0458 30.5874 11.7148 30.5159C11.424 30.4398 10.395 30.4085 11.2047 30.2429C11.2047 30.2429 11.8266 30.0953 12.0816 29.6926C12.3411 29.2676 12.5603 28.7039 12.708 28.5921C12.8154 28.4847 12.7796 28.1357 12.8914 28.0418C12.9988 27.9523 12.9988 27.8986 13.1464 27.8762C13.3299 27.8583 13.992 27.9702 13.3299 27.6033C13.1106 27.4736 13.1464 27.6794 13.0391 27.751C12.9272 27.8091 12.8154 27.8628 13.0391 27.4781C13.2583 27.0933 13.2941 26.8159 13.3299 26.7622C13.3656 26.7085 13.5133 26.1582 13.5849 26.1046C13.6609 26.0464 13.6967 26.0643 13.8086 26.1404C13.9159 26.2164 14.3946 26.4312 14.4662 26.7309C14.5423 27.0217 14.6855 27.1694 14.6855 26.7667C14.6855 26.364 14.4662 26.2164 14.3186 26.1448C14.1352 26.0688 13.3656 25.7422 13.3656 25.6885C13.3656 25.6348 13.5133 25.523 13.6251 25.5587C13.7325 25.5945 13.9517 25.3932 13.9159 25.2858C13.8801 25.1785 13.6609 24.919 13.6967 24.8295C13.7325 24.7355 13.8801 24.5879 13.5133 24.5342C13.1464 24.4761 12.1219 24.1852 12.0458 24.0197C11.9743 23.8542 11.3479 23.5276 11.4598 23.3397C11.5716 23.1562 11.7908 23.0086 11.7908 22.9549C11.7908 22.9012 11.2047 22.7536 11.2763 22.6462C11.3121 22.5344 10.2473 22.5344 10.5068 22.2794C10.7618 22.0199 10.726 21.9304 10.6142 21.908C10.471 21.8901 9.62545 21.8901 9.29438 21.7649C8.9633 21.6351 8.48907 21.4338 8.22958 21.4159C7.97457 21.3756 7.67929 21.2682 7.57191 21.2146C7.46007 21.1788 7.0932 21.2325 7.05741 21.1251C6.98583 21.0132 6.76213 21.0132 6.54291 21.0311C6.32369 21.049 5.84498 21.1027 5.84498 20.9953C5.84498 20.888 5.51838 20.6822 5.40653 20.6464C5.25889 20.6285 4.78466 20.5524 5.29469 20.5166C5.80919 20.4808 6.35948 20.4808 6.17605 20.3511C5.99262 20.2213 4.92782 20.0782 5.00388 19.8948C5.07546 19.6934 5.07546 19.5055 5.44233 19.5279C5.80919 19.5458 6.06868 19.4339 6.2879 19.4339C6.50712 19.4339 6.90977 19.3624 7.0932 19.3758C7.27664 19.3937 7.24084 19.5055 7.38848 19.5055C7.53612 19.4876 7.60771 19.3981 7.75535 19.4339C7.90298 19.4697 8.158 19.5458 8.37722 19.416C8.59644 19.2863 8.158 19.2326 8.89172 19.255C9.66124 19.2729 9.47781 19.1968 9.69703 19.3266C9.92072 19.4742 10.1399 19.6218 10.2115 19.6979C10.2473 19.7695 10.395 20.0111 10.5068 19.9887C10.6142 19.9887 11.2047 19.6397 11.4955 19.7158C11.7908 19.7874 12.2651 19.859 12.4127 19.7874C12.5603 19.7158 12.6722 19.6979 12.7438 19.7292C12.8154 19.765 12.7438 20.0066 13.1822 19.9708C13.6251 19.935 13.8801 20.0424 13.6251 19.7158C13.4014 19.3847 13.6967 19.1655 13.6251 19.076C13.5491 18.9821 13.5491 18.745 13.3656 18.5213C13.1822 18.302 13.0748 18.1544 13.1464 18.0112C13.2225 17.8636 12.708 17.6981 13.0748 17.7383C13.4417 17.7741 13.7683 17.9396 13.8801 17.8994C14.0278 17.8815 14.7257 17.6981 14.7615 17.9575C14.7973 18.2126 14.5423 18.0873 14.7257 18.3602C14.9449 18.6331 14.9449 18.5436 15.2 18.4899C15.4594 18.4139 15.5668 18.5615 15.8263 18.5794C16.0813 18.5973 16.5958 18.5615 16.8866 18.6868C17.1461 18.7986 17.4772 18.7986 17.7322 18.7271C17.9872 18.651 18.0275 18.5213 18.0275 18.5213C18.0275 18.5213 18.0275 18.1007 18.7612 17.9173C19.4949 17.7338 21.6558 17.5683 21.8795 17.1657C22.1345 16.763 22.063 15.8816 22.4298 15.7519C22.7967 15.6266 24.7384 15.4029 24.8144 15.4432C24.886 15.479 25.1813 16.0472 25.4005 16.1188C25.6197 16.1948 26.17 16.0114 26.2819 16.0472C26.3892 16.083 26.425 16.5438 26.6487 16.5796C26.868 16.6333 27.3422 16.5975 27.4182 16.6869C27.4898 16.7809 27.4182 16.9778 27.6375 16.9643C27.8567 16.9464 28.7381 16.9464 28.7381 17.2059C28.7381 17.4654 28.5904 17.6981 28.9931 17.716C29.3957 17.7383 29.7626 17.6802 29.8386 17.6623C29.9102 17.6399 30.3129 17.3312 30.3889 17.443C30.4605 17.5325 30.3889 17.8994 30.5366 17.9754C30.6797 18.047 31.1584 18.1589 31.4537 18.2662C31.7445 18.396 31.9638 18.5973 32.259 18.5794C32.514 18.5615 33.3596 18.6868 33.8383 18.7628C34.3126 18.8389 34.7555 19.0537 35.0463 19.2058C35.3774 19.3534 35.9634 19.331 36.2587 19.3892C36.5495 19.4474 36.9164 19.3892 37.4309 19.4832C37.9454 19.5726 38.6075 19.5905 38.9341 19.7024C39.2652 19.8097 38.2407 20.4719 38.2407 20.4719C38.2407 20.4719 37.9812 21.1877 37.762 21.3354V21.2996Z" fill="#E3F5EF"/>
<path id="Vector_2" opacity="0.6" d="M37.762 16.8611C37.5427 17.0267 37.4309 17.4293 37.4309 17.4875C37.4309 17.5457 37.5069 18.3152 36.8806 18.2928C36.2587 18.2749 35.9277 18.1631 35.78 18.3107C35.6324 18.4583 36.1111 18.4941 35.8561 18.6418C35.5966 18.7849 35.1581 19.2279 34.7152 19.2502C34.3126 19.2681 34.496 19.635 34.1649 19.7245C33.8383 19.8184 33.288 20.3329 33.288 20.3866C33.288 20.4403 33.3596 20.5342 33.2478 20.6282C33.1404 20.7221 32.6975 20.8474 33.3954 20.8295C34.1291 20.8116 33.8741 20.6461 33.8741 20.57C33.8741 20.494 34.2768 20.4269 34.496 20.4269C34.7152 20.4269 35.4489 20.2971 35.4489 20.6103C35.4489 20.9235 35.4489 21.013 35.6324 21.089C35.8158 21.1651 36.1827 21.3306 35.7084 21.514C35.2297 21.6975 35.6726 21.8451 35.78 21.9704C35.8919 22.1001 36.2945 22.373 36.2945 22.5386C36.2945 22.7041 36.4064 22.7936 35.8919 22.8338C35.3774 22.8696 35.5608 22.9591 35.1939 22.9412C34.8271 22.9233 34.8986 23.1246 35.1223 23.232C35.3058 23.3394 34.9747 23.3797 35.4489 23.487C35.9276 23.6168 36.0753 23.6884 35.9276 23.8539C35.7442 24.0015 35.4131 24.0552 35.5608 24.2029C35.7084 24.3505 35.6726 24.5876 35.8158 24.6816C35.9276 24.771 36.1827 24.959 36.733 24.9947C37.3235 25.0305 37.6143 24.8471 37.7977 24.9366C37.9812 25.0261 37.762 25.2855 37.5785 25.3571C37.3951 25.4332 37.762 25.6703 37.3235 25.7598C36.8806 25.8314 36.2587 26.073 36.0753 26.1624C35.8919 26.2519 35.78 26.404 35.4892 26.404C35.1984 26.404 35.0105 26.6054 35.0463 26.6412C35.0821 26.6769 35.0105 26.8067 34.7555 26.8962C34.496 26.9901 33.6549 27.0796 33.4312 27.0796C33.212 27.0617 32.6259 26.9901 32.3306 26.9185C32.0398 26.8604 31.1942 26.8604 31.1942 26.7127C31.1942 26.5651 31.23 26.4935 30.6797 26.5293C30.1697 26.5696 30.2771 26.4577 30.2055 26.3861C30.1294 26.328 29.7268 26.3503 29.7626 26.4935C29.8386 26.6411 29.2883 26.4175 29.2526 26.328C29.2526 26.234 29.3599 25.9969 28.9931 26.0685C28.6262 26.1401 28.9573 26.3593 28.1162 26.2519C27.6733 26.1759 28.1878 25.9611 27.6733 25.9611C27.6733 25.9611 26.4653 26.234 26.2058 26.404C25.9508 26.5696 25.141 26.659 24.9576 26.8246C24.7742 26.9901 24.5549 27.0796 24.5549 27.5225C24.5549 27.9654 24.5549 27.9789 24.7384 28.0549C24.8502 28.0952 25.2887 28.3323 24.5907 28.2607C23.8973 28.1847 23.6378 28.3502 23.4543 28.4039C23.2709 28.462 22.318 28.131 21.9153 28.2383C21.5127 28.3323 20.9982 28.131 20.8147 28.037C20.6313 27.961 20.7387 27.8357 20.6313 27.7954C20.5195 27.7417 20.2286 27.7596 20.005 27.7596C19.7813 27.7596 19.7141 27.5583 19.3831 27.5583C19.052 27.5583 18.6136 27.2451 18.1349 27.2451C17.6561 27.2451 17.9872 27.4867 17.6964 27.5225C17.4011 27.5404 16.3005 27.4286 16.0813 27.4286C15.8621 27.4107 15.3118 27.2809 15.0523 27.1914C14.7973 27.0796 14.1754 27.2093 14.0994 27.1557C14.0278 27.102 13.6609 26.9722 13.6251 26.8783C13.5849 26.7888 13.4417 26.7709 13.2583 26.7709C13.0748 26.7709 12.8914 26.7888 12.7796 26.6635C12.708 26.5338 12.2651 26.5338 12.0458 26.5159C11.8624 26.5159 11.6074 26.5517 11.755 26.3682C11.8982 26.2072 12.0458 26.149 11.7148 26.0774C11.424 26.0014 10.395 25.9701 11.2047 25.8045C11.2047 25.8045 11.8266 25.6569 12.0816 25.2542C12.3411 24.8292 12.5603 24.2655 12.708 24.1536C12.8154 24.0463 12.7796 23.6973 12.8914 23.6034C12.9988 23.5139 12.9988 23.4602 13.1464 23.4378C13.3299 23.4199 13.992 23.5318 13.3299 23.1649C13.1106 23.0352 13.1464 23.241 13.0391 23.3125C12.9272 23.3707 12.8154 23.4244 13.0391 23.0396C13.2583 22.6549 13.2941 22.3775 13.3299 22.3238C13.3656 22.2701 13.5133 21.7198 13.5849 21.6661C13.6609 21.608 13.6967 21.6259 13.8086 21.7019C13.9159 21.778 14.3946 21.9927 14.4662 22.2925C14.5423 22.5833 14.6855 22.7309 14.6855 22.3283C14.6855 21.9256 14.4662 21.778 14.3186 21.7064C14.1352 21.6304 13.3656 21.3038 13.3656 21.2501C13.3656 21.1964 13.5133 21.0845 13.6251 21.1203C13.7325 21.1561 13.9517 20.9548 13.9159 20.8474C13.8801 20.74 13.6609 20.4806 13.6967 20.3911C13.7325 20.2971 13.8801 20.1495 13.5133 20.0958C13.1464 20.0376 12.1219 19.7468 12.0458 19.5813C11.9743 19.4158 11.3479 19.0892 11.4598 18.9013C11.5716 18.7178 11.7908 18.5702 11.7908 18.5165C11.7908 18.4628 11.2047 18.3152 11.2763 18.2078C11.3121 18.096 10.2473 18.096 10.5068 17.8409C10.7618 17.5815 10.726 17.492 10.6142 17.4696C10.471 17.4517 9.62545 17.4517 9.29438 17.3264C8.9633 17.1967 8.48907 16.9954 8.22958 16.9775C7.97457 16.9372 7.67929 16.8298 7.57191 16.7761C7.46007 16.7404 7.0932 16.794 7.05741 16.6867C6.98583 16.5748 6.76213 16.5748 6.54291 16.5927C6.32369 16.6106 5.84498 16.6643 5.84498 16.5569C5.84498 16.4495 5.51838 16.2437 5.40653 16.208C5.25889 16.1901 4.78466 16.114 5.29469 16.0782C5.80919 16.0424 6.35948 16.0424 6.17605 15.9127C5.99262 15.7829 4.92782 15.6398 5.00388 15.4563C5.07546 15.255 5.07546 15.0671 5.44233 15.0895C5.80919 15.1074 6.06868 14.9955 6.2879 14.9955C6.50712 14.9955 6.90977 14.9239 7.0932 14.9374C7.27664 14.9553 7.24084 15.0671 7.38848 15.0671C7.53612 15.0492 7.60771 14.9597 7.75535 14.9955C7.90298 15.0313 8.158 15.1074 8.37722 14.9776C8.59644 14.8479 8.158 14.7942 8.89172 14.8166C9.66124 14.8345 9.47781 14.7584 9.69703 14.8881C9.92072 15.0358 10.1399 15.1834 10.2115 15.2595C10.2473 15.3311 10.395 15.5727 10.5068 15.5503C10.6142 15.5503 11.2047 15.2013 11.4955 15.2774C11.7908 15.349 12.2651 15.4205 12.4127 15.349C12.5603 15.2774 12.6722 15.2595 12.7438 15.2908C12.8154 15.3266 12.7438 15.5682 13.1822 15.5324C13.6251 15.4966 13.8801 15.604 13.6251 15.2774C13.4014 14.9463 13.6967 14.7271 13.6251 14.6376C13.5491 14.5437 13.5491 14.3065 13.3656 14.0828C13.1822 13.8636 13.0748 13.716 13.1464 13.5728C13.2225 13.4252 12.708 13.2596 13.0748 13.2999C13.4417 13.3357 13.7683 13.5012 13.8801 13.461C14.0278 13.4431 14.7257 13.2596 14.7615 13.5191C14.7973 13.7741 14.5423 13.6489 14.7257 13.9218C14.9449 14.1947 14.9449 14.1052 15.2 14.0515C15.4594 13.9755 15.5668 14.1231 15.8263 14.141C16.0813 14.1589 16.5958 14.1231 16.8866 14.2484C17.1461 14.3602 17.4772 14.3602 17.7322 14.2886C17.9872 14.2126 18.0275 14.0828 18.0275 14.0828C18.0275 14.0828 18.0275 13.6623 18.7612 13.4789C19.4949 13.2954 21.6558 13.1299 21.8795 12.7272C22.1345 12.3246 22.063 11.4432 22.4298 11.3135C22.7967 11.1882 24.7384 10.9645 24.8144 11.0048C24.886 11.0406 25.1813 11.6088 25.4005 11.6803C25.6197 11.7564 26.17 11.573 26.2819 11.6088C26.3892 11.6446 26.425 12.1054 26.6487 12.1412C26.868 12.1948 27.3422 12.1591 27.4182 12.2485C27.4898 12.3425 27.4182 12.5393 27.6375 12.5259C27.8567 12.508 28.7381 12.508 28.7381 12.7675C28.7381 13.027 28.5904 13.2596 28.9931 13.2775C29.3957 13.2999 29.7626 13.2417 29.8386 13.2238C29.9102 13.2015 30.3129 12.8928 30.3889 13.0046C30.4605 13.0941 30.3889 13.461 30.5366 13.537C30.6797 13.6086 31.1584 13.7205 31.4537 13.8278C31.7445 13.9576 31.9638 14.1589 32.259 14.141C32.514 14.1231 33.3596 14.2484 33.8383 14.3244C34.3126 14.4005 34.7555 14.6152 35.0463 14.7674C35.3774 14.915 35.9634 14.8926 36.2587 14.9508C36.5495 15.0089 36.9164 14.9508 37.4309 15.0447C37.9454 15.1342 38.6075 15.1521 38.9341 15.264C39.2652 15.3713 38.2407 16.0335 38.2407 16.0335C38.2407 16.0335 37.9812 16.7493 37.762 16.8969V16.8611Z" fill="#26A581"/>
</g>
</g>
</svg>
