<svg width="44" height="44" viewBox="0 0 44 44" fill="none" xmlns="http://www.w3.org/2000/svg">
<g id="back" style="mix-blend-mode:luminosity">
<rect x="0.5" y="0.5" width="43" height="43" fill="#26A581"/>
<rect x="0.5" y="0.5" width="43" height="43" fill="url(#paint0_linear_1383_19169)" fill-opacity="0.7"/>
<rect x="0.5" y="0.5" width="43" height="43" stroke="white"/>
<path id="Vector" d="M32.5038 20.4396C32.944 20.4658 32.8922 19.3675 32.8922 19.289C32.8922 19.2106 32.9699 18.6353 33.1252 18.3999C33.2806 18.1907 33.4619 17.1709 33.4619 17.1709C33.4619 17.1709 34.1869 16.2295 33.9538 16.0726C33.7208 15.9157 33.2547 15.8895 32.8922 15.7588C32.5297 15.628 32.2708 15.7065 32.0636 15.628C31.8565 15.5496 31.4422 15.5757 31.2091 15.3665C31.002 15.1573 30.6913 14.8435 30.3547 14.7389C30.0181 14.6343 29.4225 14.4513 29.2413 14.4774C29.0341 14.5036 28.8788 14.2159 28.6716 14.0329C28.4645 13.876 28.1278 13.7191 28.0243 13.6145C27.9207 13.5099 27.9725 12.9869 27.9207 12.8561C27.8689 12.6992 27.5841 13.1438 27.5323 13.1699C27.4805 13.1961 27.2216 13.2745 26.9368 13.2484C26.6519 13.2222 26.7555 12.8823 26.7555 12.5162C26.7555 12.1501 26.1341 12.1501 25.9787 12.1762C25.8233 12.2024 25.8751 11.9147 25.8233 11.784C25.7716 11.6532 25.4349 11.7055 25.2796 11.6271C25.1242 11.5748 25.0983 10.921 25.0207 10.8687C24.943 10.8164 24.5546 11.0779 24.3992 10.9733C24.2439 10.8687 24.0367 10.0581 23.9849 10.0058C23.9331 9.9535 22.5608 10.2673 22.3019 10.4503C22.0429 10.6334 22.0947 11.8886 21.9135 12.4639C21.7581 13.0392 20.2304 13.2745 19.7125 13.536C19.1947 13.7975 19.1947 14.399 19.1947 14.399C19.1947 14.399 19.1688 14.582 18.9875 14.6866C18.8063 14.7912 18.5732 14.7912 18.392 14.6343C18.1848 14.4513 17.8223 14.5036 17.6411 14.4774C17.4598 14.4513 17.3821 14.2421 17.2009 14.3467C17.0196 14.4251 17.0196 14.5559 16.8643 14.1636C16.7348 13.7714 16.9161 13.9544 16.8902 13.5883C16.8643 13.2222 16.3723 13.4837 16.2687 13.5099C16.191 13.5622 15.958 13.3268 15.6991 13.2745C15.4401 13.2222 15.8026 13.4576 15.7509 13.6668C15.6991 13.876 15.7768 14.0852 15.9062 14.399C16.0357 14.7128 16.0357 15.0527 16.0875 15.1835C16.1393 15.3142 15.9321 15.628 16.0875 16.0987C16.2687 16.5694 16.0875 16.4125 15.7768 16.4648C15.466 16.5171 15.5178 16.1772 15.466 16.1249C15.4142 16.0726 15.3366 16.0987 15.233 16.2033C15.1294 16.3079 14.7928 16.2033 14.5857 16.0987C14.3785 15.9941 13.9642 16.491 13.8865 16.491C13.8089 16.5171 13.7053 16.1772 13.6794 16.0726C13.6276 15.968 13.4723 15.7588 13.3169 15.5496C13.1615 15.3665 13.291 15.4711 12.7472 15.445C12.2294 15.4188 12.5401 15.4973 12.3847 15.6803C12.2294 15.8634 12.0481 15.7588 11.9446 15.7065C11.841 15.6542 11.7892 15.7849 11.6856 15.8111C11.582 15.8111 11.6079 15.6542 11.4785 15.628C11.349 15.6019 11.0642 15.7065 10.9088 15.7065C10.7535 15.7065 10.5722 15.8634 10.3133 15.8372C10.0543 15.8111 10.0543 16.0726 10.0026 16.3602C9.95077 16.6217 10.7017 16.8309 10.8311 17.014C10.9606 17.197 10.5722 17.197 10.2097 17.2493C9.8472 17.3016 10.1838 17.4062 10.2874 17.4324C10.3651 17.4847 10.5981 17.7723 10.5981 17.9292C10.5981 18.0861 10.9347 18.0077 11.0901 17.9815C11.2454 17.9554 11.4008 17.9554 11.4526 18.1123C11.4785 18.2692 11.7374 18.1907 11.8151 18.243C11.8928 18.3215 12.0999 18.4784 12.2812 18.5307C12.4624 18.5568 12.799 18.8445 13.0321 19.0275C13.2651 19.2106 13.8607 19.2106 13.9642 19.2367C14.0419 19.2629 14.0678 19.3936 13.8865 19.7597C13.7053 20.1258 14.4562 20.1258 14.4303 20.2827C14.3785 20.4396 14.7928 20.6488 14.7928 20.7273C14.7928 20.8057 14.6375 21.0149 14.5598 21.2764C14.4821 21.5379 14.9223 22.0086 14.9741 22.244C15.0259 22.4793 15.7509 22.8977 16.0098 22.9762C16.2687 23.0546 16.1652 23.2638 16.1393 23.3946C16.1134 23.5253 16.2687 23.8914 16.2946 24.0483C16.3205 24.2052 16.1652 24.4929 16.0875 24.4406C16.0098 24.3883 15.9062 24.5452 15.9062 24.6236C15.9062 24.7021 16.45 25.1728 16.5794 25.2774C16.683 25.382 16.8384 25.5912 16.8384 26.1665C16.8384 26.7418 16.7348 26.5326 16.683 26.1142C16.6312 25.6958 16.2946 25.382 16.2169 25.2774C16.1393 25.1728 16.1134 25.1466 16.0616 25.2251C16.0098 25.3035 15.9062 26.088 15.8803 26.1665C15.8544 26.2449 15.8285 26.6372 15.6732 27.1863C15.5178 27.7355 15.5955 27.657 15.6732 27.5786C15.7509 27.474 15.725 27.1863 15.8803 27.3694C16.3464 27.8924 15.8803 27.7355 15.7509 27.7616C15.6473 27.7878 15.6473 27.8662 15.5696 27.997C15.4919 28.1277 15.5178 28.6246 15.4401 28.7815C15.3366 28.9384 15.1812 29.749 15 30.3505C14.8187 30.9258 14.3785 31.135 14.3785 31.135C13.8089 31.3703 14.5339 31.4226 14.741 31.5272C14.9741 31.6318 14.8705 31.7103 14.7669 31.9456C14.6633 32.2071 14.8446 32.1548 14.9741 32.1548C15.1294 32.181 15.4401 32.181 15.4919 32.364C15.5696 32.5471 15.6991 32.5209 15.8285 32.5209C15.958 32.5209 16.0616 32.5471 16.0875 32.6778C16.1134 32.8086 16.3723 32.9916 16.4241 33.0701C16.4759 33.1485 16.9161 32.9655 17.0973 33.1224C17.2786 33.2531 17.667 33.4362 17.8223 33.4623C17.9777 33.4623 18.7545 33.6192 18.9616 33.5931C19.1688 33.5408 18.9357 33.2008 19.2723 33.2008C19.609 33.2008 19.9197 33.6454 20.1527 33.6454C20.3858 33.6454 20.4375 33.933 20.5929 33.933C20.7483 33.933 20.9554 33.9069 21.0331 33.9853C21.1108 34.0376 21.0331 34.2206 21.1626 34.3253C21.292 34.456 21.6545 34.7436 21.9394 34.6129C22.2242 34.456 22.8974 34.9267 23.0269 34.8482C23.1563 34.7698 23.3376 34.5345 23.8296 34.639C24.3215 34.7437 24.0108 34.4037 23.9331 34.3514C23.8037 34.2468 23.8037 34.2207 23.8037 33.5931C23.8037 32.9655 23.959 32.8347 24.0885 32.5994C24.218 32.364 24.7876 32.2333 24.9689 31.9979C25.1501 31.7626 26.0046 31.3703 26.0046 31.3703C26.3671 31.3703 26.0046 31.6841 26.3153 31.7887C26.9109 31.9456 26.6778 31.6318 26.9368 31.5272C27.1957 31.4226 27.118 31.7626 27.118 31.8933C27.1439 32.0241 27.5323 32.3379 27.4805 32.1287C27.4546 31.9195 27.7394 31.8933 27.7912 31.9718C27.843 32.0764 27.7653 32.2333 28.1278 32.181C28.5162 32.1287 28.4904 32.2333 28.4904 32.4425C28.4904 32.6517 29.0859 32.6517 29.293 32.7301C29.5002 32.8347 29.9145 32.9393 30.0698 32.9655C30.2252 32.9655 30.8207 32.8347 31.002 32.704C31.1833 32.5732 31.235 32.3902 31.2091 32.3379C31.1833 32.2856 31.3127 31.9979 31.5199 31.9979C31.727 31.9979 31.8047 31.7887 31.9342 31.658C32.0636 31.5272 32.5038 31.1873 32.8145 31.0827C33.1252 30.9519 32.8663 30.612 32.9958 30.5074C33.1252 30.4028 33.2806 30.0367 33.1511 29.9059C33.0217 29.7752 32.8145 30.0367 32.4002 29.9844C32.0118 29.9321 31.8306 29.6706 31.7529 29.5398C31.6493 29.4091 31.6752 29.0691 31.5717 28.8599C31.4681 28.6507 31.7011 28.5723 31.8306 28.3631C31.9342 28.1277 31.8306 28.0231 31.494 27.8401C31.1574 27.6832 31.3904 27.6309 31.2609 27.474C31.1056 27.3171 31.0538 27.0294 31.3127 27.0556C31.5717 27.0817 31.4422 26.951 31.8047 26.8987C32.1672 26.8464 32.0895 26.7156 32.0895 26.4803C32.0895 26.2449 31.8047 25.8527 31.727 25.6696C31.6493 25.4866 31.3386 25.2774 31.6752 25.0159C32.0118 24.7544 31.7529 24.519 31.6234 24.4144C31.494 24.3098 31.494 24.1791 31.494 23.7345C31.494 23.29 30.9761 23.473 30.8207 23.473C30.6654 23.473 30.3806 23.5776 30.3806 23.6822C30.3806 23.7868 30.5618 24.0222 30.0439 24.0483C29.552 24.0745 29.8627 23.8914 29.9404 23.7607C30.0181 23.6299 29.9663 23.4992 29.9663 23.4207C29.9663 23.3423 30.3547 22.6101 30.5877 22.4793C30.8207 22.3486 30.6913 21.8256 30.9761 21.7994C31.2868 21.7733 31.5975 21.1457 31.7788 20.9365C31.9601 20.7273 31.6234 20.675 31.727 20.4658C31.8306 20.2566 32.0636 20.4135 32.5038 20.4396Z" fill="#E3F5EF"/>
</g>
<defs>
<linearGradient id="paint0_linear_1383_19169" x1="22" y1="0" x2="22" y2="44" gradientUnits="userSpaceOnUse">
<stop offset="0.4999"/>
<stop offset="0.5" stop-opacity="0"/>
</linearGradient>
</defs>
</svg>
