<svg width="68" height="68" viewBox="0 0 68 68" fill="none" xmlns="http://www.w3.org/2000/svg">
<g filter="url(#filter0_d_1008_71974)">
<rect x="10" y="10" width="48" height="48" rx="24" fill="#26A581"/>
<rect x="10" y="10" width="48" height="48" rx="24" fill="url(#paint0_linear_1008_71974)" fill-opacity="0.7"/>
<rect x="10.5" y="10.5" width="47" height="47" rx="23.5" stroke="white"/>
<path d="M25.0837 37.3008C25.279 36.9101 25.7541 36.7518 26.1448 36.9471L33.7002 40.7248L41.2556 36.9471C41.6463 36.7518 42.1213 36.9101 42.3167 37.3008C42.512 37.6915 42.3537 38.1666 41.963 38.362L34.0539 42.3165C33.8312 42.4278 33.5691 42.4278 33.3465 42.3165L25.4374 38.362C25.0467 38.1666 24.8883 37.6915 25.0837 37.3008ZM25.0837 33.3463C25.279 32.9556 25.7541 32.7972 26.1448 32.9926L33.7002 36.7703L41.2556 32.9926C41.6463 32.7972 42.1213 32.9556 42.3167 33.3463C42.512 33.737 42.3537 34.2121 41.963 34.4074L34.0539 38.362C33.8312 38.4733 33.5691 38.4733 33.3465 38.362L25.4374 34.4074C25.0467 34.2121 24.8883 33.737 25.0837 33.3463ZM34.0539 25.0835L41.963 29.038C42.5459 29.3295 42.5459 30.1614 41.963 30.4529L34.0539 34.4074C33.8312 34.5187 33.5691 34.5187 33.3465 34.4074L25.4374 30.4529C24.8544 30.1614 24.8544 29.3295 25.4374 29.038L33.3465 25.0835C33.5691 24.9722 33.8312 24.9722 34.0539 25.0835ZM33.7002 26.6752L27.5596 29.7455L33.7002 32.8157L39.8407 29.7455L33.7002 26.6752Z" fill="white"/>
</g>
<defs>
<filter id="filter0_d_1008_71974" x="0" y="0" width="68" height="68" filterUnits="userSpaceOnUse" color-interpolation-filters="sRGB">
<feFlood flood-opacity="0" result="BackgroundImageFix"/>
<feColorMatrix in="SourceAlpha" type="matrix" values="0 0 0 0 0 0 0 0 0 0 0 0 0 0 0 0 0 0 127 0" result="hardAlpha"/>
<feOffset/>
<feGaussianBlur stdDeviation="5"/>
<feComposite in2="hardAlpha" operator="out"/>
<feColorMatrix type="matrix" values="0 0 0 0 0 0 0 0 0 0 0 0 0 0 0 0 0 0 0.15 0"/>
<feBlend mode="normal" in2="BackgroundImageFix" result="effect1_dropShadow_1008_71974"/>
<feBlend mode="normal" in="SourceGraphic" in2="effect1_dropShadow_1008_71974" result="shape"/>
</filter>
<linearGradient id="paint0_linear_1008_71974" x1="10" y1="34" x2="58" y2="34" gradientUnits="userSpaceOnUse">
<stop offset="0.489483"/>
<stop offset="0.489583" stop-opacity="0"/>
</linearGradient>
</defs>
</svg>
