<svg width="68" height="68" viewBox="0 0 68 68" fill="none" xmlns="http://www.w3.org/2000/svg">
<g id="Btn comparer" filter="url(#filter0_d_1462_8184)">
<rect x="10" y="10" width="48" height="48" rx="24" fill="#788089"/>
<rect x="10" y="10" width="48" height="48" rx="24" fill="#0B3227"/>
<rect x="10.5" y="10.5" width="47" height="47" rx="23.5" stroke="white"/>
<path id="Vector" d="M49.762 33.2986C49.5427 33.4642 49.4309 33.8668 49.4309 33.925C49.4309 33.9832 49.5069 34.7527 48.8806 34.7303C48.2587 34.7124 47.9277 34.6006 47.78 34.7482C47.6324 34.8958 48.1111 34.9316 47.8561 35.0793C47.5966 35.2224 47.1581 35.6654 46.7152 35.6877C46.3126 35.7056 46.496 36.0725 46.1649 36.162C45.8383 36.2559 45.288 36.7704 45.288 36.8241C45.288 36.8778 45.3596 36.9717 45.2478 37.0657C45.1404 37.1596 44.6975 37.2849 45.3954 37.267C46.1291 37.2491 45.8741 37.0836 45.8741 37.0075C45.8741 36.9315 46.2768 36.8644 46.496 36.8644C46.7152 36.8644 47.4489 36.7346 47.4489 37.0478C47.4489 37.361 47.4489 37.4505 47.6324 37.5265C47.8158 37.6026 48.1827 37.7681 47.7084 37.9515C47.2297 38.135 47.6726 38.2826 47.78 38.4079C47.8919 38.5376 48.2945 38.8105 48.2945 38.9761C48.2945 39.1416 48.4064 39.2311 47.8919 39.2713C47.3774 39.3071 47.5608 39.3966 47.1939 39.3787C46.8271 39.3608 46.8986 39.5621 47.1223 39.6695C47.3058 39.7769 46.9747 39.8172 47.4489 39.9245C47.9276 40.0543 48.0753 40.1259 47.9276 40.2914C47.7442 40.439 47.4131 40.4927 47.5608 40.6404C47.7084 40.788 47.6726 41.0251 47.8158 41.1191C47.9276 41.2085 48.1827 41.3965 48.733 41.4322C49.3235 41.468 49.6143 41.2846 49.7977 41.3741C49.9812 41.4636 49.762 41.723 49.5785 41.7946C49.3951 41.8707 49.762 42.1078 49.3235 42.1973C48.8806 42.2689 48.2587 42.5105 48.0753 42.5999C47.8919 42.6894 47.78 42.8415 47.4892 42.8415C47.1984 42.8415 47.0105 43.0429 47.0463 43.0787C47.0821 43.1144 47.0105 43.2442 46.7555 43.3337C46.496 43.4276 45.6549 43.5171 45.4312 43.5171C45.212 43.4992 44.6259 43.4276 44.3306 43.356C44.0398 43.2979 43.1942 43.2979 43.1942 43.1502C43.1942 43.0026 43.23 42.931 42.6797 42.9668C42.1697 43.0071 42.2771 42.8952 42.2055 42.8236C42.1294 42.7655 41.7268 42.7878 41.7626 42.931C41.8386 43.0786 41.2883 42.855 41.2526 42.7655C41.2526 42.6715 41.3599 42.4344 40.9931 42.506C40.6262 42.5776 40.9573 42.7968 40.1162 42.6894C39.6733 42.6134 40.1878 42.3986 39.6733 42.3986C39.6733 42.3986 38.4653 42.6715 38.2058 42.8415C37.9508 43.0071 37.141 43.0965 36.9576 43.2621C36.7742 43.4276 36.5549 43.5171 36.5549 43.96C36.5549 44.4029 36.5549 44.4164 36.7384 44.4924C36.8502 44.5327 37.2887 44.7698 36.5907 44.6982C35.8973 44.6222 35.6378 44.7877 35.4543 44.8414C35.2709 44.8995 34.318 44.5685 33.9153 44.6758C33.5127 44.7698 32.9982 44.5685 32.8147 44.4745C32.6313 44.3985 32.7387 44.2732 32.6313 44.2329C32.5195 44.1792 32.2286 44.1971 32.005 44.1971C31.7813 44.1971 31.7141 43.9958 31.3831 43.9958C31.052 43.9958 30.6136 43.6826 30.1349 43.6826C29.6561 43.6826 29.9872 43.9242 29.6964 43.96C29.4011 43.9779 28.3005 43.8661 28.0813 43.8661C27.8621 43.8482 27.3118 43.7184 27.0523 43.6289C26.7973 43.5171 26.1754 43.6468 26.0994 43.5932C26.0278 43.5395 25.6609 43.4097 25.6251 43.3158C25.5849 43.2263 25.4417 43.2084 25.2583 43.2084C25.0748 43.2084 24.8914 43.2263 24.7796 43.101C24.708 42.9713 24.2651 42.9713 24.0458 42.9534C23.8624 42.9534 23.6074 42.9892 23.755 42.8057C23.8982 42.6447 24.0458 42.5865 23.7148 42.5149C23.424 42.4389 22.395 42.4076 23.2047 42.242C23.2047 42.242 23.8266 42.0944 24.0816 41.6917C24.3411 41.2667 24.5603 40.703 24.708 40.5911C24.8154 40.4838 24.7796 40.1348 24.8914 40.0409C24.9988 39.9514 24.9988 39.8977 25.1464 39.8753C25.3299 39.8574 25.992 39.9693 25.3299 39.6024C25.1106 39.4727 25.1464 39.6785 25.0391 39.75C24.9272 39.8082 24.8154 39.8619 25.0391 39.4771C25.2583 39.0924 25.2941 38.815 25.3299 38.7613C25.3656 38.7076 25.5133 38.1573 25.5849 38.1036C25.6609 38.0455 25.6967 38.0634 25.8086 38.1394C25.9159 38.2155 26.3946 38.4302 26.4662 38.73C26.5423 39.0208 26.6855 39.1684 26.6855 38.7658C26.6855 38.3631 26.4662 38.2155 26.3186 38.1439C26.1352 38.0679 25.3656 37.7413 25.3656 37.6876C25.3656 37.6339 25.5133 37.522 25.6251 37.5578C25.7325 37.5936 25.9517 37.3923 25.9159 37.2849C25.8801 37.1775 25.6609 36.9181 25.6967 36.8286C25.7325 36.7346 25.8801 36.587 25.5133 36.5333C25.1464 36.4751 24.1219 36.1843 24.0458 36.0188C23.9743 35.8533 23.3479 35.5267 23.4598 35.3388C23.5716 35.1553 23.7908 35.0077 23.7908 34.954C23.7908 34.9003 23.2047 34.7527 23.2763 34.6453C23.3121 34.5335 22.2473 34.5335 22.5068 34.2784C22.7618 34.019 22.726 33.9295 22.6142 33.9071C22.471 33.8892 21.6254 33.8892 21.2944 33.7639C20.9633 33.6342 20.4891 33.4329 20.2296 33.415C19.9746 33.3747 19.6793 33.2673 19.5719 33.2136C19.4601 33.1779 19.0932 33.2315 19.0574 33.1242C18.9858 33.0123 18.7621 33.0123 18.5429 33.0302C18.3237 33.0481 17.845 33.1018 17.845 32.9944C17.845 32.887 17.5184 32.6812 17.4065 32.6455C17.2589 32.6276 16.7847 32.5515 17.2947 32.5157C17.8092 32.4799 18.3595 32.4799 18.176 32.3502C17.9926 32.2204 16.9278 32.0773 17.0039 31.8938C17.0755 31.6925 17.0755 31.5046 17.4423 31.527C17.8092 31.5449 18.0687 31.433 18.2879 31.433C18.5071 31.433 18.9098 31.3614 19.0932 31.3749C19.2766 31.3928 19.2408 31.5046 19.3885 31.5046C19.5361 31.4867 19.6077 31.3972 19.7553 31.433C19.903 31.4688 20.158 31.5449 20.3772 31.4151C20.5964 31.2854 20.158 31.2317 20.8917 31.2541C21.6612 31.272 21.4778 31.1959 21.697 31.3256C21.9207 31.4733 22.1399 31.6209 22.2115 31.697C22.2473 31.7686 22.395 32.0102 22.5068 31.9878C22.6142 31.9878 23.2047 31.6388 23.4955 31.7149C23.7908 31.7865 24.2651 31.858 24.4127 31.7865C24.5603 31.7149 24.6722 31.697 24.7438 31.7283C24.8154 31.7641 24.7438 32.0057 25.1822 31.9699C25.6251 31.9341 25.8801 32.0415 25.6251 31.7149C25.4014 31.3838 25.6967 31.1646 25.6251 31.0751C25.5491 30.9812 25.5491 30.744 25.3656 30.5203C25.1822 30.3011 25.0748 30.1535 25.1464 30.0103C25.2225 29.8627 24.708 29.6971 25.0748 29.7374C25.4417 29.7732 25.7683 29.9387 25.8801 29.8985C26.0278 29.8806 26.7257 29.6971 26.7615 29.9566C26.7973 30.2116 26.5423 30.0864 26.7257 30.3593C26.9449 30.6322 26.9449 30.5427 27.2 30.489C27.4594 30.413 27.5668 30.5606 27.8263 30.5785C28.0813 30.5964 28.5958 30.5606 28.8866 30.6859C29.1461 30.7977 29.4772 30.7977 29.7322 30.7261C29.9872 30.6501 30.0275 30.5203 30.0275 30.5203C30.0275 30.5203 30.0275 30.0998 30.7612 29.9164C31.4949 29.7329 33.6558 29.5674 33.8795 29.1647C34.1345 28.7621 34.063 27.8807 34.4298 27.751C34.7967 27.6257 36.7384 27.402 36.8144 27.4423C36.886 27.4781 37.1813 28.0463 37.4005 28.1178C37.6197 28.1939 38.17 28.0105 38.2819 28.0463C38.3892 28.0821 38.425 28.5429 38.6487 28.5787C38.868 28.6323 39.3422 28.5966 39.4182 28.686C39.4898 28.78 39.4182 28.9768 39.6375 28.9634C39.8567 28.9455 40.7381 28.9455 40.7381 29.205C40.7381 29.4645 40.5904 29.6971 40.9931 29.715C41.3957 29.7374 41.7626 29.6792 41.8386 29.6613C41.9102 29.639 42.3129 29.3303 42.3889 29.4421C42.4605 29.5316 42.3889 29.8985 42.5366 29.9745C42.6797 30.0461 43.1584 30.158 43.4537 30.2653C43.7445 30.3951 43.9638 30.5964 44.259 30.5785C44.514 30.5606 45.3596 30.6859 45.8383 30.7619C46.3126 30.838 46.7555 31.0527 47.0463 31.2049C47.3774 31.3525 47.9634 31.3301 48.2587 31.3883C48.5495 31.4464 48.9164 31.3883 49.4309 31.4822C49.9454 31.5717 50.6075 31.5896 50.9341 31.7015C51.2652 31.8088 50.2407 32.471 50.2407 32.471C50.2407 32.471 49.9812 33.1868 49.762 33.3344V33.2986Z" fill="white"/>
<path id="Vector_2" opacity="0.9" d="M49.762 28.8611C49.5427 29.0267 49.4309 29.4293 49.4309 29.4875C49.4309 29.5457 49.5069 30.3152 48.8806 30.2928C48.2587 30.2749 47.9277 30.1631 47.78 30.3107C47.6324 30.4583 48.1111 30.4941 47.8561 30.6418C47.5966 30.7849 47.1581 31.2279 46.7152 31.2502C46.3126 31.2681 46.496 31.635 46.1649 31.7245C45.8383 31.8184 45.288 32.3329 45.288 32.3866C45.288 32.4403 45.3596 32.5342 45.2478 32.6282C45.1404 32.7221 44.6975 32.8474 45.3954 32.8295C46.1291 32.8116 45.8741 32.6461 45.8741 32.57C45.8741 32.494 46.2768 32.4269 46.496 32.4269C46.7152 32.4269 47.4489 32.2971 47.4489 32.6103C47.4489 32.9235 47.4489 33.013 47.6324 33.089C47.8158 33.1651 48.1827 33.3306 47.7084 33.514C47.2297 33.6975 47.6726 33.8451 47.78 33.9704C47.8919 34.1001 48.2945 34.373 48.2945 34.5386C48.2945 34.7041 48.4064 34.7936 47.8919 34.8338C47.3774 34.8696 47.5608 34.9591 47.1939 34.9412C46.8271 34.9233 46.8986 35.1246 47.1223 35.232C47.3058 35.3394 46.9747 35.3797 47.4489 35.487C47.9276 35.6168 48.0753 35.6884 47.9276 35.8539C47.7442 36.0015 47.4131 36.0552 47.5608 36.2029C47.7084 36.3505 47.6726 36.5876 47.8158 36.6816C47.9276 36.771 48.1827 36.959 48.733 36.9947C49.3235 37.0305 49.6143 36.8471 49.7977 36.9366C49.9812 37.0261 49.762 37.2855 49.5785 37.3571C49.3951 37.4332 49.762 37.6703 49.3235 37.7598C48.8806 37.8314 48.2587 38.073 48.0753 38.1624C47.8919 38.2519 47.78 38.404 47.4892 38.404C47.1984 38.404 47.0105 38.6054 47.0463 38.6412C47.0821 38.6769 47.0105 38.8067 46.7555 38.8962C46.496 38.9901 45.6549 39.0796 45.4312 39.0796C45.212 39.0617 44.6259 38.9901 44.3306 38.9185C44.0398 38.8604 43.1942 38.8604 43.1942 38.7127C43.1942 38.5651 43.23 38.4935 42.6797 38.5293C42.1697 38.5696 42.2771 38.4577 42.2055 38.3861C42.1294 38.328 41.7268 38.3503 41.7626 38.4935C41.8386 38.6411 41.2883 38.4175 41.2526 38.328C41.2526 38.234 41.3599 37.9969 40.9931 38.0685C40.6262 38.1401 40.9573 38.3593 40.1162 38.2519C39.6733 38.1759 40.1878 37.9611 39.6733 37.9611C39.6733 37.9611 38.4653 38.234 38.2058 38.404C37.9508 38.5696 37.141 38.659 36.9576 38.8246C36.7742 38.9901 36.5549 39.0796 36.5549 39.5225C36.5549 39.9654 36.5549 39.9789 36.7384 40.0549C36.8502 40.0952 37.2887 40.3323 36.5907 40.2607C35.8973 40.1847 35.6378 40.3502 35.4543 40.4039C35.2709 40.462 34.318 40.131 33.9153 40.2383C33.5127 40.3323 32.9982 40.131 32.8147 40.037C32.6313 39.961 32.7387 39.8357 32.6313 39.7954C32.5195 39.7417 32.2286 39.7596 32.005 39.7596C31.7813 39.7596 31.7141 39.5583 31.3831 39.5583C31.052 39.5583 30.6136 39.2451 30.1349 39.2451C29.6561 39.2451 29.9872 39.4867 29.6964 39.5225C29.4011 39.5404 28.3005 39.4286 28.0813 39.4286C27.8621 39.4107 27.3118 39.2809 27.0523 39.1914C26.7973 39.0796 26.1754 39.2093 26.0994 39.1557C26.0278 39.102 25.6609 38.9722 25.6251 38.8783C25.5849 38.7888 25.4417 38.7709 25.2583 38.7709C25.0748 38.7709 24.8914 38.7888 24.7796 38.6635C24.708 38.5338 24.2651 38.5338 24.0458 38.5159C23.8624 38.5159 23.6074 38.5517 23.755 38.3682C23.8982 38.2072 24.0458 38.149 23.7148 38.0774C23.424 38.0014 22.395 37.9701 23.2047 37.8045C23.2047 37.8045 23.8266 37.6569 24.0816 37.2542C24.3411 36.8292 24.5603 36.2655 24.708 36.1536C24.8154 36.0463 24.7796 35.6973 24.8914 35.6034C24.9988 35.5139 24.9988 35.4602 25.1464 35.4378C25.3299 35.4199 25.992 35.5318 25.3299 35.1649C25.1106 35.0352 25.1464 35.241 25.0391 35.3125C24.9272 35.3707 24.8154 35.4244 25.0391 35.0396C25.2583 34.6549 25.2941 34.3775 25.3299 34.3238C25.3656 34.2701 25.5133 33.7198 25.5849 33.6661C25.6609 33.608 25.6967 33.6259 25.8086 33.7019C25.9159 33.778 26.3946 33.9927 26.4662 34.2925C26.5423 34.5833 26.6855 34.7309 26.6855 34.3283C26.6855 33.9256 26.4662 33.778 26.3186 33.7064C26.1352 33.6304 25.3656 33.3038 25.3656 33.2501C25.3656 33.1964 25.5133 33.0845 25.6251 33.1203C25.7325 33.1561 25.9517 32.9548 25.9159 32.8474C25.8801 32.74 25.6609 32.4806 25.6967 32.3911C25.7325 32.2971 25.8801 32.1495 25.5133 32.0958C25.1464 32.0376 24.1219 31.7468 24.0458 31.5813C23.9743 31.4158 23.3479 31.0892 23.4598 30.9013C23.5716 30.7178 23.7908 30.5702 23.7908 30.5165C23.7908 30.4628 23.2047 30.3152 23.2763 30.2078C23.3121 30.096 22.2473 30.096 22.5068 29.8409C22.7618 29.5815 22.726 29.492 22.6142 29.4696C22.471 29.4517 21.6254 29.4517 21.2944 29.3264C20.9633 29.1967 20.4891 28.9954 20.2296 28.9775C19.9746 28.9372 19.6793 28.8298 19.5719 28.7761C19.4601 28.7404 19.0932 28.794 19.0574 28.6867C18.9858 28.5748 18.7621 28.5748 18.5429 28.5927C18.3237 28.6106 17.845 28.6643 17.845 28.5569C17.845 28.4495 17.5184 28.2437 17.4065 28.208C17.2589 28.1901 16.7847 28.114 17.2947 28.0782C17.8092 28.0424 18.3595 28.0424 18.176 27.9127C17.9926 27.7829 16.9278 27.6398 17.0039 27.4563C17.0755 27.255 17.0755 27.0671 17.4423 27.0895C17.8092 27.1074 18.0687 26.9955 18.2879 26.9955C18.5071 26.9955 18.9098 26.9239 19.0932 26.9374C19.2766 26.9553 19.2408 27.0671 19.3885 27.0671C19.5361 27.0492 19.6077 26.9597 19.7553 26.9955C19.903 27.0313 20.158 27.1074 20.3772 26.9776C20.5964 26.8479 20.158 26.7942 20.8917 26.8166C21.6612 26.8345 21.4778 26.7584 21.697 26.8881C21.9207 27.0358 22.1399 27.1834 22.2115 27.2595C22.2473 27.3311 22.395 27.5727 22.5068 27.5503C22.6142 27.5503 23.2047 27.2013 23.4955 27.2774C23.7908 27.349 24.2651 27.4205 24.4127 27.349C24.5603 27.2774 24.6722 27.2595 24.7438 27.2908C24.8154 27.3266 24.7438 27.5682 25.1822 27.5324C25.6251 27.4966 25.8801 27.604 25.6251 27.2774C25.4014 26.9463 25.6967 26.7271 25.6251 26.6376C25.5491 26.5437 25.5491 26.3065 25.3656 26.0828C25.1822 25.8636 25.0748 25.716 25.1464 25.5728C25.2225 25.4252 24.708 25.2596 25.0748 25.2999C25.4417 25.3357 25.7683 25.5012 25.8801 25.461C26.0278 25.4431 26.7257 25.2596 26.7615 25.5191C26.7973 25.7741 26.5423 25.6489 26.7257 25.9218C26.9449 26.1947 26.9449 26.1052 27.2 26.0515C27.4594 25.9755 27.5668 26.1231 27.8263 26.141C28.0813 26.1589 28.5958 26.1231 28.8866 26.2484C29.1461 26.3602 29.4772 26.3602 29.7322 26.2886C29.9872 26.2126 30.0275 26.0828 30.0275 26.0828C30.0275 26.0828 30.0275 25.6623 30.7612 25.4789C31.4949 25.2954 33.6558 25.1299 33.8795 24.7272C34.1345 24.3246 34.063 23.4432 34.4298 23.3135C34.7967 23.1882 36.7384 22.9645 36.8144 23.0048C36.886 23.0406 37.1813 23.6088 37.4005 23.6803C37.6197 23.7564 38.17 23.573 38.2819 23.6088C38.3892 23.6446 38.425 24.1054 38.6487 24.1412C38.868 24.1948 39.3422 24.1591 39.4182 24.2485C39.4898 24.3425 39.4182 24.5393 39.6375 24.5259C39.8567 24.508 40.7381 24.508 40.7381 24.7675C40.7381 25.027 40.5904 25.2596 40.9931 25.2775C41.3957 25.2999 41.7626 25.2417 41.8386 25.2238C41.9102 25.2015 42.3129 24.8928 42.3889 25.0046C42.4605 25.0941 42.3889 25.461 42.5366 25.537C42.6797 25.6086 43.1584 25.7205 43.4537 25.8278C43.7445 25.9576 43.9638 26.1589 44.259 26.141C44.514 26.1231 45.3596 26.2484 45.8383 26.3244C46.3126 26.4005 46.7555 26.6152 47.0463 26.7674C47.3774 26.915 47.9634 26.8926 48.2587 26.9508C48.5495 27.0089 48.9164 26.9508 49.4309 27.0447C49.9454 27.1342 50.6075 27.1521 50.9341 27.264C51.2652 27.3713 50.2407 28.0335 50.2407 28.0335C50.2407 28.0335 49.9812 28.7493 49.762 28.8969V28.8611Z" fill="#26A581"/>
</g>
<defs>
<filter id="filter0_d_1462_8184" x="0" y="0" width="68" height="68" filterUnits="userSpaceOnUse" color-interpolation-filters="sRGB">
<feFlood flood-opacity="0" result="BackgroundImageFix"/>
<feColorMatrix in="SourceAlpha" type="matrix" values="0 0 0 0 0 0 0 0 0 0 0 0 0 0 0 0 0 0 127 0" result="hardAlpha"/>
<feOffset/>
<feGaussianBlur stdDeviation="5"/>
<feComposite in2="hardAlpha" operator="out"/>
<feColorMatrix type="matrix" values="0 0 0 0 0 0 0 0 0 0 0 0 0 0 0 0 0 0 0.15 0"/>
<feBlend mode="normal" in2="BackgroundImageFix" result="effect1_dropShadow_1462_8184"/>
<feBlend mode="normal" in="SourceGraphic" in2="effect1_dropShadow_1462_8184" result="shape"/>
</filter>
</defs>
</svg>
