<svg width="24" height="25" viewBox="0 0 24 25" fill="none" xmlns="http://www.w3.org/2000/svg">
<g id="Icons">
<path id="Path" fill-rule="evenodd" clip-rule="evenodd" d="M18.4774 16.2583V14.7179C18.4774 14.0903 18.2519 13.5198 17.8008 13.1204C17.3496 12.7211 16.8421 12.4358 16.2218 12.4358H7.53759L9.28571 14.2044C9.56767 14.4897 9.56767 15.0032 9.28571 15.2884C9.00376 15.5737 8.49624 15.5737 8.21428 15.2884L5.22556 12.2647C5.16917 12.2076 5.11278 12.0935 5.05639 12.0365C5 11.9794 5 11.8653 5 11.7512C5 11.6371 5 11.58 5.05639 11.4659C5.11278 11.3518 5.16917 11.2948 5.22556 11.2377L8.21428 8.21395C8.49624 7.92868 9.00376 7.92868 9.28571 8.21395C9.56767 8.49921 9.56767 9.01268 9.28571 9.29794L7.53759 11.0666H16.2218C17.2368 11.0666 18.1955 11.4659 18.8722 12.2076C19.5489 12.9493 20 13.691 20 14.7179V16.2583C20 16.6577 19.6617 17 19.2669 17C18.8722 17 18.4774 16.6577 18.4774 16.2583Z" fill="#788089"/>
</g>
</svg>
