<svg width="24" height="24" viewBox="0 0 24 24" fill="none" xmlns="http://www.w3.org/2000/svg">
<path fill-rule="evenodd" clip-rule="evenodd" d="M3.81917 19.6667L12.2916 4.99397L20.76 19.6667H3.81917ZM12.8682 3.33286C12.7479 3.12447 12.5303 2.99902 12.2916 2.99902C12.0539 2.99902 11.8333 3.1275 11.7129 3.33286L2.09029 20.0005C1.9699 20.2059 1.9699 20.4608 2.09029 20.6662C2.20764 20.8726 2.42817 21 2.66692 21H21.9153C22.153 21 22.3705 20.8746 22.4909 20.6662C22.6093 20.4608 22.6093 20.2059 22.4909 20.0005L12.8682 3.33286Z" fill="#091625"/>
<path fill-rule="evenodd" clip-rule="evenodd" d="M12.2871 16.825C11.8187 16.825 11.4423 17.2014 11.4423 17.6667C11.4423 18.131 11.8187 18.5114 12.2871 18.5114C12.7504 18.5114 13.1287 18.1331 13.1287 17.6667C13.1318 17.2014 12.7504 16.825 12.2871 16.825Z" fill="#091625"/>
<path fill-rule="evenodd" clip-rule="evenodd" d="M11.6006 15.5613H12.934V9.26385H11.6006V15.5613Z" fill="#091625"/>
</svg>
