<svg width="24" height="24" viewBox="0 0 24 24" fill="none" xmlns="http://www.w3.org/2000/svg">
<g id="Icons">
<rect width="24" height="24" rx="12" fill="#E7E7E7"/>

<path id="Union" fill-rule="evenodd" clip-rule="evenodd" d="M19 10.9998C19 7.13423 15.8663 4 12.0008 4H11.9992C8.13375 4 5 7.1337 5 10.9998C5 13.3602 6.26182 15.6733 8.3418 17.8688C9.05512 18.6217 9.81708 19.3078 10.5796 19.9147C10.8465 20.1279 11.0956 20.3158 11.3194 20.4775C11.4561 20.5757 11.5555 20.6445 11.6117 20.6823C11.8468 20.8392 12.1532 20.8392 12.3883 20.6823C12.4445 20.645 12.5439 20.5762 12.6806 20.4775C12.9044 20.3158 13.1535 20.1273 13.4204 19.9147C14.1829 19.3078 14.9449 18.6217 15.6582 17.8688C17.7382 15.6728 19 13.3596 19 10.9998ZM6.40124 11.0003C6.40124 7.90754 8.90813 5.40016 12.0008 5.40016H12.0019C15.0946 5.40016 17.6015 7.90754 17.6015 11.0003C17.6015 12.9281 16.5007 14.9462 14.6433 16.9065C13.9781 17.6084 13.2643 18.2515 12.5499 18.8201C12.3548 18.975 12.171 19.1157 12.0014 19.2412C11.8317 19.1162 11.6479 18.9755 11.4529 18.8201C10.7384 18.251 10.024 17.6084 9.35936 16.9065C7.50203 14.9456 6.40124 12.9276 6.40124 11.0003ZM9.87166 11.205C10.145 10.9317 10.5882 10.9317 10.8616 11.205L11.7666 12.1101L14.0717 9.80505C14.345 9.53168 14.7882 9.53168 15.0616 9.80505C15.335 10.0784 15.335 10.5216 15.0616 10.795L12.2616 13.595C11.9882 13.8684 11.545 13.8684 11.2717 13.595L9.87166 12.195C9.5983 11.9216 9.5983 11.4784 9.87166 11.205Z" fill="#3F4A55"/>
</g>
</svg>
