<svg width="26" height="32" viewBox="0 0 26 32" fill="none" xmlns="http://www.w3.org/2000/svg">
<g clip-path="url(#clip0_86_8182)">
<path d="M12.8136 17.3497C10.4046 17.3497 8.45693 15.402 8.45693 12.9931C8.45693 10.5841 10.4046 8.63641 12.8136 8.63641V0C5.92836 0 0.307434 5.61239 0.00844858 12.7795C-0.307622 20.3994 6.01379 28.1046 12.4206 31.7779L12.8136 32V17.3497Z" fill="#404A54"/>
<path d="M12.8135 17.3497C15.2224 17.3497 17.1701 15.402 17.1701 12.9931C17.1701 10.5841 15.2224 8.63641 12.8135 8.63641V0C19.6987 0 25.3196 5.61239 25.6186 12.7795C25.9347 20.3994 19.6133 28.1046 13.2064 31.7779L12.8135 32V17.3497Z" fill="#26A581"/>
<path d="M12.8432 32L12.4163 31.7609C6.01292 28.0896 -0.296573 20.3885 0.0107913 12.7727C0.318155 5.60939 5.93608 0 12.8176 0C19.8785 0 25.6159 5.746 25.6159 12.7983C25.6159 20.0811 21.458 26.4504 13.2445 31.7353L12.8432 32ZM12.8176 1.60512C6.79841 1.60512 1.88059 6.54002 1.61591 12.841C1.33416 19.6542 6.96063 26.6126 12.792 30.1302C20.237 25.2124 24.0108 19.3895 24.0108 12.8068C24.0193 6.6254 18.9991 1.60512 12.8176 1.60512Z" fill="white"/>
<path d="M12.8176 18.1087C9.99152 18.1087 7.69482 15.8121 7.69482 12.986C7.69482 10.16 9.99152 7.86328 12.8176 7.86328C15.6436 7.86328 17.9403 10.16 17.9403 12.986C17.9403 15.8121 15.6436 18.1087 12.8176 18.1087ZM12.8176 9.35741C10.8197 9.35741 9.18895 10.9881 9.18895 12.986C9.18895 14.9839 10.8197 16.6146 12.8176 16.6146C14.8154 16.6146 16.4462 14.9839 16.4462 12.986C16.4462 10.9881 14.8154 9.35741 12.8176 9.35741Z" fill="white"/>
</g>
<defs>
<clipPath id="clip0_86_8182">
<rect width="25.6273" height="32" fill="white"/>
</clipPath>
</defs>
</svg>
