<?xml version="1.0" encoding="UTF-8" standalone="no"?>
<!-- Generated by IcoMoon.io -->

<svg
   version="1.1"
   width="32"
   height="32"
   viewBox="0 0 32 32"
   id="svg6"
   xmlns="http://www.w3.org/2000/svg"
   xmlns:svg="http://www.w3.org/2000/svg">
  <defs
     id="defs10" />
  <path
     d="M 3.2,6.4 C 3.2,5.7333333 2.7007715,5 1.6,5 0.49922849,5 0,5.7333333 0,6.4 V 28.8 C 0,30.56 1.44,32 3.2,32 h 22.4 c 0.666667,0 1.4,-0.49216 1.4,-1.6 0,-1.10784 -0.733333,-1.6 -1.4,-1.6 H 3.2 Z M 28.8,0 H 9.6 C 7.84,0 6.4,1.44 6.4,3.2 v 19.2 c 0,1.76 1.44,3.2 3.2,3.2 h 19.2 c 1.76,0 3.2,-1.44 3.2,-3.2 V 3.2 C 32,1.44 30.56,0 28.8,0 Z"
     fill="#788089"
     id="path4" />
</svg>
