<svg width="15" height="19" viewBox="0 0 15 19" fill="none" xmlns="http://www.w3.org/2000/svg">
<path fill-rule="evenodd" clip-rule="evenodd" d="M13.8733 16.3214H1.12672C0.503643 16.3214 0 16.8004 0 17.3929C0 17.9854 0.503643 18.4643 1.12672 18.4643H13.8733C14.4964 18.4643 15 17.9854 15 17.3929C15 16.8004 14.4964 16.3214 13.8733 16.3214ZM1.47433 10.5242C1.01151 10.1618 0.936516 9.50105 1.30613 9.04727C1.67575 8.59454 2.35177 8.52206 2.81245 8.8834L6.42824 11.7195V1.30042C6.42824 0.720588 6.90821 0.25 7.49959 0.25C8.09205 0.25 8.57094 0.720588 8.57094 1.30042V11.7206L12.1878 8.8834C12.6506 8.52101 13.3234 8.59559 13.6941 9.04727C14.0637 9.50105 13.9877 10.1618 13.527 10.5242L7.49959 15.25L1.47433 10.5242Z" fill="#1C7B66"/>
</svg>
