<?xml version="1.0" encoding="UTF-8"?>
<svg width="24px" height="24px" viewBox="0 0 24 24" version="1.1" xmlns="http://www.w3.org/2000/svg" xmlns:xlink="http://www.w3.org/1999/xlink">
    <title>02.Icons/drag'n drop</title>
    <defs>
        <path d="M12,4 C12.0054096,4 12.0108054,4.00005906 12.0161868,4.00017658 C12.0363491,4.0006081 12.0571036,4.00193486 12.0777814,4.00414612 C12.0942166,4.00586426 12.110214,4.00811724 12.1260357,4.01088156 C12.1400465,4.01338594 12.1543908,4.01633529 12.1686528,4.01972045 C12.1912945,4.02503888 12.2133172,4.03140946 12.2348838,4.03876486 C12.2432411,4.04164536 12.2516002,4.04466184 12.2599127,4.04783631 C12.2819522,4.05624688 12.3036963,4.06582548 12.3248525,4.07640522 C12.3343388,4.08110686 12.3433041,4.08582797 12.3521883,4.09074923 C12.3731072,4.10238418 12.3939879,4.11536862 12.4141287,4.12934454 C12.4494482,4.15380592 12.4829276,4.18168137 12.5142595,4.21301325 L12.4376802,4.14639249 C12.4399353,4.14809434 12.4421801,4.14980901 12.4444147,4.15153641 L12.5142595,4.21301325 L14.6960777,6.39483143 C14.9800953,6.6788491 14.9800953,7.13933272 14.6960777,7.42335039 C14.41206,7.70736805 13.9515764,7.70736805 13.6675587,7.42335039 L13.6675587,7.42335039 L12.727,6.482 L12.727,11.272 L17.516,11.272 L16.5766496,10.3324413 C16.3184517,10.0742434 16.2949792,9.67020591 16.506232,9.38549173 L16.5766496,9.30392234 C16.8606673,9.01990467 17.3211509,9.01990467 17.6051686,9.30392234 L17.6051686,9.30392234 L19.7869867,11.4857405 C19.8109159,11.5096697 19.8331853,11.5352586 19.8536075,11.5623198 C19.8593904,11.5698891 19.8650901,11.5777542 19.8706131,11.585705 C19.8846314,11.6060121 19.8976158,11.6268928 19.9095382,11.6484429 C19.914172,11.6566959 19.9188931,11.6656612 19.9234141,11.6747012 C19.9341745,11.6963037 19.9437531,11.7180478 19.9522685,11.7403176 C19.9553382,11.7483998 19.9583546,11.7567589 19.9612131,11.7651598 C19.9685905,11.7866828 19.9749611,11.8087055 19.9802932,11.8311305 C19.9836647,11.8456092 19.9866141,11.8599535 19.9891276,11.874359 C19.9962709,11.9149013 20,11.9570152 20,12 L19.9961687,11.9252207 C19.99778,11.9409014 19.9988832,11.9566243 19.999478,11.972363 L20,12 C20,12.0095634 19.9998154,12.0190836 19.9994496,12.0285574 C19.9988491,12.0437098 19.9977929,12.0587632 19.9962708,12.0737783 C19.9945221,12.0914446 19.9921221,12.1088439 19.9891184,12.1260357 C19.9866141,12.1400465 19.9836647,12.1543908 19.9802796,12.1686528 C19.9749611,12.1912945 19.9685905,12.2133172 19.9612351,12.2348838 C19.9583546,12.2432411 19.9553382,12.2516002 19.9521637,12.2599127 C19.9437531,12.2819522 19.9341745,12.3036963 19.9235948,12.3248525 C19.9188931,12.3343388 19.914172,12.3433041 19.9092508,12.3521883 C19.8976158,12.3731072 19.8846314,12.3939879 19.8706555,12.4141287 C19.8461941,12.4494482 19.8183186,12.4829276 19.7869867,12.5142595 L19.8536075,12.4376802 C19.8519057,12.4399353 19.850191,12.4421801 19.8484636,12.4444147 L19.7869867,12.5142595 L17.6051686,14.6960777 C17.3211509,14.9800953 16.8606673,14.9800953 16.5766496,14.6960777 C16.2926319,14.41206 16.2926319,13.9515764 16.5766496,13.6675587 L16.5766496,13.6675587 L17.517,12.727 L12.727,12.727 L12.727,17.517 L13.6675587,16.5766496 C13.9257566,16.3184517 14.3297941,16.2949792 14.6145083,16.506232 L14.6960777,16.5766496 C14.9800953,16.8606673 14.9800953,17.3211509 14.6960777,17.6051686 L14.6960777,17.6051686 L12.5142595,19.7869867 C12.4903303,19.8109159 12.4647414,19.8331853 12.4376802,19.8536075 C12.4301109,19.8593904 12.4222458,19.8650901 12.414295,19.8706131 C12.3939879,19.8846314 12.3731072,19.8976158 12.3515571,19.9095382 C12.3433041,19.914172 12.3343388,19.9188931 12.3252988,19.9234141 C12.3036963,19.9341745 12.2819522,19.9437531 12.2596824,19.9522685 C12.2516002,19.9553382 12.2432411,19.9583546 12.2348402,19.9612131 C12.2133172,19.9685905 12.1912945,19.9749611 12.1688695,19.9802932 C12.1543908,19.9836647 12.1400465,19.9866141 12.125641,19.9891276 C12.0850987,19.9962709 12.0429848,20 12,20 L12.0747793,19.9961687 C12.0590986,19.99778 12.0433757,19.9988832 12.027637,19.999478 L12,20 C11.9904366,20 11.9809164,19.9998154 11.9714426,19.9994496 C11.9562902,19.9988491 11.9412368,19.9977929 11.9262217,19.9962708 C11.9085554,19.9945221 11.8911561,19.9921221 11.8739643,19.9891184 C11.8599535,19.9866141 11.8456092,19.9836647 11.8313472,19.9802796 C11.8087055,19.9749611 11.7866828,19.9685905 11.7651162,19.9612351 C11.7567589,19.9583546 11.7483998,19.9553382 11.7400873,19.9521637 C11.7180478,19.9437531 11.6963037,19.9341745 11.6751475,19.9235948 C11.6656612,19.9188931 11.6566959,19.914172 11.6478117,19.9092508 C11.6268928,19.8976158 11.6060121,19.8846314 11.5858713,19.8706555 C11.5505518,19.8461941 11.5170724,19.8183186 11.4857405,19.7869867 L11.5623198,19.8536075 C11.5352586,19.8331853 11.5096697,19.8109159 11.4857405,19.7869867 L9.30392234,17.6051686 C9.01990467,17.3211509 9.01990467,16.8606673 9.30392234,16.5766496 C9.58794001,16.2926319 10.0484236,16.2926319 10.3324413,16.5766496 L10.3324413,16.5766496 L11.272,17.516 L11.272,12.727 L6.482,12.727 L7.42335039,13.6675587 C7.68154827,13.9257566 7.7050208,14.3297941 7.49376799,14.6145083 L7.42335039,14.6960777 C7.13933272,14.9800953 6.6788491,14.9800953 6.39483143,14.6960777 L6.39483143,14.6960777 L4.21301325,12.5142595 L4.21301325,12.5142595 L4.15153641,12.4444147 C4.14980901,12.4421801 4.14809434,12.4399353 4.14639249,12.4376802 C4.14060963,12.4301109 4.13490986,12.4222458 4.1293869,12.414295 C4.11536862,12.3939879 4.10238418,12.3731072 4.09046185,12.3515571 C4.08582797,12.3433041 4.08110686,12.3343388 4.07658592,12.3252988 C4.06582548,12.3036963 4.05624688,12.2819522 4.04773152,12.2596824 C4.04466184,12.2516002 4.04164536,12.2432411 4.03878687,12.2348402 C4.03140946,12.2133172 4.02503888,12.1912945 4.01970676,12.1688695 C4.01633529,12.1543908 4.01338594,12.1400465 4.01087241,12.125641 C4.00372914,12.0850987 4,12.0429848 4,12 L4.00414612,12.0777814 C4.00197052,12.0574371 4.00065113,12.0370186 4.00018793,12.0165843 L4,12 C4,11.9945904 4.00005906,11.9891946 4.00017658,11.9838132 C4.0006081,11.9636509 4.00193486,11.9428964 4.00414612,11.9222186 C4.00586426,11.9057834 4.00811724,11.889786 4.01088156,11.8739643 C4.01338594,11.8599535 4.01633529,11.8456092 4.01972045,11.8313472 C4.02503888,11.8087055 4.03140946,11.7866828 4.03876486,11.7651162 C4.04164536,11.7567589 4.04466184,11.7483998 4.04783631,11.7400873 C4.05624688,11.7180478 4.06582548,11.6963037 4.07640522,11.6751475 C4.08110686,11.6656612 4.08582797,11.6566959 4.09074923,11.6478117 C4.10238418,11.6268928 4.11536862,11.6060121 4.12934454,11.5858713 C4.15380592,11.5505518 4.18168137,11.5170724 4.21301325,11.4857405 L4.14639249,11.5623198 C4.16681465,11.5352586 4.18908407,11.5096697 4.21301325,11.4857405 L6.39483143,9.30392234 C6.6788491,9.01990467 7.13933272,9.01990467 7.42335039,9.30392234 C7.70736805,9.58794001 7.70736805,10.0484236 7.42335039,10.3324413 L7.42335039,10.3324413 L6.483,11.272 L11.272,11.272 L11.272,6.483 L10.3324413,7.42335039 C10.0742434,7.68154827 9.67020591,7.7050208 9.38549173,7.49376799 L9.30392234,7.42335039 C9.01990467,7.13933272 9.01990467,6.6788491 9.30392234,6.39483143 L9.30392234,6.39483143 L11.4857405,4.21301325 L11.4857405,4.21301325 L11.5555853,4.15153641 C11.5578199,4.14980901 11.5600647,4.14809434 11.5623198,4.14639249 C11.5698891,4.14060963 11.5777542,4.13490986 11.585705,4.1293869 C11.6060121,4.11536862 11.6268928,4.10238418 11.6484429,4.09046185 C11.6566959,4.08582797 11.6656612,4.08110686 11.6747012,4.07658592 C11.6963037,4.06582548 11.7180478,4.05624688 11.7403176,4.04773152 C11.7483998,4.04466184 11.7567589,4.04164536 11.7651598,4.03878687 C11.7866828,4.03140946 11.8087055,4.02503888 11.8311305,4.01970676 C11.8456092,4.01633529 11.8599535,4.01338594 11.874359,4.01087241 C11.9149013,4.00372914 11.9570152,4 12,4 L11.9222186,4.00414612 C11.9425629,4.00197052 11.9629814,4.00065113 11.9834157,4.00018793 Z" id="path-1"></path>
    </defs>
    <g id="02.Icons/drag'n-drop" stroke="none" stroke-width="1" fill="none" fill-rule="evenodd">
        <mask id="mask-2" fill="white">
            <use xlink:href="#path-1"></use>
        </mask>
        <use id="Combined-Shape" fill="#091625" xlink:href="#path-1"></use>
    </g>
</svg>