<svg width="15" height="16" viewBox="0 0 15 16" fill="none" xmlns="http://www.w3.org/2000/svg">
<path id="Combined-Shape" d="M7.55975 0.5C7.56478 0.5 7.5698 0.500055 7.5748 0.500165C7.59355 0.50057 7.61285 0.501814 7.63209 0.503887C7.64737 0.505498 7.66225 0.50761 7.67696 0.510201C7.68999 0.512549 7.70333 0.515314 7.7166 0.518488C7.73766 0.523474 7.75814 0.529446 7.7782 0.536342C7.78597 0.539043 7.79374 0.54187 7.80147 0.544847C7.82197 0.552731 7.84219 0.561711 7.86187 0.57163C7.87069 0.576038 7.87903 0.580464 7.88729 0.585077C7.90675 0.595985 7.92617 0.608158 7.9449 0.62126C7.97775 0.644193 8.00888 0.670326 8.03802 0.6997L7.9668 0.637243C7.9689 0.638838 7.97099 0.640446 7.97307 0.642065L8.03802 0.6997L10.0672 2.74515C10.3313 3.01142 10.3313 3.44312 10.0672 3.70939C9.80303 3.97566 9.37477 3.97566 9.11063 3.70939L8.23588 2.82687V7.3175H12.6898L11.8162 6.43666C11.576 6.1946 11.5542 5.81582 11.7507 5.5489L11.8162 5.47243C12.0803 5.20616 12.5086 5.20616 12.7727 5.47243L14.8019 7.51788C14.8241 7.54032 14.8448 7.5643 14.8638 7.58967C14.8692 7.59677 14.8745 7.60414 14.8797 7.6116C14.8927 7.63064 14.9048 7.65021 14.9159 7.67042C14.9202 7.67815 14.9246 7.68656 14.9288 7.69503C14.9388 7.71528 14.9477 7.73567 14.9556 7.75655C14.9584 7.76412 14.9613 7.77196 14.9639 7.77984C14.9708 7.80001 14.9767 7.82066 14.9817 7.84168C14.9848 7.85526 14.9875 7.86871 14.9899 7.88221C14.9965 7.92022 15 7.9597 15 8L14.9964 7.92989C14.9979 7.94459 14.9989 7.95934 14.9995 7.97409L15 8C15 8.00897 14.9998 8.01789 14.9995 8.02677C14.9989 8.04098 14.9979 8.05509 14.9965 8.06917C14.9949 8.08573 14.9927 8.10204 14.9899 8.11816C14.9875 8.13129 14.9848 8.14474 14.9816 8.15811C14.9767 8.17934 14.9708 8.19999 14.9639 8.2202C14.9613 8.22804 14.9584 8.23588 14.9555 8.24367C14.9477 8.26433 14.9388 8.28472 14.9289 8.30455C14.9246 8.31344 14.9202 8.32185 14.9156 8.33018C14.9048 8.34979 14.8927 8.36936 14.8797 8.38825C14.8569 8.42136 14.831 8.45274 14.8019 8.48212L14.8638 8.41033C14.8623 8.41244 14.8607 8.41454 14.8591 8.41664L14.8019 8.48212L12.7727 10.5276C12.5086 10.7938 12.0803 10.7938 11.8162 10.5276C11.552 10.2613 11.552 9.8296 11.8162 9.56334L12.6907 8.68156H8.23588V13.1722L9.11063 12.2906C9.35076 12.0485 9.72652 12.0265 9.99132 12.2246L10.0672 12.2906C10.3313 12.5569 10.3313 12.9886 10.0672 13.2548L8.03802 15.3003C8.01577 15.3227 7.99197 15.3436 7.9668 15.3628C7.95976 15.3682 7.95245 15.3735 7.94505 15.3787C7.92617 15.3918 7.90675 15.404 7.8867 15.4152C7.87903 15.4195 7.87069 15.424 7.86228 15.4282C7.84219 15.4383 7.82197 15.4473 7.80126 15.4553C7.79374 15.4581 7.78597 15.461 7.77815 15.4636C7.75814 15.4706 7.73766 15.4765 7.7168 15.4815C7.70333 15.4847 7.68999 15.4875 7.6766 15.4898C7.63889 15.4965 7.59972 15.5 7.55975 15.5L7.62929 15.4964C7.61471 15.4979 7.60009 15.499 7.58545 15.4995L7.55975 15.5C7.55085 15.5 7.542 15.4998 7.53319 15.4995C7.51909 15.4989 7.5051 15.4979 7.49113 15.4965C7.4747 15.4949 7.45852 15.4926 7.44253 15.4898C7.4295 15.4875 7.41616 15.4847 7.40289 15.4815C7.38184 15.4765 7.36135 15.4706 7.3413 15.4637C7.33352 15.461 7.32575 15.4581 7.31802 15.4552C7.29752 15.4473 7.2773 15.4383 7.25762 15.4284C7.2488 15.424 7.24046 15.4195 7.2322 15.4149C7.21275 15.404 7.19333 15.3918 7.17459 15.3787C7.14175 15.3558 7.11061 15.3297 7.08147 15.3003L7.15269 15.3628C7.12752 15.3436 7.10372 15.3227 7.08147 15.3003L5.05231 13.2548C4.78817 12.9886 4.78817 12.5569 5.05231 12.2906C5.31646 12.0243 5.74472 12.0243 6.00887 12.2906L6.88268 13.1713V8.68156H2.42784L3.30333 9.56334C3.54346 9.8054 3.56529 10.1842 3.36882 10.4511L3.30333 10.5276C3.03918 10.7938 2.61092 10.7938 2.34677 10.5276L0.317615 8.48212L0.26044 8.41664C0.258834 8.41454 0.257239 8.41244 0.255656 8.41033C0.250278 8.40323 0.244977 8.39586 0.239841 8.3884C0.226803 8.36936 0.214727 8.34979 0.203639 8.32958C0.199329 8.32185 0.194939 8.31344 0.190734 8.30497C0.180726 8.28472 0.171818 8.26433 0.163898 8.24345C0.161044 8.23588 0.158238 8.22804 0.15558 8.22016C0.148719 8.19999 0.142794 8.17934 0.137835 8.15832C0.134699 8.14474 0.131956 8.13129 0.129618 8.11779C0.122975 8.07978 0.119507 8.0403 0.119507 8L0.123363 8.07292C0.121339 8.05385 0.120112 8.03471 0.119682 8.01555L0.119507 8C0.119507 7.99493 0.119562 7.98987 0.119671 7.98483C0.120072 7.96592 0.121306 7.94647 0.123363 7.92708C0.124961 7.91167 0.127056 7.89667 0.129627 7.88184C0.131956 7.86871 0.134699 7.85526 0.137848 7.84189C0.142794 7.82066 0.148719 7.80001 0.155559 7.7798C0.158238 7.77196 0.161044 7.76412 0.163996 7.75633C0.171818 7.73567 0.180726 7.71528 0.190566 7.69545C0.194938 7.68656 0.199329 7.67815 0.203906 7.66982C0.214727 7.65021 0.226803 7.63064 0.239801 7.61175C0.262551 7.57864 0.288476 7.54726 0.317615 7.51788L0.255656 7.58967C0.274649 7.5643 0.295361 7.54032 0.317615 7.51788L2.34677 5.47243C2.61092 5.20616 3.03918 5.20616 3.30333 5.47243C3.56747 5.73869 3.56747 6.1704 3.30333 6.43666L2.42877 7.3175H6.88268V2.82781L6.00887 3.70939C5.76873 3.95145 5.39297 3.97346 5.12817 3.77541L5.05231 3.70939C4.78817 3.44312 4.78817 3.01142 5.05231 2.74515L7.08147 0.6997L7.14643 0.642065C7.14851 0.640446 7.15059 0.638838 7.15269 0.637243C7.15973 0.631821 7.16704 0.626478 7.17444 0.6213C7.19333 0.608158 7.21275 0.595985 7.23279 0.584808C7.24046 0.580464 7.2488 0.576038 7.25721 0.571799C7.2773 0.561711 7.29752 0.552731 7.31823 0.544748C7.32575 0.54187 7.33352 0.539043 7.34134 0.536363C7.36135 0.529446 7.38184 0.523474 7.40269 0.518475C7.41616 0.515314 7.4295 0.512549 7.4429 0.510193C7.4806 0.503496 7.51977 0.5 7.55975 0.5L7.48741 0.503887C7.50633 0.501847 7.52532 0.50061 7.54432 0.500176L7.55975 0.5Z" fill="#788089"/>
</svg>
