<svg width="44" height="44" viewBox="0 0 44 44" fill="none" xmlns="http://www.w3.org/2000/svg">
<g id="_x30_2.Icons_x2F_Personnaliser">
	<path id="Fill-1" fill-rule="evenodd" fill="#26A581" d="M11.9,21.1c-1-1.7-2.1-2.6-3-3.2L20,6.7c0.8-0.8,2.3-0.8,3,0
		c0.8,0.8,0.8,2.2,0,3.1L11.9,21.1z M6.6,23.3l1.2-3.8c0.6,0.3,1.6,1.1,2.4,2.6L6.6,23.3z M24.4,11.2c1.6-1.6,1.6-4.3,0-5.9
		c-1.5-1.5-4.2-1.7-5.8,0L6.4,17.6c-0.1,0.1-0.2,0.2-0.2,0.4l-2.1,6.6c-0.1,0.4,0,0.8,0.2,1c0.3,0.3,0.6,0.4,1,0.2l6.5-2.1
		c0.1,0,0.3-0.1,0.4-0.2l8.6-8.7L24.4,11.2z" transform="scale(0.8) translate(12,12)"/>
</g>
</svg>
