<svg width="19" height="15" viewBox="0 0 19 15" fill="none" xmlns="http://www.w3.org/2000/svg">
<path fill-rule="evenodd" clip-rule="evenodd" d="M2.73884 0.50394H16.3535C17.7648 0.50394 18.9513 1.69047 18.9513 3.10172V5.52154L18.886 11.6575C18.883 13.0665 17.6977 14.25 16.2882 14.25H2.64661C1.23535 14.25 0.0488281 13.0635 0.0488281 11.6522H0.949567H1.85031C1.85031 12.0685 2.23028 12.4485 2.64661 12.4485H16.2882C16.7046 12.4485 17.0845 12.0685 17.0845 11.6522V11.6474L17.1498 5.51196V3.10172C17.1498 2.6854 16.7698 2.30542 16.3535 2.30542H2.68189L2.65197 2.30342C2.22806 2.27516 1.85031 2.60769 1.85031 3.10172V11.6522C1.85031 11.6523 1.85031 11.6522 0.949567 11.6522C0.0488281 11.6522 0.0488281 11.6523 0.0488281 11.6522V3.10172C0.0488281 1.64813 1.22059 0.421367 2.73884 0.50394Z" fill="#A44612"/>
<path fill-rule="evenodd" clip-rule="evenodd" d="M9.62439 8.12426L1.41036 3.73933L0.488217 5.46673L9.63626 10.3503L18.3247 5.5923L17.3842 3.87483L9.62439 8.12426Z" fill="#A44612"/>
</svg>
