<svg width="14" height="14" viewBox="0 0 14 14" fill="none" xmlns="http://www.w3.org/2000/svg">
<path d="M11.8242 4.38084L11.1942 3.77418L11.1067 3.62251C10.9608 3.31918 10.7508 3.07418 10.5 2.92834L10.43 2.88751V2.33334H9.89333C9.47917 2.33334 9.0825 2.48501 8.77917 2.75918C8.53417 2.98084 8.33583 3.27834 8.1725 3.67501C7.98583 4.12418 7.95667 4.41001 7.93333 4.60251L7.91583 4.75418L7.84 4.78918C7.42583 4.97584 7.02333 5.07501 6.685 5.07501C6.5625 5.07501 6.44 5.05751 6.34667 5.04584L6.2825 5.03418C6.23583 5.02834 6.18333 5.01668 6.13667 5.01084L6.07833 4.99918C6.0375 4.99334 5.99083 4.98168 5.95583 4.97584C5.8975 4.95834 5.83917 4.94084 5.78083 4.92334C5.55917 4.85918 5.30833 4.78334 4.99917 4.78334C4.74833 4.78334 4.50917 4.83584 4.2875 4.94084C4.08917 5.02251 3.91417 5.14501 3.77417 5.30251C3.745 5.33168 3.72167 5.36668 3.6925 5.39584L3.68083 5.41334C3.51167 5.36668 3.1325 5.29084 2.82333 5.47168C2.695 5.53584 2.60167 5.62334 2.54333 5.68168C2.38583 5.84501 2.25167 6.06084 2.135 6.35834L2.11167 6.39918C2.02417 6.61501 1.94833 6.86001 1.89 7.14001L1.86667 7.25668C1.84333 7.39084 1.82 7.53084 1.8025 7.67084L1.785 7.79334C1.7675 7.97418 1.75583 8.16084 1.75 8.35334V8.49918H2.52583V8.35918C2.53167 8.17834 2.54917 7.99751 2.56667 7.81668L2.42083 7.79918L2.5725 7.77584C2.59583 7.60668 2.61917 7.44334 2.65417 7.29168C2.70667 7.05834 2.75917 6.87751 2.8175 6.73168C2.89333 6.53918 2.9925 6.37584 3.08583 6.28251C3.16167 6.20084 3.24333 6.17168 3.33083 6.18918H3.36C3.33083 6.33501 3.30167 6.49251 3.30167 6.66168C3.30167 6.88334 3.33083 7.09334 3.38917 7.30918C3.41833 7.42584 3.45917 7.53668 3.52333 7.67668C3.61083 7.87501 3.7275 8.05584 3.86167 8.21918L3.89083 8.25418C3.94917 8.32418 4.01333 8.38834 4.07167 8.44668L4.10083 8.47584C4.0775 8.86668 3.96667 9.20501 3.75667 9.50834L3.73333 9.54334V11.97H4.87083V9.84084C5.04583 9.66584 5.36083 9.26334 5.53583 8.51668C5.53583 8.51668 5.53583 8.51668 5.53583 8.51084C5.71083 8.58084 5.90333 8.64501 6.04917 8.67418C6.6325 8.82584 8.12 8.78501 8.1375 8.78501V11.9758H9.26917V8.37084L9.32167 8.32418C9.38583 8.27168 9.45583 8.20751 9.52 8.13751C9.60167 8.05001 9.67167 7.96251 9.73 7.86918C9.93417 7.56001 10.0392 7.21001 10.0392 6.83668C10.0392 6.54501 9.9925 6.27084 9.9575 6.02584C9.93417 5.89751 9.91667 5.78668 9.905 5.68751L9.85833 5.32584L10.0917 5.39584C10.2783 5.42501 10.4067 5.39584 10.57 5.34918L10.6167 5.33751H10.6517C10.8033 5.39001 11.0075 5.44834 11.1533 5.49501L11.3225 5.54751L11.8067 5.29668L11.8533 5.26168C12.0458 5.02834 12.0283 4.63168 11.8125 4.39834L11.8242 4.38084Z" fill="#091625"/>
</svg>
