<svg width="12" height="12" viewBox="0 0 12 12" fill="none" xmlns="http://www.w3.org/2000/svg">
<g id="external-link" clip-path="url(#clip0_6_3697)">
<path id="Vector" d="M1.45666 0.3125C0.829254 0.313566 0.321289 0.822598 0.321289 1.45V10.55C0.321289 11.1774 0.829254 11.6864 1.4563 11.6875H10.5431C11.1706 11.6864 11.6785 11.1774 11.6785 10.55V7.1375H10.5431V10.55H1.4563V1.45H4.86205L4.86418 0.3125H1.4563L1.45666 0.3125ZM7.13527 0.3125V1.45H9.73908L2.92297 8.275L3.72952 9.07943L4.13156 8.67739L10.5431 2.25443V4.8625H11.6785V1.45C11.6785 0.821887 11.1691 0.3125 10.541 0.3125L7.13527 0.3125Z" fill="#3F4A55"/>
</g>
<defs>
<clipPath id="clip0_6_3697">
<rect width="11.375" height="11.375" fill="white" transform="translate(0.3125 0.3125)"/>
</clipPath>
</defs>
</svg>
