<!-- Generated by IcoMoon.io -->
<svg version="1.1" xmlns="http://www.w3.org/2000/svg" width="25" height="25" viewBox="0 0 36 32">
<title>filtrer</title>
<path d="M17.064 22.097c2.153 0 4.023 1.344 4.706 3.362v0h12.941c0.881 0 1.571 0.69 1.571 1.571s-0.69 1.571-1.571 1.571v0h-12.889c-0.683 2.017-2.551 3.362-4.704 3.362-2.143 0-4.029-1.373-4.657-3.362v0h-10.888c-0.881 0-1.573-0.69-1.573-1.571 0-0.91 0.661-1.571 1.573-1.571v0h10.841c0.675-1.989 2.561-3.362 4.65-3.362zM17.117 25.238c-0.957 0-1.746 0.793-1.791 1.803 0 0.974 0.803 1.779 1.791 1.779s1.791-0.805 1.791-1.791c0-0.986-0.803-1.791-1.791-1.791zM26.572 10.542c2.153 0 4.018 1.344 4.704 3.362v0h3.436c0.879 0 1.569 0.69 1.569 1.571s-0.69 1.571-1.569 1.571v0h-3.436c-0.686 2.020-2.551 3.362-4.704 3.362-2.143 0-4.029-1.373-4.659-3.362v0h-20.342c-0.881 0-1.571-0.69-1.571-1.571 0-0.91 0.661-1.571 1.571-1.571v0h20.348c0.675-1.989 2.561-3.362 4.653-3.362zM26.623 13.684c-1.021 0-1.791 0.77-1.791 1.791 0 0.988 0.803 1.791 1.791 1.791s1.791-0.803 1.791-1.791c0-0.988-0.803-1.791-1.791-1.791zM10.762 0.038c2.131 0 4.018 1.342 4.753 3.362v0h19.197c0.879 0 1.569 0.69 1.569 1.571s-0.69 1.571-1.569 1.571v0h-19.193c-0.683 2.017-2.551 3.362-4.704 3.362-2.141 0-4.029-1.373-4.659-3.362v0h-4.585c-0.881 0-1.571-0.69-1.571-1.571 0-0.896 0.653-1.571 1.517-1.571v0h4.591c0.679-1.989 2.565-3.362 4.653-3.362zM10.815 3.18c-0.988 0-1.791 0.803-1.791 1.791 0 0.986 0.803 1.791 1.791 1.791s1.791-0.805 1.791-1.791c0-0.988-0.803-1.791-1.791-1.791z"></path>
</svg>
