<svg width="19" height="18" viewBox="0 0 19 18" fill="none" xmlns="http://www.w3.org/2000/svg">
<path id="Vector" d="M8.936 12.2464C10.0635 12.2464 11.0427 12.9621 11.4004 14.0366H18.1773C18.6387 14.0366 19 14.4041 19 14.8732C19 15.3423 18.6387 15.7097 18.1773 15.7097H11.4276C11.07 16.7838 10.0918 17.5 8.96428 17.5C7.84204 17.5 6.85439 16.7689 6.52552 15.7097H0.823742C0.362384 15.7097 0 15.3423 0 14.8732C0 14.3886 0.34615 14.0366 0.823742 14.0366H6.50091C6.85439 12.9775 7.84204 12.2464 8.936 12.2464ZM8.96376 13.919C8.4626 13.919 8.04942 14.3412 8.02585 14.879C8.02585 15.3977 8.44636 15.8264 8.96376 15.8264C9.48115 15.8264 9.90166 15.3977 9.90166 14.8727C9.90166 14.3476 9.48115 13.919 8.96376 13.919ZM13.9151 6.09336C15.0426 6.09336 16.0192 6.80904 16.3785 7.88362H18.1778C18.6381 7.88362 18.9995 8.25104 18.9995 8.72017C18.9995 9.1893 18.6381 9.55673 18.1778 9.55673H16.3785C16.0192 10.6324 15.0426 11.347 13.9151 11.347C12.7929 11.347 11.8052 10.6159 11.4753 9.55673H0.822694C0.361336 9.55673 0 9.1893 0 8.72017C0 8.2356 0.34615 7.88362 0.822694 7.88362H11.4784C11.8319 6.82448 12.8196 6.09336 13.9151 6.09336ZM13.9418 7.76647C13.4071 7.76647 13.0039 8.17649 13.0039 8.72017C13.0039 9.24628 13.4244 9.67388 13.9418 9.67388C14.4592 9.67388 14.8797 9.24628 14.8797 8.72017C14.8797 8.19406 14.4592 7.76647 13.9418 7.76647ZM5.6358 0.5C6.75175 0.5 7.73993 1.21461 8.12483 2.29026H18.1778C18.6381 2.29026 18.9995 2.65768 18.9995 3.12681C18.9995 3.59594 18.6381 3.96337 18.1778 3.96337H8.12692C7.76925 5.03742 6.79103 5.75363 5.66355 5.75363C4.54236 5.75363 3.55366 5.02251 3.22375 3.96337H0.822694C0.361336 3.96337 0 3.59594 0 3.12681C0 2.64969 0.34196 2.29026 0.794416 2.29026H3.19861C3.55419 1.23112 4.54184 0.5 5.63527 0.5H5.6358ZM5.66355 2.17311C5.14616 2.17311 4.72565 2.6007 4.72565 3.12681C4.72565 3.65186 5.14616 4.08052 5.66355 4.08052C6.18094 4.08052 6.60145 3.65186 6.60145 3.12681C6.60145 2.6007 6.18094 2.17311 5.66355 2.17311Z" fill="#3F4A55"/>
</svg>
