<svg width="32" height="32" viewBox="0 0 32 32" fill="none" xmlns="http://www.w3.org/2000/svg">
<g id="question">
<path id="Vector" d="M16 6C21.5231 6 26 10.4769 26 16C26 21.5231 21.5231 26 16 26C10.4769 26 6 21.5231 6 16C6 10.4769 10.4769 6 16 6ZM16 7.81813C11.4812 7.81813 7.81813 11.4812 7.81813 16C7.81813 20.5188 11.4812 24.1819 16 24.1819C20.5188 24.1819 24.1819 20.5188 24.1819 16C24.1819 11.4812 20.5188 7.81813 16 7.81813ZM15.905 19.1687C16.4306 19.1531 16.9775 19.475 16.9113 20.1575C16.915 20.78 16.5662 21.1506 15.955 21.1506C15.3438 21.1506 14.9369 20.7937 14.935 20.2725C14.935 19.5494 15.2587 19.1887 15.9044 19.1694L15.905 19.1687ZM16.3313 11.4544C16.6763 11.4906 17.0187 11.5469 17.3569 11.6231C18.3906 11.9162 19.005 12.7419 19.0825 13.8394C19.1587 14.555 18.8475 15.2575 18.2662 15.6819H18.2681C17.9925 15.895 17.7037 16.0894 17.4262 16.2987C17.0175 16.5669 16.7825 17.0325 16.8094 17.5206C16.8238 17.8769 16.5931 18.1969 16.2506 18.2962C15.8862 18.4362 15.4738 18.3131 15.2463 17.9956C15.1737 17.8738 15.1344 17.7356 15.1319 17.5944C15.1031 16.7044 15.5162 15.8581 16.235 15.3331C16.5462 15.0962 16.84 14.8369 17.1131 14.5575C17.2437 14.4038 17.3231 14.2131 17.34 14.0125C17.3844 13.4637 17.0319 13.1106 16.4638 13.0738C15.7775 13.0294 15.1994 13.2075 14.7981 13.8144C14.6256 14.1075 14.2894 14.2619 13.9544 14.2025C13.3725 14.1056 13.1225 13.6325 13.3612 13.0875C13.6106 12.5563 14.04 12.1306 14.5731 11.885C15.1206 11.6156 15.72 11.4688 16.33 11.4544H16.3313Z" fill="#1C7B66"/>
</g>
</svg>
