<svg width="32" height="32" viewBox="0 0 32 32" fill="none" xmlns="http://www.w3.org/2000/svg">
<rect width="32" height="32" rx="16" fill="#E3F5EF"/>
<path d="M15.944 10.829C15.642 10.829 15.397 11.074 15.397 11.376V16.2975C15.397 16.5 15.507 16.676 15.6705 16.7705L19.618 19.0485C19.8795 19.1995 20.2135 19.111 20.364 18.8495C20.5145 18.588 20.4265 18.254 20.165 18.1035L16.491 15.9845V11.3765C16.491 11.0745 16.2465 10.8295 15.9445 10.8295L15.944 10.829ZM16 22.829C12.2215 22.829 9.1705 19.7785 9.1705 16C9.1705 12.2215 12.221 9.1705 16 9.1705C19.7785 9.1705 22.8295 12.221 22.8295 16C22.8295 19.779 19.779 22.829 16 22.829ZM16 8C11.5885 8 8 11.5885 8 16C8 20.4115 11.5885 24 16 24C20.4115 24 24 20.4115 24 16C24 11.5885 20.4115 8 16 8Z" fill="#1C7B66"/>
</svg>
