<!-- Generated by IcoMoon.io -->
<svg version="1.1" xmlns="http://www.w3.org/2000/svg" width="32" height="32" viewBox="0 0 32 32">
<title>load-file</title>
<path d="M2.909 16v11.637c0 1.204 0.49 2.298 1.279 3.085s1.881 1.279 3.085 1.279h17.455c1.204 0 2.298-0.49 3.085-1.279s1.279-1.881 1.279-3.085v-11.636c0-0.803-0.652-1.455-1.455-1.455s-1.455 0.652-1.455 1.455v11.636c0 0.401-0.161 0.764-0.426 1.028s-0.627 0.426-1.028 0.426h-17.455c-0.401 0-0.764-0.161-1.028-0.426s-0.426-0.627-0.426-1.028v-11.636c0-0.803-0.652-1.455-1.455-1.455s-1.455 0.652-1.455 1.455zM14.545 4.966v15.398c0 0.803 0.652 1.455 1.455 1.455s1.455-0.652 1.455-1.455v-15.398l3.335 3.335c0.569 0.569 1.489 0.569 2.057 0s0.569-1.489 0-2.057l-5.818-5.818c-0.134-0.134-0.294-0.241-0.471-0.316-0.356-0.147-0.758-0.147-1.114 0-0.172 0.071-0.332 0.176-0.471 0.316l-5.818 5.818c-0.569 0.569-0.569 1.489 0 2.057s1.489 0.569 2.057 0z " fill="white"></path>
</svg>
