<?xml version="1.0" encoding="UTF-8"?>
<svg width="24px" height="24px" viewBox="0 0 24 24" version="1.1" xmlns="http://www.w3.org/2000/svg" xmlns:xlink="http://www.w3.org/1999/xlink">
    <title>02.Icons/Info</title>
    <g id="02.Icons/Info" stroke="none" stroke-width="1" fill="none" fill-rule="evenodd">
        <path d="M10.1439022,13.5056717 C10.2781722,12.9867581 10.1439022,12.738582 9.65157891,12.5806517 C9.53968725,12.5355288 9.40541727,12.5129673 9.29352561,12.4904059 C8.98022898,12.40016 8.91309399,12.1971068 9.11449896,11.9489307 C9.18163396,11.8812464 9.24876895,11.813562 9.31590394,11.768439 C10.2110372,11.181841 11.1733054,10.7982961 12.2698436,10.7531732 C13.1202202,10.7306117 13.6573001,11.0239107 13.8363268,11.6556317 C13.9034618,11.9489307 13.9034618,12.2647912 13.8363268,12.5580903 C13.5677868,13.7764093 13.2544902,14.9947283 12.9635719,16.2130473 C12.8293019,16.7996454 12.9635719,17.0478215 13.5677868,17.2057517 C13.6349218,17.2283132 13.7020568,17.2283132 13.7468135,17.2508747 C13.8810835,17.3185591 14.0824884,17.3862434 14.1048668,17.4764893 C14.1272451,17.6118581 14.0377318,17.8149112 13.9258401,17.8825956 C12.8740586,18.6496854 11.7103854,19.0783532 10.4124422,18.9881073 C9.53968725,18.920423 9.0697423,18.1533332 9.29352561,17.2283132 C9.53968725,16.0099942 9.85298388,14.7465522 10.1439022,13.5056717 Z" id="Path" fill="#091625" fill-rule="nonzero"></path>
        <path d="M15,7.03053171 C15,5.90245854 14.1496234,5.02256146 13.0307069,5 C11.9117903,5 11.0166571,5.87989708 11.0166571,7.00797025 C11.0166571,8.11348196 11.9117903,8.99337903 13.0083285,8.99337903 C14.1048668,9.0159405 15,8.11348196 15,7.03053171 Z" id="Path" fill="#091625" fill-rule="nonzero"></path>
    </g>
</svg>