<?xml version="1.0" encoding="UTF-8"?>
<svg width="24px" height="24px" viewBox="0 0 24 24" version="1.1" xmlns="http://www.w3.org/2000/svg" xmlns:xlink="http://www.w3.org/1999/xlink">
    <title>02.Icons/QR code</title>
    <defs>
        <polygon id="path-1" points="0 1.90323947e-15 4.24998661 1.90323947e-15 4.24998661 4.25 0 4.25"></polygon>
        <polygon id="path-3" points="0 14 14.0000446 14 14.0000446 0 0 0"></polygon>
    </defs>
    <g id="02.Icons/QR-code" stroke="none" stroke-width="1" fill="none" fill-rule="evenodd">
        <g id="Group-17" transform="translate(5.000000, 5.000000)">
            <g id="Group-16" transform="translate(0.000000, 0.000000)">
                <path d="M12.2499866,0 L9.74998661,0 L9.74998661,1.50008929 L12.2499866,1.50008929 C12.3162366,1.50008929 12.3797187,1.52642857 12.4266384,1.57334821 C12.473558,1.62022321 12.4998973,1.68370536 12.4998973,1.75 L12.4998973,4.25 L13.9999866,4.25 L13.9999866,1.75 C13.9999866,1.2859375 13.8156562,0.840758929 13.4874866,0.512544643 C13.1592723,0.184330357 12.7140937,4.46428571e-05 12.2500312,4.46428571e-05 L12.2499866,0 Z" id="Fill-1" fill="#091625"></path>
                <path d="M4.24998661,0 L1.74998661,0 C1.28592411,0 0.840745536,0.184330357 0.51253125,0.5125 C0.184316964,0.840714286 3.125e-05,1.28589286 3.125e-05,1.74995536 L3.125e-05,4.24995536 L1.50012054,4.24995536 L1.50012054,1.74995536 C1.50012054,1.61200893 1.61208482,1.50004464 1.75003125,1.50004464 L4.25003125,1.50004464 L4.24998661,0 Z" id="Fill-3" fill="#091625"></path>
                <g id="Group-7" transform="translate(0.000000, 9.750000)">
                    <mask id="mask-2" fill="white">
                        <use xlink:href="#path-1"></use>
                    </mask>
                    <g id="Clip-6"></g>
                    <path d="M1.74998661,4.25 L4.24998661,4.25 L4.24998661,2.74991071 L1.74998661,2.74991071 C1.61204018,2.74991071 1.50007589,2.63794643 1.50007589,2.5 L1.50007589,1.90323947e-15 L-1.33928571e-05,1.90323947e-15 L-1.33928571e-05,2.5 C-1.33928571e-05,2.9640625 0.184316964,3.40924107 0.512486607,3.73745536 C0.840700893,4.06566964 1.28587946,4.24995536 1.74994196,4.24995536 L1.74998661,4.25 Z" id="Fill-5" fill="#091625" mask="url(#mask-2)"></path>
                </g>
                <path d="M12.4999866,12.25 C12.4999866,12.31625 12.4736473,12.3797321 12.4267277,12.4266518 C12.3798527,12.4735714 12.3163705,12.4999107 12.2500759,12.4999107 L9.75007589,12.4999107 L9.75007589,14 L12.2500759,14 C12.7141384,14 13.159317,13.8156696 13.4875312,13.4875 C13.8157455,13.1592857 14.0000312,12.7141071 14.0000312,12.2500446 L14.0000312,9.75004464 L12.499942,9.75004464 L12.4999866,12.25 Z" id="Fill-8" fill="#091625"></path>
                <mask id="mask-4" fill="white">
                    <use xlink:href="#path-3"></use>
                </mask>
                <g id="Clip-11"></g>
                <polygon id="Fill-10" fill="#091625" mask="url(#mask-4)" points="6.25 7.75008929 7.75008929 7.75008929 7.75008929 6.25 6.25 6.25"></polygon>
                <polygon id="Fill-12" fill="#091625" mask="url(#mask-4)" points="8.25 5.75008929 9.75008929 5.75008929 9.75008929 4.25 8.25 4.25"></polygon>
                <polygon id="Fill-13" fill="#091625" mask="url(#mask-4)" points="4.25 5.75008929 5.75008929 5.75008929 5.75008929 4.25 4.25 4.25"></polygon>
                <polygon id="Fill-14" fill="#091625" mask="url(#mask-4)" points="8.25 9.75008929 9.75008929 9.75008929 9.75008929 8.25 8.25 8.25"></polygon>
                <polygon id="Fill-15" fill="#091625" mask="url(#mask-4)" points="4.25 9.75008929 5.75008929 9.75008929 5.75008929 8.25 4.25 8.25"></polygon>
            </g>
        </g>
    </g>
</svg>