<svg width="42" height="42" viewBox="0 0 42 42" fill="none" xmlns="http://www.w3.org/2000/svg">
<g id="Explorer">
<rect x="1" y="0.5" width="40" height="40" rx="20" stroke="#26A581"/>
<path id="Vector" d="M21 28.5C21.9 28.5 22.7125 28.2625 23.4375 27.7875C24.1625 27.3125 24.7083 26.6917 25.075 25.925C24.8083 25.6917 24.5417 25.4458 24.275 25.1875C24.0083 24.9292 23.7417 24.6583 23.475 24.375C23.375 25.0083 23.0958 25.5208 22.6375 25.9125C22.1792 26.3042 21.6333 26.5 21 26.5C20.3 26.5 19.7083 26.2583 19.225 25.775C18.7417 25.2917 18.5 24.7 18.5 24C18.5 23.3 18.7458 22.7125 19.2375 22.2375C19.7292 21.7625 20.325 21.5167 21.025 21.5C20.825 21.2 20.6333 20.8958 20.45 20.5875C20.2667 20.2792 20.0917 19.9667 19.925 19.65C18.9417 19.9 18.125 20.425 17.475 21.225C16.825 22.025 16.5 22.95 16.5 24C16.5 25.25 16.9375 26.3125 17.8125 27.1875C18.6875 28.0625 19.75 28.5 21 28.5ZM18 14H19.25C19.1667 14.3167 19.1042 14.6417 19.0625 14.975C19.0208 15.3083 19 15.65 19 16H18.875L17.05 18H13V30H29V25.875C29.3333 25.575 29.6667 25.2625 30 24.9375C30.3333 24.6125 30.6667 24.2833 31 23.95V30C31 30.55 30.8042 31.0208 30.4125 31.4125C30.0208 31.8042 29.55 32 29 32H13C12.45 32 11.9792 31.8042 11.5875 31.4125C11.1958 31.0208 11 30.55 11 30V18C11 17.45 11.1958 16.9792 11.5875 16.5875C11.9792 16.1958 12.45 16 13 16H16.15L18 14ZM27 25C29.0167 23.2833 30.5208 21.6917 31.5125 20.225C32.5042 18.7583 33 17.4 33 16.15C33 14.2667 32.3958 12.7708 31.1875 11.6625C29.9792 10.5542 28.5833 10 27 10C25.4167 10 24.0208 10.5542 22.8125 11.6625C21.6042 12.7708 21 14.2667 21 16.15C21 17.4 21.4958 18.7583 22.4875 20.225C23.4792 21.6917 24.9833 23.2833 27 25ZM27 22.325C25.2667 20.6917 24.1667 19.375 23.7 18.375C23.2333 17.375 23 16.6333 23 16.15C23 14.8 23.4208 13.7708 24.2625 13.0625C25.1042 12.3542 26.0167 12 27 12C27.9833 12 28.8958 12.3542 29.7375 13.0625C30.5792 13.7708 31 14.8 31 16.15C31 16.6333 30.7667 17.375 30.3 18.375C29.8333 19.375 28.7333 20.6917 27 22.325ZM25.15 19L25.85 16.725L24 15.25H26.275L27 13L27.725 15.25H30L28.15 16.725L28.85 19L27 17.6L25.15 19Z" fill="#26A581" transform="translate(-0.5 -2)"/>
</g>
</svg>
