<svg width="32" height="32" viewBox="0 0 32 32" fill="none" xmlns="http://www.w3.org/2000/svg">
<g id="Frame 5">
<path id="Union" fill-rule="evenodd" clip-rule="evenodd" d="M24 14.4997C24 9.80585 20.1947 6 15.501 6H15.499C10.8053 6 7 9.80521 7 14.4997C7 17.3659 8.53221 20.1747 11.0579 22.8407C11.9241 23.7549 12.8493 24.5881 13.7752 25.325C14.0994 25.5839 14.4019 25.8121 14.6735 26.0084C14.8395 26.1276 14.9603 26.2111 15.0285 26.257C15.314 26.4477 15.686 26.4477 15.9715 26.257C16.0397 26.2118 16.1605 26.1283 16.3265 26.0084C16.5981 25.8121 16.9006 25.5832 17.2248 25.325C18.1507 24.5881 19.0759 23.7549 19.9421 22.8407C22.4678 20.1741 24 17.3653 24 14.4997ZM8.70151 14.5004C8.70151 10.7449 11.7456 7.7002 15.501 7.7002H15.5023C19.2577 7.7002 22.3018 10.7449 22.3018 14.5004C22.3018 16.8412 20.9651 19.2918 18.7098 21.6722C17.902 22.5245 17.0352 23.3054 16.1677 23.9958C15.9308 24.1839 15.7077 24.3548 15.5016 24.5071C15.2956 24.3554 15.0725 24.1845 14.8356 23.9958C13.9681 23.3048 13.1006 22.5245 12.2935 21.6722C10.0382 19.2911 8.70151 16.8406 8.70151 14.5004ZM12.9156 14.749C13.2476 14.417 13.7858 14.417 14.1177 14.749L15.2167 15.8479L18.0156 13.049C18.3476 12.717 18.8858 12.717 19.2177 13.049C19.5496 13.3809 19.5496 13.9191 19.2177 14.2511L15.8177 17.6511C15.4858 17.983 14.9476 17.983 14.6156 17.6511L12.9156 15.9511C12.5837 15.6191 12.5837 15.0809 12.9156 14.749Z" fill="white"/>
</g>
</svg>
