<svg width="50" height="50" viewBox="0 0 50 50" fill="none" xmlns="http://www.w3.org/2000/svg">
<g id="Icons">
<path id="Vector" d="M34.0465 28.8881C34.514 28.6544 35.083 28.8438 35.3167 29.3113C35.5504 29.7787 35.361 30.3477 34.8935 30.5815L25.424 35.3166C25.157 35.45 24.8439 35.45 24.577 35.3166L15.1074 30.5815C14.6393 30.3477 14.4498 29.7787 14.6842 29.3113C14.9186 28.8438 15.487 28.6537 15.9544 28.8881L25.0008 33.4109L34.0465 28.8881ZM34.0465 24.153C34.514 23.9193 35.083 24.1087 35.3167 24.5762C35.5504 25.0436 35.361 25.6126 34.8935 25.8464L25.424 30.5815C25.157 30.7149 24.8439 30.7149 24.577 30.5815L15.1074 25.8464C14.6393 25.6126 14.4498 25.0436 14.6842 24.5762C14.9186 24.1087 15.487 23.9186 15.9544 24.153L25.0008 28.6758L34.0465 24.153ZM25.4233 14.6834L34.8929 19.4185C35.5908 19.7675 35.5908 20.7636 34.8929 21.1126L25.4233 25.8477C25.1564 25.9811 24.8432 25.9811 24.5763 25.8477L15.1068 21.1126C14.4088 20.7636 14.4088 19.7675 15.1068 19.4185L24.5763 14.6834C24.8426 14.55 25.1564 14.55 25.4233 14.6834ZM25.0001 16.5891L17.6478 20.2649L25.0001 23.9407L32.3525 20.2649L25.0001 16.5891Z" fill="#091625"/>
</g>
</svg>
