<svg width="34" height="34" viewBox="0 0 34 34" fill="none" xmlns="http://www.w3.org/2000/svg">
<rect width="34" height="34" rx="17" fill="#E1EEFD"/>
<path d="M17.9855 17.1539V22.5232H16.473V17.1539C14.7471 16.8035 13.448 15.2776 13.448 13.4482C13.448 11.3599 15.1409 9.66699 17.2292 9.66699C19.3176 9.66699 21.0105 11.3599 21.0105 13.4482C21.0105 15.2776 19.7114 16.8035 17.9855 17.1539ZM14.9605 18.8609V20.3939C12.7426 20.6708 11.1792 21.3032 11.1792 21.767C11.1792 22.3772 13.886 23.2795 17.2292 23.2795C20.5725 23.2795 23.2792 22.3772 23.2792 21.767C23.2792 21.3032 21.7159 20.6708 19.498 20.3939V18.8609C22.5653 19.197 24.7917 20.2301 24.7917 21.767C24.7917 23.6627 21.4039 24.792 17.2292 24.792C13.0545 24.792 9.66675 23.6627 9.66675 21.767C9.66675 20.2301 11.8932 19.197 14.9605 18.8609ZM17.2292 15.717C18.4822 15.717 19.498 14.7012 19.498 13.4482C19.498 12.1952 18.4822 11.1795 17.2292 11.1795C15.9763 11.1795 14.9605 12.1952 14.9605 13.4482C14.9605 14.7012 15.9763 15.717 17.2292 15.717Z" fill="#3993F3"/>
</svg>
