<?xml version="1.0" encoding="UTF-8"?>
<svg width="24px" height="24px" viewBox="0 0 24 24" version="1.1" xmlns="http://www.w3.org/2000/svg" xmlns:xlink="http://www.w3.org/1999/xlink">
    <title>02.Icons/Libre</title>
    <g id="02.Icons/Libre" stroke="none" stroke-width="1" fill="none" fill-rule="evenodd">
        <g id="iconfinder_isochrone" transform="translate(4.000000, 4.000000)" fill="#1C7B66" fill-rule="nonzero">
            <path d="M8.8,7.91998552 L8.8,13.6 L7.2,13.6 L7.2,7.91998552 C5.37420774,7.54936928 4,5.93516633 4,4 C4,1.790861 5.790861,0 8,0 C10.209139,0 12,1.790861 12,4 C12,5.93516633 10.6257922,7.54936928 8.8,7.91998552 Z M5.6,9.72584008 L5.6,11.34749 C3.25374696,11.6403802 1.6,12.3093878 1.6,12.8 C1.6,13.4455625 4.46331264,14.4 8,14.4 C11.5366874,14.4 14.4,13.4455625 14.4,12.8 C14.4,12.3093878 12.746253,11.6403802 10.4,11.34749 L10.4,9.72584008 C13.6447012,10.0813704 16,11.1742496 16,12.8 C16,14.8054043 12.416213,16 8,16 C3.58378696,16 0,14.8054043 0,12.8 C0,11.1742496 2.35529883,10.0813704 5.6,9.72584008 Z M8,6.4 C9.32548336,6.4 10.4,5.3254834 10.4,4 C10.4,2.6745166 9.32548336,1.6 8,1.6 C6.67451664,1.6 5.6,2.6745166 5.6,4 C5.6,5.3254834 6.67451664,6.4 8,6.4 Z" id="Shape"></path>
        </g>
    </g>
</svg>