<?xml version="1.0" encoding="UTF-8" standalone="no"?>
<svg
   xmlns:dc="http://purl.org/dc/elements/1.1/"
   xmlns:cc="http://creativecommons.org/ns#"
   xmlns:rdf="http://www.w3.org/1999/02/22-rdf-syntax-ns#"
   xmlns:svg="http://www.w3.org/2000/svg"
   xmlns="http://www.w3.org/2000/svg"
   xmlns:sodipodi="http://sodipodi.sourceforge.net/DTD/sodipodi-0.dtd"
   xmlns:inkscape="http://www.inkscape.org/namespaces/inkscape"
   id="baseline-my_location-24px"
   width="24"
   height="24"
   viewBox="0 0 24 24"
   version="1.1"
   sodipodi:docname="location-fixed.svg"
   inkscape:version="0.92.5 (2060ec1f9f, 2020-04-08)">
  <metadata
     id="metadata9">
    <rdf:RDF>
      <cc:Work
         rdf:about="">
        <dc:format>image/svg+xml</dc:format>
        <dc:type
           rdf:resource="http://purl.org/dc/dcmitype/StillImage" />
        <dc:title></dc:title>
      </cc:Work>
    </rdf:RDF>
  </metadata>
  <defs
     id="defs7" />
  <sodipodi:namedview
     pagecolor="#0b56ff"
     bordercolor="#666666"
     borderopacity="1"
     objecttolerance="10"
     gridtolerance="10"
     guidetolerance="10"
     inkscape:pageopacity="0"
     inkscape:pageshadow="2"
     inkscape:window-width="1920"
     inkscape:window-height="1017"
     id="namedview5"
     showgrid="false"
     inkscape:zoom="19.666667"
     inkscape:cx="14.02451"
     inkscape:cy="10.781007"
     inkscape:window-x="1912"
     inkscape:window-y="-8"
     inkscape:window-maximized="1"
     inkscape:current-layer="baseline-my_location-24px" />
  <path
     id="Tracé_1"
     data-name="Tracé 1"
     d="M0,0H24V24H0Z"
     fill="none" />
  <path
     id="Tracé_2"
     data-name="Tracé 2"
     d="M 20.94,11 C 20.473469,6.8233184 17.176682,3.5265313 13,3.06 V 1 H 11 V 3.06 C 6.8233184,3.5265313 3.5265313,6.8233184 3.06,11 H 1 v 2 h 2.06 c 0.4665313,4.176682 3.7633184,7.473469 7.94,7.94 V 23 h 2 V 20.94 C 17.176682,20.473469 20.473469,17.176682 20.94,13 H 23 V 11 Z M 12,19 C 5.7632323,19 2.6409778,11.46003 7.050504,7.050504 11.46003,2.6409778 19,5.7632323 19,12 c 0.0028,3.867138 -3.132862,7.002765 -7,7 z"
     inkscape:connector-curvature="0"
     style="fill:#26A581"
     sodipodi:nodetypes="ccccccccccccccccccscc" />
</svg>
