<svg width="25" height="25" viewBox="0 0 25 25" fill="none" xmlns="http://www.w3.org/2000/svg">
<rect width="25" height="25" rx="12.5" fill="#E3F5EF"/>
<path d="M12.5 6.25C12.7656 6.25 12.9808 6.46522 12.9808 6.73083L12.9812 7.23314C15.5178 7.46203 17.538 9.48183 17.7669 12.0188L18.2692 12.0192C18.5348 12.0192 18.75 12.2344 18.75 12.5C18.75 12.7656 18.5348 12.9808 18.2692 12.9808L17.7669 12.9812C17.538 15.5178 15.5182 17.538 12.9812 17.7669L12.9808 18.2692C12.9808 18.5348 12.7656 18.75 12.5 18.75C12.2344 18.75 12.0192 18.5348 12.0192 18.2692L12.0188 17.7669C9.48222 17.538 7.46203 15.5182 7.23314 12.9812L6.73083 12.9808C6.46522 12.9808 6.25 12.7656 6.25 12.5C6.25 12.2344 6.46522 12.0192 6.73083 12.0192L7.23314 12.0188C7.46203 9.48222 9.48183 7.46203 12.0188 7.23314L12.0192 6.73083C12.0192 6.46522 12.2344 6.25 12.5 6.25ZM12.9812 8.19949L12.9808 9.61541C12.9808 9.88102 12.7656 10.0962 12.5 10.0962C12.2344 10.0962 12.0192 9.88102 12.0192 9.61541L12.0188 8.19949C10.0138 8.42135 8.42174 10.0134 8.19988 12.0184L9.61581 12.0188C9.88141 12.0188 10.0966 12.234 10.0966 12.4996C10.0966 12.7652 9.88141 12.9804 9.61581 12.9804L8.19988 12.9808C8.42174 14.9858 10.0138 16.5779 12.0188 16.7997L12.0192 15.3838C12.0192 15.1182 12.2344 14.903 12.5 14.903C12.7656 14.903 12.9808 15.1182 12.9808 15.3838L12.9812 16.7997C14.9862 16.5779 16.5783 14.9858 16.8001 12.9808L15.3842 12.9804C15.1186 12.9804 14.9034 12.7652 14.9034 12.4996C14.9034 12.234 15.1186 12.0188 15.3842 12.0188L16.8001 12.0184C16.5783 10.0134 14.9862 8.42135 12.9812 8.19949Z" fill="#1C7B66"/>
</svg>
