<svg
   xmlns="http://www.w3.org/2000/svg"
   version="1.1"
   width="24px"
   height="24px"
   viewBox="0 0 24 24"
   id="svg10">

<g id="Group 564">
<path id="Vector" d="M12.8097 0C5.92813 0 0.30166 5.60939 0.0113722 12.7727C-0.30453 20.3885 6.01351 28.0896 12.4169 31.7609L12.8438 32L13.2536 31.7353C21.45 26.4504 25.608 20.0811 25.608 12.7983C25.608 5.73746 19.862 0 12.8097 0ZM12.8011 17.3404C10.3934 17.3404 8.4468 15.3938 8.4468 12.9861C8.4468 10.5784 10.3934 8.6318 12.8011 8.6318C15.2088 8.6318 17.1554 10.5784 17.1554 12.9861C17.1554 15.3938 15.2088 17.3404 12.8011 17.3404Z" fill="#26A581" transform="scale(0.7) translate(3)"/>
<g id="Group 567">
<path id="Vector_2" d="M12.8432 32L12.4163 31.7609C6.01292 28.0896 -0.296573 20.3885 0.0107913 12.7727C0.318155 5.60939 5.93608 0 12.8176 0C19.8785 0 25.6159 5.746 25.6159 12.7983C25.6159 20.0811 21.458 26.4504 13.2445 31.7353L12.8432 32ZM12.8176 1.60512C6.79841 1.60512 1.88059 6.54002 1.61591 12.841C1.33416 19.6542 6.96063 26.6126 12.792 30.1302C20.237 25.2124 24.0108 19.3895 24.0108 12.8068C24.0193 6.6254 18.9991 1.60512 12.8176 1.60512Z" fill="#17795D" transform="scale(0.7) translate(3)"/>
<path id="Vector_3" d="M12.8176 18.1087C9.99152 18.1087 7.69482 15.8121 7.69482 12.986C7.69482 10.16 9.99152 7.86328 12.8176 7.86328C15.6436 7.86328 17.9403 10.16 17.9403 12.986C17.9403 15.8121 15.6436 18.1087 12.8176 18.1087ZM12.8176 9.35741C10.8197 9.35741 9.18895 10.9881 9.18895 12.986C9.18895 14.9839 10.8197 16.6146 12.8176 16.6146C14.8154 16.6146 16.4462 14.9839 16.4462 12.986C16.4462 10.9881 14.8154 9.35741 12.8176 9.35741Z" fill="#17795D" transform="scale(0.7) translate(3)"/>
</g>
</g>
</svg>
