<svg
   xmlns="http://www.w3.org/2000/svg"
   version="1.1"
   width="24px"
   height="24px"
   viewBox="0 0 24 24"
   id="svg10">

  <defs
     id="defs14" />
  <g
     id="g8" filter="url(#filter0_d_1799_23558)">
    <g
       transform="translate(5, 3)"
       id="g6">
      <path
         style="clip-rule:evenodd;fill:#26A581;fill-rule:evenodd;stroke:#091625;stroke-width:1;fill-opacity:1"
         d="M 12.457031 3.3261719 C 8.898718 3.3261719 6.0099105 6.2367595 5.9296875 9.8554688 C 5.9272875 9.8543788 5.924005 9.8535156 5.921875 9.8535156 C 5.920285 9.8862406 5.9246481 9.9182289 5.9238281 9.9511719 C 5.9235667 9.9694299 5.921875 9.9895545 5.921875 10.007812 C 5.921875 10.074265 5.9298106 10.137456 5.9316406 10.203125 C 6.0051966 14.544496 10.804941 19.125341 12.457031 20.755859 C 17.096765 16.909946 18.447582 13.34349 18.837891 11.441406 C 18.852011 11.374648 18.864963 11.306949 18.876953 11.240234 C 18.914523 11.035385 18.940854 10.852752 18.958984 10.695312 C 18.958984 10.693393 18.958984 10.691363 18.958984 10.689453 C 19.007744 10.249817 18.992188 10.007812 18.992188 10.007812 C 18.992188 6.3174648 16.066241 3.3261719 12.457031 3.3261719 z M 12.576172 8.2128906 C 13.404134 8.2128906 14.076172 8.8843346 14.076172 9.7128906 C 14.076172 10.541447 13.404713 11.212891 12.576172 11.212891 C 11.748211 11.212891 11.078125 10.541447 11.078125 9.7128906 C 11.078125 8.8843346 11.747632 8.2128906 12.576172 8.2128906 z "
         transform="translate(-5,-3)"
         id="path2-9" />
    </g>
  </g>
   <filter id="filter0_d_1799_23558" x="0" y="0" width="50" height="60" filterUnits="userSpaceOnUse" color-interpolation-filters="sRGB">
      <feFlood flood-opacity="0" result="BackgroundImageFix"/>
      <feColorMatrix in="SourceAlpha" type="matrix" values="0 0 0 0 0 0 0 0 0 0 0 0 0 0 0 0 0 0 127 0" result="hardAlpha"/>
      <feOffset/>
      <feGaussianBlur stdDeviation="5"/>
      <feComposite in2="hardAlpha" operator="out"/>
      <feColorMatrix type="matrix" values="0 0 0 0 0 0 0 0 0 0 0 0 0 0 0 0 0 0 0.15 0"/>
      <feBlend mode="normal" in2="BackgroundImageFix" result="effect1_dropShadow_1799_23558"/>
      <feBlend mode="normal" in="SourceGraphic" in2="effect1_dropShadow_1799_23558" result="shape"/>
   </filter>
</svg>
