<svg width="16" height="12" viewBox="0 0 16 12" fill="none" xmlns="http://www.w3.org/2000/svg">
<path fill-rule="evenodd" clip-rule="evenodd" d="M2.33347 6.00016C2.33347 6.5215 1.91036 6.94461 1.38902 6.94461C0.866747 6.94461 0.44458 6.5215 0.44458 6.00016C0.44458 5.47883 0.866747 5.05572 1.38902 5.05572C1.91036 5.05572 2.33347 5.47883 2.33347 6.00016Z" fill="#091625"/>
<path fill-rule="evenodd" clip-rule="evenodd" d="M2.33347 6.00016C2.33347 6.5215 1.91036 6.94461 1.38902 6.94461C0.866747 6.94461 0.44458 6.5215 0.44458 6.00016C0.44458 5.47883 0.866747 5.05572 1.38902 5.05572C1.91036 5.05572 2.33347 5.47883 2.33347 6.00016Z" fill="#091625"/>
<path fill-rule="evenodd" clip-rule="evenodd" d="M14.7291 5.05572H5.04898C4.59211 5.05572 4.22236 5.47883 4.22236 6.00016C4.22236 6.5215 4.59211 6.94461 5.04898 6.94461H14.7291C15.1859 6.94461 15.5557 6.5215 15.5557 6.00016C15.5557 5.47883 15.1859 5.05572 14.7291 5.05572Z" fill="#091625"/>
<path fill-rule="evenodd" clip-rule="evenodd" d="M2.33347 1.27794C2.33347 1.79927 1.91036 2.22238 1.38902 2.22238C0.866747 2.22238 0.44458 1.79927 0.44458 1.27794C0.44458 0.756607 0.866747 0.333496 1.38902 0.333496C1.91036 0.333496 2.33347 0.756607 2.33347 1.27794Z" fill="#091625"/>
<path fill-rule="evenodd" clip-rule="evenodd" d="M2.33347 1.27794C2.33347 1.79927 1.91036 2.22238 1.38902 2.22238C0.866747 2.22238 0.44458 1.79927 0.44458 1.27794C0.44458 0.756607 0.866747 0.333496 1.38902 0.333496C1.91036 0.333496 2.33347 0.756607 2.33347 1.27794Z" fill="#091625"/>
<path fill-rule="evenodd" clip-rule="evenodd" d="M14.7291 0.333496H5.04898C4.59211 0.333496 4.22236 0.756607 4.22236 1.27794C4.22236 1.79927 4.59211 2.22238 5.04898 2.22238H14.7291C15.1859 2.22238 15.5557 1.79927 15.5557 1.27794C15.5557 0.756607 15.1859 0.333496 14.7291 0.333496Z" fill="#091625"/>
<path fill-rule="evenodd" clip-rule="evenodd" d="M2.33347 10.7224C2.33347 11.2437 1.91036 11.6668 1.38902 11.6668C0.866747 11.6668 0.44458 11.2437 0.44458 10.7224C0.44458 10.2011 0.866747 9.77794 1.38902 9.77794C1.91036 9.77794 2.33347 10.2011 2.33347 10.7224Z" fill="#091625"/>
<path fill-rule="evenodd" clip-rule="evenodd" d="M2.33347 10.7224C2.33347 11.2437 1.91036 11.6668 1.38902 11.6668C0.866747 11.6668 0.44458 11.2437 0.44458 10.7224C0.44458 10.2011 0.866747 9.77794 1.38902 9.77794C1.91036 9.77794 2.33347 10.2011 2.33347 10.7224Z" fill="#091625"/>
<path fill-rule="evenodd" clip-rule="evenodd" d="M14.7291 9.77794H5.04898C4.59211 9.77794 4.22236 10.2011 4.22236 10.7224C4.22236 11.2437 4.59211 11.6668 5.04898 11.6668H14.7291C15.1859 11.6668 15.5557 11.2437 15.5557 10.7224C15.5557 10.2011 15.1859 9.77794 14.7291 9.77794Z" fill="#091625"/>
</svg>
