<?xml version="1.0" encoding="UTF-8" standalone="no"?>
<!-- Created with Inkscape (http://www.inkscape.org/) -->

<svg
   width="24"
   height="24"
   viewBox="0 0 6.3499999 6.3499999"
   version="1.1"
   id="svg5"
   inkscape:version="1.1.2 (0a00cf5339, 2022-02-04)"
   sodipodi:docname="nb-layer.svg"
   xmlns:inkscape="http://www.inkscape.org/namespaces/inkscape"
   xmlns:sodipodi="http://sodipodi.sourceforge.net/DTD/sodipodi-0.dtd"
   xmlns="http://www.w3.org/2000/svg"
   xmlns:svg="http://www.w3.org/2000/svg">
  <sodipodi:namedview
     id="namedview7"
     pagecolor="#ffffff"
     bordercolor="#666666"
     borderopacity="1.0"
     inkscape:pageshadow="2"
     inkscape:pageopacity="0.0"
     inkscape:pagecheckerboard="0"
     inkscape:document-units="mm"
     showgrid="false"
     inkscape:zoom="16"
     inkscape:cx="4.28125"
     inkscape:cy="6.125"
     inkscape:window-width="1920"
     inkscape:window-height="1043"
     inkscape:window-x="1920"
     inkscape:window-y="0"
     inkscape:window-maximized="1"
     inkscape:current-layer="layer1"
     fit-margin-top="0"
     fit-margin-left="0"
     fit-margin-right="0"
     fit-margin-bottom="0"
     width="6.35mm"
     units="px" />
  <defs
     id="defs2" />
  <g
     inkscape:label="Calque 1"
     inkscape:groupmode="layer"
     id="layer1"
     transform="translate(-153.41858,-27.791825)">
    <g
       id="g33364">
      <path
         d="m 156.59358,33.677084 c -1.49959,0 -2.71046,-1.210667 -2.71046,-2.710259 0,-1.499593 1.21067,-2.710458 2.71046,-2.710458 1.49959,0 2.71046,1.210667 2.71046,2.710458 0,1.49979 -1.21067,2.710259 -2.71046,2.710259 z m 0,-5.885259 v 0 c -1.75081,0 -3.175,1.424186 -3.175,3.175 0,1.750814 1.42419,3.175 3.175,3.175 1.75082,0 3.175,-1.424186 3.175,-3.175 0,-1.750814 -1.42418,-3.175 -3.175,-3.175 z"
         id="path868"
         style="stroke-width:0.198437"
         sodipodi:nodetypes="sssssssssss" />
      <path
         style="fill:none;stroke:#000000;stroke-width:0.264583px;stroke-linecap:butt;stroke-linejoin:miter;stroke-opacity:1"
         d="m 156.59358,27.791825 v 5.885259"
         id="path2056"
         sodipodi:nodetypes="cc" />
      <path
         style="fill:#ffffff;fill-opacity:0.498039;stroke-width:0.0417875;stroke-linecap:round;stroke-linejoin:round"
         d="m 156.13472,33.62571 c -1.01472,-0.170106 -1.87717,-0.960159 -2.14621,-1.966052 -0.36757,-1.374304 0.40539,-2.799281 1.76563,-3.255008 0.16852,-0.05646 0.53743,-0.131688 0.64702,-0.131939 0.0364,-8.2e-5 0.0385,0.142835 0.0385,2.694114 v 2.694202 l -0.0605,-0.0021 c -0.0333,-0.0013 -0.14326,-0.01611 -0.24444,-0.03308 z"
         id="path2304" />
      <path
         style="fill:#ffffff;fill-opacity:0.498039;stroke-width:0.0417875;stroke-linecap:round;stroke-linejoin:round"
         d="m 156.13472,33.62571 c -1.01472,-0.170106 -1.87717,-0.960159 -2.14621,-1.966052 -0.36757,-1.374304 0.40539,-2.799281 1.76563,-3.255008 0.16852,-0.05646 0.53743,-0.131688 0.64702,-0.131939 0.0364,-8.2e-5 0.0385,0.142835 0.0385,2.694114 v 2.694202 l -0.0605,-0.0021 c -0.0333,-0.0013 -0.14326,-0.01611 -0.24444,-0.03308 z"
         id="path2343" />
      <path
         style="fill:#ffffff;fill-opacity:0.498039;stroke-width:0.0417875;stroke-linecap:round;stroke-linejoin:round"
         d="m 156.13472,33.62571 c -1.01472,-0.170106 -1.87717,-0.960159 -2.14621,-1.966052 -0.36757,-1.374304 0.40539,-2.799281 1.76563,-3.255008 0.16852,-0.05646 0.53743,-0.131688 0.64702,-0.131939 0.0364,-8.2e-5 0.0385,0.142835 0.0385,2.694114 v 2.694202 l -0.0605,-0.0021 c -0.0333,-0.0013 -0.14326,-0.01611 -0.24444,-0.03308 z"
         id="path2421" />
      <rect
         style="fill:#000000;fill-opacity:1;stroke-width:0.580473;stroke-linecap:round;stroke-linejoin:round"
         id="rect21051"
         width="1.4340153"
         height="5.5291328"
         x="156.71239"
         y="28.198891" />
      <rect
         style="fill:#000000;fill-opacity:1;stroke-width:0.502708;stroke-linecap:round;stroke-linejoin:round"
         id="rect21053"
         width="0.35848713"
         height="5.3940644"
         x="157.78792"
         y="28.198891" />
      <rect
         style="fill:#000000;fill-opacity:1;stroke-width:0.502708;stroke-linecap:round;stroke-linejoin:round"
         id="rect21055"
         width="0.65890253"
         height="4.7371449"
         x="157.9975"
         y="28.655203" />
      <rect
         style="fill:#000000;fill-opacity:1;stroke-width:0.502708;stroke-linecap:round;stroke-linejoin:round"
         id="rect21057"
         width="0.62430978"
         height="3.6825192"
         x="158.44775"
         y="29.160067" />
      <rect
         style="fill:#000000;fill-opacity:1;stroke-width:0.502708;stroke-linecap:round;stroke-linejoin:round"
         id="rect21059"
         width="0.40119392"
         height="2.4688559"
         x="158.91481"
         y="29.746935" />
      <text
         xml:space="preserve"
         style="font-style:normal;font-weight:normal;font-size:3.06449px;line-height:1.25;font-family:sans-serif;fill:#ffffff;fill-opacity:1;stroke:none;stroke-width:0.0766123"
         x="139.77225"
         y="35.859909"
         id="text7040"
         transform="scale(1.1219756,0.89128497)"><tspan
           id="tspan7038"
           style="fill:#ffffff;fill-opacity:1;stroke-width:0.0766123"
           x="139.77225"
           y="35.859909"
           sodipodi:role="line">B</tspan></text>
      <text
         xml:space="preserve"
         style="font-weight:bold;font-size:3.20802px;line-height:1.25;font-family:sans-serif;-inkscape-font-specification:'sans-serif Bold';stroke-width:0.0802005"
         x="156.79082"
         y="31.625319"
         id="text31552"
         transform="scale(0.98251958,1.0177914)"><tspan
           sodipodi:role="line"
           id="tspan31550"
           style="stroke-width:0.0802005"
           x="156.79082"
           y="31.625319">N</tspan></text>
    </g>
  </g>
</svg>
