<svg width="20" height="18" viewBox="0 0 20 18" fill="none" xmlns="http://www.w3.org/2000/svg">
<path fill-rule="evenodd" clip-rule="evenodd" d="M1.83041 17.843L6.91344 14.9384L12.7494 17.8564C12.8503 17.9096 12.9644 17.9412 13.0855 17.9451C13.094 17.9454 13.1026 17.9455 13.1112 17.9455C13.1112 17.9455 13.1112 17.9455 13.1112 17.9455C13.2565 17.9455 13.3926 17.9056 13.5089 17.8363L18.9415 14.7319C19.1839 14.5934 19.3334 14.3357 19.3334 14.0566L19.3334 1.61218C19.3334 1.01499 18.6883 0.64059 18.1698 0.936882L13.0867 3.84147L7.25079 0.923507C7.14451 0.867552 7.02369 0.835481 6.89548 0.834429L6.88897 0.834402C6.74363 0.834402 6.6076 0.874267 6.49122 0.94366L1.05864 4.04799C0.816303 4.18647 0.666747 4.44418 0.666747 4.72329L0.666745 17.1677C0.666745 17.7649 1.3119 18.1393 1.83041 17.843ZM13.889 15.8275L17.7779 13.6053L17.7779 2.95243L13.889 5.17465L13.889 15.8275ZM12.3334 5.20399L7.66675 2.87065L7.66675 13.5759L12.3334 15.9093L12.3334 5.20399ZM2.2223 5.17465L6.11119 2.95243L6.11119 13.6053L2.2223 15.8275L2.2223 5.17465Z" fill="#3F4A55"/>
<path fill-rule="evenodd" clip-rule="evenodd" d="M1.83041 17.843L6.91344 14.9384L12.7494 17.8564C12.8503 17.9096 12.9644 17.9412 13.0855 17.9451C13.094 17.9454 13.1026 17.9455 13.1112 17.9455C13.1112 17.9455 13.1112 17.9455 13.1112 17.9455C13.2565 17.9455 13.3926 17.9056 13.5089 17.8363L18.9415 14.7319C19.1839 14.5934 19.3334 14.3357 19.3334 14.0566L19.3334 1.61218C19.3334 1.01499 18.6883 0.64059 18.1698 0.936882L13.0867 3.84147L7.25079 0.923507C7.14451 0.867552 7.02369 0.835481 6.89548 0.834429L6.88897 0.834402C6.74363 0.834402 6.6076 0.874267 6.49122 0.94366L1.05864 4.04799C0.816303 4.18647 0.666747 4.44418 0.666747 4.72329L0.666745 17.1677C0.666745 17.7649 1.3119 18.1393 1.83041 17.843ZM13.889 15.8275L17.7779 13.6053L17.7779 2.95243L13.889 5.17465L13.889 15.8275ZM12.3334 5.20399L7.66675 2.87065L7.66675 13.5759L12.3334 15.9093L12.3334 5.20399ZM2.2223 5.17465L6.11119 2.95243L6.11119 13.6053L2.2223 15.8275L2.2223 5.17465Z" fill="#3F4A55"/>
</svg>
