<svg width="32" height="32" viewBox="0 0 32 32" fill="none" xmlns="http://www.w3.org/2000/svg">
<g id="Icons">
<path id="Union" fill-rule="evenodd" clip-rule="evenodd" d="M15.0553 11.4423C15.0553 10.6457 15.7145 10 16.5276 10C17.3408 10 18 10.6457 18 11.4423C18 12.2389 17.3408 12.8846 16.5276 12.8846C15.7145 12.8846 15.0553 12.2389 15.0553 11.4423ZM15.0553 16.2494C15.0553 15.4529 15.7145 14.8071 16.5276 14.8071C17.3408 14.8071 18 15.4529 18 16.2494C18 17.046 17.3408 17.6917 16.5276 17.6917C15.7145 17.6917 15.0553 17.046 15.0553 16.2494ZM16.5276 19.6155C15.7145 19.6155 15.0553 20.2612 15.0553 21.0578C15.0553 21.8543 15.7145 22.5001 16.5276 22.5001C17.3408 22.5001 18 21.8544 18 21.0578C18 20.2612 17.3408 19.6155 16.5276 19.6155Z" fill="#3F4A55"/>
</g>
</svg>
