<?xml version="1.0" encoding="UTF-8"?>
<svg width="24px" height="24px" viewBox="0 0 24 24" version="1.1" xmlns="http://www.w3.org/2000/svg" xmlns:xlink="http://www.w3.org/1999/xlink">
    <title>02.Icons/List</title>
    <g id="02.Icons/List" stroke="none" stroke-width="1" fill="none" fill-rule="evenodd">
        <g id="Group" transform="translate(4.000000, 6.000000)" fill="#091625">
            <path d="M2,6 C2,6.552 1.552,7 1,7 C0.447,7 0,6.552 0,6 C0,5.448 0.447,5 1,5 C1.552,5 2,5.448 2,6" id="Fill-3"></path>
            <path d="M2,6 C2,6.552 1.552,7 1,7 C0.447,7 0,6.552 0,6 C0,5.448 0.447,5 1,5 C1.552,5 2,5.448 2,6" id="Fill-1"></path>
            <path d="M15.12475,5 L13.62475,5 L6.37525,5 L4.87525,5 C4.3915,5 4,5.448 4,6 C4,6.552 4.3915,7 4.87525,7 L6.37525,7 L13.62475,7 L15.12475,7 C15.6085,7 16,6.552 16,6 C16,5.448 15.6085,5 15.12475,5" id="Fill-3"></path>
            <path d="M2,1 C2,1.552 1.552,2 1,2 C0.447,2 0,1.552 0,1 C0,0.448 0.447,0 1,0 C1.552,0 2,0.448 2,1" id="Fill-3"></path>
            <path d="M2,1 C2,1.552 1.552,2 1,2 C0.447,2 0,1.552 0,1 C0,0.448 0.447,0 1,0 C1.552,0 2,0.448 2,1" id="Fill-1"></path>
            <path d="M15.12475,0 L13.62475,0 L6.37525,0 L4.87525,0 C4.3915,0 4,0.448 4,1 C4,1.552 4.3915,2 4.87525,2 L6.37525,2 L13.62475,2 L15.12475,2 C15.6085,2 16,1.552 16,1 C16,0.448 15.6085,0 15.12475,0" id="Fill-3"></path>
            <path d="M2,11 C2,11.552 1.552,12 1,12 C0.447,12 0,11.552 0,11 C0,10.448 0.447,10 1,10 C1.552,10 2,10.448 2,11" id="Fill-3"></path>
            <path d="M2,11 C2,11.552 1.552,12 1,12 C0.447,12 0,11.552 0,11 C0,10.448 0.447,10 1,10 C1.552,10 2,10.448 2,11" id="Fill-1"></path>
            <path d="M15.12475,10 L13.62475,10 L6.37525,10 L4.87525,10 C4.3915,10 4,10.448 4,11 C4,11.552 4.3915,12 4.87525,12 L6.37525,12 L13.62475,12 L15.12475,12 C15.6085,12 16,11.552 16,11 C16,10.448 15.6085,10 15.12475,10" id="Fill-3"></path>
        </g>
    </g>
</svg>