<svg width="32" height="32" viewBox="0 0 32 32" fill="none" xmlns="http://www.w3.org/2000/svg">
<g id="Rando">
<path id="Union" fill-rule="evenodd" clip-rule="evenodd" d="M19.7817 7.25352C19.7817 8.49811 18.7728 9.50704 17.5282 9.50704C16.2836 9.50704 15.2746 8.49811 15.2746 7.25352C15.2746 6.00894 16.2836 5 17.5282 5C18.7728 5 19.7817 6.00894 19.7817 7.25352ZM19.7817 17.507C19.331 17.2816 18.8803 17.0563 18.6549 16.6056L17.0775 14.3521L16.4014 18.7464L18.8803 20.5492C19.331 20.8873 19.669 21.338 19.7817 21.9014L20.7958 27.0844L18.5423 27.5352L17.5282 22.3521L14.7113 20.2112L14.1479 22.9154C14.0352 23.4788 13.6972 23.9295 13.2465 24.2675L9.07746 27.0844L7.83803 25.2816L12.007 22.4647L14.0352 13.1126L11.5563 13.7887L9.52817 17.845L7.5 16.8309L9.52817 12.7746C9.8662 12.2112 10.3169 11.7605 10.993 11.6478L14.5986 10.7464C15.0493 10.6337 15.6127 10.7464 16.1761 10.9718L17.7535 11.7605C18.0915 11.8732 18.4296 12.2112 18.5423 12.5492L20.4577 15.3661L23.5 16.3802L22.8239 18.5211L19.7817 17.507Z" fill="#3F4A55"/>
</g>
</svg>
