<!-- Generated by IcoMoon.io -->
<svg version="1.1" xmlns="http://www.w3.org/2000/svg" width="24" height="24" viewBox="0 0 24 24">
<rect width="24" height="24" rx="12" fill="#E7E7E7"/>
<path d="M15.888 5.658c-0.604 0-1.094 0.49-1.094 1.094v9.843c0 0.405 0.22 0.757 0.547 0.946l7.895 4.556c0.523 0.302 1.191 0.125 1.492-0.398s0.125-1.191-0.398-1.492l-7.348-4.238v-9.216c0-0.604-0.489-1.094-1.093-1.094zM16 29.658c-7.557 0-13.659-6.101-13.659-13.658s6.101-13.659 13.659-13.659c7.557 0 13.659 6.101 13.659 13.659s-6.101 13.658-13.659 13.658zM16 0v0c-8.823 0-16 7.177-16 16s7.177 16 16 16c8.823 0 16-7.177 16-16s-7.177-16-16-16z" fill="#3F4A55" transform="scale(0.5 0.5) translate(8 8)"></path>
</svg>
