<svg width="32" height="32" viewBox="0 0 32 32" fill="none" xmlns="http://www.w3.org/2000/svg">
<g id="Frame 54">
<path id="Combined-Shape" d="M16 6C17.3807 6 18.5 7.11929 18.5 8.5V8.57168C18.5009 8.78757 18.6298 8.98234 18.8365 9.07095C19.0391 9.16035 19.2757 9.11745 19.4274 8.96908L19.4771 8.91941C19.946 8.44996 20.5823 8.18619 21.2458 8.18619C21.9094 8.18619 22.5457 8.44996 23.0139 8.91875C23.4834 9.38767 23.7471 10.024 23.7471 10.6875C23.7471 11.351 23.4834 11.9873 23.0143 12.4559L22.9707 12.4994C22.8159 12.6577 22.773 12.8943 22.8624 13.0969C22.886 13.1503 22.9038 13.2058 22.9157 13.2626C23.0147 13.4087 23.1803 13.4993 23.3583 13.5H23.5C24.8807 13.5 26 14.6193 26 16C26 17.3807 24.8807 18.5 23.5 18.5H23.4283C23.2124 18.5009 23.0177 18.6298 22.9326 18.8283C22.8396 19.0391 22.8825 19.2757 23.0309 19.4274L23.0806 19.4771C23.55 19.946 23.8138 20.5823 23.8138 21.2458C23.8138 21.9094 23.55 22.5457 23.0813 23.0139C22.6123 23.4834 21.976 23.7471 21.3125 23.7471C20.649 23.7471 20.0127 23.4834 19.5441 23.0143L19.5006 22.9707C19.3423 22.8159 19.1057 22.773 18.8949 22.8659C18.6965 22.951 18.5675 23.1458 18.5667 23.3583V23.5C18.5667 24.8807 17.4474 26 16.0667 26C14.686 26 13.5667 24.8807 13.5667 23.5C13.5617 23.2221 13.4211 23.0256 13.1635 22.9291C12.9609 22.8396 12.7243 22.8825 12.5726 23.0309L12.5229 23.0806C12.054 23.55 11.4177 23.8138 10.7542 23.8138C10.0906 23.8138 9.45434 23.55 8.98607 23.0813C8.51663 22.6123 8.25286 21.976 8.25286 21.3125C8.25286 20.649 8.51663 20.0127 8.98574 19.5441L9.02928 19.5006C9.18412 19.3423 9.22702 19.1057 9.13405 18.8949C9.049 18.6965 8.85424 18.5675 8.64167 18.5667H8.5C7.11929 18.5667 6 17.4474 6 16.0667C6 14.686 7.11929 13.5667 8.5 13.5667C8.77787 13.5617 8.97445 13.4211 9.07095 13.1635C9.16035 12.9609 9.11745 12.7243 8.96908 12.5726L8.91941 12.5229C8.44996 12.054 8.18619 11.4177 8.18619 10.7542C8.18619 10.0906 8.44996 9.45434 8.91875 8.98607C9.38767 8.51663 10.024 8.25286 10.6875 8.25286C11.351 8.25286 11.9873 8.51663 12.4559 8.98574L12.4994 9.02928C12.6577 9.18412 12.8943 9.22702 13.0969 9.13761C13.1503 9.11405 13.2058 9.09622 13.2626 9.08433C13.4087 8.98528 13.4993 8.81972 13.5 8.64167V8.5C13.5 7.11929 14.6193 6 16 6ZM16 7.66667C15.5398 7.66667 15.1667 8.03976 15.1667 8.5V8.64499C15.1631 9.52517 14.6373 10.3192 13.8283 10.6659C13.7579 10.6961 13.6838 10.7164 13.6082 10.7263C12.8206 11.0024 11.9372 10.8108 11.3274 10.2143L11.2771 10.1639C11.1208 10.0074 10.9087 9.91952 10.6875 9.91952C10.4663 9.91952 10.2542 10.0074 10.0973 10.1646C9.94078 10.3209 9.85286 10.533 9.85286 10.7542C9.85286 10.9753 9.94078 11.1874 10.0976 11.3441L10.1541 11.4006C10.7853 12.046 10.9602 13.0106 10.6154 13.7877C10.3024 14.6387 9.50101 15.2119 8.575 15.2333H8.5C8.03976 15.2333 7.66667 15.6064 7.66667 16.0667C7.66667 16.5269 8.03976 16.9 8.5 16.9L8.64499 16.9C9.52517 16.9035 10.3192 17.4294 10.6624 18.2302C11.0269 19.0561 10.852 20.0207 10.2143 20.6726L10.1639 20.7229C10.0074 20.8792 9.91952 21.0913 9.91952 21.3125C9.91952 21.5337 10.0074 21.7458 10.1646 21.9027C10.3209 22.0592 10.533 22.1471 10.7542 22.1471C10.9753 22.1471 11.1874 22.0592 11.3441 21.9024L11.4006 21.8459C12.046 21.2147 13.0106 21.0398 13.7877 21.3846C14.6387 21.6976 15.2119 22.499 15.2333 23.425V23.5C15.2333 23.9602 15.6064 24.3333 16.0667 24.3333C16.5269 24.3333 16.9 23.9602 16.9 23.5L16.9 23.355C16.9035 22.4748 17.4294 21.6808 18.2302 21.3376C19.0561 20.9731 20.0207 21.148 20.6726 21.7857L20.7229 21.8361C20.8792 21.9926 21.0913 22.0805 21.3125 22.0805C21.5337 22.0805 21.7458 21.9926 21.9027 21.8354C22.0592 21.6791 22.1471 21.467 22.1471 21.2458C22.1471 21.0247 22.0592 20.8126 21.9024 20.6559L21.8459 20.5994C21.2147 19.954 21.0398 18.9894 21.4043 18.1635C21.7474 17.3627 22.5415 16.8369 23.425 16.8333H23.5C23.9602 16.8333 24.3333 16.4602 24.3333 16C24.3333 15.5398 23.9602 15.1667 23.5 15.1667H23.355C22.4748 15.1631 21.6808 14.6373 21.3341 13.8283C21.3039 13.7579 21.2836 13.6838 21.2737 13.6082C20.9976 12.8206 21.1892 11.9372 21.7857 11.3274L21.8361 11.2771C21.9926 11.1208 22.0805 10.9087 22.0805 10.6875C22.0805 10.4663 21.9926 10.2542 21.8354 10.0973C21.6791 9.94078 21.467 9.85286 21.2458 9.85286C21.0247 9.85286 20.8126 9.94078 20.6559 10.0976L20.5994 10.1541C19.954 10.7853 18.9894 10.9602 18.1717 10.5993C17.3627 10.2526 16.8369 9.4585 16.8333 8.575V8.5C16.8333 8.03976 16.4602 7.66667 16 7.66667ZM16 12.6667C17.8409 12.6667 19.3333 14.1591 19.3333 16C19.3333 17.8409 17.8409 19.3333 16 19.3333C14.1591 19.3333 12.6667 17.8409 12.6667 16C12.6667 14.1591 14.1591 12.6667 16 12.6667ZM16 17.6667C16.9205 17.6667 17.6667 16.9205 17.6667 16C17.6667 15.0795 16.9205 14.3333 16 14.3333C15.0795 14.3333 14.3333 15.0795 14.3333 16C14.3333 16.9205 15.0795 17.6667 16 17.6667Z" fill="#26A581"/>
</g>
</svg>
