<!-- Generated by IcoMoon.io -->
<svg
  version="1.1"
  xmlns="http://www.w3.org/2000/svg"
  width="24"
  height="24"
  viewBox="0 0 24 24"
>
<title>share1</title>
<path
    d="M22.9 0.256c3.162 0 5.725 2.563 5.725 5.725s-2.563 5.725-5.725 5.725c-1.591 0-3.030-0.649-4.067-1.696l-7.598 4.432c0.14 0.495 0.214 1.018 0.214 1.558s-0.075 1.061-0.214 1.556l7.602 4.428c1.037-1.044 2.474-1.69 4.062-1.69 3.162 0 5.725 2.563 5.725 5.725s-2.563 5.725-5.725 5.725c-3.162 0-5.725-2.563-5.725-5.725 0-0.542 0.075-1.066 0.216-1.563l-7.599-4.426c-1.037 1.047-2.477 1.696-4.067 1.696-3.162 0-5.725-2.563-5.725-5.725s2.563-5.725 5.725-5.725c1.591 0 3.030 0.649 4.067 1.696l7.598-4.432c-0.14-0.495-0.214-1.018-0.214-1.558 0-3.162 2.563-5.725 5.725-5.725zM22.9 23.156c-1.003 0-1.885 0.516-2.396 1.296l-0.060 0.126c-0.024 0.042-0.050 0.082-0.078 0.12-0.211 0.392-0.328 0.842-0.328 1.32 0 1.581 1.282 2.863 2.863 2.863s2.863-1.282 2.863-2.863c0-1.581-1.282-2.863-2.863-2.863zM5.725 13.137c-1.581 0-2.863 1.282-2.863 2.863s1.282 2.863 2.863 2.863c1.044 0 1.958-0.559 2.458-1.394l0.013-0.028c0.005-0.008 0.010-0.016 0.015-0.024 0.241-0.416 0.378-0.9 0.378-1.416 0-0.518-0.137-1.003-0.378-1.422l-0.014-0.018c-0.004-0.008-0.009-0.015-0.013-0.023-0.496-0.839-1.412-1.4-2.458-1.4zM22.9 3.119c-1.581 0-2.863 1.282-2.863 2.863 0 0.518 0.137 1.003 0.378 1.422l0.014 0.018c0.004 0.008 0.009 0.015 0.013 0.023 0.496 0.839 1.412 1.4 2.458 1.4 1.581 0 2.863-1.282 2.863-2.863s-1.282-2.863-2.863-2.863z"
    fill="white" transform="scale(0.5) translate(7 7)"
  />
</svg>
