<svg width="24" height="24" viewBox="0 0 24 24" fill="none" xmlns="http://www.w3.org/2000/svg">
<path fill-rule="evenodd" clip-rule="evenodd" d="M22 13C26.9706 13 31 17.0294 31 22C31 26.9706 26.9706 31 22 31C17.0294 31 13 26.9706 13 22C13 17.0294 17.0294 13 22 13ZM22 14.6364C17.9332 14.6364 14.6364 17.9332 14.6364 22C14.6364 26.0668 17.9332 29.3636 22 29.3636C26.0668 29.3636 29.3636 26.0668 29.3636 22C29.3636 17.9332 26.0668 14.6364 22 14.6364ZM22.0001 23C22.5524 23 23 22.5522 23 21.9999V19C23 18.4477 22.5524 18 22.0001 18C21.4476 18 21 18.4477 21 19V21.9999C21 22.5522 21.4476 23 22.0001 23ZM22.0001 24C21.4476 24 21 24.4477 21 25C21 25.5522 21.4476 26 22.0001 26C22.5524 26 23 25.5522 23 25C23 24.4477 22.5524 24 22.0001 24Z" fill="white" transform="translate(-10, -10)"/>
</svg>
