<svg xmlns="http://www.w3.org/2000/svg" viewBox="0 0 16 16">
    <path d="M 2.5 1 C 1.6774686 1 1 1.6774686 1 2.5 L 1 10.5 C 1 11.322531 1.6774686 12 2.5 12 L 4 12 L 4 14.433594 L 7.6523438 12 L 12.5 12 C 13.322531 12 14 11.322531 14 10.5 L 14 2.5 C 14 1.6774686 13.322531 1 12.5 1 L 2.5 1 z M 2.5 2 L 12.5 2 C 12.781469 2 13 2.2185314 13 2.5 L 13 10.5 C 13 10.781469 12.781469 11 12.5 11 L 7.3476562 11 L 5 12.566406 L 5 11 L 2.5 11 C 2.2185314 11 2 10.781469 2 10.5 L 2 2.5 C 2 2.2185314 2.2185314 2 2.5 2 z M 4.5 6 A 0.5 0.5 0 0 0 4 6.5 A 0.5 0.5 0 0 0 4.5 7 A 0.5 0.5 0 0 0 5 6.5 A 0.5 0.5 0 0 0 4.5 6 z M 7.5 6 A 0.5 0.5 0 0 0 7 6.5 A 0.5 0.5 0 0 0 7.5 7 A 0.5 0.5 0 0 0 8 6.5 A 0.5 0.5 0 0 0 7.5 6 z M 10.5 6 A 0.5 0.5 0 0 0 10 6.5 A 0.5 0.5 0 0 0 10.5 7 A 0.5 0.5 0 0 0 11 6.5 A 0.5 0.5 0 0 0 10.5 6 z" fill="#26a581" font-weight="400" font-family="sans-serif" white-space="normal" overflow="visible"/>
</svg>
