<?xml version="1.0" encoding="UTF-8"?>
<svg width="24px" height="24px" viewBox="0 0 24 24" version="1.1" xmlns="http://www.w3.org/2000/svg" xmlns:xlink="http://www.w3.org/1999/xlink">
    <title>02.Icons/Supprimer</title>
    <defs>
        <path d="M13.6,3 C14.9254834,3 16,4.0745166 16,5.4 L16,5.4 L16,6.2 L19.2,6.2 C19.607841,6.2 19.9444016,6.50518815 19.9937669,6.8996497 L20,7 C20,7.4418278 19.6418278,7.8 19.2,7.8 L19.2,7.8 L18.4,7.8 L18.4,18.2 C18.4,19.4702549 17.413161,20.5100212 16.1643187,20.5944631 L16,20.6 L8,20.6 C6.6745166,20.6 5.6,19.5254834 5.6,18.2 L5.6,18.2 L5.599,7.8 L4.8,7.8 C4.39215895,7.8 4.05559842,7.49481185 4.00623314,7.1003503 L4,7 C4,6.5581722 4.3581722,6.2 4.8,6.2 L4.8,6.2 L8,6.2 L8,5.4 C8,4.12974508 8.98683903,3.08997876 10.2356813,3.00553687 L10.4,3 Z M16.8,7.8 L7.199,7.8 L7.2,18.2 C7.2,18.607841 7.50518815,18.9444016 7.8996497,18.9937669 L8,19 L16,19 C16.4418278,19 16.8,18.6418278 16.8,18.2 L16.8,18.2 L16.8,7.8 Z M10.4,10.2 C10.8418278,10.2 11.2,10.5581722 11.2,11 L11.2,11 L11.2,15.8 C11.2,16.2418278 10.8418278,16.6 10.4,16.6 C9.9581722,16.6 9.6,16.2418278 9.6,15.8 L9.6,15.8 L9.6,11 C9.6,10.5581722 9.9581722,10.2 10.4,10.2 Z M13.6,10.2 C14.0418278,10.2 14.4,10.5581722 14.4,11 L14.4,11 L14.4,15.8 C14.4,16.2418278 14.0418278,16.6 13.6,16.6 C13.1581722,16.6 12.8,16.2418278 12.8,15.8 L12.8,15.8 L12.8,11 C12.8,10.5581722 13.1581722,10.2 13.6,10.2 Z M13.6,4.6 L10.4,4.6 C9.9581722,4.6 9.6,4.9581722 9.6,5.4 L9.6,5.4 L9.6,6.2 L14.4,6.2 L14.4,5.4 C14.4,4.99215895 14.0948119,4.65559842 13.7003503,4.60623314 L13.6,4.6 Z" id="path-1"></path>
    </defs>
    <g id="02.Icons/Supprimer" stroke="none" stroke-width="1" fill="none" fill-rule="evenodd">
        <mask id="mask-2" fill="white">
            <use xlink:href="#path-1"></use>
        </mask>
        <use id="Combined-Shape" fill="#091625" xlink:href="#path-1"></use>
    </g>
</svg>