<svg width="32" height="32" viewBox="0 0 32 32" fill="none" xmlns="http://www.w3.org/2000/svg">
<rect width="32" height="32" rx="16" fill="#E3F5EF"/>
<path d="M22.88 18.8165L22.8545 18.7232C22.7697 18.422 22.6424 17.9724 22.1928 17.9045L17.7769 17.2088C17.6685 17.1907 17.5572 17.2002 17.4533 17.2365C17.3495 17.2729 17.2566 17.3348 17.1831 17.4167C16.9909 17.6238 16.8282 17.8565 16.6995 18.1081C15.4845 17.4878 14.4971 16.4989 13.8786 15.283C14.2477 15.0921 14.8076 14.7994 14.7694 14.2183L14.0907 9.8024C14.0186 9.34851 13.5689 9.22125 13.272 9.13641L13.1744 9.10672C12.6124 8.96099 12.022 8.96457 11.4618 9.11709C10.9016 9.26961 10.3909 9.56579 9.98027 9.97632C9.66876 10.284 9.42166 10.6506 9.25342 11.0548C9.08518 11.4591 8.99916 11.8928 9.00038 12.3306C8.98839 13.7297 9.2587 15.1169 9.79514 16.4092C10.3316 17.7014 11.1231 18.8722 12.1224 19.8515C14.0505 21.828 16.6832 22.9598 19.444 22.9991H19.6307C20.1399 23.0114 20.6447 22.9024 21.1035 22.6812C21.5623 22.4599 21.9618 22.1326 22.2692 21.7265C22.5958 21.3254 22.8217 20.8519 22.928 20.3457C23.0343 19.8394 23.0178 19.3151 22.88 18.8165ZM13.0684 14.1886C12.7375 14.3073 12.1818 14.5152 12.3939 15.1515C12.7785 16.1643 13.3725 17.0845 14.1371 17.852C14.9017 18.6195 15.8197 19.2171 16.831 19.6055C16.9195 19.6392 17.0143 19.6532 17.1088 19.6466C17.2033 19.64 17.2952 19.613 17.3782 19.5673C17.462 19.5258 17.5355 19.4662 17.5934 19.3929C17.6513 19.3195 17.6923 19.2342 17.7133 19.1431C17.7633 18.94 17.8464 18.7466 17.9593 18.5705L21.6032 19.1474C21.675 19.4453 21.6783 19.7556 21.613 20.055C21.5476 20.3544 21.4152 20.635 21.2258 20.8759C21.0364 21.1168 20.7948 21.3116 20.5192 21.4457C20.2437 21.5798 19.9414 21.6497 19.6349 21.6501C18.4132 21.6553 17.2026 21.418 16.0732 20.952C14.9439 20.486 13.9182 19.8005 13.0557 18.9353C12.1867 18.0706 11.4985 17.0418 11.0309 15.9086C10.5634 14.7755 10.3259 13.5606 10.3323 12.3348C10.3316 11.8023 10.5421 11.2913 10.9177 10.9138C11.1027 10.7275 11.3228 10.5798 11.5653 10.4793C11.8078 10.3788 12.0678 10.3275 12.3303 10.3284C12.4949 10.33 12.6586 10.3514 12.8181 10.392L13.395 14.0401C13.2908 14.0993 13.1815 14.149 13.0684 14.1886Z" fill="#26A581"/>
</svg>
