<svg width="32" height="32" viewBox="0 0 32 32" fill="none" xmlns="http://www.w3.org/2000/svg">
<rect width="32" height="32" rx="16" fill="#E3F5EF"/>
<path d="M16 24C20.4129 24 24 20.4129 24 16C24 11.5871 20.4129 8 16 8C11.5871 8 8 11.5871 8 16C8 20.4129 11.5871 24 16 24ZM9.80645 19.1871L13.0581 19.1613C13.4194 20.4645 14.0258 21.729 14.8516 22.8645C12.6452 22.5032 10.8 21.0968 9.80645 19.1871ZM13.8839 13.8065H17.9355C18.2323 15.2258 18.2323 16.6839 17.9613 18.1032L13.8839 18.129C13.5871 16.6968 13.5871 15.2258 13.8839 13.8065ZM15.9097 22.5677C15.0968 21.5226 14.5032 20.3742 14.1419 19.1613L17.6903 19.1355C17.3161 20.3484 16.7226 21.5097 15.9097 22.5677ZM16.9419 22.9032C17.7935 21.7419 18.4 20.4645 18.7613 19.1226L22.2323 19.0968C21.2258 21.1226 19.2645 22.5806 16.9419 22.9032ZM22.9677 16C22.9677 16.7226 22.8516 17.4194 22.6581 18.0645L19.0065 18.0903C19.2645 16.671 19.2516 15.2258 18.9806 13.8065H22.6065C22.8387 14.4903 22.9677 15.2387 22.9677 16ZM22.1677 12.7742H18.7355C18.3613 11.4839 17.7677 10.2323 16.9419 9.09677C19.2258 9.40645 21.1484 10.8129 22.1677 12.7742ZM17.6645 12.7742H14.1548C14.529 11.5871 15.1097 10.4645 15.9097 9.43226C16.7097 10.4645 17.2903 11.5871 17.6645 12.7742ZM14.8516 9.13548C14.0387 10.2581 13.4452 11.4839 13.0839 12.7742H9.83226C10.8258 10.8774 12.6581 9.49677 14.8516 9.13548ZM12.8387 13.8065C12.5677 15.2387 12.5677 16.6968 12.8258 18.129L9.38065 18.1548C9.14839 17.471 9.03226 16.7484 9.03226 16C9.03226 15.2387 9.16129 14.4903 9.39355 13.8065H12.8387Z" fill="#1C7B66"/>
</svg>
