<?xml version="1.0" encoding="UTF-8" standalone="no"?>
<svg
   xmlns:dc="http://purl.org/dc/elements/1.1/"
   xmlns:cc="http://creativecommons.org/ns#"
   xmlns:rdf="http://www.w3.org/1999/02/22-rdf-syntax-ns#"
   xmlns:svg="http://www.w3.org/2000/svg"
   xmlns="http://www.w3.org/2000/svg"
   xmlns:sodipodi="http://sodipodi.sourceforge.net/DTD/sodipodi-0.dtd"
   xmlns:inkscape="http://www.inkscape.org/namespaces/inkscape"
   viewBox="0 0 600 600"
   height="1024"
   width="1024"
   xml:space="preserve"
   version="1.1"
   id="svg2"
   inkscape:version="0.92.5 (2060ec1f9f, 2020-04-08)"
   sodipodi:docname="logo.svg">
	<sodipodi:namedview
   pagecolor="#ffffff"
   bordercolor="#666666"
   borderopacity="1"
   objecttolerance="10"
   gridtolerance="10"
   guidetolerance="10"
   inkscape:pageopacity="0"
   inkscape:pageshadow="2"
   inkscape:window-width="1920"
   inkscape:window-height="1017"
   id="namedview129"
   showgrid="false"
   inkscape:zoom="0.5995174"
   inkscape:cx="277.72339"
   inkscape:cy="573.79485"
   inkscape:window-x="1912"
   inkscape:window-y="-8"
   inkscape:window-maximized="1"
   inkscape:current-layer="svg2"
   inkscape:pagecheckerboard="0" />
	<metadata
   id="metadata8">
		<rdf:RDF>
			<cc:Work
   rdf:about="">
				<dc:format>image/svg+xml</dc:format>
				<dc:type
   rdf:resource="http://purl.org/dc/dcmitype/StillImage" />
				<dc:title />
			</cc:Work>
		</rdf:RDF>
	</metadata>
	<defs
   id="defs6" />
	<g
   id="g16917"
   transform="matrix(6.7632305,0,0,-6.7722934,-3322.0219,838.39899)">
		<g
   id="g16910">
			<path
   inkscape:connector-curvature="0"
   d="m 504.795,66.513 h 5.446 V 94.37 h -5.446 z"
   style="fill:#676c70;fill-opacity:1;fill-rule:nonzero;stroke:none"
   id="path11666" />
			<path
   inkscape:connector-curvature="0"
   id="path11670"
   style="fill:#676c70;fill-opacity:1;fill-rule:nonzero;stroke:none"
   d="m 563.1384,94.3693 v -16.688 c -0.919,1.02 -15.878,17.618 -15.878,17.618 h -0.832 v -28.787 h 5.058 v 16.462 c 0.921,-1.01 15.843,-17.391 15.843,-17.391 h 0.869 v 28.786 z" />
			<g
   id="g16906">
				<path
   inkscape:connector-curvature="0"
   d="m 534.9186,74.5642 -0.289,0.011 v -2.896 c -1.815,-0.688 -3.203,-0.962 -4.877,-0.962 -5.955,0 -9.802,3.985 -9.802,10.151 0,5.852 3.623,9.491 9.453,9.491 3.297,0 6.017,-1.221 8.084,-3.625 l 0.451,-0.522 0.4,6.345 -0.124,0.091 c -0.877,0.639 -1.289,0.843 -2.338,1.31 -2.185,0.953 -4.04,1.341 -6.396,1.341 -4.236,0 -8.061,-1.472 -10.77,-4.146 -2.712,-2.675 -4.204,-6.452 -4.204,-10.634 0,-8.656 6.166,-14.936 14.665,-14.936 2.129,0 4.535,0.371 6.597,1.02 1.442,0.44 2.25,0.771 4.11,1.684 l 0.157,0.075 v 7.047 l -0.374,-0.135 c -1.483,-0.525 -3.077,-0.764 -4.743,-0.71"
   style="fill:#676c70;fill-opacity:1;fill-rule:nonzero;stroke:none"
   id="path11674" />
				<path
   inkscape:connector-curvature="0"
   d="m 533.8509,83.5074 c -0.012,0.005 -0.027,0.007 -0.038,0.012 -3.469,0.9 -6.995,0.389 -9.6,-1.332 1.444,-2.757 4.269,-4.902 7.729,-5.801 0.01,-0.002 0.028,-0.007 0.028,-0.007 3.47,-0.899 6.991,-0.389 9.595,1.33 -1.438,2.756 -4.257,4.902 -7.714,5.798"
   style="fill:#80cc28;fill-opacity:1;fill-rule:nonzero;stroke:none"
   id="path11678" />
			</g>
		</g>
	</g>
</svg>