<svg width="2048" height="2048" viewBox="0 0 240 240" fill="none" xmlns="http://www.w3.org/2000/svg">
<rect width="240" height="240" fill="white"/>
<path d="M131.277 161.811C128.179 161.811 123.842 161.042 120.917 159.58C119.034 158.638 117.621 157.82 116.456 157.176C112.59 154.945 111.772 154.499 104.039 155.838C102.032 156.185 80.123 150.807 78.6112 147.882C78.0908 146.866 78.7847 145.85 79.9248 144.214C80.7179 143.074 81.7092 141.637 82.2297 140.249C83.9893 135.589 84.832 129.939 85.1046 128.08L85.1542 127.782C86.0464 121.785 85.5011 106.766 85.3276 105.651C85.1294 105.006 85.5011 104.362 86.1455 104.139C86.8147 103.94 87.5086 104.337 87.7069 105.006C88.0291 106.072 88.5247 121.958 87.6077 128.154L87.5582 128.452C87.2608 130.385 86.4181 136.234 84.5346 141.116C83.8902 142.777 82.8245 144.363 81.957 145.602C81.6596 146.023 81.2879 146.569 81.0648 146.94C83.8654 148.774 101.586 153.681 103.593 153.384C111.871 151.947 113.333 152.541 117.67 155.02C118.786 155.664 120.149 156.457 122.008 157.374C125.552 159.134 131.029 159.53 132.838 159.258C132.64 158.39 132.268 157.102 131.896 155.862C130.979 152.864 130.385 150.782 130.533 149.543C130.682 148.155 132.243 147.709 134.424 147.114C135.416 146.841 136.531 146.544 137.423 146.147C139.084 145.428 140.323 144.462 141.141 143.842C141.735 143.371 142.058 143.124 142.454 143.024C143.024 142.876 143.52 142.975 150.633 145.081C156.16 146.717 166.47 149.766 168.155 149.518C170.336 149.22 180.869 137.473 182.059 134.697C181.637 134.524 180.547 134.424 179.853 134.375C179.134 134.325 178.391 134.251 177.746 134.127C176.358 133.854 176.111 132.318 175.863 130.533C175.714 129.493 175.516 128.328 175.144 127.435C174.475 125.849 173.36 124.585 172.641 123.743C171.972 122.974 171.6 122.553 171.6 121.909C171.6 120.818 172.666 119.703 174.946 117.596C175.218 117.348 175.466 117.101 175.664 116.902C175.937 114.845 173.558 103.693 172.715 100.768C172.12 100.818 171.104 101.041 170.361 101.189C167.734 101.735 166.073 102.032 165.082 101.264C164.685 100.966 164.462 100.496 164.437 99.9998C164.338 97.7197 172.418 84.163 174.029 82.7999C174.673 82.2547 175.541 81.0898 176.358 79.9498C177.325 78.6362 178.341 77.2483 179.332 76.3561C179.977 75.7613 180.051 75.0674 180.175 72.9112C180.274 71.4489 180.373 69.4415 180.869 66.7152C181.489 63.3446 182.852 59.8006 183.769 57.4461C183.967 56.9504 184.165 56.43 184.314 56.0087C182.43 55.0669 176.581 52.7868 171.377 50.7297C165.652 48.4744 159.158 45.9465 154.003 43.7407C152.888 43.2698 152.194 41.8571 151.451 40.3701C151.153 39.7753 150.707 38.8583 150.484 38.66C150.187 38.6105 149.096 39.1557 148.601 39.4035C147.485 39.924 146.519 40.3453 145.701 39.7257C143.743 38.2883 140.125 34.8681 136.283 31.2249C132.417 27.5569 127.113 22.5506 125.998 22.1293C123.718 21.3114 117.249 21.4353 116.382 22.3523C116.035 23.418 116.283 31.448 116.357 34.075C116.382 35.0664 116.406 35.7851 116.406 36.1073C116.406 37.6439 114.548 38.8831 104.089 42.7989C103.246 43.1211 102.602 43.3442 102.329 43.4681C101.611 43.9638 100.718 47.9787 100.718 49.0196C100.718 49.3418 100.594 49.9862 99.7766 50.4571C98.2152 51.3741 93.1841 52.0185 90.0118 50.2588C89.1196 49.7632 88.1778 49.3666 87.2855 48.9701C85.2037 48.0531 83.221 47.1856 82.1305 45.5003C81.4862 44.4842 81.8083 43.0468 82.1305 41.6341C82.2049 41.2623 82.3288 40.7171 82.3784 40.4197C81.164 39.2548 78.0412 38.9822 76.2816 39.6514C76.0585 39.7257 75.3646 40.0231 75.3893 40.3949C75.4389 41.411 76.8268 46.9874 77.9421 51.498C79.4539 57.57 80.0735 60.098 80.0735 60.7919C80.0735 61.9815 80.0735 63.3199 67.2107 63.3199C66.145 63.3199 65.1041 62.6011 64.1127 61.8824C63.6914 61.585 63.0222 61.1141 62.7744 61.0645C61.3369 61.0893 49.1681 62.9977 46.6402 64.1873C46.8137 64.336 47.0119 64.4847 47.1854 64.5838C48.1768 65.3273 49.5647 66.3187 49.5647 68.0288C49.5647 68.7227 49.0194 69.268 48.3255 69.268C47.6315 69.268 47.0863 68.7227 47.0863 68.0288C47.0863 67.5827 46.3428 67.0126 45.7232 66.5913C44.9053 65.9965 44.0379 65.3769 43.9387 64.336C43.8892 63.9395 43.9635 63.3447 44.484 62.7003C46.3923 60.4945 62.7001 58.5614 62.8488 58.5614C63.7658 58.5614 64.6332 59.181 65.5502 59.8501C66.0211 60.1723 66.8885 60.8167 67.2107 60.8167C72.7623 60.8167 76.2072 60.5193 77.496 60.1971C77.1986 58.7349 76.3063 55.0917 75.5381 52.068C74.0015 45.8473 72.9853 41.6589 72.911 40.5188C72.8366 39.1061 73.7288 37.9413 75.3893 37.3217C78.1651 36.256 82.6262 36.7517 84.4602 39.0318C85.0798 39.8001 84.832 40.841 84.5346 42.1545C84.4106 42.7493 84.138 43.8646 84.2371 44.1868C84.8815 45.2029 86.4429 45.8721 88.2521 46.6652C89.2187 47.0865 90.21 47.5326 91.1766 48.0531C93.4319 49.2923 97.1247 48.8709 98.2648 48.4C98.463 46.7395 99.1818 42.0554 101.313 41.1384C101.611 41.0145 102.28 40.7666 103.172 40.4197C109.417 38.09 113.011 36.5038 113.879 35.7108C113.879 35.339 113.854 34.769 113.829 34.075C113.581 25.6485 113.655 22.278 114.102 21.2123C115.39 18.1886 124.61 18.9321 126.791 19.7252C128.204 20.2457 131.425 23.195 137.919 29.3413C141.314 32.5632 144.833 35.8842 146.767 37.3713C146.99 37.2721 147.287 37.1482 147.51 37.0491C148.749 36.4791 150.286 35.7603 151.599 36.3799C152.442 36.7765 152.963 37.8422 153.632 39.1557C153.979 39.8496 154.623 41.1384 154.97 41.3615C160.051 43.5424 166.544 46.0704 172.244 48.3257C186.074 53.7533 186.52 54.0507 186.842 54.8934C187.09 55.513 186.892 56.0334 186.049 58.2392C185.181 60.4945 183.843 63.9147 183.273 67.0622C182.802 69.6397 182.703 71.4737 182.604 72.9608C182.455 75.2656 182.381 76.7774 180.943 78.091C180.126 78.8345 179.209 80.0985 178.292 81.3129C177.325 82.6264 176.408 83.8408 175.565 84.5843C174.45 85.5509 168.328 95.9105 167.065 99.1572C167.833 99.0828 168.998 98.8598 169.791 98.6863C172.443 98.1411 174.177 97.7941 174.772 99.2315C174.847 99.3802 179.432 116.481 177.498 118.414C177.251 118.662 176.904 118.984 176.532 119.331C175.888 119.926 174.648 121.091 174.153 121.735C174.227 121.834 174.326 121.933 174.4 122.033C175.194 122.925 176.507 124.437 177.325 126.395C177.821 127.559 178.019 128.898 178.192 130.063C178.267 130.583 178.391 131.277 178.49 131.649C178.961 131.723 179.456 131.748 179.952 131.797C181.86 131.946 184.487 132.169 184.487 134.524C184.512 137.101 171.972 151.426 168.353 151.897C166.271 152.194 159.035 150.113 149.79 147.386C146.866 146.519 143.867 145.627 142.876 145.428C142.801 145.503 142.677 145.602 142.529 145.701C141.661 146.37 140.224 147.51 138.266 148.353C137.2 148.799 136.01 149.146 134.945 149.419C134.226 149.617 133.309 149.865 132.863 150.063C132.937 151.129 133.631 153.359 134.127 155.045C134.722 156.978 135.217 158.638 135.292 159.679C135.341 160.249 135.069 160.77 134.573 161.092C134.102 161.612 132.838 161.811 131.277 161.811ZM98.3143 48.8957C98.3143 48.9453 98.2895 49.0196 98.2895 49.0692C98.2895 49.0444 98.2895 48.9949 98.3143 48.8957Z" fill="#000091"/>s
<path d="M194.55 175.169C193.608 175.169 192.84 174.45 192.047 173.682C191.7 173.36 191.328 173.013 190.907 172.666C187.338 169.791 187.164 167.263 187.016 165.404C186.966 164.809 186.941 164.313 186.792 163.917C186.049 163.719 184.909 163.273 184.686 162.033C184.19 160.571 182.505 154.177 183.025 151.277C183.397 149.295 185.727 147.436 187.065 146.643C187.387 146.444 187.685 146.122 188.007 145.775C188.626 145.081 189.469 144.164 190.832 144.338L191.452 144.437C191.526 144.462 191.625 144.462 191.7 144.486C191.923 143.842 192.245 142.231 192.418 141.19C192.84 138.935 194.327 138.514 194.946 138.439C196.632 138.241 198.466 139.53 199.036 140.843C199.556 142.033 199.556 143.049 199.531 143.768C199.531 144.561 199.531 144.809 199.878 145.156C201.688 146.965 201.588 149.195 201.514 151.376C201.489 152.219 201.44 153.111 201.514 153.979C201.861 157.597 200.894 159.53 200.25 160.819C200.027 161.265 199.829 161.686 199.829 161.885C200.126 167.387 198.961 169.146 197.896 170.708C197.573 171.179 197.276 171.625 197.053 172.17C196.706 173.434 196.161 174.772 194.996 175.094C194.872 175.144 194.699 175.169 194.55 175.169ZM187.115 161.439C187.263 161.488 187.511 161.562 187.635 161.587C187.883 161.637 188.081 161.711 188.205 161.761C188.403 161.86 188.602 162.009 188.726 162.207C189.37 163.198 189.444 164.239 189.519 165.23C189.643 166.841 189.742 168.527 192.493 170.732C192.964 171.129 193.41 171.526 193.782 171.873C193.98 172.071 194.228 172.294 194.426 172.467C194.525 172.244 194.674 171.897 194.822 171.327C195.194 170.435 195.566 169.865 195.938 169.32C196.855 167.957 197.697 166.668 197.45 162.009C197.4 161.141 197.747 160.447 198.119 159.704C198.689 158.564 199.407 157.126 199.135 154.226C199.036 153.21 199.085 152.244 199.11 151.302C199.184 149.245 199.184 147.931 198.218 146.94C197.103 145.85 197.127 144.685 197.152 143.768C197.152 143.123 197.177 142.578 196.855 141.884C196.681 141.512 195.839 140.893 195.318 140.942C195.095 140.967 194.971 141.463 194.922 141.686C194.153 145.874 193.856 147.436 191.055 146.915L190.535 146.816C190.46 146.866 190.138 147.213 189.915 147.461C189.519 147.882 189.048 148.427 188.403 148.799C187.164 149.542 185.677 150.93 185.529 151.748C185.132 153.88 186.594 159.852 187.115 161.339C187.09 161.364 187.09 161.414 187.115 161.439Z" fill="#000091"/>
<path d="M64.4844 78.2397C62.4769 78.2397 60.8164 78.9088 59.4781 80.2719C58.1398 81.6351 57.4706 83.593 57.4706 86.1209C57.4706 88.6241 58.115 90.582 59.4037 91.9203C60.6925 93.2834 62.3778 93.9526 64.4844 93.9526C65.7236 93.9526 66.7645 93.7791 67.5824 93.4321C68.4003 93.0852 69.1438 92.7134 69.7881 92.2673C70.1103 92.4408 70.383 92.6638 70.5812 92.9365C70.7795 93.2091 70.8786 93.5313 70.8786 93.903C70.8786 94.7209 70.259 95.4396 69.0446 96.0096C67.8054 96.5797 66.2936 96.8771 64.4596 96.8771C62.4274 96.8771 60.5934 96.4805 58.9824 95.7122C57.3715 94.9192 56.1075 93.7295 55.1905 92.1434C54.2735 90.5572 53.8274 88.5249 53.8274 86.1209C53.8274 83.7169 54.2983 81.7342 55.2401 80.1232C56.1819 78.5123 57.4706 77.2979 59.0816 76.48C60.6925 75.6622 62.4521 75.2656 64.3853 75.2656C66.2193 75.2656 67.7311 75.563 68.9207 76.2074C70.1103 76.827 70.7051 77.5457 70.7051 78.3388C70.7051 78.6858 70.606 79.008 70.3829 79.2806C70.1599 79.5532 69.9121 79.7515 69.5899 79.9002C68.9455 79.4541 68.2268 79.0823 67.4337 78.7601C66.6902 78.4132 65.6988 78.2397 64.4844 78.2397Z" fill="#DF0814"/>
<path d="M81.734 75.2656C84.3115 75.2656 86.3438 75.8357 87.8556 77.0005C89.3674 78.1405 90.1109 79.9745 90.1109 82.4529V92.9612C90.1109 93.6056 89.987 94.1013 89.7392 94.4483C89.4913 94.7952 89.1196 95.1174 88.5991 95.39C87.8804 95.7866 86.9386 96.1336 85.749 96.4557C84.5594 96.7779 83.2458 96.9514 81.7588 96.9514C78.983 96.9514 76.8268 96.4062 75.315 95.3157C73.8032 94.2252 73.0349 92.6391 73.0349 90.5572C73.0349 88.6489 73.6793 87.1618 74.9681 86.1457C76.2568 85.1296 78.0412 84.51 80.3213 84.3117L86.6164 83.6921V82.4529C86.6164 80.9659 86.1703 79.9002 85.2781 79.2062C84.3859 78.5123 83.1963 78.1901 81.6845 78.1901C80.47 78.1901 79.3052 78.3636 78.2147 78.7106C77.0995 79.0575 76.1329 79.4541 75.2655 79.9002C75.0176 79.7019 74.8194 79.4541 74.6211 79.1567C74.4228 78.8841 74.3237 78.5867 74.3237 78.2892C74.3237 77.521 74.745 76.9261 75.6124 76.5048C76.4055 76.0835 77.3225 75.7861 78.3882 75.563C79.4291 75.3895 80.5444 75.2656 81.734 75.2656ZM81.7588 94.0269C82.998 94.0269 84.0389 93.903 84.832 93.6552C85.6499 93.4073 86.2199 93.1595 86.5916 92.9117V86.4927L81.0896 87.0627C79.553 87.1866 78.413 87.5336 77.6695 88.0788C76.926 88.6489 76.5542 89.4419 76.5542 90.5076C76.5542 91.5981 77.0003 92.4656 77.8677 93.0851C78.76 93.7047 80.0487 94.0269 81.7588 94.0269Z" fill="#DF0814"/>
<path d="M98.339 79.652V86.6658H94.7949V79.9246C94.7949 79.2554 94.9188 78.7102 95.1667 78.3137C95.4145 77.9171 95.8358 77.5206 96.4307 77.1488C97.1989 76.6531 98.2399 76.207 99.5782 75.8353C100.917 75.4635 102.379 75.29 104.014 75.29C106.369 75.29 107.559 75.8848 107.559 77.0745C107.559 77.3719 107.509 77.6445 107.435 77.8923C107.36 78.1402 107.236 78.3632 107.088 78.5367C106.79 78.4871 106.419 78.4128 105.923 78.3632C105.452 78.3137 104.981 78.2641 104.51 78.2641C103.147 78.2641 101.957 78.4128 100.917 78.6854C99.8756 78.958 99.0329 79.2802 98.339 79.652ZM94.7949 84.6335L98.339 85.154V96.2323C98.1903 96.2819 97.9672 96.3562 97.6698 96.4306C97.3724 96.5049 97.0502 96.5297 96.7033 96.5297C96.0837 96.5297 95.6128 96.4058 95.2906 96.158C94.9684 95.9101 94.7949 95.4888 94.7949 94.9436V84.6335Z" fill="#DF0814"/>
<path d="M113.556 85.9471H110.012V69.8873C110.161 69.8377 110.384 69.7633 110.706 69.689C111.028 69.6146 111.351 69.5898 111.698 69.5898C112.317 69.5898 112.788 69.7138 113.085 69.9616C113.383 70.2094 113.556 70.6308 113.556 71.176V85.9471ZM110.012 84.6336H113.556V90.7552C113.556 91.9448 113.903 92.7627 114.572 93.2583C115.242 93.754 116.183 93.9771 117.373 93.9771C117.869 93.9771 118.439 93.8779 119.058 93.7044C119.678 93.531 120.198 93.3327 120.62 93.0849C120.793 93.2583 120.967 93.4814 121.115 93.754C121.264 94.0266 121.338 94.324 121.338 94.6958C121.338 95.3402 120.942 95.8854 120.174 96.282C119.405 96.6785 118.34 96.9016 116.976 96.9016C114.919 96.9016 113.234 96.4554 111.945 95.5385C110.657 94.6215 110.012 93.1096 110.012 90.9782V84.6336ZM111.821 79.2059V76.2815H120.818C120.917 76.4054 120.991 76.5789 121.091 76.8515C121.19 77.1241 121.214 77.3967 121.214 77.6941C121.214 78.165 121.091 78.5368 120.867 78.8094C120.62 79.082 120.297 79.2059 119.901 79.2059H111.821Z" fill="#DF0814"/>
<path d="M125.676 88.3508L125.502 85.5503L138.885 83.7411C138.761 82.1053 138.216 80.767 137.2 79.7261C136.184 78.6852 134.796 78.1647 133.036 78.1647C131.202 78.1647 129.69 78.8339 128.501 80.1474C127.311 81.461 126.716 83.3445 126.716 85.7981V86.7647C126.915 89.1191 127.708 90.9284 129.046 92.1428C130.384 93.382 132.218 93.9768 134.573 93.9768C135.812 93.9768 136.927 93.7785 137.943 93.3572C138.96 92.9358 139.753 92.4897 140.348 92.0188C140.67 92.2171 140.942 92.4649 141.116 92.7376C141.314 93.0102 141.413 93.3324 141.413 93.6794C141.413 94.2494 141.091 94.7698 140.471 95.2407C139.827 95.7364 138.984 96.1329 137.943 96.4056C136.903 96.703 135.713 96.8517 134.424 96.8517C132.144 96.8517 130.186 96.4303 128.501 95.6125C126.84 94.7946 125.552 93.5554 124.635 91.9197C123.742 90.284 123.271 88.2765 123.271 85.922C123.271 84.2367 123.519 82.7249 124.015 81.4114C124.511 80.0978 125.18 78.9826 126.047 78.0656C126.915 77.1486 127.956 76.4546 129.17 75.959C130.384 75.4633 131.698 75.2402 133.111 75.2402C134.92 75.2402 136.506 75.6368 137.869 76.3803C139.232 77.1486 140.323 78.2143 141.116 79.6022C141.909 80.9653 142.281 82.5514 142.281 84.3359C142.281 84.9802 142.132 85.4511 141.835 85.7238C141.537 85.9964 141.116 86.1699 140.595 86.2442L125.676 88.3508Z" fill="#DF0814"/>
<path d="M160.125 90.8787C160.125 92.7622 159.431 94.2492 158.043 95.315C156.655 96.3807 154.648 96.9011 152.021 96.9011C149.765 96.9011 147.931 96.5541 146.519 95.8602C145.106 95.1663 144.387 94.398 144.387 93.5801C144.387 93.2331 144.486 92.8861 144.685 92.5392C144.883 92.1922 145.156 91.9196 145.552 91.7213C146.345 92.2913 147.287 92.8118 148.353 93.2827C149.418 93.7536 150.633 94.0014 151.996 94.0014C155.069 94.0014 156.606 92.9605 156.606 90.9034C156.606 90.036 156.358 89.3421 155.837 88.7968C155.317 88.2516 154.549 87.855 153.557 87.632L149.889 86.6654C148.08 86.2193 146.766 85.5254 145.949 84.6084C145.131 83.6914 144.709 82.5265 144.709 81.1386C144.709 79.5773 145.354 78.2142 146.618 77.0493C147.882 75.8845 149.815 75.3145 152.417 75.3145C153.805 75.3145 155.019 75.4632 156.06 75.7358C157.101 76.0084 157.894 76.3802 158.489 76.851C159.059 77.3219 159.357 77.7928 159.357 78.3381C159.357 78.7346 159.257 79.0568 159.059 79.3542C158.861 79.6516 158.613 79.8747 158.291 80.0234C157.944 79.7755 157.473 79.5277 156.928 79.2551C156.383 78.9825 155.738 78.7346 154.995 78.5363C154.251 78.3381 153.433 78.2389 152.566 78.2389C151.277 78.2389 150.211 78.4868 149.418 78.9824C148.625 79.4781 148.229 80.1969 148.229 81.1139C148.229 81.7582 148.452 82.3283 148.923 82.8239C149.369 83.3196 150.112 83.6666 151.128 83.9144L154.177 84.6579C156.184 85.1288 157.696 85.8723 158.712 86.8885C159.604 87.8798 160.125 89.2181 160.125 90.8787Z" fill="#DF0814"/>
<path d="M107.212 118.537H101.065V103.32C101.338 103.271 101.734 103.196 102.304 103.122C102.85 103.048 103.395 102.998 103.94 102.998C105.105 102.998 105.923 103.196 106.443 103.618C106.964 104.014 107.212 104.782 107.212 105.923V118.537ZM101.065 110.78H107.212V127.831C106.964 127.906 106.567 127.98 106.047 128.054C105.526 128.129 104.956 128.154 104.386 128.154C103.172 128.154 102.329 127.931 101.809 127.509C101.313 127.088 101.065 126.32 101.065 125.254V110.78Z" fill="#DF0814"/>
<path d="M134.474 115.787V124.188C134.474 124.932 134.325 125.527 134.052 125.899C133.78 126.295 133.309 126.667 132.665 127.014C131.946 127.41 130.88 127.782 129.517 128.08C128.154 128.377 126.766 128.55 125.403 128.55C122.825 128.55 120.496 128.104 118.439 127.187C116.382 126.295 114.746 124.882 113.556 122.974C112.367 121.066 111.747 118.637 111.747 115.638C111.747 112.788 112.342 110.384 113.556 108.476C114.771 106.542 116.406 105.105 118.463 104.114C120.521 103.122 122.801 102.651 125.304 102.651C126.964 102.651 128.427 102.825 129.641 103.172C130.855 103.519 131.822 104.014 132.466 104.634C133.111 105.254 133.458 105.972 133.458 106.765C133.458 107.36 133.309 107.881 132.987 108.352C132.689 108.823 132.318 109.169 131.871 109.417C131.202 108.996 130.36 108.575 129.319 108.203C128.303 107.831 127.088 107.633 125.725 107.633C124.238 107.633 122.925 107.955 121.735 108.575C120.57 109.194 119.653 110.111 119.009 111.326C118.364 112.515 118.042 113.953 118.042 115.588C118.042 117.373 118.364 118.835 118.984 120.025C119.604 121.214 120.496 122.082 121.611 122.677C122.726 123.247 123.99 123.544 125.428 123.544C126.097 123.544 126.716 123.47 127.262 123.346C127.807 123.222 128.228 123.073 128.526 122.949V118.216H123.792C123.643 117.943 123.495 117.596 123.346 117.175C123.222 116.753 123.148 116.307 123.148 115.812C123.148 114.969 123.346 114.374 123.742 113.978C124.139 113.581 124.659 113.383 125.304 113.383H132.095C132.813 113.383 133.383 113.581 133.805 114.002C134.226 114.424 134.474 115.018 134.474 115.787Z" fill="#DF0814"/>
<path d="M161.091 118.81V127.088C160.744 127.41 160.249 127.683 159.629 127.881C158.985 128.08 158.241 128.179 157.399 128.179C156.482 128.179 155.639 128.03 154.821 127.733C154.028 127.435 153.384 126.766 152.863 125.75L147.981 116.456C147.683 115.861 147.386 115.266 147.113 114.672C146.841 114.077 146.543 113.482 146.296 112.862C146.023 112.268 145.75 111.648 145.478 111.028L139.579 112.367V104.411C139.901 103.965 140.397 103.593 141.091 103.37C141.785 103.147 142.528 102.998 143.321 102.998C144.214 102.998 145.056 103.147 145.849 103.445C146.642 103.742 147.287 104.386 147.807 105.378L152.739 114.696C153.037 115.266 153.334 115.836 153.632 116.456C153.929 117.076 154.202 117.67 154.474 118.265C154.747 118.86 154.995 119.455 155.242 120.074L161.091 118.81ZM139.579 110.359L145.155 110.285C145.255 111.45 145.354 112.59 145.403 113.73C145.453 114.87 145.502 115.96 145.502 117.001C145.527 118.042 145.527 119.083 145.527 120.074V127.881C145.279 127.931 144.908 128.005 144.387 128.055C143.867 128.104 143.321 128.154 142.801 128.154C141.611 128.154 140.794 127.956 140.323 127.534C139.852 127.138 139.604 126.394 139.604 125.353V110.359H139.579ZM161.091 120.744L155.466 120.793C155.267 118.835 155.168 116.952 155.143 115.167C155.119 113.383 155.094 111.698 155.094 110.087V103.296C155.366 103.246 155.763 103.172 156.259 103.098C156.779 103.023 157.3 102.974 157.87 102.974C159.034 102.974 159.852 103.172 160.323 103.593C160.819 104.015 161.042 104.733 161.042 105.749V120.744H161.091Z" fill="#DF0814"/>
<path d="M107.732 202.53C106.195 202.53 105.031 201.687 104.634 200.2C104.089 198.217 105.13 195.442 107.36 194.698C107.583 194.624 107.831 194.624 108.079 194.673C110.31 195.293 111.995 197.276 111.921 199.184C111.871 200.795 110.681 201.984 108.748 202.381C108.401 202.505 108.079 202.53 107.732 202.53ZM107.831 197.226C107.162 197.697 106.815 198.812 107.013 199.556C107.088 199.803 107.212 200.25 108.228 200.002H108.253C108.798 199.878 109.442 199.655 109.467 199.134C109.467 198.589 108.872 197.672 107.831 197.226Z" fill="#000091"/>
<path d="M150.484 200.102C150.335 200.102 150.187 200.077 150.013 200.052C148.848 199.779 146.692 199.11 145.428 197.673C144.288 196.359 144.561 195.269 144.833 194.748C145.304 193.807 146.395 193.336 147.287 193.385C145.726 191.65 145.379 188.899 145.205 187.363C143.693 186.842 141.587 185.578 141.165 184.215C140.918 183.397 140.447 181.34 141.512 179.779C141.934 179.159 142.776 178.416 144.362 178.317C146.791 178.143 148.204 179.63 149.047 180.498C149.171 180.622 149.294 180.77 149.418 180.869C152.194 180.399 153.731 181.167 154.524 181.935C155.689 183.026 155.912 184.562 155.738 185.653C155.639 186.322 155.218 186.867 154.722 187.536C154.326 188.057 153.879 188.676 153.656 189.271C153.508 189.692 153.929 190.411 154.301 191.056C154.598 191.551 154.896 192.072 155.044 192.617C155.664 194.847 153.855 196.359 152.194 197.152C152.343 198.045 152.293 198.962 151.748 199.556C151.401 199.928 150.98 200.102 150.484 200.102ZM147.287 196.012C147.312 196.037 147.287 196.037 147.287 196.012C147.783 196.582 148.625 197.053 149.691 197.4C149.641 197.177 149.592 196.954 149.542 196.781C149.468 196.582 149.468 196.384 149.493 196.161C148.923 196.434 148.154 196.434 147.287 196.012ZM146.345 185.107C146.395 185.107 146.469 185.107 146.519 185.132C147.51 185.281 147.584 186.173 147.684 186.941C147.807 188.131 148.105 190.932 149.418 191.973C150.658 192.964 150.905 194.253 150.509 195.17C151.178 194.922 152.888 194.154 152.665 193.286C152.591 193.038 152.392 192.666 152.169 192.32C151.599 191.328 150.781 189.94 151.351 188.428C151.698 187.487 152.293 186.694 152.764 186.074C152.987 185.777 153.285 185.405 153.334 185.256C153.384 184.884 153.309 184.215 152.863 183.794C152.268 183.224 151.054 183.1 149.468 183.447C149.27 183.496 149.047 183.472 148.848 183.422C148.204 183.224 147.758 182.753 147.287 182.257C146.568 181.489 145.874 180.77 144.586 180.845C143.867 180.894 143.669 181.167 143.619 181.241C143.272 181.737 143.371 182.753 143.619 183.521C143.817 183.992 145.478 184.835 146.345 185.132C146.296 185.107 146.32 185.107 146.345 185.107Z" fill="#000091"/>
<path d="M148.774 195.715C148.328 195.715 147.882 195.541 147.634 195.194C147.188 194.575 147.411 193.806 147.807 193.36C147.882 193.286 147.956 193.211 148.03 193.162C148.576 192.79 149.443 192.914 149.84 193.435C150.286 194.029 150.137 194.971 149.542 195.442C149.443 195.516 149.344 195.566 149.245 195.616C149.146 195.69 148.972 195.715 148.774 195.715ZM148.997 194.401L149.666 194.996C149.939 194.699 149.939 194.128 149.641 193.732L148.898 194.252L148.997 194.401ZM148.055 193.509C147.535 193.93 147.609 194.525 147.882 194.922L148.625 194.376L148.576 194.178L148.055 193.509Z" fill="#000091"/>
<path d="M92.1927 199.382C92.1183 199.382 92.0687 199.382 91.9944 199.382C91.0526 199.258 90.6065 198.465 90.3091 197.92C90.2347 197.771 90.086 197.499 90.0117 197.449C88.0042 195.095 87.7812 192.765 87.5829 190.534C87.4342 188.948 87.3103 187.436 86.5668 185.999C86.4676 185.825 86.4181 185.602 86.4428 185.404C86.5172 183.273 87.4094 181.587 88.8221 180.943C89.516 180.646 90.9535 180.348 92.7131 181.835C92.8866 181.934 93.2336 182.058 93.6301 182.182C94.0515 182.331 94.5223 182.48 94.9685 182.752C95.5385 182.678 96.2324 182.752 96.6042 183.471C96.6042 183.496 96.629 183.496 96.629 183.521C96.9264 183.421 97.2733 183.421 97.6451 183.57C98.2151 183.793 98.5869 184.289 98.7852 185.057L98.9338 185.627C99.1321 186.346 99.3056 187.015 98.7852 187.61C98.339 188.081 97.7938 188.081 97.3477 188.031C97.3477 188.626 97.546 189.221 97.8186 190.014C98.1903 191.055 98.5869 192.22 98.4382 193.682C98.3638 196.16 95.6872 198.242 93.6797 198.738C93.3327 199.01 92.8123 199.382 92.1927 199.382ZM88.9212 185.156C89.7391 186.916 89.8878 188.7 90.0365 190.287C90.21 192.319 90.3835 194.078 91.7218 195.665C91.9448 195.813 92.1679 196.185 92.3414 196.507C92.4901 196.408 92.6636 196.334 92.8618 196.309C93.9523 196.16 95.8854 194.698 95.935 193.459C96.0342 192.467 95.7615 191.699 95.4641 190.782C95.0428 189.543 94.5471 188.13 95.0924 186.42C95.0428 186.395 94.9685 186.346 94.9189 186.296C94.5967 186.272 94.2497 186.197 93.878 185.949C93.6053 185.751 93.4319 185.478 93.3575 185.131C93.3327 184.983 93.3327 184.809 93.3575 184.661C93.184 184.586 93.0105 184.537 92.8123 184.462C92.3166 184.314 91.7713 184.115 91.2013 183.744C90.8296 183.446 90.1852 182.951 89.8134 183.124C89.4417 183.347 89.0204 184.091 88.9212 185.156Z" fill="#000091"/>
<path d="M100.322 189.196C99.256 189.196 98.3142 188.973 97.5211 188.403C96.505 187.66 95.9845 186.445 95.9597 184.785C95.9597 184.438 96.0836 184.116 96.3315 183.893C96.6041 183.595 97.2237 182.381 97.4963 181.613C96.5793 181.018 96.3563 180.126 96.3315 179.58C96.2076 177.647 98.2398 175.54 99.7516 174.747C100.148 174.549 100.619 174.574 100.991 174.822L101.511 175.144C102.974 176.061 105.675 177.746 104.51 180.596C104.436 180.795 104.312 180.943 104.163 181.067C104.411 181.34 104.907 181.489 105.898 181.687C106.567 181.811 107.335 181.984 108.029 182.331C108.847 182.802 109.269 183.372 109.616 183.818C109.913 184.215 110.086 184.438 110.384 184.587C110.756 184.611 111.078 184.686 111.375 184.81C111.945 185.033 112.243 185.627 112.119 186.222C111.995 186.817 111.425 187.238 110.855 187.189C110.508 187.164 110.21 187.115 109.913 187.04C108.996 187.09 107.335 187.585 106.071 187.957C104.138 188.577 102.081 189.196 100.322 189.196ZM98.4629 185.157C98.5125 185.776 98.6859 186.198 98.9833 186.396C100.074 187.189 103.172 186.272 105.427 185.603C106.121 185.404 106.79 185.181 107.435 185.033C107.261 184.834 107.088 184.661 106.865 184.512C106.542 184.364 105.997 184.24 105.427 184.14C103.94 183.843 101.71 183.397 101.462 180.596C101.412 180.002 101.759 179.481 102.304 179.308C102.304 178.762 101.759 178.242 100.322 177.325C99.5286 177.945 98.7603 178.936 98.8099 179.432C98.8099 179.555 99.1568 179.679 99.2064 179.679C99.6277 179.828 100.049 180.398 100.099 180.869C100.272 181.959 99.1816 184.116 98.4629 185.157Z" fill="#000091"/>
<path d="M133.904 202.084C133.383 202.084 132.863 201.886 132.466 201.489C131.921 200.969 131.648 200.2 131.648 199.358C131.425 199.209 131.202 199.011 130.979 198.763C130.93 198.713 130.88 198.639 130.855 198.564C130.037 198.218 127.386 198.564 126.939 199.11C126.89 199.333 126.592 199.68 126.146 199.878C125.527 200.151 124.684 200.126 124.04 199.828C123.891 199.754 123.767 199.655 123.668 199.556C122.305 198.069 121.735 195.764 122.28 194.103C122.553 193.286 123.098 192.641 123.841 192.269C121.908 191.724 119.876 190.311 118.686 188.601C117.67 187.139 117.348 185.603 117.745 184.14C117.745 184.091 117.745 184.041 117.745 183.992C117.596 183.868 117.348 183.694 116.952 183.397C115.688 182.48 115.241 180.819 115.836 179.208C116.505 177.374 118.141 176.185 119.851 176.309C124.312 177.102 127.509 179.109 129.666 182.405C132.02 181.042 132.987 180.993 133.705 181.389C134.226 181.687 134.523 182.207 134.548 182.852C134.722 183.769 133.73 184.562 132.689 185.38C132.516 185.528 132.293 185.702 132.094 185.85C132.689 187.09 134.746 190.733 135.614 191.452C135.639 191.452 135.663 191.452 135.713 191.476C136.655 191.675 136.828 192.121 137.646 196.458C137.745 197.226 137.15 199.729 135.986 200.448C135.663 201.439 134.969 201.811 134.647 201.935C134.399 202.059 134.152 202.084 133.904 202.084ZM133.111 197.201C133.482 197.201 133.854 197.35 134.102 197.672C134.251 197.871 134.325 198.069 134.35 198.292C134.35 198.292 134.35 198.292 134.375 198.292C134.498 198.242 134.622 198.193 134.746 198.168C134.92 197.796 135.143 197.177 135.192 196.854C134.845 195.045 134.647 194.153 134.523 193.707C134.449 193.657 134.375 193.608 134.275 193.558C132.615 192.393 129.542 186.643 129.467 185.801C129.443 185.627 129.467 185.479 129.492 185.33C129.319 185.355 129.12 185.38 128.947 185.33C128.625 185.231 128.278 185.057 128.129 184.735C126.345 181.414 123.618 179.506 119.554 178.787C119.009 178.812 118.414 179.431 118.191 180.076C118.092 180.348 117.918 181.042 118.414 181.414C119.727 182.381 120.52 182.951 120.223 184.14C120.248 184.339 120.248 184.487 120.173 184.686C119.926 185.454 120.099 186.297 120.719 187.189C121.735 188.651 123.569 189.717 124.932 189.989C125.601 189.37 126.245 189.32 126.716 189.419C128.104 189.741 128.625 191.6 128.798 192.666C128.873 193.087 128.724 193.533 128.377 193.806C128.104 194.029 127.757 194.153 127.435 194.103C127.336 194.103 126.791 194.128 125.18 194.426C124.882 194.475 124.709 194.624 124.61 194.896C124.387 195.566 124.635 196.656 125.155 197.474C126.369 196.21 128.798 195.888 130.26 195.987C131.871 196.086 132.59 196.656 132.912 197.201C132.987 197.201 133.061 197.201 133.111 197.201ZM124.882 197.796C124.783 197.895 124.709 198.019 124.659 198.218C124.709 198.069 124.783 197.945 124.882 197.796ZM132.739 197.251C132.64 197.276 132.516 197.325 132.392 197.4C132.516 197.35 132.615 197.301 132.739 197.251Z" fill="#000091"/>
<path d="M181.612 201.118C179.258 201.118 176.978 200.721 176.061 200.374C171.104 198.49 165.429 194.872 165.156 190.808C163 188.007 162.331 186.569 162.603 185.38C162.826 184.364 163.644 183.942 164.189 183.67C164.859 183.323 165.106 183.199 164.958 182.133C164.958 182.059 164.933 181.96 164.958 181.885C165.106 179.704 166.717 179.506 167.486 179.382C168.155 179.283 168.626 179.233 169.146 178.564C169.196 178.49 169.245 178.44 169.32 178.391C171.6 176.433 178.391 177.35 181.811 179.506C184.289 181.067 184.611 182.852 184.463 184.017C186.371 187.189 187.536 188.081 188.155 188.577C189.593 189.692 189.494 190.337 189.048 193.435C188.899 194.401 188.725 195.69 188.502 197.425C188.577 198.218 188.131 199.16 187.238 199.829C185.9 200.795 183.719 201.118 181.612 201.118ZM165.057 185.999C165.156 186.346 165.553 187.263 167.387 189.593C167.56 189.816 167.659 190.114 167.634 190.411C167.535 192.691 171.55 195.963 176.953 198.02C178.465 198.614 184.091 199.011 185.727 197.797C185.999 197.598 185.999 197.474 185.999 197.326C186.222 195.343 186.42 194.029 186.569 193.038C186.743 191.799 186.891 190.832 186.842 190.609C186.842 190.659 186.743 190.584 186.619 190.51C185.826 189.891 184.388 188.775 182.083 184.859C181.91 184.562 181.86 184.24 181.959 183.918C182.034 183.62 182.282 182.703 180.497 181.588C177.424 179.68 172.145 179.432 171.03 180.2C169.914 181.538 168.626 181.712 167.833 181.836C167.709 181.861 167.56 181.861 167.461 181.885C167.461 181.885 167.461 181.91 167.461 181.935C167.758 184.636 166.147 185.454 165.354 185.851C165.255 185.925 165.156 185.975 165.057 185.999Z" fill="#000091"/>
<path d="M58.0902 208.255C57.9415 208.255 57.7928 208.231 57.6193 208.156C57.5202 208.131 57.4458 208.082 57.3467 208.008C56.9254 207.735 55.4136 207.413 54.7692 207.338C54.0257 207.338 52.3652 206.273 52.1669 205.182C52.043 204.463 52.4147 203.794 53.1087 203.546C53.2822 203.497 53.4309 203.447 53.6044 203.472C54.224 202.902 55.364 200.82 55.7605 200.102L56.1571 199.408C56.1819 199.209 56.1323 197.945 56.1075 197.425C56.0579 196.31 56.0332 195.789 56.628 195.368C57.3715 194.798 58.0406 193.757 58.0406 192.865C57.7185 192.617 55.364 189.469 54.5214 187.586C54.4718 187.511 54.4222 187.462 54.3726 187.387L54.4222 187.363C54.3974 187.288 54.3727 187.239 54.3479 187.164H54.3231C53.8274 185.578 53.3813 183.769 54.0009 182.431C54.0505 182.332 54.0009 182.208 53.8274 181.762C53.6043 181.241 53.3069 180.498 53.4061 179.556C53.9265 177.524 55.1162 176.21 56.1571 175.02C57.2724 173.806 58.2141 172.74 58.4372 171.253C58.4868 170.881 58.685 170.584 59.0072 170.386C59.3046 170.188 59.7012 170.138 60.0481 170.262C61.1386 170.609 62.2539 170.881 63.3444 171.179C67.3098 172.195 71.3743 173.236 74.2245 176.879C74.7449 177.177 75.1414 177.573 75.5132 177.92C75.6123 178.019 75.7115 178.118 75.8106 178.217C75.8106 178.217 75.8106 178.217 75.8354 178.217C77.9668 178.217 82.2048 182.827 82.2296 182.877C82.2544 182.902 84.2619 185.256 83.8158 187.189C83.8158 188.453 83.0227 189.122 82.527 189.519C82.2296 189.767 82.1305 189.866 82.1057 189.965C82.0561 190.312 81.8826 190.609 81.61 190.832C79.776 192.196 77.5703 195.69 77.3224 196.557C77.0994 197.326 74.0757 204.736 73.01 205.579C72.9357 205.653 72.8366 205.752 72.6879 205.876C71.9691 206.595 69.8873 208.677 67.8798 207.314L67.2354 207.388C65.1536 207.685 64.9305 207.611 62.13 206.595L61.6343 206.421C61.2378 206.62 60.6677 206.991 60.2712 207.239C59.1559 207.908 58.6107 208.255 58.0902 208.255ZM55.6118 204.984C56.2066 205.083 57.2724 205.281 58.115 205.653C58.3628 205.504 58.6602 205.331 58.9824 205.133C60.8164 203.993 61.6591 203.472 62.5265 204.067C62.5761 204.092 62.6009 204.141 62.6504 204.166L62.9726 204.29C65.4262 205.157 65.4262 205.157 66.8884 204.959L68.0781 204.81C68.4498 204.761 68.8464 204.885 69.0942 205.157C69.2925 205.356 69.6147 205.43 70.9034 204.141C71.1017 203.943 71.3 203.77 71.4239 203.646C71.9196 203.026 74.5714 197.078 74.8936 195.888C75.2901 194.451 77.6446 190.857 79.7264 189.122C79.9743 188.379 80.5195 187.933 80.8913 187.635C81.2878 187.313 81.2878 187.288 81.2878 187.164C81.263 186.991 81.2878 186.793 81.3622 186.644C81.4365 186.297 80.8169 185.083 80.3213 184.537C79.0821 183.125 76.7772 181.192 75.885 180.77C75.5628 180.869 75.2158 180.845 74.8936 180.671C74.4475 180.423 74.0757 180.076 73.7288 179.729C73.4314 179.432 73.1092 179.134 72.8366 179.011C72.6383 178.936 72.4896 178.788 72.3409 178.614C70.0112 175.491 66.4423 174.574 62.6504 173.608C61.9317 173.434 61.1882 173.236 60.4695 173.038C59.8994 174.549 58.8833 175.69 57.9415 176.73C56.9997 177.771 56.1075 178.763 55.7853 180.027C55.7853 180.151 55.9092 180.448 56.0827 180.894C56.3554 181.563 56.7023 182.456 56.2067 183.546C56.1075 183.744 55.9836 184.389 56.6032 186.322C56.628 186.396 56.6528 186.47 56.6528 186.545C57.2971 187.759 58.7346 190.163 59.3542 190.832C59.4038 190.832 59.4533 190.857 59.5029 190.882C59.8499 191.006 60.1225 191.279 60.2464 191.65C60.9156 193.559 59.9242 195.715 58.5115 197.028C58.5115 197.127 58.5115 197.251 58.5363 197.351C58.6355 199.16 58.6107 200.077 58.2885 200.696L57.9167 201.366C57.2476 202.605 56.4545 204.042 55.6118 204.984Z" fill="#000091"/>
</svg>
