<svg xmlns="http://www.w3.org/2000/svg" width="6.988" height="22.927" viewBox="0 0 6.988 22.927">
  <g id="Groupe_354" data-name="Groupe 354" transform="translate(-37.375 -415)">
    <path id="Tracé_169" data-name="Tracé 169" d="M11.632,39.7h-5.3a.626.626,0,0,0-.628.628v5.3a.626.626,0,0,0,.628.628h5.3a.626.626,0,0,0,.628-.628v-5.3A.675.675,0,0,0,11.632,39.7Z" transform="translate(31.788 383.257)" fill="#006ba7"/>
    <path id="Tracé_170" data-name="Tracé 170" d="M5.977,22.867h5.444a.576.576,0,0,0,.523-.314.667.667,0,0,0,0-.628L9.222,17.214A.649.649,0,0,0,8.7,16.9a.576.576,0,0,0-.523.314L5.454,21.96a.666.666,0,0,0,0,.628A.545.545,0,0,0,5.977,22.867Z" transform="translate(32 398.1)" fill="#006ba7"/>
    <path id="Tracé_171" data-name="Tracé 171" d="M8.89,62.6a3.49,3.49,0,1,0,3.49,3.49A3.5,3.5,0,0,0,8.89,62.6Z" transform="translate(31.984 368.348)" fill="#006ba7"/>
  </g>
</svg>
