<?xml version="1.0" encoding="UTF-8" standalone="no"?>
<svg
   xmlns:dc="http://purl.org/dc/elements/1.1/"
   xmlns:cc="http://creativecommons.org/ns#"
   xmlns:rdf="http://www.w3.org/1999/02/22-rdf-syntax-ns#"
   xmlns:svg="http://www.w3.org/2000/svg"
   xmlns="http://www.w3.org/2000/svg"
   xmlns:sodipodi="http://sodipodi.sourceforge.net/DTD/sodipodi-0.dtd"
   xmlns:inkscape="http://www.inkscape.org/namespaces/inkscape"
   id="baseline-my_location-24px"
   width="24"
   height="24"
   viewBox="0 0 24 24"
   version="1.1"
   sodipodi:docname="location-follow.svg"
   inkscape:version="0.92.5 (2060ec1f9f, 2020-04-08)">
  <metadata
     id="metadata9">
    <rdf:RDF>
      <cc:Work
         rdf:about="">
        <dc:format>image/svg+xml</dc:format>
        <dc:type
           rdf:resource="http://purl.org/dc/dcmitype/StillImage" />
        <dc:title />
      </cc:Work>
    </rdf:RDF>
  </metadata>
  <defs
     id="defs7" />
  <sodipodi:namedview
     pagecolor="#0b6ba7"
     bordercolor="#666666"
     borderopacity="1"
     objecttolerance="10"
     gridtolerance="10"
     guidetolerance="10"
     inkscape:pageopacity="0"
     inkscape:pageshadow="2"
     inkscape:window-width="1920"
     inkscape:window-height="1017"
     id="namedview5"
     showgrid="false"
     inkscape:pagecheckerboard="false"
     inkscape:zoom="19.666667"
     inkscape:cx="4.1400475"
     inkscape:cy="9.9596008"
     inkscape:window-x="1912"
     inkscape:window-y="-8"
     inkscape:window-maximized="1"
     inkscape:current-layer="baseline-my_location-24px" />
  <path
     id="Tracé_1"
     data-name="Tracé 1"
     d="M0,0H24V24H0Z"
     fill="none" />
  <path
     id="Tracé_2"
     data-name="Tracé 2"
     d="M12,8a4,4,0,1,0,4,4A4,4,0,0,0,12,8Zm8.94,3A8.994,8.994,0,0,0,13,3.06V1H11V3.06A8.994,8.994,0,0,0,3.06,11H1v2H3.06A8.994,8.994,0,0,0,11,20.94V23h2V20.94A8.994,8.994,0,0,0,20.94,13H23V11H20.94ZM12,19a7,7,0,1,1,7-7A6.995,6.995,0,0,1,12,19Z"
     style="fill:#ffffff;fill-opacity:1"
     fill="#fff" />
</svg>
