<?xml version="1.0" encoding="UTF-8" standalone="no"?>
<svg
   xmlns:dc="http://purl.org/dc/elements/1.1/"
   xmlns:cc="http://creativecommons.org/ns#"
   xmlns:rdf="http://www.w3.org/1999/02/22-rdf-syntax-ns#"
   xmlns:svg="http://www.w3.org/2000/svg"
   xmlns="http://www.w3.org/2000/svg"
   xmlns:sodipodi="http://sodipodi.sourceforge.net/DTD/sodipodi-0.dtd"
   xmlns:inkscape="http://www.inkscape.org/namespaces/inkscape"
   width="22"
   height="22"
   viewBox="0 0 22 22"
   version="1.1"
   id="svg4"
   sodipodi:docname="localisation.svg"
   shape-rendering="crispEdges"
   inkscape:version="0.92.5 (2060ec1f9f, 2020-04-08)">
  <metadata
     id="metadata10">
    <rdf:RDF>
      <cc:Work
         rdf:about="">
        <dc:format>image/svg+xml</dc:format>
        <dc:type
           rdf:resource="http://purl.org/dc/dcmitype/StillImage" />
        <dc:title />
      </cc:Work>
    </rdf:RDF>
  </metadata>
  <defs
     id="defs8" />
  <sodipodi:namedview
     pagecolor="#0f72ff"
     bordercolor="#666666"
     borderopacity="1"
     objecttolerance="10"
     gridtolerance="10"
     guidetolerance="10"
     inkscape:pageopacity="0"
     inkscape:pageshadow="2"
     inkscape:window-width="1920"
     inkscape:window-height="1017"
     id="namedview6"
     showgrid="false"
     inkscape:zoom="30.341309"
     inkscape:cx="10.622225"
     inkscape:cy="11.627512"
     inkscape:window-x="1912"
     inkscape:window-y="-8"
     inkscape:window-maximized="1"
     inkscape:current-layer="Groupe_353" />
  <g
     id="Groupe_353"
     data-name="Groupe 353"
     transform="translate(916 -868)">
    <path
       id="Tracé_2"
       data-name="Tracé 2"
       d="M20.94,11A8.994,8.994,0,0,0,13,3.06V1H11V3.06A8.994,8.994,0,0,0,3.06,11H1v2H3.06A8.994,8.994,0,0,0,11,20.94V23h2V20.94A8.994,8.994,0,0,0,20.94,13H23V11H20.94ZM12,19a7,7,0,1,1,7-7A6.995,6.995,0,0,1,12,19Z"
       transform="translate(-917 867)"
       fill="#fff"
       style="fill:#ffffff;fill-opacity:0.59615386" />
  </g>
</svg>
