<svg xmlns="http://www.w3.org/2000/svg" width="252" height="55.968" viewBox="0 0 252 55.968">
  <g id="logo-geoportail" transform="translate(0.022 0.185)">
    <g id="Groupe_352" data-name="Groupe 352" transform="translate(111.306 5.893)">
      <path id="Tracé_159" data-name="Tracé 159" d="M83.922,13.459h3.249v4.672h.113a8.348,8.348,0,0,1,3.979-3.959,13.663,13.663,0,0,1,6.329-1.43A14.952,14.952,0,0,1,103.3,13.79a12.361,12.361,0,0,1,4.09,2.862A12.337,12.337,0,0,1,109.8,20.8a18.15,18.15,0,0,1,.785,4.96,16.315,16.315,0,0,1-.785,5.005,12.324,12.324,0,0,1-2.408,4.148,11.581,11.581,0,0,1-4.09,2.814,14.945,14.945,0,0,1-5.716,1,13.682,13.682,0,0,1-3.135-.334,9.825,9.825,0,0,1-2.914-1,8.9,8.9,0,0,1-2.408-1.668,6.517,6.517,0,0,1-1.568-2.337h-.111V47.122h-3.53Zm23.137,12.3a14.681,14.681,0,0,0-.56-3.766,8.871,8.871,0,0,0-8.91-6.725,12.056,12.056,0,0,0-4.875.859,7.99,7.99,0,0,0-3.137,2.289A8.9,8.9,0,0,0,87.9,21.754a15.732,15.732,0,0,0-.448,4.005,14.567,14.567,0,0,0,.5,3.814,9.013,9.013,0,0,0,1.737,3.339,8.683,8.683,0,0,0,3.137,2.432,10.894,10.894,0,0,0,4.761.906,9.377,9.377,0,0,0,4.313-.906,9.268,9.268,0,0,0,4.593-5.77,14.615,14.615,0,0,0,.56-3.813Zm21.233-10.395a10.559,10.559,0,0,0-4.426.906,10.033,10.033,0,0,0-3.192,2.385,11.061,11.061,0,0,0-2.521,7.2,11.219,11.219,0,0,0,.617,3.862,10.316,10.316,0,0,0,1.9,3.337,8.771,8.771,0,0,0,3.194,2.385,9.874,9.874,0,0,0,4.427.906,10.03,10.03,0,0,0,4.426-.906,9.056,9.056,0,0,0,3.138-2.385,10.277,10.277,0,0,0,1.906-3.338,12.832,12.832,0,0,0,.672-3.863,11.245,11.245,0,0,0-.672-3.814,11.019,11.019,0,0,0-1.9-3.385,10.364,10.364,0,0,0-3.137-2.385,11.6,11.6,0,0,0-4.426-.906Zm0-2.526a15.767,15.767,0,0,1,5.826,1.048,14.07,14.07,0,0,1,4.316,2.814,12.886,12.886,0,0,1,2.633,4.148,14.567,14.567,0,0,1,0,10.059,12.158,12.158,0,0,1-2.634,4.1,12.5,12.5,0,0,1-4.314,2.814,17.608,17.608,0,0,1-11.707,0,11.746,11.746,0,0,1-4.257-2.814,10.667,10.667,0,0,1-2.634-4.1,13.65,13.65,0,0,1-.9-5.053,13.584,13.584,0,0,1,.9-5.008,11.219,11.219,0,0,1,2.633-4.148,13.1,13.1,0,0,1,4.257-2.812,15.809,15.809,0,0,1,5.883-1.05Zm18.936.621h3.249v5.769h.111a9.751,9.751,0,0,1,4.146-4.626,12.824,12.824,0,0,1,6.78-1.479v3a12.59,12.59,0,0,0-4.37.573,10.446,10.446,0,0,0-3.418,1.812,8.252,8.252,0,0,0-2.186,2.861,7.714,7.714,0,0,0-.782,3.577V38.061h-3.53v-24.6Zm23.249,0h5.883v2.526h-5.883V32.579a4.6,4.6,0,0,0,.448,2.334c.336.57,1.121.859,2.41.907q1.512,0,3.026-.141v2.526c-.561,0-1.065.046-1.569.046-.562.048-1.066.048-1.57.048-2.353,0-4.032-.381-4.93-1.143-.955-.763-1.4-2.241-1.346-4.339V15.988H161.9V13.459h5.042V6.065h3.528v7.391Zm10.7,7.628a8.554,8.554,0,0,1,1.065-3.72,7.152,7.152,0,0,1,2.41-2.573,11.4,11.4,0,0,1,3.64-1.48,22.333,22.333,0,0,1,4.593-.475,26.53,26.53,0,0,1,3.81.332,10.112,10.112,0,0,1,3.416,1.146,7.066,7.066,0,0,1,2.467,2.432,7.821,7.821,0,0,1,.951,4.005V33.817c0,1.241.671,1.814,2.072,1.814a2.893,2.893,0,0,0,1.121-.191v2.526a5.435,5.435,0,0,1-1.121.142,8.814,8.814,0,0,1-1.176.048,6.921,6.921,0,0,1-2.186-.286A2.5,2.5,0,0,1,201,36.965a2.772,2.772,0,0,1-.614-1.334,8.751,8.751,0,0,1-.113-1.764h-.113a21.831,21.831,0,0,1-1.963,2.144,9.183,9.183,0,0,1-2.183,1.525,9.488,9.488,0,0,1-2.745.955,19.584,19.584,0,0,1-7.452-.048,10.045,10.045,0,0,1-3.081-1.289,6.138,6.138,0,0,1-2.073-2.241,6.608,6.608,0,0,1-.729-3.243,5.629,5.629,0,0,1,1.346-4.005,8.884,8.884,0,0,1,3.528-2.241,23.934,23.934,0,0,1,4.987-1.048c1.849-.19,3.753-.43,5.658-.621a19.228,19.228,0,0,0,1.963-.239,4.265,4.265,0,0,0,1.4-.477,2.755,2.755,0,0,0,.841-1A4.056,4.056,0,0,0,200,20.419a4.8,4.8,0,0,0-.617-2.48,4.322,4.322,0,0,0-1.625-1.573,7.248,7.248,0,0,0-2.408-.763,18.778,18.778,0,0,0-2.914-.239,10.005,10.005,0,0,0-5.491,1.383,4.87,4.87,0,0,0-2.241,4.339h-3.528ZM200,24.71h-.113a1.9,1.9,0,0,1-1.286.763,10,10,0,0,1-1.682.332c-1.512.239-3.082.431-4.651.623a33.911,33.911,0,0,0-4.313.761,9.1,9.1,0,0,0-3.249,1.525,3.3,3.3,0,0,0-1.233,2.766,4.068,4.068,0,0,0,.5,2.05,4.935,4.935,0,0,0,1.459,1.525,5.627,5.627,0,0,0,2.072.955,8.111,8.111,0,0,0,2.408.332,12.961,12.961,0,0,0,3.866-.524,9.4,9.4,0,0,0,3.192-1.525,8.135,8.135,0,0,0,2.184-2.431A6.78,6.78,0,0,0,200,28.62V24.71ZM210.645,4.4h3.528V9.212h-3.528V4.4Zm0,9.443h3.528v24.6h-3.528v-24.6ZM221.064,4.4h3.53V38.442h-3.528V4.4Z" transform="translate(-83.922 -4.398)" fill="#fff"/>
    </g>
    <path id="Tracé_160" data-name="Tracé 160" d="M17.973,33.765a8.009,8.009,0,0,1-3.851-.836,7.639,7.639,0,0,1-2.52-2.144,9.1,9.1,0,0,1-1.332-2.918,16.186,16.186,0,0,1-.351-3.339,12.467,12.467,0,0,1,.42-3.278,8.03,8.03,0,0,1,1.472-2.8,7.549,7.549,0,0,1,2.52-1.967,8.557,8.557,0,0,1,3.64-.716,9.368,9.368,0,0,1,4.062.775,6.888,6.888,0,0,1,2.59,2.085,8.318,8.318,0,0,1,1.4,3.041,14.639,14.639,0,0,1,.419,3.575,9.4,9.4,0,0,1-.56,3.22,7.52,7.52,0,0,1-4.2,4.591,8.972,8.972,0,0,1-3.713.714Zm17.928,5.3V10.222H26.445v4.111h-.138a10.162,10.162,0,0,0-4.549-3.814,15.835,15.835,0,0,0-6.233-1.133A17.033,17.033,0,0,0,8.8,10.638a14.048,14.048,0,0,0-4.831,3.4A14.417,14.417,0,0,0,.959,18.923a16.857,16.857,0,0,0-.981,5.723,21.253,21.253,0,0,0,.841,6.021,13.923,13.923,0,0,0,2.8,4.947A13.582,13.582,0,0,0,8.453,38.95a18.584,18.584,0,0,0,7,1.194,17.178,17.178,0,0,0,6.233-1.134,9.587,9.587,0,0,0,4.622-3.636h.141v4.054a7.482,7.482,0,0,1-1.89,5.424Q22.671,47,18.469,47a10.911,10.911,0,0,1-4.692-.955,4.843,4.843,0,0,1-2.732-3.276H1.168a8.02,8.02,0,0,0,1.68,4.469,12.129,12.129,0,0,0,3.78,3.1,18.815,18.815,0,0,0,5.044,1.728,26.185,26.185,0,0,0,5.464.6,28.256,28.256,0,0,0,9.943-1.432,15.168,15.168,0,0,0,5.672-3.514A9.452,9.452,0,0,0,35.27,43.3a16.831,16.831,0,0,0,.63-4.233Z" transform="translate(0 3.122)" fill="#fff"/>
    <path id="Tracé_161" data-name="Tracé 161" d="M46.284,8.276,57.069-.185H46.075L39.351,8.276h6.932Zm6.372,15.915H36.481a9.415,9.415,0,0,1,.419-2.026,6.719,6.719,0,0,1,1.333-2.146,7.6,7.6,0,0,1,2.52-1.671,9.829,9.829,0,0,1,3.992-.716q3.642,0,5.392,1.671A9.016,9.016,0,0,1,52.66,24.19ZM36.481,29.555H62.6a18.681,18.681,0,0,0-.7-6.854,15.512,15.512,0,0,0-3.223-5.842,15.055,15.055,0,0,0-5.6-4.053,19.46,19.46,0,0,0-8.055-1.548A21.936,21.936,0,0,0,37.46,12.51a17.947,17.947,0,0,0-5.813,3.457,14.7,14.7,0,0,0-3.78,5.126,15.612,15.612,0,0,0-1.33,6.437,16.676,16.676,0,0,0,1.26,6.557,15.092,15.092,0,0,0,3.713,5.126,16.823,16.823,0,0,0,5.809,3.338,24.529,24.529,0,0,0,7.705,1.133,21.553,21.553,0,0,0,10.5-2.382,14.4,14.4,0,0,0,6.443-7.928H53.218a5.712,5.712,0,0,1-2.662,2.743,10.209,10.209,0,0,1-5.182,1.251q-4.2,0-6.441-1.847t-2.451-5.96Z" transform="translate(8.664 0)" fill="#fff"/>
    <path id="Tracé_162" data-name="Tracé 162" d="M62.586,24.94a15.832,15.832,0,0,1,.42-3.636,8.856,8.856,0,0,1,1.4-3.159,7.666,7.666,0,0,1,2.732-2.206,10.324,10.324,0,0,1,8.4,0,6.938,6.938,0,0,1,2.729,2.206A8.236,8.236,0,0,1,79.745,21.3a15.686,15.686,0,0,1,.419,3.636,16,16,0,0,1-.42,3.634,8.791,8.791,0,0,1-1.472,3.16,6.923,6.923,0,0,1-2.729,2.205,10.988,10.988,0,0,1-8.406,0A7.685,7.685,0,0,1,64.4,31.734a9.556,9.556,0,0,1-1.4-3.159,15.821,15.821,0,0,1-.42-3.634Zm-9.944,0a16.2,16.2,0,0,0,1.33,6.675,14.687,14.687,0,0,0,3.782,5.126,17.346,17.346,0,0,0,5.882,3.219,26.768,26.768,0,0,0,15.408,0A17.238,17.238,0,0,0,85,36.741a14.68,14.68,0,0,0,3.78-5.126,16.259,16.259,0,0,0,1.333-6.675,16.112,16.112,0,0,0-1.332-6.676A14.009,14.009,0,0,0,85,13.138,16.744,16.744,0,0,0,79.042,9.86a25.451,25.451,0,0,0-15.405,0,16.8,16.8,0,0,0-5.882,3.278,14.015,14.015,0,0,0-3.782,5.126A16.2,16.2,0,0,0,52.642,24.94Z" transform="translate(17.18 2.887)" fill="#fff"/>
  </g>
</svg>
