<?xml version="1.0" encoding="UTF-8" standalone="no"?>
<!-- Generator: Adobe Illustrator 19.0.0, SVG Export Plug-In . SVG Version: 6.00 Build 0)  -->

<svg
   xmlns:dc="http://purl.org/dc/elements/1.1/"
   xmlns:cc="http://creativecommons.org/ns#"
   xmlns:rdf="http://www.w3.org/1999/02/22-rdf-syntax-ns#"
   xmlns:svg="http://www.w3.org/2000/svg"
   xmlns="http://www.w3.org/2000/svg"
   xmlns:sodipodi="http://sodipodi.sourceforge.net/DTD/sodipodi-0.dtd"
   xmlns:inkscape="http://www.inkscape.org/namespaces/inkscape"
   version="1.1"
   id="Capa_1"
   x="0px"
   y="0px"
   viewBox="0 0 496 496"
   style="enable-background:new 0 0 496 496;"
   xml:space="preserve"
   sodipodi:docname="reticule.svg"
   inkscape:version="0.92.5 (2060ec1f9f, 2020-04-08)"><metadata
   id="metadata43"><rdf:RDF><cc:Work
       rdf:about=""><dc:format>image/svg+xml</dc:format><dc:type
         rdf:resource="http://purl.org/dc/dcmitype/StillImage" /><dc:title /></cc:Work></rdf:RDF></metadata><defs
   id="defs41" /><sodipodi:namedview
   pagecolor="#ffffff"
   bordercolor="#666666"
   borderopacity="1"
   objecttolerance="10"
   gridtolerance="10"
   guidetolerance="10"
   inkscape:pageopacity="0"
   inkscape:pageshadow="2"
   inkscape:window-width="1920"
   inkscape:window-height="1017"
   id="namedview39"
   showgrid="false"
   inkscape:zoom="2.6915677"
   inkscape:cx="277.8514"
   inkscape:cy="174.72016"
   inkscape:window-x="1912"
   inkscape:window-y="-8"
   inkscape:window-maximized="1"
   inkscape:current-layer="g6" />
<g
   id="g6"
   style="display:inline">
	
<path
   d="m 240,266 v 222.33333 c 0,4.23392 3.582,7.66667 8,7.66667 4.418,0 8,-3.43275 8,-7.66667 V 266"
   id="path2"
   inkscape:connector-curvature="0"
   style="display:inline;stroke-width:0.97894502"
   sodipodi:nodetypes="csssc" /><path
   inkscape:connector-curvature="0"
   id="path831"
   d="m 266,256 h 222.33333 c 4.23392,0 7.66667,-3.582 7.66667,-8 0,-4.418 -3.43275,-8 -7.66667,-8 H 266"
   style="display:inline;stroke-width:0.97894502"
   sodipodi:nodetypes="csssc" /><path
   d="M 256,230.3402 V 8.0068666 C 256,3.77295 252.418,0.3402 248,0.3402 c -4.418,0 -8,3.43275 -8,7.6666666 V 230.3402"
   id="path833"
   inkscape:connector-curvature="0"
   style="display:inline;stroke-width:0.97894502"
   sodipodi:nodetypes="csssc" /><path
   inkscape:connector-curvature="0"
   id="path835"
   d="M 230,240 H 7.6666667 C 3.43275,240 0,243.582 0,248 c 0,4.418 3.43275,8 7.6666667,8 H 230"
   sodipodi:nodetypes="csssc"
   style="display:inline;stroke-width:0.97894502" /></g>















</svg>