<svg width="20" height="24" viewBox="0 0 20 24" fill="none" xmlns="http://www.w3.org/2000/svg">
<path d="M10.0071 0.333252C4.98928 0.333252 0.886648 4.42343 0.674979 9.64666C0.444634 15.1998 5.05154 20.8153 9.72069 23.4923L10.032 23.6666L10.3308 23.4736C16.3073 19.62 19.3392 14.9757 19.3392 9.66534C19.3392 4.51682 15.1494 0.333252 10.0071 0.333252ZM10.0008 12.9773C8.24524 12.9773 6.82582 11.5579 6.82582 9.8023C6.82582 8.0467 8.24524 6.62728 10.0008 6.62728C11.7564 6.62728 13.1759 8.0467 13.1759 9.8023C13.1759 11.5579 11.7564 12.9773 10.0008 12.9773Z" fill="#B6D688"/>
<path d="M10.148 12.9841C8.36587 12.9841 6.92504 11.5639 6.92504 9.80736C6.92504 8.05082 8.36587 6.63064 10.148 6.63064V1.333252C5.05448 0.333252 0.896285 4.42562 0.775104 9.65164C0.441285 15.2078 5.11767 20.8262 9.85726 22.5046L10.148 22.6666V12.9841Z" fill="#67B000"/>
<path d="M10.0315 23.6666L9.72027 23.4923C5.05111 20.8153 0.450436 15.1998 0.674556 9.64666C0.898675 4.42343 4.99508 0.333252 10.0129 0.333252C15.1614 0.333252 19.345 4.52304 19.345 9.66534C19.345 14.9757 16.3131 19.62 10.3241 23.4736L10.0315 23.6666ZM10.0129 1.50365C5.62386 1.50365 2.03795 5.10202 1.84496 9.69647C1.63951 14.6645 5.74215 19.7383 9.99419 22.3032C15.4229 18.7173 18.1746 14.4715 18.1746 9.67157C18.1808 5.16427 14.5202 1.50365 10.0129 1.50365Z" fill="white"/>
<path d="M10.0127 13.538C7.95201 13.538 6.27734 11.8634 6.27734 9.80271C6.27734 7.74205 7.95201 6.06738 10.0127 6.06738C12.0733 6.06738 13.748 7.74205 13.748 9.80271C13.748 11.8634 12.0733 13.538 10.0127 13.538ZM10.0127 7.15685C8.55589 7.15685 7.36681 8.34593 7.36681 9.80271C7.36681 11.2595 8.55589 12.4486 10.0127 12.4486C11.4694 12.4486 12.6585 11.2595 12.6585 9.80271C12.6585 8.34593 11.4694 7.15685 10.0127 7.15685Z" fill="white"/>
</svg>
