<svg width="20" height="24" viewBox="0 0 20 24" fill="none" xmlns="http://www.w3.org/2000/svg">
<path d="M10.007 0.333252C4.98922 0.333252 0.886587 4.42343 0.674918 9.64666C0.444573 15.1998 5.05148 20.8153 9.72063 23.4923L10.0319 23.6666L10.3307 23.4736C16.3073 19.62 19.3391 14.9757 19.3391 9.66534C19.3391 4.51682 15.1493 0.333252 10.007 0.333252ZM10.0008 12.9773C8.24518 12.9773 6.82576 11.5579 6.82576 9.8023C6.82576 8.0467 8.24518 6.62728 10.0008 6.62728C11.7564 6.62728 13.1758 8.0467 13.1758 9.8023C13.1758 11.5579 11.7564 12.9773 10.0008 12.9773Z" fill="#7EB9F7"/>
<path d="M10.1479 12.9841C8.36581 12.9841 6.92497 11.5639 6.92497 9.80736C6.92497 8.05082 8.36581 6.63064 10.1479 6.63064V1.333252C5.05442 0.333252 0.896224 4.42562 0.775043 9.65164C0.441224 15.2078 5.11761 20.8262 9.8572 22.5046L10.1479 22.6666V12.9841Z" fill="#005BBC"/>
<path d="M10.0315 23.6666L9.72021 23.4923C5.05105 20.8153 0.450375 15.1998 0.674495 9.64666C0.898614 4.42343 4.99502 0.333252 10.0128 0.333252C15.1613 0.333252 19.3449 4.52304 19.3449 9.66534C19.3449 14.9757 16.3131 19.62 10.3241 23.4736L10.0315 23.6666ZM10.0128 1.50365C5.6238 1.50365 2.03789 5.10202 1.8449 9.69647C1.63945 14.6645 5.74208 19.7383 9.99413 22.3032C15.4228 18.7173 18.1745 14.4715 18.1745 9.67157C18.1807 5.16427 14.5201 1.50365 10.0128 1.50365Z" fill="white"/>
<path d="M10.0125 13.538C7.95189 13.538 6.27722 11.8634 6.27722 9.80271C6.27722 7.74205 7.95189 6.06738 10.0125 6.06738C12.0732 6.06738 13.7479 7.74205 13.7479 9.80271C13.7479 11.8634 12.0732 13.538 10.0125 13.538ZM10.0125 7.15685C8.55577 7.15685 7.36669 8.34593 7.36669 9.80271C7.36669 11.2595 8.55577 12.4486 10.0125 12.4486C11.4693 12.4486 12.6584 11.2595 12.6584 9.80271C12.6584 8.34593 11.4693 7.15685 10.0125 7.15685Z" fill="white"/>
</svg>
