<svg width="24" height="25" viewBox="0 0 24 25" fill="none" xmlns="http://www.w3.org/2000/svg">
<g id="Icons">
<path id="Path" fill-rule="evenodd" clip-rule="evenodd" d="M15.7827 8.07189L12.5381 5.18204C12.4997 5.14791 12.4614 5.12515 12.4231 5.1024C12.4231 5.1024 12.4231 5.1024 12.4103 5.1024C12.372 5.07964 12.3337 5.05689 12.2826 5.04551H12.2698C12.2315 5.03413 12.1804 5.02275 12.1421 5.01138C12.1421 5.01138 12.1421 5.01138 12.1293 5.01138C12.0782 5 12.0399 5 11.9888 5C11.9377 5 11.8994 5 11.8483 5.01138C11.8483 5.01138 11.8483 5.01138 11.8355 5.01138C11.7844 5.02275 11.7461 5.03413 11.7077 5.04551H11.695C11.6566 5.05689 11.6055 5.07964 11.5672 5.1024C11.5672 5.1024 11.5672 5.1024 11.5544 5.1024C11.5161 5.12515 11.4778 5.15928 11.4395 5.19342L8.22036 8.07189C7.92655 8.33357 7.92655 8.76592 8.22036 9.03897C8.37365 9.1755 8.56526 9.24377 8.75688 9.24377C8.94849 9.24377 9.15288 9.1755 9.2934 9.03897L11.2223 7.32099L11.2223 20.2779C11.2223 20.6534 11.5672 20.9606 11.9888 20.9606C12.4103 20.9606 12.7552 20.6534 12.7552 20.2779L12.7552 7.32099L14.6841 9.03897C14.8374 9.1755 15.0291 9.24377 15.2207 9.24377C15.4123 9.24377 15.6167 9.1755 15.7572 9.03897C16.0765 8.76592 16.0765 8.33357 15.7827 8.07189Z" fill="white"/>
</g>
</svg>
