<svg width="18" height="14" viewBox="0 0 18 14" fill="none" xmlns="http://www.w3.org/2000/svg">
<path fill-rule="evenodd" clip-rule="evenodd" d="M2.4375 7.3125C2.4375 7.91625 1.9475 8.40625 1.34375 8.40625C0.738906 8.40625 0.25 7.91625 0.25 7.3125C0.25 6.70875 0.738906 6.21875 1.34375 6.21875C1.9475 6.21875 2.4375 6.70875 2.4375 7.3125Z" fill="#26A581"/>
<path fill-rule="evenodd" clip-rule="evenodd" d="M2.4375 7.3125C2.4375 7.91625 1.9475 8.40625 1.34375 8.40625C0.738906 8.40625 0.25 7.91625 0.25 7.3125C0.25 6.70875 0.738906 6.21875 1.34375 6.21875C1.9475 6.21875 2.4375 6.70875 2.4375 7.3125Z" fill="#26A581"/>
<path fill-rule="evenodd" clip-rule="evenodd" d="M16.7927 6.21875H5.5823C5.0532 6.21875 4.625 6.70875 4.625 7.3125C4.625 7.91625 5.0532 8.40625 5.5823 8.40625H16.7927C17.3218 8.40625 17.75 7.91625 17.75 7.3125C17.75 6.70875 17.3218 6.21875 16.7927 6.21875Z" fill="#26A581"/>
<path fill-rule="evenodd" clip-rule="evenodd" d="M2.4375 1.84375C2.4375 2.4475 1.9475 2.9375 1.34375 2.9375C0.738906 2.9375 0.25 2.4475 0.25 1.84375C0.25 1.24 0.738906 0.75 1.34375 0.75C1.9475 0.75 2.4375 1.24 2.4375 1.84375Z" fill="#26A581"/>
<path fill-rule="evenodd" clip-rule="evenodd" d="M2.4375 1.84375C2.4375 2.4475 1.9475 2.9375 1.34375 2.9375C0.738906 2.9375 0.25 2.4475 0.25 1.84375C0.25 1.24 0.738906 0.75 1.34375 0.75C1.9475 0.75 2.4375 1.24 2.4375 1.84375Z" fill="#26A581"/>
<path fill-rule="evenodd" clip-rule="evenodd" d="M16.7927 0.75H5.5823C5.0532 0.75 4.625 1.24 4.625 1.84375C4.625 2.4475 5.0532 2.9375 5.5823 2.9375H16.7927C17.3218 2.9375 17.75 2.4475 17.75 1.84375C17.75 1.24 17.3218 0.75 16.7927 0.75Z" fill="#26A581"/>
<path fill-rule="evenodd" clip-rule="evenodd" d="M2.4375 12.7812C2.4375 13.385 1.9475 13.875 1.34375 13.875C0.738906 13.875 0.25 13.385 0.25 12.7812C0.25 12.1775 0.738906 11.6875 1.34375 11.6875C1.9475 11.6875 2.4375 12.1775 2.4375 12.7812Z" fill="#26A581"/>
<path fill-rule="evenodd" clip-rule="evenodd" d="M2.4375 12.7812C2.4375 13.385 1.9475 13.875 1.34375 13.875C0.738906 13.875 0.25 13.385 0.25 12.7812C0.25 12.1775 0.738906 11.6875 1.34375 11.6875C1.9475 11.6875 2.4375 12.1775 2.4375 12.7812Z" fill="#26A581"/>
<path fill-rule="evenodd" clip-rule="evenodd" d="M16.7927 11.6875H5.5823C5.0532 11.6875 4.625 12.1775 4.625 12.7812C4.625 13.385 5.0532 13.875 5.5823 13.875H16.7927C17.3218 13.875 17.75 13.385 17.75 12.7812C17.75 12.1775 17.3218 11.6875 16.7927 11.6875Z" fill="#26A581"/>
</svg>
