<svg width="32" height="32" viewBox="0 0 32 32" fill="none" xmlns="http://www.w3.org/2000/svg">
<g id="Frame 91">
<path id="Union" fill-rule="evenodd" clip-rule="evenodd" d="M6.33304 25.6826C6.55545 25.8945 6.84693 26 7.13841 26C7.42989 26 7.72138 25.8945 7.94378 25.6826L11.5172 22.2794C13.039 23.2216 14.7014 23.75 16.5 23.75C19.4573 23.75 22.0464 22.3216 24.2477 19.9734C25.004 19.1667 25.6608 18.3054 26.2175 17.4435C26.5538 16.9227 26.7846 16.5123 26.9076 16.2663C27.0308 16.02 27.0308 15.73 26.9076 15.4837C26.7846 15.2377 26.5538 14.8273 26.2175 14.3065C25.6608 13.4446 25.004 12.5833 24.2477 11.7766C23.9757 11.4864 23.6977 11.2103 23.4139 10.9491L26.667 7.85098C27.111 7.42808 27.111 6.74061 26.667 6.31771C26.2221 5.8941 25.501 5.8941 25.0562 6.31771L21.6408 9.57033C20.0763 8.56571 18.3611 8 16.5 8C13.5427 8 10.9536 9.42843 8.75228 11.7766C7.99599 12.5833 7.33919 13.4446 6.78254 14.3065C6.44622 14.8273 6.21537 15.2377 6.09238 15.4837C5.96921 15.73 5.96921 16.02 6.09238 16.2663C6.21537 16.5123 6.44622 16.9227 6.78254 17.4435C7.33919 18.3054 7.99599 19.1667 8.75228 19.9734C9.06705 20.3092 9.38974 20.6262 9.72031 20.9228L6.33304 24.1487C5.88899 24.5723 5.88899 25.259 6.33304 25.6826ZM12.8378 21.0217C13.9876 21.655 15.2102 22 16.5 22C18.902 22 21.0708 20.8034 22.971 18.7766C23.6503 18.052 24.2445 17.2728 24.7474 16.494C24.8901 16.273 25.0167 16.0654 25.1269 15.875C25.0167 15.6846 24.8901 15.477 24.7474 15.256C24.2445 14.4772 23.6503 13.698 22.971 12.9734C22.7005 12.6849 22.4245 12.4132 22.1432 12.1593L19.7096 14.477C19.8964 14.9052 20 15.378 20 15.875C20 17.808 18.433 19.375 16.5 19.375C15.9424 19.375 15.4152 19.2446 14.9473 19.0126L12.8378 21.0217ZM13.3714 17.4457L10.9924 19.7113C10.664 19.4235 10.3428 19.1113 10.029 18.7766C9.34972 18.052 8.75554 17.2728 8.25261 16.494C8.10987 16.273 7.98327 16.0654 7.87312 15.875C7.98327 15.6846 8.10987 15.477 8.25261 15.256C8.75554 14.4772 9.34972 13.698 10.029 12.9734C11.9292 10.9466 14.098 9.75 16.5 9.75C17.8517 9.75 19.1295 10.1289 20.3271 10.8214L18.2214 12.8269C17.7131 12.5392 17.1257 12.375 16.5 12.375C14.567 12.375 13 13.942 13 15.875C13 16.4398 13.1338 16.9734 13.3714 17.4457ZM16.4068 17.6226C16.4377 17.6242 16.4687 17.625 16.5 17.625C17.4665 17.625 18.25 16.8415 18.25 15.875C18.25 15.8724 18.25 15.8698 18.25 15.8672L16.4068 17.6226ZM16.8264 14.1554L14.7666 16.117C14.7557 16.0379 14.75 15.9571 14.75 15.875C14.75 14.9085 15.5335 14.125 16.5 14.125C16.6115 14.125 16.7206 14.1354 16.8264 14.1554Z" fill="#3F4A55"/>
</g>
</svg>
