<svg width="3" height="13" viewBox="0 0 3 13" fill="none" xmlns="http://www.w3.org/2000/svg">
<path id="Union" fill-rule="evenodd" clip-rule="evenodd" d="M0.0552875 1.9424C0.0552876 1.14583 0.714484 0.500091 1.52764 0.500091C2.3408 0.500092 3 1.14583 3 1.9424C3 2.73896 2.3408 3.38471 1.52764 3.38471C0.714484 3.38471 0.0552875 2.73896 0.0552875 1.9424ZM0.0552883 6.74953C0.0552883 5.95296 0.714484 5.30722 1.52764 5.30722C2.3408 5.30722 3 5.95296 3 6.74953C3 7.54609 2.3408 8.19184 1.52764 8.19184C0.714484 8.19184 0.0552882 7.54609 0.0552883 6.74953ZM1.52764 10.1156C0.714484 10.1156 0.0552881 10.7613 0.0552881 11.5579C0.055288 12.3544 0.714484 13.0002 1.52764 13.0002C2.3408 13.0002 3 12.3544 3 11.5579C3 10.7613 2.3408 10.1156 1.52764 10.1156Z" fill="#B8BCC1"/>
</svg>
