<svg width="40" height="40" viewBox="0 0 40 40" fill="none" xmlns="http://www.w3.org/2000/svg">
<rect width="40" height="40" rx="20" fill="white"/>
<path fill-rule="evenodd" clip-rule="evenodd" d="M21.168 17.9715L23.7119 15.5816L23.7119 29.0504C23.7119 29.5727 24.1668 30 24.7227 30C25.2787 30 25.7335 29.5727 25.7335 29.0504L25.7335 15.5816L28.2774 17.9715C28.6649 18.3355 29.3051 18.3355 29.7094 17.9715C30.0969 17.6075 30.0969 17.0061 29.7094 16.6262L25.4303 12.6062C25.3798 12.5587 25.3292 12.527 25.2787 12.4954C25.2787 12.4954 25.2787 12.4954 25.2618 12.4954C25.2113 12.4637 25.1607 12.4321 25.0934 12.4162L25.0765 12.4162C25.026 12.4004 24.9586 12.3846 24.908 12.3688C24.908 12.3688 24.908 12.3688 24.8912 12.3688C24.8238 12.3529 24.7733 12.3529 24.7059 12.3529C24.6385 12.3529 24.588 12.3529 24.5206 12.3688C24.5206 12.3688 24.5206 12.3688 24.5037 12.3688C24.4363 12.3846 24.3858 12.4004 24.3353 12.4162C24.3353 12.4162 24.3353 12.4162 24.3184 12.4162C24.2679 12.4321 24.2005 12.4637 24.1499 12.4954C24.1499 12.4954 24.1499 12.4954 24.1331 12.4954C24.0825 12.527 24.032 12.5745 23.9815 12.6062L19.7024 16.6262C19.3149 16.9902 19.3149 17.5917 19.7024 17.9715C20.1235 18.3355 20.7637 18.3355 21.168 17.9715Z" fill="#091625"/>
<path fill-rule="evenodd" clip-rule="evenodd" d="M11.464 23.3622L15.7584 27.3931C15.8091 27.4407 15.8598 27.4724 15.9105 27.5041C15.9105 27.5041 15.9105 27.5041 15.9275 27.5041C15.9782 27.5359 16.0289 27.5676 16.0965 27.5835L16.1134 27.5835C16.1642 27.5994 16.2318 27.6152 16.2825 27.6311C16.2825 27.6311 16.2825 27.6311 16.2994 27.6311C16.367 27.647 16.4178 27.647 16.4854 27.647C16.553 27.647 16.6037 27.647 16.6714 27.6311C16.6714 27.6311 16.6714 27.6311 16.6883 27.6311C16.7559 27.6152 16.8066 27.5994 16.8573 27.5835L16.8743 27.5835C16.925 27.5676 16.9926 27.5359 17.0433 27.5041C17.0433 27.5041 17.0433 27.5041 17.0602 27.5041C17.111 27.4724 17.1617 27.4248 17.2124 27.3772L21.473 23.3622C21.8619 22.9972 21.8619 22.3941 21.473 22.0132C21.2701 21.8228 21.0165 21.7276 20.7629 21.7276C20.5093 21.7276 20.2388 21.8228 20.0528 22.0132L17.4998 24.4096L17.4998 10.9521C17.4998 10.4284 17.0433 9.99991 16.4854 9.99991C15.9275 9.99991 15.471 10.4284 15.471 10.9521L15.471 24.4096L12.918 22.0132C12.7151 21.8228 12.4615 21.7276 12.2079 21.7276C11.9543 21.7276 11.6838 21.8228 11.4978 22.0132C11.0751 22.3941 11.0751 22.9972 11.464 23.3622Z" fill="#091625"/>
</svg>
