<svg width="25" height="25" viewBox="0 0 25 25" fill="none" xmlns="http://www.w3.org/2000/svg">
<rect width="25" height="25" rx="12.5" fill="white"/>
<path d="M12.5009 6.25C15.377 6.25 17.7087 8.58201 17.7087 11.4582C17.7087 13.214 16.7698 14.9351 15.2222 16.5691C14.6915 17.1292 14.1245 17.6398 13.5572 18.0913C13.3586 18.2495 13.1732 18.3897 13.0067 18.5101C12.905 18.5835 12.831 18.6347 12.7892 18.6624C12.6143 18.7792 12.3863 18.7792 12.2114 18.6624C12.1696 18.6343 12.0956 18.5831 11.9939 18.5101C11.8274 18.3897 11.6421 18.2499 11.4435 18.0913C10.8761 17.6398 10.3092 17.1292 9.77845 16.5691C8.23085 14.9355 7.29199 13.2144 7.29199 11.4582C7.29199 8.58162 9.62365 6.25 12.4997 6.25H12.5009ZM12.5009 7.29179C10.1998 7.29179 8.33458 9.1574 8.33458 11.4586C8.33458 12.8925 9.15362 14.3941 10.5356 15.853C11.0301 16.3753 11.5617 16.8534 12.0932 17.2769C12.2384 17.3925 12.3751 17.4972 12.5013 17.5901C12.6276 17.4968 12.7643 17.3921 12.9094 17.2769C13.441 16.8538 13.9721 16.3753 14.4671 15.853C15.849 14.3945 16.6681 12.8929 16.6681 11.4586C16.6681 9.1574 14.8028 7.29179 12.5017 7.29179H12.5009ZM12.5009 9.37498C13.6513 9.37498 14.5841 10.3078 14.5841 11.4582C14.5841 12.6085 13.6513 13.5413 12.5009 13.5413C11.3506 13.5413 10.4178 12.6085 10.4178 11.4582C10.4178 10.3078 11.3506 9.37498 12.5009 9.37498ZM12.5009 10.4168C11.9256 10.4168 11.4595 10.8832 11.4595 11.4586C11.4595 12.0339 11.926 12.5003 12.5009 12.5003C13.0763 12.5003 13.5423 12.0339 13.5423 11.4586C13.5423 10.8832 13.0759 10.4168 12.5009 10.4168Z" fill="#091625"/>
</svg>
