<svg width="32" height="32" viewBox="0 0 32 32" fill="none" xmlns="http://www.w3.org/2000/svg">
<path d="M18.1068 11.3463C19.0308 11.3463 19.7799 10.5972 19.7799 9.67317C19.7799 8.7491 19.0308 8 18.1068 8C17.1827 8 16.4336 8.7491 16.4336 9.67317C16.4336 10.5972 17.1827 11.3463 18.1068 11.3463Z" fill="#26A581"/>
<path d="M18.9482 15.885C19.1155 16.2196 19.4502 16.387 19.7848 16.5543L22.0436 17.3072L22.5455 15.7177L20.2867 14.9648L18.8645 12.8733C18.7809 12.6223 18.5299 12.3714 18.2789 12.2877L17.1077 11.7021C16.6894 11.5348 16.2711 11.4511 15.9365 11.5348L13.2594 12.204C12.7575 12.2877 12.4228 12.6223 12.1719 13.0406L10.666 16.0523L12.1719 16.8053L13.6777 13.7936L15.5182 13.2916L14.0124 20.2352L10.917 22.3267L11.8372 23.6652L14.9326 21.5738C15.2672 21.3228 15.5182 20.9882 15.6019 20.5699L16.0202 18.5621L18.1116 20.1516L18.8645 23.9999L20.5377 23.6652L19.7848 19.817C19.7011 19.3987 19.4502 19.064 19.1155 18.8131L17.275 17.4745L17.777 14.2118L18.9482 15.885Z" fill="#26A581"/>
</svg>
