<svg width="16" height="24" viewBox="0 0 16 24" fill="none" xmlns="http://www.w3.org/2000/svg">
<path id="Union" fill-rule="evenodd" clip-rule="evenodd" d="M12.2817 2.98591C12.2817 4.2305 11.2728 5.23943 10.0282 5.23943C8.78358 5.23943 7.77464 4.2305 7.77464 2.98591C7.77464 1.74133 8.78358 0.732391 10.0282 0.732391C11.2728 0.732391 12.2817 1.74133 12.2817 2.98591ZM12.2817 13.2394C11.831 13.014 11.3803 12.7887 11.1549 12.338L9.57747 10.0844L8.90141 14.4788L11.3803 16.2816C11.831 16.6197 12.169 17.0704 12.2817 17.6337L13.2958 22.8168L11.0423 23.2675L10.0282 18.0844L7.21127 15.9436L6.64789 18.6478C6.53521 19.2112 6.19718 19.6619 5.74648 19.9999L1.57746 22.8168L0.338028 21.014L4.50704 18.1971L6.53521 8.84501L4.05634 9.52106L2.02817 13.5774L0 12.5633L2.02817 8.50698C2.3662 7.9436 2.8169 7.49289 3.49296 7.38022L7.09859 6.47881C7.5493 6.36613 8.11268 6.47881 8.67606 6.70416L10.2535 7.49289C10.5915 7.60557 10.9296 7.9436 11.0423 8.28163L12.9577 11.0985L16 12.1126L15.3239 14.2535L12.2817 13.2394Z" fill="#788089"/>
</svg>
