<svg width="32" height="32" viewBox="0 0 32 32" fill="none" xmlns="http://www.w3.org/2000/svg">
<g id="IconsNew">
<rect width="32" height="32" rx="16" fill="#E3F5EF"/>
<path id="Union" fill-rule="evenodd" clip-rule="evenodd" d="M23 14.4998C23 10.6342 19.8663 7.5 16.0008 7.5H15.9992C12.1337 7.5 9 10.6337 9 14.4998C9 16.8602 10.2618 19.1733 12.3418 21.3688C13.0551 22.1217 13.8171 22.8078 14.5796 23.4147C14.8465 23.6279 15.0956 23.8158 15.3194 23.9775C15.4561 24.0757 15.5555 24.1445 15.6117 24.1823C15.8468 24.3392 16.1532 24.3392 16.3883 24.1823C16.4445 24.145 16.5439 24.0762 16.6806 23.9775C16.9044 23.8158 17.1535 23.6273 17.4204 23.4147C18.1829 22.8078 18.9449 22.1217 19.6582 21.3688C21.7382 19.1728 23 16.8596 23 14.4998ZM10.4012 14.5003C10.4012 11.4075 12.9081 8.90016 16.0008 8.90016H16.0019C19.0946 8.90016 21.6015 11.4075 21.6015 14.5003C21.6015 16.4281 20.5007 18.4462 18.6433 20.4065C17.9781 21.1084 17.2643 21.7515 16.5499 22.3201C16.3548 22.475 16.171 22.6157 16.0014 22.7412C15.8317 22.6162 15.6479 22.4755 15.4529 22.3201C14.7384 21.751 14.024 21.1084 13.3594 20.4065C11.502 18.4456 10.4012 16.4276 10.4012 14.5003ZM13.8717 14.705C14.145 14.4317 14.5882 14.4317 14.8616 14.705L15.7666 15.6101L18.0717 13.305C18.345 13.0317 18.7882 13.0317 19.0616 13.305C19.335 13.5784 19.335 14.0216 19.0616 14.295L16.2616 17.095C15.9882 17.3684 15.545 17.3684 15.2717 17.095L13.8717 15.695C13.5983 15.4216 13.5983 14.9784 13.8717 14.705Z" fill="#1C7B66"/>
</g>
</svg>
