<svg width="32" height="33" viewBox="0 0 32 33" fill="none" xmlns="http://www.w3.org/2000/svg">
<g id="Icons">
<rect y="0.5" width="32" height="32" rx="16" fill="#C17346" fill-opacity="0.16"/>
<path id="Combined-Shape" d="M10 10.3636C10 10.1828 10.0732 10.0094 10.2036 9.88152C10.3563 9.73181 10.6309 9.55225 11.0453 9.38968C11.6729 9.14345 12.4774 9 13.4759 9C14.4607 9 15.1323 9.18819 16.5149 9.73058C17.7393 10.2109 18.2842 10.3636 19.0374 10.3636C19.8637 10.3636 20.4931 10.2514 20.9517 10.0715C21.189 9.97839 21.3055 9.90226 21.3266 9.88152C21.7646 9.452 22.5134 9.7562 22.5134 10.3636V18.5455C22.5134 18.7263 22.4401 18.8997 22.3098 19.0276C22.1571 19.1773 21.8825 19.3568 21.4681 19.5194C20.8405 19.7656 20.036 19.9091 19.0374 19.9091C18.0527 19.9091 17.3811 19.7209 15.9985 19.1785C14.7741 18.6982 14.2291 18.5455 13.4759 18.5455C12.6496 18.5455 12.0203 18.6577 11.5617 18.8376C11.4951 18.8637 11.438 18.8885 11.3899 18.9111L11.3904 23.3182C11.3904 23.6947 11.0791 24 10.6952 24C10.3112 24 10 23.6947 10 23.3182V10.3636ZM13.4759 10.3636C12.6496 10.3636 12.0203 10.4759 11.5617 10.6558C11.4953 10.6818 11.4384 10.7065 11.3904 10.7291V17.4521C11.9598 17.2795 12.6518 17.1818 13.4759 17.1818C14.4607 17.1818 15.1323 17.37 16.5149 17.9124C17.7393 18.3927 18.2842 18.5455 19.0374 18.5455C19.8637 18.5455 20.4931 18.4332 20.9517 18.2533C21.0181 18.2273 21.075 18.2026 21.123 18.18V11.457C20.5536 11.6295 19.8616 11.7273 19.0374 11.7273C18.0527 11.7273 17.3811 11.5391 15.9985 10.9967C14.7741 10.5164 14.2291 10.3636 13.4759 10.3636Z" fill="#C17346"/>
</g>
</svg>
