<svg width="25" height="17" viewBox="0 0 25 17" fill="none" xmlns="http://www.w3.org/2000/svg">
<path d="M19.7479 6.71019C19.4328 6.71019 19.0126 6.71019 18.6975 6.81369L16.8067 2.57006H18.6975C18.8025 2.57006 18.9076 2.67357 18.9076 2.77707C18.9076 2.88057 18.8025 3.19108 18.6975 3.19108H18.5924C18.1723 3.19108 17.7521 3.50159 17.7521 4.01911C17.7521 4.53662 18.0672 4.84713 18.5924 4.84713H18.6975C19.7479 4.84713 20.5882 4.01911 20.5882 2.98408C20.5882 1.94904 19.7479 1.12102 18.6975 1.12102H15.5462C15.2311 1.12102 15.021 1.22452 14.916 1.43153C14.8109 1.63854 14.7059 1.94904 14.8109 2.15605L15.5462 3.6051H9.13866L8.19328 2.15605H9.2437C9.66387 2.15605 10.084 1.84554 10.084 1.32803C10.084 0.81051 9.66387 0.5 9.2437 0.5H6.09244C5.67227 0.5 5.2521 0.914013 5.2521 1.32803C5.2521 1.74204 5.67227 2.15605 6.09244 2.15605H6.40756V2.25955L8.08823 4.95064L6.93277 7.1242C6.40756 6.9172 5.77731 6.71019 5.04202 6.71019C2.31092 6.71019 0 8.88376 0 11.6783C0 14.4729 2.20588 16.6465 5.04202 16.6465C7.87815 16.6465 10.084 14.4729 10.084 11.6783C10.084 11.5748 10.084 11.4713 10.084 11.4713H13.0252C13.3403 11.4713 13.5504 11.2643 13.7605 11.0573L16.4916 5.67516L17.3319 7.53822C15.8613 8.36624 14.916 9.91879 14.916 11.7818C14.916 14.4729 17.1218 16.75 19.958 16.75C22.7941 16.75 25 14.5764 25 11.7818C25 8.98726 22.479 6.71019 19.7479 6.71019ZM7.56303 9.40127C7.66807 9.50478 7.77311 9.71178 7.87815 9.81529H7.35294L7.56303 9.40127ZM8.40336 11.6783C8.40336 13.5414 6.82773 14.9904 5.04202 14.9904C3.2563 14.9904 1.68067 13.5414 1.68067 11.6783C1.68067 9.81529 3.2563 8.36624 5.04202 8.36624C5.46218 8.36624 5.88235 8.46974 6.30252 8.57325L5.46218 10.3328C5.35714 10.5398 5.35714 10.8503 5.46218 11.0573C5.56723 11.2643 5.88235 11.4713 6.09244 11.4713H8.40336C8.40336 11.4713 8.40336 11.5748 8.40336 11.6783ZM8.29832 7.95223L9.03361 6.50318L11.0294 9.81529H9.66387C9.34874 9.09076 8.92857 8.46975 8.29832 7.95223ZM12.605 9.50478L10.084 5.26115H14.8109L12.605 9.50478ZM19.7479 14.9904C17.8571 14.9904 16.3866 13.4379 16.3866 11.6783C16.3866 10.5398 17.0168 9.50478 17.8571 8.88376L19.0126 11.4713C19.2227 11.8854 19.6429 11.9889 20.063 11.8854C20.4832 11.6783 20.5882 11.2643 20.4832 10.8503L19.3277 8.36624C19.4328 8.36624 19.6429 8.36624 19.7479 8.36624C21.6387 8.36624 23.1092 9.91879 23.1092 11.6783C23.1092 13.4379 21.6387 14.9904 19.7479 14.9904Z" fill="#788089"/>
</svg>
