<svg width="32" height="32" viewBox="0 0 32 32" fill="none" xmlns="http://www.w3.org/2000/svg">
<g id="Frame 91">
<path id="Combined-Shape" d="M16 10C18.2532 10 20.2258 11.0883 21.903 12.8774C22.4792 13.492 22.9797 14.1483 23.4038 14.805C23.66 15.2018 23.8359 15.5144 23.9296 15.7019C24.0235 15.8895 24.0235 16.1105 23.9296 16.2981C23.8359 16.4856 23.66 16.7982 23.4038 17.195C22.9797 17.8517 22.4792 18.508 21.903 19.1226C20.2258 20.9117 18.2532 22 16 22C13.7468 22 11.7742 20.9117 10.097 19.1226C9.52075 18.508 9.02033 17.8517 8.59622 17.195C8.33998 16.7982 8.16409 16.4856 8.07038 16.2981C7.97654 16.1105 7.97654 15.8895 8.07038 15.7019C8.16409 15.5144 8.33998 15.2018 8.59622 14.805C9.02033 14.1483 9.52075 13.492 10.097 12.8774C11.7742 11.0883 13.7468 10 16 10ZM16 11.3333C14.1699 11.3333 12.5175 12.245 11.0697 13.7893C10.5522 14.3413 10.0995 14.935 9.71628 15.5284C9.60752 15.6967 9.51106 15.8549 9.42714 16C9.51106 16.1451 9.60752 16.3033 9.71628 16.4717C10.0995 17.065 10.5522 17.6587 11.0697 18.2107C12.5175 19.755 14.1699 20.6667 16 20.6667C17.8301 20.6667 19.4825 19.755 20.9303 18.2107C21.4478 17.6587 21.9005 17.065 22.2837 16.4717C22.3925 16.3033 22.4889 16.1451 22.5729 16C22.4889 15.8549 22.3925 15.6967 22.2837 15.5284C21.9005 14.935 21.4478 14.3413 20.9303 13.7893C19.4825 12.245 17.8301 11.3333 16 11.3333ZM16 13.3333C17.4728 13.3333 18.6667 14.5272 18.6667 16C18.6667 17.4728 17.4728 18.6667 16 18.6667C14.5272 18.6667 13.3333 17.4728 13.3333 16C13.3333 14.5272 14.5272 13.3333 16 13.3333ZM16 14.6667C15.2636 14.6667 14.6667 15.2636 14.6667 16C14.6667 16.7364 15.2636 17.3333 16 17.3333C16.7364 17.3333 17.3333 16.7364 17.3333 16C17.3333 15.2636 16.7364 14.6667 16 14.6667Z" fill="white"/>
</g>
</svg>
