<svg width="22" height="20" viewBox="0 0 22 20" fill="none" xmlns="http://www.w3.org/2000/svg">
<path id="Shape" d="M19.4333 1.75C19.1889 1.04285 18.5167 0.571426 17.7222 0.571426H4.27778C3.48333 0.571426 2.81111 1.04285 2.56667 1.75L0 8.82142V18.25C0 18.8982 0.55 19.4286 1.22222 19.4286H2.44444C3.11667 19.4286 3.66667 18.8982 3.66667 18.25V17.0714H18.3333V18.25C18.3333 18.8982 18.8833 19.4286 19.5556 19.4286H20.7778C21.45 19.4286 22 18.8982 22 18.25V8.82142L19.4333 1.75ZM4.27778 13.5357C3.23889 13.5357 2.44444 12.7696 2.44444 11.7679C2.44444 10.7661 3.23889 10 4.27778 10C5.31667 10 6.11111 10.7661 6.11111 11.7679C6.11111 12.7696 5.31667 13.5357 4.27778 13.5357ZM17.7222 13.5357C16.6833 13.5357 15.8889 12.7696 15.8889 11.7679C15.8889 10.7661 16.6833 10 17.7222 10C18.7611 10 19.5556 10.7661 19.5556 11.7679C19.5556 12.7696 18.7611 13.5357 17.7222 13.5357ZM2.44444 7.64285L4.27778 2.33928H17.7222L19.5556 7.64285H2.44444Z" fill="#788089"/>
</svg>
