<svg width="32" height="32" viewBox="0 0 32 32" fill="none" xmlns="http://www.w3.org/2000/svg">
<path d="M21.1108 11.3808C20.9626 10.9522 20.5552 10.6665 20.0737 10.6665H11.9256C11.4441 10.6665 11.0367 10.9522 10.8886 11.3808L9.33301 15.6665V21.3808C9.33301 21.7736 9.66634 22.0951 10.0737 22.0951H10.8145C11.2219 22.0951 11.5552 21.7736 11.5552 21.3808V20.6665H20.4441V21.3808C20.4441 21.7736 20.7775 22.0951 21.1849 22.0951H21.9256C22.333 22.0951 22.6663 21.7736 22.6663 21.3808V15.6665L21.1108 11.3808ZM11.9256 18.5236C11.296 18.5236 10.8145 18.0594 10.8145 17.4522C10.8145 16.8451 11.296 16.3808 11.9256 16.3808C12.5552 16.3808 13.0367 16.8451 13.0367 17.4522C13.0367 18.0594 12.5552 18.5236 11.9256 18.5236ZM20.0737 18.5236C19.4441 18.5236 18.9626 18.0594 18.9626 17.4522C18.9626 16.8451 19.4441 16.3808 20.0737 16.3808C20.7034 16.3808 21.1849 16.8451 21.1849 17.4522C21.1849 18.0594 20.7034 18.5236 20.0737 18.5236ZM10.8145 14.9522L11.9256 11.7379H20.0737L21.1849 14.9522H10.8145Z" fill="#3F4A55"/>
</svg>
