<svg width="24" height="25" viewBox="0 0 24 25" fill="none" xmlns="http://www.w3.org/2000/svg">
<g id="Icons">
<path id="Path" fill-rule="evenodd" clip-rule="evenodd" d="M6.52256 16.2583V14.7179C6.52256 14.0903 6.74812 13.5198 7.19925 13.1204C7.65038 12.7211 8.15789 12.4358 8.7782 12.4358H17.4624L15.7143 14.2044C15.4323 14.4897 15.4323 15.0032 15.7143 15.2884C15.9962 15.5737 16.5038 15.5737 16.7857 15.2884L19.7744 12.2647C19.8308 12.2076 19.8872 12.0935 19.9436 12.0365C20 11.9794 20 11.8653 20 11.7512C20 11.6371 20 11.58 19.9436 11.4659C19.8872 11.3518 19.8308 11.2948 19.7744 11.2377L16.7857 8.21395C16.5038 7.92868 15.9962 7.92868 15.7143 8.21395C15.4323 8.49921 15.4323 9.01268 15.7143 9.29794L17.4624 11.0666H8.7782C7.76316 11.0666 6.80451 11.4659 6.12782 12.2076C5.45113 12.9493 5 13.691 5 14.7179V16.2583C5 16.6577 5.33835 17 5.73308 17C6.12782 17 6.52256 16.6577 6.52256 16.2583Z" fill="#788089"/>
</g>
</svg>
