<svg width="30" height="30" viewBox="0 0 30 30" fill="none" xmlns="http://www.w3.org/2000/svg">
<g id="Icons">
<rect id="Rectangle 35" width="30" height="30" rx="15" transform="matrix(1 0 0 -1 0 30)" fill="white"/>
<path id="Fill-1" fill-rule="evenodd" clip-rule="evenodd" d="M19.2431 20H13.8391C13.6225 20 13.4112 19.9113 13.259 19.7582C13.1059 19.6042 13.0198 19.392 13.0215 19.1754C13.0224 18.7258 13.3894 18.3596 13.8391 18.3596H17.2226L10.1956 11.3464C9.91897 11.0246 9.9381 10.5367 10.2382 10.2366C10.3947 10.08 10.6018 10 10.8122 10C11.0053 10 11.2002 10.0678 11.3602 10.2053L18.3655 17.1958V13.8471C18.3655 13.3965 18.7326 13.0304 19.1831 13.0304C19.6345 13.0304 20.0016 13.3965 20.0016 13.8471V19.2424C20.0016 19.6599 19.6606 20 19.2431 20Z" fill="#3F4A55"/>
</g>
</svg>
