<svg width="18" height="9" viewBox="0 0 18 9" fill="none" xmlns="http://www.w3.org/2000/svg">
<g id="Group 34">
<path id="Path" fill-rule="evenodd" clip-rule="evenodd" d="M14.3819 0.38085L17.5504 3.87C17.5878 3.91121 17.6128 3.95242 17.6377 3.99363C17.6377 3.99363 17.6377 3.99363 17.6377 4.00737C17.6627 4.04858 17.6876 4.08979 17.7001 4.14474V4.15847C17.7126 4.19968 17.7251 4.25463 17.7375 4.29584C17.7375 4.29584 17.7375 4.29584 17.7375 4.30958C17.75 4.36452 17.75 4.40573 17.75 4.46068C17.75 4.51563 17.75 4.55684 17.7375 4.61179C17.7375 4.61179 17.7375 4.61179 17.7375 4.62552C17.7251 4.68047 17.7126 4.72168 17.7001 4.76289V4.77663C17.6876 4.81784 17.6627 4.87279 17.6377 4.914C17.6377 4.914 17.6377 4.914 17.6377 4.92773C17.6128 4.96894 17.5754 5.01015 17.5379 5.05137L14.3819 8.51304C14.095 8.82899 13.6209 8.82899 13.3215 8.51304C13.1718 8.3482 13.097 8.14215 13.097 7.93609C13.097 7.73004 13.1718 7.51025 13.3215 7.35915L15.2052 5.28489L0.998796 5.28489C0.587137 5.28489 0.250324 4.914 0.250324 4.46068C0.250324 4.00737 0.587137 3.63647 0.998796 3.63647L15.2052 3.63647L13.3215 1.56222C13.1718 1.39737 13.097 1.19132 13.097 0.98527C13.097 0.779217 13.1718 0.559429 13.3215 0.408323C13.6209 0.0649033 14.095 0.0649033 14.3819 0.38085Z" fill="#3F4A55"/>
<path id="Path_2" fill-rule="evenodd" clip-rule="evenodd" d="M3.61813 0.38085L0.449593 3.87C0.412169 3.91121 0.38722 3.95242 0.362271 3.99363C0.362271 3.99363 0.362271 3.99363 0.362271 4.00737C0.337322 4.04858 0.312373 4.08979 0.299898 4.14474V4.15847C0.287424 4.19968 0.274949 4.25463 0.262475 4.29584C0.262475 4.29584 0.262475 4.29584 0.262475 4.30958C0.25 4.36452 0.25 4.40573 0.25 4.46068C0.25 4.51563 0.25 4.55684 0.262475 4.61179C0.262475 4.61179 0.262475 4.61179 0.262475 4.62552C0.274949 4.68047 0.287424 4.72168 0.299898 4.76289V4.77663C0.312373 4.81784 0.337322 4.87279 0.362271 4.914C0.362271 4.914 0.362271 4.914 0.362271 4.92773C0.38722 4.96894 0.424644 5.01015 0.462067 5.05137L3.61813 8.51304C3.90504 8.82899 4.37907 8.82899 4.67846 8.51304C4.82816 8.3482 4.90301 8.14215 4.90301 7.93609C4.90301 7.73004 4.82816 7.51025 4.67846 7.35915L2.79481 5.28489L17.0012 5.28489C17.4129 5.28489 17.7497 4.914 17.7497 4.46068C17.7497 4.00737 17.4129 3.63647 17.0012 3.63647L2.79481 3.63647L4.67846 1.56222C4.82816 1.39737 4.90301 1.19132 4.90301 0.98527C4.90301 0.779217 4.82816 0.559429 4.67846 0.408323C4.37907 0.0649033 3.90504 0.0649033 3.61813 0.38085Z" fill="#3F4A55"/>
</g>
</svg>
