<svg width="30" height="30" viewBox="0 0 30 30" fill="none" xmlns="http://www.w3.org/2000/svg">
<g id="Icons">
<rect id="Rectangle 35" width="30" height="30" rx="15" fill="white"/>
<path id="Fill-1" fill-rule="evenodd" clip-rule="evenodd" d="M19.2431 10H13.8391C13.6225 10 13.4112 10.0887 13.259 10.2418C13.1059 10.3958 13.0198 10.608 13.0215 10.8246C13.0224 11.2742 13.3894 11.6404 13.8391 11.6404H17.2226L10.1956 18.6536C9.91897 18.9754 9.9381 19.4633 10.2382 19.7634C10.3947 19.92 10.6018 20 10.8122 20C11.0053 20 11.2002 19.9322 11.3602 19.7947L18.3655 12.8042V16.1529C18.3655 16.6035 18.7326 16.9696 19.1831 16.9696C19.6345 16.9696 20.0016 16.6035 20.0016 16.1529V10.7576C20.0016 10.3401 19.6606 10 19.2431 10Z" fill="#3F4A55"/>
</g>
</svg>
