<svg width="30" height="30" viewBox="0 0 30 30" fill="none" xmlns="http://www.w3.org/2000/svg">
<g id="Icons">
<path id="Vector" d="M14.9387 9.34422C14.6084 9.34422 14.3405 9.61219 14.3405 9.9425V15.3254C14.3405 15.5469 14.4608 15.7394 14.6396 15.8427L18.9572 18.3343C19.2432 18.4995 19.6085 18.4027 19.7731 18.1166C19.9377 17.8306 19.8415 17.4653 19.5555 17.3007L15.537 14.983V9.94305C15.537 9.61273 15.2696 9.34477 14.9393 9.34477L14.9387 9.34422ZM15 22.4692C10.8673 22.4692 7.53023 19.1327 7.53023 15C7.53023 10.8673 10.8667 7.53023 15 7.53023C19.1327 7.53023 22.4698 10.8667 22.4698 15C22.4698 19.1333 19.1333 22.4692 15 22.4692ZM15 6.25C10.1749 6.25 6.25 10.1749 6.25 15C6.25 19.8251 10.1749 23.75 15 23.75C19.8251 23.75 23.75 19.8251 23.75 15C23.75 10.1749 19.8251 6.25 15 6.25Z" fill="#3F4A55" stroke="#3F4A55" stroke-width="0.4"/>
</g>
</svg>
