<svg width="32" height="32" viewBox="0 0 32 32" fill="none" xmlns="http://www.w3.org/2000/svg">
<g id="Frame 91">
<path id="Combined-Shape" d="M17.8 6C19.2912 6 20.5 7.20883 20.5 8.7V9.6H24.1C24.5588 9.6 24.9375 9.94334 24.993 10.3871L25 10.5C25 10.9971 24.5971 11.4 24.1 11.4H23.2V23.1C23.2 24.529 22.0898 25.6988 20.6849 25.7938L20.5 25.8H11.5C10.0088 25.8 8.8 24.5912 8.8 23.1L8.79887 11.4H7.9C7.44118 11.4 7.06255 11.0567 7.00701 10.6129L7 10.5C7 10.0029 7.40294 9.6 7.9 9.6H11.5V8.7C11.5 7.27096 12.6102 6.10123 14.0151 6.00623L14.2 6H17.8ZM21.4 11.4H10.5989L10.6 23.1C10.6 23.5588 10.9433 23.9375 11.3871 23.993L11.5 24H20.5C20.9971 24 21.4 23.5971 21.4 23.1V11.4ZM14.2 14.1C14.6971 14.1 15.1 14.5029 15.1 15V20.4C15.1 20.8971 14.6971 21.3 14.2 21.3C13.7029 21.3 13.3 20.8971 13.3 20.4V15C13.3 14.5029 13.7029 14.1 14.2 14.1ZM17.8 14.1C18.2971 14.1 18.7 14.5029 18.7 15V20.4C18.7 20.8971 18.2971 21.3 17.8 21.3C17.3029 21.3 16.9 20.8971 16.9 20.4V15C16.9 14.5029 17.3029 14.1 17.8 14.1ZM17.8 7.8H14.2C13.7029 7.8 13.3 8.20294 13.3 8.7V9.6H18.7V8.7C18.7 8.24118 18.3567 7.86255 17.9129 7.80701L17.8 7.8Z" fill="white"/>
</g>
</svg>
