<svg
   xmlns="http://www.w3.org/2000/svg"
   version="1.1"
   width="24"
   height="24"
   viewBox="0 0 24 24"
   id="svg8">
  <defs
     id="defs12" />
  <title
     id="title2">location</title>
   <path d="M16-0c7.153 0 12.952 5.97 12.952 13.333 0 4.495-2.335 8.901-6.184 13.084-1.32 1.434-2.73 2.741-4.141 3.897-0.494 0.405-0.955 0.764-1.369 1.072-0.253 0.188-0.437 0.319-0.541 0.39-0.435 0.299-1.002 0.299-1.437 0-0.104-0.072-0.288-0.203-0.541-0.39-0.414-0.308-0.875-0.666-1.369-1.072-1.411-1.156-2.821-2.463-4.141-3.897-3.849-4.182-6.184-8.588-6.184-13.084 0-7.364 5.799-13.333 12.952-13.333zM16 2.667c-5.723 0-10.362 4.776-10.362 10.667 0 3.671 2.037 7.515 5.474 11.25 1.23 1.337 2.552 2.561 3.874 3.645 0.361 0.296 0.701 0.564 1.015 0.802 0.314-0.239 0.654-0.507 1.015-0.802 1.322-1.083 2.643-2.308 3.874-3.645 3.437-3.734 5.474-7.578 5.474-11.25 0-5.891-4.639-10.667-10.362-10.667zM16 8c2.861 0 5.181 2.388 5.181 5.333s-2.32 5.333-5.181 5.333c-2.861 0-5.181-2.388-5.181-5.333s2.32-5.333 5.181-5.333zM16 10.667c-1.431 0-2.59 1.194-2.59 2.667s1.16 2.667 2.59 2.667c1.431 0 2.59-1.194 2.59-2.667s-1.16-2.667-2.59-2.667z" transform="scale(0.55) translate(6 6)" fill="#307CCD"></path>
</svg>
