<svg
   xmlns="http://www.w3.org/2000/svg"
   width="24px"
   height="24px"
   viewBox="0 0 24 24"
   version="1.1"
   id="svg8">
  <defs
     id="defs12" />
  <title
     id="title2">02.Icons/Flag</title>
  <g
     id="02.Icons/Flag"
     stroke="none"
     stroke-width="1"
     fill=""
     fill-rule="evenodd">
    <path
       d="M 6,5.4444444 C 6,5.2528992 6.076091,5.0691991 6.211534,4.9337562 6.3701173,4.7751729 6.6554059,4.5849805 7.0859401,4.4127668 7.7379736,4.1519534 8.5737175,4 9.6111111,4 c 1.0230739,0 1.7207879,0.199347 3.1571159,0.7738779 1.272006,0.5088025 1.83818,0.6705665 2.620662,0.6705665 0.85844,0 1.512279,-0.1188799 1.988718,-0.3094553 0.246549,-0.09862 0.36751,-0.1792607 0.389482,-0.2012329 C 18.222064,4.4787816 19,4.8010132 19,5.4444444 v 8.6666666 c 0,0.191545 -0.07609,0.375245 -0.211534,0.510688 -0.158583,0.158584 -0.443872,0.348776 -0.874406,0.52099 -0.652034,0.260813 -1.487778,0.412767 -2.525171,0.412767 -1.023074,0 -1.720788,-0.199348 -3.157116,-0.773878 -1.272006,-0.508803 -1.83818,-0.670567 -2.6206619,-0.670567 -0.8584397,0 -1.5122791,0.11888 -1.9887178,0.309456 -0.06917,0.02767 -0.1284543,0.05392 -0.1784415,0.07786 l 4.926e-4,4.668241 c 0,0.398872 -0.3233499,0.722222 -0.7222222,0.722222 C 6.3233499,19.888889 6,19.565539 6,19.166667 v 0 z"
       id="path-1"
       fill="#307CCD"
       />
  </g>
</svg>
