<svg width="32" height="32" viewBox="0 0 32 32" fill="none" xmlns="http://www.w3.org/2000/svg">
<g id="IconsNew">
<rect width="32" height="32" rx="16" fill="#E3F5EF"/>
<path id="Union" fill-rule="evenodd" clip-rule="evenodd" d="M23 14.9998C23 11.1342 19.8663 8 16.0008 8H15.9992C12.1337 8 9 11.1337 9 14.9998C9 17.3602 10.2618 19.6733 12.3418 21.8688C13.0551 22.6217 13.8171 23.3078 14.5796 23.9147C14.8465 24.1279 15.0956 24.3158 15.3194 24.4775C15.4561 24.5757 15.5555 24.6445 15.6117 24.6823C15.8468 24.8392 16.1532 24.8392 16.3883 24.6823C16.4445 24.645 16.5439 24.5762 16.6806 24.4775C16.9044 24.3158 17.1535 24.1273 17.4204 23.9147C18.1829 23.3078 18.9449 22.6217 19.6582 21.8688C21.7382 19.6728 23 17.3596 23 14.9998ZM10.4012 15.0003C10.4012 11.9075 12.9081 9.40016 16.0008 9.40016H16.0019C19.0946 9.40016 21.6015 11.9075 21.6015 15.0003C21.6015 16.9281 20.5007 18.9462 18.6433 20.9065C17.9781 21.6084 17.2643 22.2515 16.5499 22.8201C16.3548 22.975 16.171 23.1157 16.0014 23.2412C15.8317 23.1162 15.6479 22.9755 15.4529 22.8201C14.7384 22.251 14.024 21.6084 13.3594 20.9065C11.502 18.9456 10.4012 16.9276 10.4012 15.0003ZM13.8717 15.205C14.145 14.9317 14.5882 14.9317 14.8616 15.205L15.7666 16.1101L18.0717 13.805C18.345 13.5317 18.7882 13.5317 19.0616 13.805C19.335 14.0784 19.335 14.5216 19.0616 14.795L16.2616 17.595C15.9882 17.8684 15.545 17.8684 15.2717 17.595L13.8717 16.195C13.5983 15.9216 13.5983 15.4784 13.8717 15.205Z" fill="#26A581"/>
</g>
</svg>
