<svg width="32" height="32" viewBox="0 0 32 32" fill="none" xmlns="http://www.w3.org/2000/svg">
<g id="IconsNew">
<rect width="32" height="32" rx="16" fill="#E3F5EF"/>
<path id="Combined-Shape" d="M10 9.36364C10 9.18281 10.0732 9.00938 10.2036 8.88152C10.3563 8.73181 10.6309 8.55225 11.0453 8.38968C11.6729 8.14345 12.4774 8 13.4759 8C14.4607 8 15.1323 8.18819 16.5149 8.73058C17.7393 9.21092 18.2842 9.36364 19.0374 9.36364C19.8637 9.36364 20.4931 9.25141 20.9517 9.07149C21.189 8.97839 21.3055 8.90226 21.3266 8.88152C21.7646 8.452 22.5134 8.7562 22.5134 9.36364V17.5455C22.5134 17.7263 22.4401 17.8997 22.3098 18.0276C22.1571 18.1773 21.8825 18.3568 21.4681 18.5194C20.8405 18.7656 20.036 18.9091 19.0374 18.9091C18.0527 18.9091 17.3811 18.7209 15.9985 18.1785C14.7741 17.6982 14.2291 17.5455 13.4759 17.5455C12.6496 17.5455 12.0203 17.6577 11.5617 17.8376C11.4951 17.8637 11.438 17.8885 11.3899 17.9111L11.3904 22.3182C11.3904 22.6947 11.0791 23 10.6952 23C10.3112 23 10 22.6947 10 22.3182V9.36364ZM13.4759 9.36364C12.6496 9.36364 12.0203 9.47587 11.5617 9.65578C11.4953 9.68181 11.4384 9.70652 11.3904 9.72906V16.4521C11.9598 16.2795 12.6518 16.1818 13.4759 16.1818C14.4607 16.1818 15.1323 16.37 16.5149 16.9124C17.7393 17.3927 18.2842 17.5455 19.0374 17.5455C19.8637 17.5455 20.4931 17.4332 20.9517 17.2533C21.0181 17.2273 21.075 17.2026 21.123 17.18V10.457C20.5536 10.6295 19.8616 10.7273 19.0374 10.7273C18.0527 10.7273 17.3811 10.5391 15.9985 9.99669C14.7741 9.51635 14.2291 9.36364 13.4759 9.36364Z" fill="#26A581"/>
</g>
</svg>
