<svg width="33" height="32" viewBox="0 0 33 32" fill="none" xmlns="http://www.w3.org/2000/svg">
<g id="Frame 91">
<path id="Union" fill-rule="evenodd" clip-rule="evenodd" d="M21.9563 7.16875L25.3313 10.5438C25.4438 10.6562 25.5 10.7687 25.5 10.9375V24.4375C25.5 24.775 25.275 25 24.9375 25H8.0625C7.725 25 7.5 24.775 7.5 24.4375V7.5625C7.5 7.225 7.725 7 8.0625 7H21.5625C21.7312 7 21.8438 7.05625 21.9563 7.16875ZM17.625 8.125H12V12.625H17.625V8.125ZM21 8.125H18.75V12.625H21V8.125ZM8.625 8.125V23.875H24.375V11.1625L22.125 8.9125V13.1875C22.125 13.525 21.9 13.75 21.5625 13.75H11.4375C11.1 13.75 10.875 13.525 10.875 13.1875V8.125H8.625ZM13.6875 18.8125C13.6875 17.2375 14.925 16 16.5 16C18.075 16 19.3125 17.2375 19.3125 18.8125C19.3125 20.3875 18.075 21.625 16.5 21.625C14.925 21.625 13.6875 20.3875 13.6875 18.8125ZM14.8125 18.8125C14.8125 19.7688 15.5437 20.5 16.5 20.5C17.4563 20.5 18.1875 19.7688 18.1875 18.8125C18.1875 17.8562 17.4563 17.125 16.5 17.125C15.5437 17.125 14.8125 17.8562 14.8125 18.8125Z" fill="white"/>
</g>
</svg>
