<svg width="22" height="22" viewBox="0 0 22 22" fill="none" xmlns="http://www.w3.org/2000/svg">
<path d="M17.8875 0C16.325 0 15.025 1.0625 14.6375 2.5H13.35C10.825 2.5 8.7625 4.525 8.75 6.9875V11L8.7625 14.4625C8.7625 15.7375 7.7875 16.7875 6.5625 16.9125C6.1125 15.575 4.8625 14.6125 3.375 14.6125C1.5125 14.6125 0 16.125 0 17.9875C0 19.85 1.5125 21.3625 3.375 21.3625C4.875 21.3625 6.125 20.3875 6.5625 19.0375C8.9375 18.9125 10.8375 16.9125 10.8375 14.4625V11L10.8625 7.0125C10.8625 5.6875 11.9875 4.5875 13.3375 4.5875H14.7375C15.225 5.85 16.4375 6.75 17.875 6.75C19.7375 6.75 21.25 5.2375 21.25 3.375C21.25 1.5125 19.7375 0 17.875 0H17.8875ZM3.3875 19.3625C2.625 19.3625 2.0125 18.75 2.0125 17.9875C2.0125 17.225 2.625 16.6125 3.3875 16.6125C4.15 16.6125 4.7625 17.225 4.7625 17.9875C4.7625 18.75 4.15 19.3625 3.3875 19.3625ZM17.8875 4.75C17.125 4.75 16.5125 4.1375 16.5125 3.375C16.5125 2.6125 17.125 2 17.8875 2C18.65 2 19.2625 2.6125 19.2625 3.375C19.2625 4.1375 18.65 4.75 17.8875 4.75Z" fill="#3F4A55"/>
<path d="M4.6375 10.2875H2.1375V12.7875H4.6375V10.2875Z" fill="#3F4A55"/>
<path d="M4.6375 0.7125H2.1375V3.2125H4.6375V0.7125Z" fill="#3F4A55"/>
<path d="M4.6375 5.5H2.1375V8H4.6375V5.5Z" fill="#3F4A55"/>
</svg>
